<?xml version="1.0" encoding="UTF-8" standalone="no"?>
<!-- Created with Inkscape (http://www.inkscape.org/) -->
<svg
   xmlns:dc="http://purl.org/dc/elements/1.1/"
   xmlns:cc="http://web.resource.org/cc/"
   xmlns:rdf="http://www.w3.org/1999/02/22-rdf-syntax-ns#"
   xmlns:svg="http://www.w3.org/2000/svg"
   xmlns="http://www.w3.org/2000/svg"
   xmlns:sodipodi="http://sodipodi.sourceforge.net/DTD/sodipodi-0.dtd"
   xmlns:inkscape="http://www.inkscape.org/namespaces/inkscape"
   width="48"
   height="48"
   id="svg2"
   sodipodi:version="0.32"
   inkscape:version="0.45.1"
   version="1.0"
   sodipodi:docbase="/home/qwerty/Desktop"
   sodipodi:docname="alc.svg"
   inkscape:output_extension="org.inkscape.output.svg.inkscape">
  <defs
     id="defs4" />
  <sodipodi:namedview
     id="base"
     pagecolor="#ffffff"
     bordercolor="#666666"
     borderopacity="1.0"
     inkscape:pageopacity="0.0"
     inkscape:pageshadow="2"
     inkscape:zoom="8.109756"
     inkscape:cx="54.76015"
     inkscape:cy="18.735695"
     inkscape:document-units="px"
     inkscape:current-layer="layer1"
     inkscape:window-width="1061"
     inkscape:window-height="858"
     inkscape:window-x="88"
     inkscape:window-y="88"
     width="48px"
     height="48px"
     showgrid="true"
     inkscape:object-bbox="false"
     objecttolerance="10000"
     gridtolerance="10000"
     guidetolerance="10000" />
  <metadata
     id="metadata7">
    <rdf:RDF>
      <cc:Work
         rdf:about="">
        <dc:format>image/svg+xml</dc:format>
        <dc:type
           rdf:resource="http://purl.org/dc/dcmitype/StillImage" />
      </cc:Work>
    </rdf:RDF>
  </metadata>
  <g
     inkscape:label="Ebene 1"
     inkscape:groupmode="layer"
     id="layer1"
     transform="translate(-244.3829,-331.6479)">
    <path
       style="fill:#000000"
       d="M 269.27039,379.04221 C 268.27223,378.13718 266.60752,377.0842 266.17488,377.0842 C 265.96519,377.0842 265.09926,377.42827 264.25062,377.84881 C 262.921,378.50768 262.69278,378.57794 262.60045,378.35679 C 262.37044,377.8058 261.85293,374.09377 261.98872,373.96894 C 262.06857,373.89554 262.56667,374.03504 263.1129,374.28378 C 263.65233,374.52944 264.59721,374.92356 265.21261,375.15961 L 266.33154,375.58878 L 266.96601,375.29543 C 267.31498,375.13409 268.14741,374.7357 268.81586,374.4101 C 269.48431,374.08451 270.05801,373.84496 270.09075,373.87777 C 270.12348,373.91058 270.20467,375.23258 270.27115,376.81557 C 270.40764,380.06501 270.40498,380.07092 269.27039,379.04221 z M 271.78977,377.27662 C 271.73586,377.22707 271.69175,376.95787 271.69175,376.6784 C 271.69175,376.31842 271.8013,376.10666 272.06749,375.95211 C 272.81543,375.51785 278.77568,373.82286 279.62381,373.80324 L 280.45876,373.78392 L 280.43215,374.29958 C 280.41752,374.5832 280.33491,374.88017 280.24859,374.95952 C 280.16226,375.03888 278.63375,375.5085 276.85189,376.00316 C 272.06049,377.33326 271.89632,377.37457 271.78977,377.27662 z M 265.72832,374.21652 C 265.25965,373.55911 265.21685,371.62535 265.65354,370.83852 L 265.99397,370.22511 L 265.21082,370.05866 C 262.52656,369.48815 259.60587,368.06767 258.44919,366.77011 C 257.44874,365.64783 257.10233,364.76243 257.10943,363.34585 C 257.11826,361.58539 257.76686,360.12425 259.3187,358.36886 C 260.29963,357.25924 262.25494,355.82482 263.62158,355.21225 C 264.98031,354.60323 267.94868,353.84395 269.67129,353.66481 C 270.24317,353.60533 270.64992,353.50429 270.5752,353.44028 C 270.50047,353.37626 269.89429,353.14533 269.22813,352.92709 C 267.63822,352.40621 265.05397,351.39382 263.59272,350.71937 C 261.838,349.90948 260.58062,349.07196 258.93777,347.61878 C 255.15604,344.27365 252.89507,340.84587 251.99775,337.09717 C 251.80542,336.29367 251.33102,333.28425 251.38749,333.22591 C 251.40545,333.20736 253.05379,334.03627 255.05045,335.06792 C 258.89367,337.05369 261.08776,338.45731 263.67621,340.58608 C 265.82556,342.35373 267.34515,344.00963 271.4801,349.09003 L 274.99437,353.40785 L 275.07965,349.70404 C 275.14827,346.72439 275.23079,345.74514 275.5017,344.69547 C 276.48056,340.90296 278.34704,337.77104 281.38937,334.81607 C 282.73784,333.50635 285.01908,331.64789 285.27832,331.64789 C 285.44603,331.64789 285.40292,337.15201 285.21398,339.86282 C 284.75717,346.41726 283.17372,350.56042 279.79544,354.04069 C 279.28773,354.56372 278.87509,355.04084 278.87842,355.10098 C 278.88176,355.16111 279.26082,355.65928 279.72075,356.20806 C 280.82144,357.52133 281.82478,359.43094 282.15114,360.83371 C 282.63364,362.90765 282.21411,367.70152 281.36824,369.77967 C 280.93148,370.85275 280.4387,371.22844 278.13412,372.2453 C 276.32393,373.04402 272.30728,374.47467 271.87501,374.47467 C 271.70397,374.47467 271.68248,374.2101 271.77526,373.24667 C 271.88488,372.10824 271.87059,372.01866 271.57931,372.01866 C 271.40649,372.01866 271.11687,372.11059 270.93571,372.22295 C 270.75455,372.3353 269.57598,372.9241 268.31666,373.53137 L 266.02701,374.63551 L 265.72832,374.21652 z M 265.58852,360.90282 C 266.31251,360.62477 266.51505,360.26248 266.51505,359.24558 C 266.51505,358.23078 266.21251,357.80402 265.34001,357.58805 C 263.865,357.22296 262.84126,357.90814 262.84126,359.26045 C 262.84126,360.15885 263.10252,360.64538 263.71669,360.89075 C 264.41513,361.16978 264.88559,361.17281 265.58852,360.90282 z "
       id="path1933" />
  </g>
</svg>
