<?xml version="1.0" encoding="UTF-8" standalone="no"?>
<!-- Created with Inkscape (http://www.inkscape.org/) -->
<svg
   xmlns:dc="http://purl.org/dc/elements/1.1/"
   xmlns:cc="http://web.resource.org/cc/"
   xmlns:rdf="http://www.w3.org/1999/02/22-rdf-syntax-ns#"
   xmlns:svg="http://www.w3.org/2000/svg"
   xmlns="http://www.w3.org/2000/svg"
   xmlns:sodipodi="http://sodipodi.sourceforge.net/DTD/sodipodi-0.dtd"
   xmlns:inkscape="http://www.inkscape.org/namespaces/inkscape"
   width="48px"
   height="48px"
   id="svg2108"
   sodipodi:version="0.32"
   inkscape:version="0.45.1"
   sodipodi:docbase="/home/qwerty/.icons/MonoIce/scalable/apps"
   sodipodi:docname="amule.svg"
   inkscape:export-filename="/home/jesusda/docs/themes/iconos/pasodoble/amule_48.png"
   inkscape:export-xdpi="90"
   inkscape:export-ydpi="90"
   inkscape:output_extension="org.inkscape.output.svg.inkscape">
  <defs
     id="defs3">
    <linearGradient
       id="linearGradient34648">
      <stop
         id="stop34650"
         offset="0"
         style="stop-color:white;stop-opacity:1;" />
      <stop
         id="stop34652"
         offset="1"
         style="stop-color:white;stop-opacity:0" />
    </linearGradient>
    <linearGradient
       id="linearGradient25671">
      <stop
         style="stop-color:white;stop-opacity:1;"
         offset="0"
         id="stop25673" />
      <stop
         style="stop-color:white;stop-opacity:0;"
         offset="1"
         id="stop25675" />
    </linearGradient>
    <linearGradient
       id="linearGradient19466">
      <stop
         style="stop-color:#f1f1f1;stop-opacity:1;"
         offset="0"
         id="stop19468" />
      <stop
         style="stop-color:#babdb6;stop-opacity:1;"
         offset="1"
         id="stop19470" />
    </linearGradient>
    <linearGradient
       id="linearGradient11455">
      <stop
         style="stop-color:#e7a53c;stop-opacity:1;"
         offset="0"
         id="stop11457" />
      <stop
         style="stop-color:#c17d11;stop-opacity:1;"
         offset="1"
         id="stop11459" />
    </linearGradient>
  </defs>
  <sodipodi:namedview
     inkscape:showpageshadow="false"
     id="base"
     pagecolor="#ffffff"
     bordercolor="#666666"
     borderopacity="1.0"
     inkscape:pageopacity="0.0"
     inkscape:pageshadow="2"
     inkscape:zoom="7.9999999"
     inkscape:cx="29.223256"
     inkscape:cy="25.727597"
     inkscape:current-layer="layer1"
     showgrid="true"
     inkscape:grid-bbox="true"
     inkscape:document-units="px"
     fill="#9db029"
     stroke="#727e0a"
     inkscape:window-width="1144"
     inkscape:window-height="785"
     inkscape:window-x="2"
     inkscape:window-y="42"
     objecttolerance="10000"
     gridtolerance="10000"
     guidetolerance="10000" />
  <metadata
     id="metadata4">
    <rdf:RDF>
      <cc:Work
         rdf:about="">
        <dc:format>image/svg+xml</dc:format>
        <dc:type
           rdf:resource="http://purl.org/dc/dcmitype/StillImage" />
        <dc:title>aMule</dc:title>
        <dc:creator>
          <cc:Agent>
            <dc:title>jEsuSdA 8)</dc:title>
          </cc:Agent>
        </dc:creator>
        <dc:source>http://www.jesusda.com</dc:source>
        <dc:subject>
          <rdf:Bag>
            <rdf:li>amule</rdf:li>
            <rdf:li>xmule</rdf:li>
            <rdf:li>edonkey</rdf:li>
            <rdf:li>p2p</rdf:li>
          </rdf:Bag>
        </dc:subject>
        <cc:license
           rdf:resource="http://creativecommons.org/licenses/by-sa/2.0/" />
      </cc:Work>
      <cc:License
         rdf:about="http://creativecommons.org/licenses/by-sa/2.0/">
        <cc:permits
           rdf:resource="http://web.resource.org/cc/Reproduction" />
        <cc:permits
           rdf:resource="http://web.resource.org/cc/Distribution" />
        <cc:requires
           rdf:resource="http://web.resource.org/cc/Notice" />
        <cc:requires
           rdf:resource="http://web.resource.org/cc/Attribution" />
        <cc:permits
           rdf:resource="http://web.resource.org/cc/DerivativeWorks" />
        <cc:requires
           rdf:resource="http://web.resource.org/cc/ShareAlike" />
      </cc:License>
    </rdf:RDF>
  </metadata>
  <g
     id="layer1"
     inkscape:label="cipek"
     inkscape:groupmode="layer"
     style="display:inline">
    <path
       style="fill:#000000;fill-opacity:1;fill-rule:evenodd;stroke:none;stroke-width:3.00000024;stroke-linecap:butt;stroke-linejoin:miter;stroke-miterlimit:4;stroke-dasharray:none;stroke-opacity:1;display:inline"
       d="M 22.5,10.625 C 20.849273,10.789612 19.239892,11.554694 17.78125,12.5625 C 16.322608,13.570306 15.019414,14.809773 14.34375,16.3125 C 12.609431,20.16976 14.0625,24.553892 14.0625,27.875 C 14.0625,29.358221 13.469795,31.932585 13.15625,34.25 C 12.999478,35.408707 12.898819,36.51425 13.09375,37.59375 C 13.288681,38.67325 14.039678,39.948315 15.3125,40.3125 C 18.408917,41.198454 23.097715,40.734214 27.8125,39.8125 C 32.527285,38.890786 37.025151,37.543242 39.5,35.65625 C 40.029069,35.252853 40.398748,34.573533 40.46875,33.9375 C 40.538752,33.301467 40.384816,32.764147 40.1875,32.28125 C 39.792868,31.315455 39.169454,30.452509 38.46875,29.5625 C 37.067341,27.782482 35.384101,25.821309 34.9375,24.71875 C 34.415215,23.429336 34.231074,21.697217 33.96875,19.875 C 33.706426,18.052783 33.338488,16.058195 32,14.4375 C 30.940105,13.154137 29.38706,12.244634 27.6875,11.5625 C 25.98794,10.880366 24.166619,10.458804 22.5,10.625 z M 22.8125,13.59375 C 23.69082,13.506163 25.19605,13.795313 26.5625,14.34375 C 27.92895,14.892187 29.165689,15.743171 29.6875,16.375 C 30.392167,17.228239 30.754676,18.577122 31,20.28125 C 31.245324,21.985378 31.393793,23.961402 32.15625,25.84375 C 32.999083,27.924519 34.801152,29.795691 36.09375,31.4375 C 36.740049,32.258405 37.24226,33.004912 37.40625,33.40625 C 35.792544,34.527298 31.586205,35.996046 27.25,36.84375 C 22.774059,37.718772 18.01298,37.946443 16.125,37.40625 C 16.055022,37.386228 16.117645,37.540941 16.03125,37.0625 C 15.944855,36.584059 15.985473,35.687495 16.125,34.65625 C 16.404054,32.593761 17.0625,30.049383 17.0625,27.875 C 17.0625,23.880896 16.051308,19.849723 17.09375,17.53125 C 17.393746,16.864037 18.328633,15.81898 19.46875,15.03125 C 20.608867,14.24352 21.964881,13.678276 22.8125,13.59375 z "
       id="path826" />
    <path
       style="fill:#000000;fill-opacity:1;fill-rule:evenodd;stroke:none;stroke-width:3.00000024;stroke-linecap:butt;stroke-linejoin:miter;stroke-miterlimit:4;stroke-dasharray:none;stroke-opacity:1"
       d="M 34.59375,37.8125 C 33.923733,37.8732 33.225619,38.018126 32.5625,38.21875 C 31.899381,38.419374 31.282114,38.669362 30.71875,39 C 30.155386,39.330638 29.508523,39.644364 29.25,40.6875 C 29.02919,41.578459 29.241319,42.249783 29.5,42.90625 C 29.758681,43.562717 30.136218,44.190114 30.5625,44.8125 C 31.415064,46.057271 32.349975,47.207873 33.75,47.78125 C 34.514865,48.094499 35.148766,47.997597 35.75,47.875 C 36.351234,47.752403 36.940036,47.546238 37.5,47.28125 C 38.059964,47.016262 38.566311,46.722812 39.03125,46.34375 C 39.496189,45.964688 39.976307,45.570912 40.1875,44.71875 C 40.553917,43.240264 40.006002,42.087771 39.375,40.90625 C 38.743998,39.724729 38.007721,38.597542 36.625,38.03125 C 35.886274,37.728706 35.263767,37.7518 34.59375,37.8125 z M 34.84375,40.78125 C 35.257794,40.74374 35.60208,40.823057 35.5,40.78125 C 35.523231,40.790764 36.281261,41.493323 36.71875,42.3125 C 37.156239,43.131677 37.236257,44.181546 37.28125,44 C 37.364217,43.665231 37.370163,43.825598 37.15625,44 C 36.942337,44.174402 36.591865,44.385933 36.21875,44.5625 C 35.845635,44.739067 35.445923,44.878433 35.15625,44.9375 C 34.866577,44.996567 34.66247,44.912959 34.875,45 C 34.700447,44.928512 33.677896,44.069125 33.03125,43.125 C 32.707927,42.652938 32.457293,42.148698 32.3125,41.78125 C 32.237962,41.59209 32.230102,41.671236 32.21875,41.59375 C 32.485168,41.43739 32.95218,41.240581 33.4375,41.09375 C 33.92282,40.946919 34.429706,40.81876 34.84375,40.78125 z "
       id="path916" />
    <path
       style="fill:#000000;fill-opacity:1;fill-rule:evenodd;stroke:none;stroke-width:3.00000024;stroke-linecap:butt;stroke-linejoin:miter;stroke-miterlimit:4;stroke-dasharray:none;stroke-opacity:1"
       d="M 29.59375,8.25 C 28.168167,8.2829596 26.784813,8.5069964 25.625,8.96875 C 24.872365,9.2683954 24.530416,9.7488286 24.1875,10.21875 C 23.844584,10.688671 23.572704,11.205085 23.375,11.75 L 22.78125,13.40625 L 24.5,13.71875 C 26.304886,14.066222 28.480773,15.166289 29.4375,16.125 L 29.75,16.4375 L 30.1875,16.53125 C 32.894043,17.098399 35.851293,17.564835 38.3125,17.84375 C 39.543104,17.983208 40.645653,18.06963 41.5625,18.09375 C 42.479347,18.11787 43.087027,18.213598 43.9375,17.875 C 44.351925,17.710006 44.935184,17.046906 44.96875,16.4375 C 45.002316,15.828094 44.801711,15.5311 44.65625,15.3125 C 44.365328,14.8753 44.079398,14.637417 43.71875,14.34375 C 42.997455,13.756417 41.983808,13.09412 40.84375,12.40625 C 38.563635,11.03051 35.785386,9.5869603 33.78125,8.875 C 32.489754,8.4162007 31.031342,8.2167628 29.59375,8.25 z M 29.65625,11.25 C 30.759994,11.224481 31.939854,11.388597 32.78125,11.6875 C 34.3454,12.243157 37.092327,13.631146 39.21875,14.90625 C 39.009177,14.884973 38.875917,14.899894 38.65625,14.875 C 36.375393,14.616523 33.581123,14.151874 31.03125,13.625 C 30.056837,12.778559 28.881512,12.133845 27.59375,11.625 C 28.232701,11.461184 28.864563,11.268304 29.65625,11.25 z "
       id="path837" />
    <path
       style="fill:#000000;fill-opacity:1;fill-rule:evenodd;stroke:none;stroke-width:3.00000024;stroke-miterlimit:4;stroke-dasharray:none;stroke-opacity:1"
       d="M 7.375,0.09375 C 7.2925714,0.12119474 7.0911904,0.20392099 6.8125,0.4375 C 6.5338096,0.67107901 6.2600942,1.1387336 6.21875,1.5 C 6.1493387,2.1065185 6.2787057,2.5109401 6.40625,3.03125 C 6.5337943,3.5515599 6.7060257,4.1308742 6.9375,4.78125 C 7.4004486,6.0820017 8.0491832,7.635394 8.8125,9.3125 C 10.339134,12.666712 12.284354,16.456047 14,19.1875 L 16,22.34375 L 16.75,18.6875 C 16.844047,18.226807 16.959411,17.830031 17.09375,17.53125 C 17.418004,16.810085 18.547246,15.635255 19.84375,14.8125 L 20.8125,14.1875 L 20.46875,13.09375 C 20.078216,11.807037 19.530004,10.564254 18.75,9.5 C 17.466022,7.7481159 15.258953,5.466077 13.1875,3.5625 C 12.151774,2.6107115 11.155348,1.7463323 10.3125,1.125 C 9.8910762,0.81433386 9.5106903,0.57680577 9.125,0.375 C 8.9321548,0.27409712 8.7514675,0.16499606 8.5,0.09375 C 8.2485325,0.022503938 7.9054642,-0.082868669 7.375,0.09375 z M 10.25,5 C 10.569859,5.2779581 10.818263,5.4394047 11.15625,5.75 C 13.119791,7.5544106 15.279568,9.8406467 16.3125,11.25 C 16.649874,11.71032 16.92109,12.410321 17.1875,13.0625 C 16.416301,13.649248 15.772649,14.319068 15.21875,15.0625 C 13.954976,12.821977 12.6171,10.479504 11.53125,8.09375 C 11.001344,6.9294774 10.629455,5.9669018 10.25,5 z "
       id="path839" />
    <path
       sodipodi:type="arc"
       style="fill:#000000;fill-opacity:1;fill-rule:evenodd;stroke:#000000;stroke-width:14.39480495;stroke-miterlimit:4;stroke-dasharray:none;stroke-opacity:1"
       id="path829"
       sodipodi:cx="320.64716"
       sodipodi:cy="683.87244"
       sodipodi:rx="167.95804"
       sodipodi:ry="128.25887"
       d="M 488.60519 683.87244 A 167.95804 128.25887 0 1 1  152.68912,683.87244 A 167.95804 128.25887 0 1 1  488.60519 683.87244 z"
       transform="matrix(7.9707615e-2,-1.2009306e-2,1.5255573e-2,5.8247936e-2,-9.354171,0.3736775)" />
    <path
       sodipodi:type="arc"
       style="fill-rule:evenodd;stroke:#000000;stroke-width:0.74640436pt;fill:#000000;fill-opacity:1"
       id="path863"
       sodipodi:cx="297.23483"
       sodipodi:cy="487.41241"
       sodipodi:rx="24.43026"
       sodipodi:ry="23.412333"
       d="M 321.66509 487.41241 A 24.43026 23.412333 0 1 1  272.80457,487.41241 A 24.43026 23.412333 0 1 1  321.66509 487.41241 z"
       transform="matrix(0.1023782,-2.1608562e-2,1.7295275e-2,0.1279104,-16.855638,-31.815609)" />
    <path
       sodipodi:type="arc"
       style="fill-rule:evenodd;stroke:#000000;stroke-width:0.80502539pt;fill:#000000;fill-opacity:1"
       id="path857"
       sodipodi:cx="297.23483"
       sodipodi:cy="487.41241"
       sodipodi:rx="24.43026"
       sodipodi:ry="23.412333"
       d="M 321.66509 487.41241 A 24.43026 23.412333 0 1 1  272.80457,487.41241 A 24.43026 23.412333 0 1 1  321.66509 487.41241 z"
       transform="matrix(9.6275386e-2,0,0,0.1180795,-0.5588137,-34.382628)" />
  </g>
  <g
     inkscape:groupmode="layer"
     id="layer2"
     inkscape:label="dalsi cipek"
     style="display:inline" />
</svg>
