<?xml version="1.0" encoding="UTF-8" standalone="no"?>
<!-- Created with Inkscape (http://www.inkscape.org/) -->
<svg
   xmlns:dc="http://purl.org/dc/elements/1.1/"
   xmlns:cc="http://web.resource.org/cc/"
   xmlns:rdf="http://www.w3.org/1999/02/22-rdf-syntax-ns#"
   xmlns:svg="http://www.w3.org/2000/svg"
   xmlns="http://www.w3.org/2000/svg"
   xmlns:sodipodi="http://sodipodi.sourceforge.net/DTD/sodipodi-0.dtd"
   xmlns:inkscape="http://www.inkscape.org/namespaces/inkscape"
   id="svg2"
   sodipodi:version="0.32"
   inkscape:version="0.45.1"
   width="48"
   height="48"
   version="1.0"
   sodipodi:docbase="/home/qwerty/.icons/qw3rtY_new/scalable/apps"
   sodipodi:docname="anjuta_icon.svg"
   inkscape:output_extension="org.inkscape.output.svg.inkscape">
  <metadata
     id="metadata7">
    <rdf:RDF>
      <cc:Work
         rdf:about="">
        <dc:format>image/svg+xml</dc:format>
        <dc:type
           rdf:resource="http://purl.org/dc/dcmitype/StillImage" />
      </cc:Work>
    </rdf:RDF>
  </metadata>
  <defs
     id="defs5" />
  <sodipodi:namedview
     inkscape:window-height="614"
     inkscape:window-width="772"
     inkscape:pageshadow="2"
     inkscape:pageopacity="0.0"
     guidetolerance="10000"
     gridtolerance="10000"
     objecttolerance="10000"
     borderopacity="1.0"
     bordercolor="#666666"
     pagecolor="#ffffff"
     id="base"
     width="48px"
     height="48px"
     showgrid="true"
     inkscape:zoom="9.1460674"
     inkscape:cx="23.230785"
     inkscape:cy="14.445365"
     inkscape:window-x="507"
     inkscape:window-y="409"
     inkscape:current-layer="svg2" />
  <path
     style="fill:#000000;stroke:#000000;stroke-width:2;stroke-miterlimit:4;stroke-dasharray:none;stroke-opacity:1"
     d="M 24.264808,46.39019 C 22.866473,45.544004 21.882842,42.023069 22.087771,38.597423 C 22.260445,35.710975 22.241881,35.678041 20.271103,35.374535 C 17.546987,34.955012 15.962466,32.58276 15.630127,28.426329 C 15.30852,24.404129 16.345763,23.236524 17.23763,26.616793 C 18.097659,29.876398 20.02251,32.91472 21.255175,32.958363 C 24.480895,33.072578 28.134891,33.662115 29.551168,34.296838 C 31.079833,34.981929 30.974054,35.039708 27.620536,35.351408 L 24.072627,35.681175 L 23.89001,38.654892 C 23.719626,41.429429 23.86558,41.784674 26.069084,43.958669 C 27.368016,45.240204 28.270645,46.454808 28.074932,46.657792 C 27.536008,47.216731 25.380506,47.065341 24.264808,46.39019 z M 36.274407,40.226214 C 34.313933,38.331916 34.953995,37.557341 38.326399,37.742983 C 41.515743,37.918548 42.805205,37.032371 43.471065,34.207332 C 43.897437,32.398381 42.417435,29.241737 41.142933,29.241737 C 39.358455,29.241737 35.688599,25.515807 32.676701,20.64614 C 30.514992,17.15107 29.302667,15.749582 28.441039,15.749582 C 27.176482,15.749582 23.382349,12.274752 23.975359,11.659719 C 24.163696,11.464388 25.275687,11.890735 26.446452,12.607157 C 27.617216,13.32358 29.025565,13.918926 29.57612,13.930148 C 30.732749,13.953722 33.238058,15.961537 33.238058,16.864908 C 33.238058,17.848379 38.553051,24.335499 39.358825,24.335499 C 39.762483,24.335499 41.610518,25.81221 43.465563,27.617076 C 47.236738,31.28624 47.60445,32.750716 45.878117,37.225489 C 44.346251,41.196189 39.005357,42.864975 36.274407,40.226214 z M 1.4237883,39.02047 C 0.76820623,37.931728 0.83318734,37.618662 1.9011429,36.720671 C 2.7854639,35.977088 3.6063011,33.64355 4.7846124,28.523325 C 5.6905874,24.586509 6.9418054,20.619275 7.5650976,19.70725 C 8.188389,18.795225 9.1435549,17.354072 9.6876888,16.504685 C 10.231823,15.655298 11.030103,14.732381 11.461645,14.453759 C 12.105019,14.038364 12.109128,13.717728 11.484471,12.67261 C 10.529564,11.074954 10.424452,5.2956189 11.318778,3.5624885 C 11.977128,2.2866643 12.024137,2.3016084 13.744326,4.3335608 C 14.70913,5.4732217 15.498514,6.6234843 15.498514,6.8896992 C 15.498514,7.1559149 15.938895,7.8784154 16.477139,8.4952564 C 17.462597,9.6246211 17.116914,9.9265478 15.122307,9.678589 C 14.128496,9.555044 13.641581,11.376457 14.317999,12.687294 C 15.148065,14.295894 15.050558,15.136302 14.033851,15.136302 C 12.553724,15.136302 11.345238,17.829342 9.3015206,25.682007 C 5.9150719,38.693902 3.5937953,42.624255 1.4237883,39.02047 z M 26.142239,9.964754 C 26.142239,8.5364185 23.838921,8.1419766 22.551954,9.3499206 C 21.444286,10.389577 21.41179,10.351717 21.414993,8.0253179 C 21.419453,4.7868543 22.481689,1.0308697 23.393106,1.0308697 C 23.801858,1.0308697 24.98677,1.9409297 26.026244,3.0532254 C 27.891076,5.048702 28.4391,7.489908 27.557272,9.8732679 C 27.109473,11.083548 26.142239,11.146083 26.142239,9.964754 z "
     id="path2226" />
</svg>
