<?xml version="1.0" encoding="UTF-8" standalone="no"?>
<!-- Created with Inkscape (http://www.inkscape.org/) -->
<svg
   xmlns:dc="http://purl.org/dc/elements/1.1/"
   xmlns:cc="http://web.resource.org/cc/"
   xmlns:rdf="http://www.w3.org/1999/02/22-rdf-syntax-ns#"
   xmlns:svg="http://www.w3.org/2000/svg"
   xmlns="http://www.w3.org/2000/svg"
   xmlns:xlink="http://www.w3.org/1999/xlink"
   xmlns:sodipodi="http://sodipodi.sourceforge.net/DTD/sodipodi-0.dtd"
   xmlns:inkscape="http://www.inkscape.org/namespaces/inkscape"
   width="48"
   height="48"
   id="svg2"
   sodipodi:version="0.32"
   inkscape:version="0.45.1"
   version="1.0"
   sodipodi:docbase="/home/qwerty/.icons/MonoIce/scalable/apps"
   sodipodi:docname="avant-window-navigator-48.svg"
   inkscape:export-filename="/home/njp/svn/avant-window-navigator/data/avant-window-navigator-48.png"
   inkscape:export-xdpi="33.75"
   inkscape:export-ydpi="33.75"
   inkscape:output_extension="org.inkscape.output.svg.inkscape">
  <defs
     id="defs4">
    <linearGradient
       id="linearGradient2822">
      <stop
         style="stop-color:#f2aa00;stop-opacity:1;"
         offset="0"
         id="stop2824" />
      <stop
         style="stop-color:#9f5a00;stop-opacity:1;"
         offset="1"
         id="stop2826" />
    </linearGradient>
    <linearGradient
       id="linearGradient2782">
      <stop
         id="stop2784"
         offset="0"
         style="stop-color:white;stop-opacity:1;" />
      <stop
         id="stop2786"
         offset="1"
         style="stop-color:white;stop-opacity:0.26041666;" />
    </linearGradient>
    <linearGradient
       id="linearGradient2770">
      <stop
         style="stop-color:white;stop-opacity:0.625;"
         offset="0"
         id="stop2772" />
      <stop
         style="stop-color:black;stop-opacity:0;"
         offset="1"
         id="stop2774" />
    </linearGradient>
    <linearGradient
       inkscape:collect="always"
       xlink:href="#linearGradient2822"
       id="linearGradient2832"
       x1="26.769184"
       y1="25.668007"
       x2="26.814625"
       y2="32.48019"
       gradientUnits="userSpaceOnUse" />
  </defs>
  <sodipodi:namedview
     id="base"
     pagecolor="#ffffff"
     bordercolor="#666666"
     borderopacity="1.0"
     gridtolerance="10000"
     guidetolerance="10000"
     objecttolerance="10000"
     inkscape:pageopacity="0.0"
     inkscape:pageshadow="2"
     inkscape:zoom="5.6568542"
     inkscape:cx="3.7945325"
     inkscape:cy="29.060431"
     inkscape:document-units="px"
     inkscape:current-layer="layer1"
     width="48px"
     height="48px"
     inkscape:window-width="1072"
     inkscape:window-height="807"
     inkscape:window-x="129"
     inkscape:window-y="100"
     showgrid="true" />
  <metadata
     id="metadata7">
    <rdf:RDF>
      <cc:Work
         rdf:about="">
        <dc:format>image/svg+xml</dc:format>
        <dc:type
           rdf:resource="http://purl.org/dc/dcmitype/StillImage" />
      </cc:Work>
    </rdf:RDF>
  </metadata>
  <g
     inkscape:label="Layer 1"
     inkscape:groupmode="layer"
     id="layer1"
     style="display:inline">
    <path
       style="opacity:1;fill:#000000;fill-opacity:1;stroke:#000000;stroke-width:1;stroke-linejoin:miter;stroke-miterlimit:4;stroke-dasharray:none;stroke-opacity:1"
       d="M 9.15625 0.5 C 4.3574699 0.5 0.5 4.3574701 0.5 9.15625 L 0.5 38.84375 C 0.5 43.64253 4.3574698 47.5 9.15625 47.5 L 38.84375 47.5 C 43.64253 47.5 47.5 43.642528 47.5 38.84375 L 47.5 9.15625 C 47.5 4.3574699 43.642532 0.5 38.84375 0.5 L 9.15625 0.5 z M 26.21875 5.53125 C 29.542782 5.5312868 32.375146 5.9415162 34.71875 6.78125 C 37.086208 7.6210573 39.009959 8.8829902 40.46875 10.5625 C 41.377444 11.58664 42.023589 12.859343 42.40625 14.375 C 42.788839 15.870228 42.968713 18.114137 42.96875 21.125 L 42.96875 40.78125 L 36.34375 40.78125 L 36.34375 35.6875 C 34.932788 37.735727 33.152237 39.235605 31 40.21875 C 28.871627 41.181415 26.279728 41.65625 23.21875 41.65625 C 19.129433 41.65625 15.845474 40.685042 13.40625 38.71875 C 10.967014 36.731974 9.7499934 34.068126 9.75 30.75 C 9.7499937 26.919836 11.260733 24.018046 14.25 22.03125 C 17.263154 20.044496 21.657621 19.062521 27.46875 19.0625 L 36.34375 19.0625 L 36.34375 18.15625 C 36.319799 15.411653 35.508462 13.416461 33.90625 12.1875 C 32.303982 10.938117 29.734093 10.312531 26.21875 10.3125 C 23.970808 10.312531 21.701979 10.603259 19.40625 11.15625 C 17.110489 11.709303 14.863667 12.5287 12.6875 13.59375 L 12.6875 7.9375 C 15.126717 7.1387276 17.463478 6.5454504 19.6875 6.15625 C 21.935397 5.746642 24.114295 5.5312868 26.21875 5.53125 z M 27.96875 23.46875 C 24.118571 23.468766 21.210938 24.05128 19.25 25.21875 C 17.312952 26.365772 16.343736 28.081005 16.34375 30.375 C 16.343735 32.443716 17.072482 34.07175 18.53125 35.21875 C 19.989992 36.36576 22.011015 36.937504 24.59375 36.9375 C 28.228663 36.937505 31.106953 35.869389 33.1875 33.71875 C 35.267991 31.547641 36.319797 28.52846 36.34375 24.71875 L 36.34375 23.46875 L 30.15625 23.46875 L 27.96875 23.46875 z "
       id="rect1872" />
  </g>
</svg>
