<?xml version="1.0" encoding="UTF-8" standalone="no"?>
<!-- Generator: Adobe Illustrator 9.0, SVG Export Plug-In  -->
<svg
   xmlns:dc="http://purl.org/dc/elements/1.1/"
   xmlns:cc="http://web.resource.org/cc/"
   xmlns:rdf="http://www.w3.org/1999/02/22-rdf-syntax-ns#"
   xmlns:svg="http://www.w3.org/2000/svg"
   xmlns="http://www.w3.org/2000/svg"
   xmlns:sodipodi="http://sodipodi.sourceforge.net/DTD/sodipodi-0.dtd"
   xmlns:inkscape="http://www.inkscape.org/namespaces/inkscape"
   width="48"
   height="48"
   viewBox="0 0 24 24"
   xml:space="preserve"
   id="svg2"
   sodipodi:version="0.32"
   inkscape:version="0.45.1"
   sodipodi:docname="dialog-close.svg"
   sodipodi:docbase="/home/qwerty/.icons/MonoIce/scalable/actions"
   inkscape:output_extension="org.inkscape.output.svg.inkscape"
   version="1.0"><metadata
   id="metadata33"><rdf:RDF><cc:Work
       rdf:about=""><dc:format>image/svg+xml</dc:format><dc:type
         rdf:resource="http://purl.org/dc/dcmitype/StillImage" /></cc:Work></rdf:RDF></metadata><defs
   id="defs31" /><sodipodi:namedview
   inkscape:window-height="717"
   inkscape:window-width="1117"
   inkscape:pageshadow="2"
   inkscape:pageopacity="0.0"
   guidetolerance="10.0"
   gridtolerance="10.0"
   objecttolerance="10.0"
   borderopacity="1.0"
   bordercolor="#666666"
   pagecolor="#ffffff"
   id="base"
   width="48px"
   height="48px"
   inkscape:zoom="6.7833333"
   inkscape:cx="-2.9027373"
   inkscape:cy="22.319633"
   inkscape:window-x="2"
   inkscape:window-y="67"
   inkscape:current-layer="svg2" />
	<g
   id="Layer_x0020_2"
   style="fill-rule:nonzero;stroke:#000000;stroke-miterlimit:4;fill:#000000;fill-opacity:1">
		<path
   style="fill:#000000;fill-opacity:1;stroke:none;stroke-width:0.86339998;stroke-opacity:1"
   d="M 23.8125 1.125 C 11.342427 1.125 1.125 11.342427 1.125 23.8125 C 1.125 36.282574 11.342427 46.4375 23.8125 46.4375 C 36.282574 46.437502 46.4375 36.282574 46.4375 23.8125 C 46.437502 11.342427 36.282574 1.125 23.8125 1.125 z M 30.40625 12.9375 C 31.25625 12.9375 32.1125 13.3 32.8125 14 C 34.2125 15.4 34.212501 17.412501 32.8125 18.8125 L 28 23.59375 L 33 28.59375 C 34.4 29.99375 34.4 32.006248 33 33.40625 C 31.6 34.80625 29.587499 34.806248 28.1875 33.40625 L 23.40625 28.59375 L 18.59375 33.40625 C 17.19375 34.80625 15.2125 34.806248 13.8125 33.40625 C 12.4125 32.00625 12.4125 29.99375 13.8125 28.59375 L 18.59375 23.8125 L 13.8125 19 C 12.4125 17.6 12.4125 15.5875 13.8125 14.1875 C 15.2125 12.7875 17.19375 12.7875 18.59375 14.1875 L 23.1875 18.8125 L 28 14 C 28.7 13.3 29.55625 12.9375 30.40625 12.9375 z "
   transform="scale(0.5,0.5)"
   id="path5" />
		<radialGradient
   id="aigrd1"
   cx="8.7368002"
   cy="7.9433999"
   r="13.575"
   fx="8.7368002"
   fy="7.9433999"
   gradientUnits="userSpaceOnUse">
			<stop
   offset="0"
   style="stop-color:#FED182"
   id="stop8" />
			<stop
   offset="0.2809"
   style="stop-color:#FFB310"
   id="stop10" />
			<stop
   offset="1"
   style="stop-color:#996E04"
   id="stop12" />
		</radialGradient>
		
		
		
		<radialGradient
   id="aigrd2"
   cx="9.0107002"
   cy="8.3765001"
   r="9.2812996"
   fx="9.0107002"
   fy="8.3765001"
   gradientUnits="userSpaceOnUse">
			<stop
   offset="0"
   style="stop-color:#FFFFFF"
   id="stop21" />
			<stop
   offset="1"
   style="stop-color:#F0E1BD"
   id="stop23" />
		</radialGradient>
		
	</g>
	<g
   id="Layer_x0020_3"
   style="fill-rule:nonzero;stroke:#000000;stroke-miterlimit:4">
		<path
   style="fill:none;stroke:none"
   d="M 24,24 L 0,24 L 0,0 L 24,0 L 24,24 z "
   id="path28" />
	</g>
</svg>