<?xml version="1.0" encoding="UTF-8" standalone="no"?>
<!-- Created with Inkscape (http://www.inkscape.org/) -->
<svg
   xmlns:dc="http://purl.org/dc/elements/1.1/"
   xmlns:cc="http://web.resource.org/cc/"
   xmlns:rdf="http://www.w3.org/1999/02/22-rdf-syntax-ns#"
   xmlns:svg="http://www.w3.org/2000/svg"
   xmlns="http://www.w3.org/2000/svg"
   xmlns:sodipodi="http://sodipodi.sourceforge.net/DTD/sodipodi-0.dtd"
   xmlns:inkscape="http://www.inkscape.org/namespaces/inkscape"
   id="svg2"
   sodipodi:version="0.32"
   inkscape:version="0.45.1"
   width="48"
   height="48"
   version="1.0"
   sodipodi:docbase="/home/qwerty/Desktop"
   sodipodi:docname="Azureus.svg"
   inkscape:output_extension="org.inkscape.output.svg.inkscape">
  <metadata
     id="metadata7">
    <rdf:RDF>
      <cc:Work
         rdf:about="">
        <dc:format>image/svg+xml</dc:format>
        <dc:type
           rdf:resource="http://purl.org/dc/dcmitype/StillImage" />
      </cc:Work>
    </rdf:RDF>
  </metadata>
  <defs
     id="defs5" />
  <sodipodi:namedview
     inkscape:window-height="614"
     inkscape:window-width="772"
     inkscape:pageshadow="2"
     inkscape:pageopacity="0.0"
     guidetolerance="10000"
     gridtolerance="10000"
     objecttolerance="10000"
     borderopacity="1.0"
     bordercolor="#666666"
     pagecolor="#ffffff"
     id="base"
     width="48px"
     height="48px"
     showgrid="true"
     inkscape:zoom="5.6568543"
     inkscape:cx="12.885785"
     inkscape:cy="23.21565"
     inkscape:window-x="382"
     inkscape:window-y="288"
     inkscape:current-layer="svg2" />
  <path
     style="fill:#000000"
     d="M 23.914488,44.652987 C 23.832087,44.43317 23.936746,44.106973 24.147064,43.928122 C 24.357382,43.749262 24.644442,43.486544 24.784975,43.344303 C 25.242049,42.881672 27.521021,39.233333 27.418491,39.128379 C 27.205007,38.909834 24.890482,40.949145 24.887438,41.358466 C 24.885287,41.64761 24.674431,41.792598 24.25609,41.792598 C 23.456974,41.792598 23.241718,40.966592 23.969059,40.691156 C 24.516075,40.484005 28.85387,35.425422 28.657164,35.224054 C 28.445867,35.007751 24.777263,34.548549 16.926316,33.755692 C 11.876716,33.245743 9.9123051,30.546919 13.726095,29.359039 C 14.02727,29.265232 14.44421,29.045168 14.652632,28.870002 C 14.861052,28.694837 16.141013,28.117277 17.496988,27.586538 C 19.999041,26.607207 20.256388,26.343926 19.021677,26.026691 C 18.389835,25.864352 17.243318,25.383945 15.28421,24.460643 C 14.356721,24.02353 14.344911,24.036564 13.639744,26.275564 C 12.715578,29.209907 12.045061,29.344931 6.6947364,27.674101 C 5.212901,27.211346 3.8043736,27.29495 2.5390709,27.920761 C 1.1887906,28.588602 0.69316274,28.620965 0.8035704,28.034081 C 0.86057417,27.731069 1.3965169,27.463045 2.5273563,27.172015 C 4.3091871,26.713451 4.2780376,26.684062 1.5651484,26.264286 C 0.74138254,26.136821 0.49703222,25.993075 0.5575223,25.671524 C 0.66298846,25.110906 1.5157892,24.941127 1.5157892,25.480746 C 1.5157892,25.785394 1.7788444,25.887635 2.5626441,25.887635 L 3.6094987,25.887635 L 2.4502052,24.981475 C 1.812591,24.483086 1.0004537,23.962265 0.64545323,23.824098 C 0.29045549,23.685929 4.6833413e-24,23.449972 4.6833413e-24,23.299746 C 4.6833413e-24,22.836657 0.81262968,22.675303 1.1102171,23.079303 C 1.3508865,23.406033 2.968388,24.608094 3.9890727,25.21875 C 4.402398,25.466034 4.1567946,24.23434 3.6162009,23.348808 C 3.3292165,22.87871 3.3157008,22.669075 3.5534601,22.375805 C 3.9606945,21.87349 4.6330455,22.420897 4.4567062,23.111198 C 4.1795516,24.196151 5.174885,25.80067 6.2281336,25.966817 C 9.8308811,26.535141 11.62097,26.499215 11.623247,25.858547 C 11.624455,25.518946 11.694322,24.654397 11.778509,23.937326 L 11.931571,22.63356 L 10.828943,21.889105 C 4.7357277,17.775179 4.5227694,13.612445 10.357894,12.681371 C 11.122106,12.559431 12.098509,12.386488 12.527681,12.297055 C 13.037724,12.190771 13.431485,12.258101 13.664523,12.491444 C 14.663164,13.491384 16.387782,13.479591 18.465582,12.458619 L 20.426049,11.495297 L 19.62355,9.8702733 L 18.821052,8.2452503 L 16.849048,8.3792973 C 15.106611,8.4977383 14.886499,8.4633893 14.958282,8.0842283 C 15.025115,7.7312123 15.296427,7.6708173 16.488182,7.7436643 C 17.284943,7.7923673 17.936842,7.7769423 17.936842,7.7093853 C 17.936842,7.4967683 14.759181,5.4568654 14.427973,5.4568654 C 14.01378,5.4568654 14.170785,4.3683125 14.606165,4.2214427 C 14.78903,4.1597556 14.994705,4.3287352 15.063222,4.5969519 C 15.177262,5.0433887 17.595625,6.6682237 17.813732,6.4449499 C 17.964001,6.2911215 16.900728,4.6810134 16.648876,4.6810134 C 16.333907,4.6810134 16.361747,3.9732085 16.684749,3.7688508 C 16.974601,3.5854695 17.740292,4.1202791 17.576446,4.3916693 C 17.520235,4.4847749 17.803439,5.0129233 18.205793,5.5653319 L 18.937343,6.5697116 L 18.879197,4.7848561 C 18.833753,3.3898924 18.899183,3.0000003 19.178724,3.0000003 C 19.450499,3.0000003 19.551841,3.4761723 19.600737,4.9828569 C 19.668286,7.0644553 19.865361,7.6527273 20.942311,8.9874653 C 23.699032,12.404054 23.636895,11.840943 21.424825,13.360246 C 19.751732,14.509367 19.656521,14.621928 20.224825,14.778914 C 21.192254,15.046156 23.760132,16.495643 25.010527,17.480294 C 26.725493,18.830785 27.020495,18.984337 27.14796,18.592849 C 27.20785,18.408914 27.502417,16.982507 27.802556,15.423056 C 28.628608,11.131116 28.961641,10.611802 30.52924,11.171217 C 32.288043,11.798868 35.974014,18.155308 37.872562,23.834744 C 38.232126,24.910367 38.639999,25.80585 38.778947,25.8247 C 39.182791,25.8795 43.728366,21.681634 43.981899,21.019743 C 44.270634,20.265959 45.063354,20.366091 45.175465,21.170512 C 45.247429,21.68687 45.019301,21.872392 44.417981,21.786519 C 44.323659,21.773051 43.898393,22.341157 43.472947,23.048981 C 43.047501,23.756803 42.754786,24.33593 42.822474,24.33593 C 43.081233,24.33593 46.608944,21.64937 47.000986,21.153747 C 47.23044,20.863671 47.542938,20.71526 47.706454,20.818711 C 48.282852,21.183387 47.97841,21.883226 47.046112,22.336683 C 46.528646,22.588372 45.764209,23.088959 45.347368,23.449098 L 44.589473,24.103899 L 45.599998,23.929929 C 46.155789,23.834248 46.718525,23.653697 46.850526,23.528712 C 47.356181,23.049921 47.999999,23.284768 47.999999,23.948007 C 47.999999,24.478081 47.874851,24.596653 47.305263,24.606236 C 46.923156,24.612662 46.098946,24.898348 45.473684,25.241092 L 44.336841,25.864263 L 45.521932,25.875949 C 46.173731,25.882377 46.777282,25.771257 46.863157,25.629018 C 47.206908,25.059639 47.999999,25.353326 47.999999,26.049997 C 47.999999,26.696847 47.951803,26.721707 46.999818,26.565869 C 46.245854,26.44245 45.11432,26.655807 42.403333,27.432558 C 38.976566,28.414392 38.784186,28.441888 38.322471,28.01581 C 37.392701,27.157795 34.219612,22.642787 32.652631,19.948158 L 31.073682,17.232949 L 31.073682,20.779208 C 31.073682,24.909663 30.048065,28.215191 28.766492,28.215191 C 28.623261,28.215191 27.827167,28.622515 26.997396,29.120352 C 26.167625,29.618192 25.352705,30.026576 25.186462,30.027877 C 25.020225,30.029177 24.315788,30.316484 23.621051,30.666333 C 22.926315,31.016184 22.130526,31.313939 21.852631,31.328016 C 21.347368,31.353607 21.347368,31.353607 21.852631,31.561612 C 23.068966,32.062352 24.925121,32.614142 25.389267,32.612966 C 26.461928,32.610249 31.326467,34.502258 31.320222,34.919748 C 31.316873,35.14383 30.868725,37.127229 30.324342,39.327306 C 29.612527,42.204027 29.409325,43.419667 29.600801,43.655851 C 29.927628,44.058984 29.696106,44.766703 29.237399,44.766703 C 28.633245,44.766703 28.294799,44.215343 28.572684,43.683808 C 28.712546,43.416278 28.792488,42.64856 28.750333,41.977762 L 28.673683,40.758134 L 28.170396,42.180524 C 27.893588,42.962849 27.696901,43.851434 27.733312,44.155169 C 27.804679,44.750463 27.266697,45.101446 26.652631,44.860224 C 26.211483,44.686926 26.159517,44.211168 26.539271,43.822419 C 26.685345,43.672884 26.963724,42.934033 27.157893,42.180524 C 27.352065,41.427024 27.423307,40.915114 27.316208,41.042947 C 26.333363,42.216077 25.438827,43.601741 25.287145,44.186027 C 25.079666,44.985232 24.156727,45.299211 23.914488,44.652987 z "
     id="path2161" />
</svg>
