<?xml version="1.0" encoding="UTF-8" standalone="no"?>
<!-- Created with Inkscape (http://www.inkscape.org/) -->
<svg
   xmlns:dc="http://purl.org/dc/elements/1.1/"
   xmlns:cc="http://web.resource.org/cc/"
   xmlns:rdf="http://www.w3.org/1999/02/22-rdf-syntax-ns#"
   xmlns:svg="http://www.w3.org/2000/svg"
   xmlns="http://www.w3.org/2000/svg"
   xmlns:sodipodi="http://sodipodi.sourceforge.net/DTD/sodipodi-0.dtd"
   xmlns:inkscape="http://www.inkscape.org/namespaces/inkscape"
   id="svg2"
   sodipodi:version="0.32"
   inkscape:version="0.45.1"
   width="48"
   height="48"
   version="1.0"
   sodipodi:docbase="/home/qwerty/.icons/qw3rtY_new/scalable/apps"
   sodipodi:docname="debian-logo.svg"
   inkscape:output_extension="org.inkscape.output.svg.inkscape">
  <metadata
     id="metadata7">
    <rdf:RDF>
      <cc:Work
         rdf:about="">
        <dc:format>image/svg+xml</dc:format>
        <dc:type
           rdf:resource="http://purl.org/dc/dcmitype/StillImage" />
      </cc:Work>
    </rdf:RDF>
  </metadata>
  <defs
     id="defs5" />
  <sodipodi:namedview
     inkscape:window-height="614"
     inkscape:window-width="772"
     inkscape:pageshadow="2"
     inkscape:pageopacity="0.0"
     guidetolerance="10000"
     gridtolerance="10000"
     objecttolerance="10000"
     borderopacity="1.0"
     bordercolor="#666666"
     pagecolor="#ffffff"
     id="base"
     showgrid="true"
     width="48px"
     height="48px"
     inkscape:zoom="5.2325902"
     inkscape:cx="0.98768078"
     inkscape:cy="16.748691"
     inkscape:window-x="1"
     inkscape:window-y="42"
     inkscape:current-layer="svg2" />
  <path
     style="fill:#000000;stroke:#000000;stroke-width:2.99999976;stroke-linejoin:round;stroke-miterlimit:4;stroke-dasharray:none;stroke-opacity:1"
     d="M 6.5434286,22.208675 C 5.9604675,13.322174 11.306823,5.641778 18.948176,2.5641449 C 37.582455,-3.829438 50.298526,20.297007 34.030711,29.427983 C 32.400733,30.190653 31.540223,30.269578 29.68959,30.26907 C 27.838945,30.268563 26.429669,30.19101 24.484257,28.816025 C 22.538858,27.441042 19.333429,22.918355 20.955111,18.435745 C 21.945437,16.223956 24.089324,14.190455 25.877561,13.76673 C 27.331972,13.422112 28.861893,13.554644 29.906831,14.115775 C 30.446119,14.405378 30.316507,14.433047 28.895962,14.331556 C 26.472905,14.158443 25.010234,14.66491 23.36586,16.246418 C 21.518105,18.023534 20.884122,19.947022 21.407891,22.18681 C 22.137597,25.30722 23.688158,27.409534 26.116156,28.570469 C 33.628245,31.051435 38.487609,26.001523 39.082534,19.013039 C 37.735439,8.2262196 31.347704,4.0693501 20.44212,6.375553 C 13.879378,9.0259979 9.3089718,14.218738 8.5584029,21.151483 C 8.9703803,31.28588 14.135187,41.387364 23.401325,46.02703 C 24.29409,46.431953 24.360686,46.510254 23.802705,46.498988 C 11.685033,42.816939 7.1263909,31.095177 6.5434286,22.208675 z "
     id="path2163"
     sodipodi:nodetypes="ccczzcsssssccccccz" />
</svg>
