<?xml version="1.0" encoding="UTF-8" standalone="no"?>
<!-- Generator: Adobe Illustrator 9.0, SVG Export Plug-In  -->
<svg
   xmlns:dc="http://purl.org/dc/elements/1.1/"
   xmlns:cc="http://web.resource.org/cc/"
   xmlns:rdf="http://www.w3.org/1999/02/22-rdf-syntax-ns#"
   xmlns:svg="http://www.w3.org/2000/svg"
   xmlns="http://www.w3.org/2000/svg"
   xmlns:sodipodi="http://sodipodi.sourceforge.net/DTD/sodipodi-0.dtd"
   xmlns:inkscape="http://www.inkscape.org/namespaces/inkscape"
   width="48"
   height="48"
   viewBox="0 0 48 48"
   xml:space="preserve"
   id="svg2"
   sodipodi:version="0.32"
   inkscape:version="0.45.1"
   sodipodi:docname="gimv.svg"
   sodipodi:docbase="/home/qwerty/.icons/MonoIce/scalable/apps"
   version="1.0"
   inkscape:output_extension="org.inkscape.output.svg.inkscape"><metadata
   id="metadata23"><rdf:RDF><cc:Work
       rdf:about=""><dc:format>image/svg+xml</dc:format><dc:type
         rdf:resource="http://purl.org/dc/dcmitype/StillImage" /><dc:title>Empty Trash Icon</dc:title><dc:subject><rdf:Bag><rdf:li>trash</rdf:li><rdf:li>delete</rdf:li><rdf:li>deleted files</rdf:li><rdf:li>waste</rdf:li><rdf:li>recycle</rdf:li><rdf:li>bin</rdf:li><rdf:li>empty</rdf:li></rdf:Bag></dc:subject><dc:description>An empty trash bin</dc:description><cc:license
         rdf:resource="http://creativecommons.org/licenses/LGPL/2.1/" /></cc:Work><cc:License
       rdf:about="http://creativecommons.org/licenses/LGPL/2.1/"><cc:permits
         rdf:resource="http://web.resource.org/cc/Reproduction" /><cc:permits
         rdf:resource="http://web.resource.org/cc/Distribution" /><cc:requires
         rdf:resource="http://web.resource.org/cc/Notice" /><cc:permits
         rdf:resource="http://web.resource.org/cc/DerivativeWorks" /><cc:requires
         rdf:resource="http://web.resource.org/cc/ShareAlike" /><cc:requires
         rdf:resource="http://web.resource.org/cc/SourceCode" /></cc:License></rdf:RDF></metadata><defs
   id="defs21" /><sodipodi:namedview
   inkscape:window-height="947"
   inkscape:window-width="1268"
   inkscape:pageshadow="2"
   inkscape:pageopacity="0.0"
   borderopacity="1.0"
   bordercolor="#666666"
   pagecolor="#ffffff"
   id="base"
   showgrid="true"
   inkscape:grid-bbox="true"
   inkscape:grid-points="true"
   inkscape:zoom="5.6568543"
   inkscape:cx="74.016594"
   inkscape:cy="-1.9086797"
   inkscape:window-x="6"
   inkscape:window-y="42"
   inkscape:current-layer="svg2"
   showguides="true"
   inkscape:guide-bbox="true"
   objecttolerance="10000"
   gridtolerance="10000"
   guidetolerance="10000"><sodipodi:guide
     orientation="vertical"
     position="24"
     id="guide4179" /></sodipodi:namedview>
	
	
<path
   style="fill:#000000;fill-opacity:1;fill-rule:evenodd;stroke:none;stroke-width:3.99999952;stroke-linecap:butt;stroke-linejoin:miter;stroke-miterlimit:4;stroke-dasharray:none;stroke-opacity:1"
   d="M 24,15 C 18.136435,15 12.360231,16.553513 7.90625,18.96875 C 3.4522689,21.383987 -0.031250025,24.724518 -0.03125,28.9375 C -0.03125,33.150482 3.4522689,36.491013 7.90625,38.90625 C 12.360231,41.321487 18.136435,42.875001 24,42.875 C 29.863564,42.875 35.608519,41.321487 40.0625,38.90625 C 44.516481,36.491013 47.999999,33.150482 48,28.9375 C 48,24.724518 44.516481,21.383987 40.0625,18.96875 C 35.608519,16.553513 29.863564,15 24,15 z M 24,19 C 29.140544,19 34.357149,20.439882 38.15625,22.5 C 41.955351,24.560118 44,27.18334 44,28.9375 C 44,30.69166 41.955351,33.314882 38.15625,35.375 C 34.357149,37.435118 29.140544,38.875 24,38.875 C 18.859455,38.875001 13.611601,37.435119 9.8125,35.375 C 6.0133989,33.314881 3.96875,30.691659 3.96875,28.9375 C 3.96875,27.183341 6.0133989,24.560118 9.8125,22.5 C 13.611601,20.439882 18.859455,19 24,19 z "
   id="path2224" /><path
   style="fill:none;fill-rule:evenodd;stroke:#000000;stroke-width:4;stroke-linecap:butt;stroke-linejoin:miter;stroke-opacity:1;stroke-miterlimit:4;stroke-dasharray:none"
   d="M 24,13 L 24,2.0000001"
   id="path4181" /><path
   style="fill:none;fill-rule:evenodd;stroke:#000000;stroke-width:4;stroke-linecap:butt;stroke-linejoin:miter;stroke-opacity:1;stroke-miterlimit:4;stroke-dasharray:none"
   d="M 11,15 L 7,7"
   id="path5152"
   sodipodi:nodetypes="cc" /><path
   style="fill:none;fill-rule:evenodd;stroke:#000000;stroke-width:4;stroke-linecap:butt;stroke-linejoin:miter;stroke-opacity:1;stroke-miterlimit:4;stroke-dasharray:none"
   d="M 37,15 L 42,7"
   id="path5154"
   sodipodi:nodetypes="cc" /><path
   sodipodi:type="arc"
   style="opacity:1;color:#000000;fill:#000000;fill-opacity:1;fill-rule:nonzero;stroke:#000000;stroke-width:3.33333325;stroke-linecap:round;stroke-linejoin:round;marker:none;marker-start:none;marker-mid:none;marker-end:none;stroke-miterlimit:4;stroke-dasharray:none;stroke-dashoffset:0;stroke-opacity:1;visibility:visible;display:inline;overflow:visible;enable-background:accumulate"
   id="path5156"
   sodipodi:cx="24"
   sodipodi:cy="29"
   sodipodi:rx="5"
   sodipodi:ry="5"
   d="M 29 29 A 5 5 0 1 1  19,29 A 5 5 0 1 1  29 29 z"
   transform="matrix(1.2,0,0,1.2,-4.8,-5.8)" /></svg>