<?xml version="1.0" encoding="UTF-8" standalone="no"?>
<svg
   xmlns:dc="http://purl.org/dc/elements/1.1/"
   xmlns:cc="http://web.resource.org/cc/"
   xmlns:rdf="http://www.w3.org/1999/02/22-rdf-syntax-ns#"
   xmlns:svg="http://www.w3.org/2000/svg"
   xmlns="http://www.w3.org/2000/svg"
   xmlns:sodipodi="http://sodipodi.sourceforge.net/DTD/sodipodi-0.dtd"
   xmlns:inkscape="http://www.inkscape.org/namespaces/inkscape"
   version="1.1"
   width="128.012"
   height="128"
   viewBox="0 0 128.012 128"
   overflow="visible"
   enable-background="new 0 0 128.012 128"
   xml:space="preserve"
   id="svg2"
   sodipodi:version="0.32"
   inkscape:version="0.45"
   sodipodi:docname="gnome-session-switch.svg"
   sodipodi:docbase="/home/martino/.icons/ALLBLACK/true-scalable/apps"
   inkscape:output_extension="org.inkscape.output.svg.inkscape"
   sodipodi:modified="true"><sodipodi:namedview
   inkscape:window-height="628"
   inkscape:window-width="794"
   inkscape:pageshadow="2"
   inkscape:pageopacity="0.0"
   guidetolerance="10.0"
   gridtolerance="10.0"
   objecttolerance="10.0"
   borderopacity="1.0"
   bordercolor="#666666"
   pagecolor="#ffffff"
   id="base"
   inkscape:zoom="3.296875"
   inkscape:cx="17.867046"
   inkscape:cy="56.168796"
   inkscape:window-x="7"
   inkscape:window-y="30"
   inkscape:current-layer="svg2" /><metadata
   id="metadata61"><rdf:RDF><cc:Work
       rdf:about=""><dc:format>image/svg+xml</dc:format><dc:type
         rdf:resource="http://purl.org/dc/dcmitype/StillImage" /></cc:Work></rdf:RDF></metadata><defs
   id="defs59" />
	
	
	
	<linearGradient
   id="XMLID_7_"
   x1="89.2207"
   y1="70.1709"
   x2="77.3565"
   gradientUnits="userSpaceOnUse"
   y2="20.8161">
		<stop
   offset="0"
   id="stop11"
   style="stop-color:#6e6e6e" />
		<stop
   offset="1"
   id="stop13"
   style="stop-color:#7b7b7b" />
	</linearGradient>
	<path
   fill="url(#XMLID_7_)"
   d="M96.201,19.082c-0.366,0.158-0.604,0.519-0.604,0.918c0,0,0,15.216,0,17c-1.927,0-52,0-52,0   c-0.553,0-1,0.447-1,1v17.9c0,0.553,0.447,1,1,1c0,0,50.073,0,52,0c0,1.814,0,17,0,17c0,0.403,0.243,0.768,0.615,0.923   c0.373,0.155,0.803,0.071,1.089-0.213l29.414-26.201c0.192-0.191,0.3-0.452,0.296-0.724c-0.004-0.271-0.117-0.528-0.314-0.714   L97.283,19.272C96.993,18.998,96.567,18.924,96.201,19.082z"
   id="path15"
   style="fill:#000000" />
	
		<linearGradient
   id="XMLID_8_"
   x1="595.1641"
   y1="44.3291"
   gradientTransform="matrix(-1 0 0 1 676.1953 0)"
   x2="579.538"
   gradientUnits="userSpaceOnUse"
   y2="75.266">
		<stop
   offset="0"
   id="stop18"
   style="stop-color:#7f7f7f" />
		<stop
   offset="1"
   id="stop20"
   style="stop-color:#949494" />
	</linearGradient>
	
	
	<linearGradient
   id="XMLID_9_"
   x1="43.5977"
   y1="37.9502"
   x2="122.6445"
   gradientUnits="userSpaceOnUse"
   y2="37.9502">
		<stop
   offset="0"
   id="stop27"
   style="stop-color:#b1b1b1" />
		<stop
   offset="1"
   id="stop29"
   style="stop-color:#a3a3a3" />
	</linearGradient>
	
	
	<linearGradient
   id="XMLID_10_"
   x1="1"
   y1="78.9502"
   x2="85.4141"
   gradientUnits="userSpaceOnUse"
   y2="78.9502">
		<stop
   offset="0"
   id="stop36"
   style="stop-color:#6e6e6e" />
		<stop
   offset="1"
   id="stop38"
   style="stop-color:#7b7b7b" />
	</linearGradient>
	<path
   fill="url(#XMLID_10_)"
   d="M30.729,51.272L1.314,78.972C1.117,79.157,1.004,79.415,1,79.686   c-0.004,0.271,0.104,0.532,0.296,0.724L30.71,106.61c0.286,0.284,0.716,0.368,1.089,0.213c0.372-0.155,0.615-0.52,0.615-0.923   c0,0,0-15.186,0-17c1.927,0,52,0,52,0c0.553,0,1-0.447,1-1V70c0-0.553-0.447-1-1-1c0,0-50.073,0-52,0c0-1.784,0-17,0-17   c0-0.399-0.237-0.76-0.604-0.918S31.02,50.998,30.729,51.272z"
   id="path40"
   style="fill:#000000" />
	<linearGradient
   id="XMLID_11_"
   x1="8.1543"
   y1="64.207"
   x2="80.3187"
   gradientUnits="userSpaceOnUse"
   y2="98.6413">
		<stop
   offset="0"
   id="stop43"
   style="stop-color:#7f7f7f" />
		<stop
   offset="1"
   id="stop45"
   style="stop-color:#949494" />
	</linearGradient>
	
	
	<linearGradient
   id="XMLID_12_"
   x1="15.6523"
   y1="59.7617"
   x2="19.4666"
   gradientUnits="userSpaceOnUse"
   y2="76.9257">
		<stop
   offset="0"
   id="stop52"
   style="stop-color:#b1b1b1" />
		<stop
   offset="1"
   id="stop54"
   style="stop-color:#a3a3a3" />
	</linearGradient>
	
</svg>