<?xml version="1.0" encoding="UTF-8" standalone="no"?>
<!-- Created with Sodipodi ("http://www.sodipodi.com/") -->
<svg
   xmlns:dc="http://purl.org/dc/elements/1.1/"
   xmlns:cc="http://web.resource.org/cc/"
   xmlns:rdf="http://www.w3.org/1999/02/22-rdf-syntax-ns#"
   xmlns:svg="http://www.w3.org/2000/svg"
   xmlns="http://www.w3.org/2000/svg"
   xmlns:xlink="http://www.w3.org/1999/xlink"
   xmlns:sodipodi="http://sodipodi.sourceforge.net/DTD/sodipodi-0.dtd"
   xmlns:inkscape="http://www.inkscape.org/namespaces/inkscape"
   version="1.0"
   x="0"
   y="0"
   width="48"
   height="48"
   id="svg1"
   sodipodi:version="0.32"
   inkscape:version="0.45.1"
   sodipodi:docname="gnome-gimp.svg"
   sodipodi:docbase="/home/qwerty/.icons/MonoIce/scalable/apps"
   inkscape:output_extension="org.inkscape.output.svg.inkscape">
  <metadata
     id="metadata21">
    <rdf:RDF>
      <cc:Work
         rdf:about="">
        <dc:format>image/svg+xml</dc:format>
        <dc:type
           rdf:resource="http://purl.org/dc/dcmitype/StillImage" />
      </cc:Work>
    </rdf:RDF>
  </metadata>
  <sodipodi:namedview
     inkscape:window-height="616"
     inkscape:window-width="772"
     inkscape:pageshadow="2"
     inkscape:pageopacity="0.0"
     guidetolerance="10000"
     gridtolerance="10000"
     objecttolerance="10000"
     borderopacity="1.0"
     bordercolor="#666666"
     pagecolor="#ffffff"
     id="base"
     showgrid="true"
     inkscape:zoom="27.133333"
     inkscape:cx="23.009161"
     inkscape:cy="22.851492"
     inkscape:window-x="136"
     inkscape:window-y="93"
     inkscape:current-layer="svg1"
     width="48px"
     height="48px" />
  <defs
     id="defs3">
    <linearGradient
       id="linearGradient900">
      <stop
         style="stop-color:#000000;stop-opacity:1;"
         offset="0"
         id="stop901" />
      <stop
         style="stop-color:#ffffff;stop-opacity:1;"
         offset="1"
         id="stop902" />
    </linearGradient>
    <linearGradient
       id="linearGradient903"
       xlink:href="#linearGradient900" />
    <linearGradient
       id="linearGradient904"
       xlink:href="#linearGradient900" />
    <linearGradient
       id="linearGradient905"
       xlink:href="#linearGradient900" />
    <linearGradient
       id="linearGradient906"
       xlink:href="#linearGradient900" />
    <linearGradient
       id="linearGradient907"
       xlink:href="#linearGradient900" />
  </defs>
  <path
     style="font-size:12px;fill:#000000;fill-opacity:1;fill-rule:evenodd;stroke:none;stroke-width:1.8900342;stroke-opacity:1"
     d="M 13.659937,18.669169 C 11.088149,18.669169 8.984021,20.8627 8.9840219,23.543763 C 8.9840219,26.224826 11.088149,28.418357 13.659937,28.418357 C 16.231725,28.418357 18.335852,26.224826 18.335852,23.543763 C 18.335852,20.8627 16.231725,18.669169 13.659937,18.669169 z M 13.659937,20.600015 C 15.238122,20.600015 16.514067,21.898522 16.514067,23.543763 C 16.514067,25.189005 15.238122,26.519164 13.659937,26.519164 C 12.081752,26.519164 10.805807,25.189005 10.805807,23.543763 C 10.805806,21.898522 12.081752,20.600015 13.659937,20.600015 z "
     id="path881" />
  <path
     style="font-size:12px;fill:#000000;fill-opacity:1;fill-rule:evenodd;stroke:none;stroke-width:2;stroke-linecap:round;stroke-linejoin:round;stroke-miterlimit:4;stroke-dasharray:none;stroke-opacity:1"
     d="M 47.53125 5.84375 C 46.311467 5.5415422 42.962919 13.203534 40 15.90625 C 34.074158 20.907189 23.357295 22.653675 9.8125 7.0625 C 9.8125 7.0625 11.777519 16.490365 12.90625 18.84375 C 13.052775 19.149252 13.118678 19.421366 13.15625 19.6875 C 13.322988 19.663897 13.483334 19.625 13.65625 19.625 C 15.731237 19.624999 17.40625 21.399348 17.40625 23.5625 C 17.406249 25.725653 15.731237 27.46875 13.65625 27.46875 C 13.020512 27.46875 12.431404 27.290826 11.90625 27 C 12.566693 28.189624 13.049778 29.528919 13.25 30.9375 C 13.838507 35.077694 11.904311 38.192376 8.90625 38.09375 C 11.229151 39.746294 14.806581 40.955869 19.84375 41.625 C 15.336728 41.009711 12.094119 39.922744 9.78125 38.5 C 13.303613 38.646691 26.992655 39.225502 30.125 31.1875 C 31.379855 32.042386 30.154696 38.04633 27.53125 41.46875 C 26.626812 41.698093 25.769741 42.0625 24.78125 42.0625 C 22.981587 41.966289 21.346091 41.830096 19.84375 41.625 C 21.36174 41.826648 22.985553 41.997751 24.78125 42.09375 C 31.835832 42.09375 36.902522 34.793521 38.03125 31.5 C 39.352565 27.546551 46.394215 21.484732 47.34375 14.71875 C 48.216753 8.3480658 48.170184 6.0020493 47.53125 5.84375 z M 22.375 21 C 24.58272 21 26.375 22.854724 26.375 25.15625 C 26.375001 27.457776 24.582721 29.34375 22.375 29.34375 C 20.167279 29.34375 18.375 27.457776 18.375 25.15625 C 18.375 22.854724 20.167279 21 22.375 21 z "
     id="path878" />
  <path
     sodipodi:type="arc"
     style="opacity:1;color:#000000;fill:#000000;fill-opacity:1;fill-rule:nonzero;stroke:none;stroke-width:2.99999976;stroke-linecap:round;stroke-linejoin:round;marker:none;marker-start:none;marker-mid:none;marker-end:none;stroke-miterlimit:4;stroke-dasharray:none;stroke-dashoffset:0;stroke-opacity:1;visibility:visible;display:inline;overflow:visible;enable-background:accumulate"
     id="path3139"
     sodipodi:cx="26.998623"
     sodipodi:cy="31.541992"
     sodipodi:rx="1.3551432"
     sodipodi:ry="1.1466596"
     d="M 28.353766 31.541992 A 1.3551432 1.1466596 0 1 1  25.64348,31.541992 A 1.3551432 1.1466596 0 1 1  28.353766 31.541992 z"
     transform="matrix(1.0760052,0,0,1.2864299,-6.7025561,-15.101465)" />
  <path
     sodipodi:type="arc"
     style="opacity:1;color:#000000;fill:#000000;fill-opacity:1;fill-rule:nonzero;stroke:none;stroke-width:2.99999976;stroke-linecap:round;stroke-linejoin:round;marker:none;marker-start:none;marker-mid:none;marker-end:none;stroke-miterlimit:4;stroke-dasharray:none;stroke-dashoffset:0;stroke-opacity:1;visibility:visible;display:inline;overflow:visible;enable-background:accumulate"
     id="path3141"
     sodipodi:cx="26.998623"
     sodipodi:cy="31.541992"
     sodipodi:rx="1.3551432"
     sodipodi:ry="1.1466596"
     d="M 28.353766 31.541992 A 1.3551432 1.1466596 0 1 1  25.64348,31.541992 A 1.3551432 1.1466596 0 1 1  28.353766 31.541992 z"
     transform="matrix(0.7379293,0,0,0.959721,-6.9230748,-6.171039)" />
  <path
     style="font-size:12px;fill:#000000;fill-opacity:1;fill-rule:evenodd;stroke:none;stroke-width:2.29879999;stroke-linecap:round;stroke-linejoin:round;stroke-opacity:1"
     d="M 14.823517,31.113018 C 14.47292,28.646538 13.419758,26.311981 11.899907,24.452609 C 10.380056,22.593236 8.308995,21.180017 6.1426808,20.937902 C 3.9763666,20.695786 2.2039482,21.679442 1.1721603,23.253634 C 0.14037249,24.827826 -0.27238877,26.998545 0.078208525,29.465025 C 0.42880569,31.931505 1.4819681,34.266061 3.0018191,36.125434 C 4.5216701,37.984807 6.6354707,39.402802 8.8017849,39.644918 C 10.968099,39.887033 12.697778,38.8986 13.729565,37.324409 C 14.761353,35.750217 15.174114,33.579498 14.823517,31.113018 z M 11.660755,30.759535 C 11.920805,32.589009 11.60095,34.145626 10.939554,35.154714 C 10.278157,36.163802 9.3766744,36.584566 8.3504691,36.469874 C 7.3242637,36.355181 6.2293853,35.711296 5.2551306,34.519401 C 4.2808759,33.327506 3.5010204,31.647981 3.2409704,29.818507 C 2.9809202,27.989034 3.3007752,26.432417 3.9621718,25.423329 C 4.6235683,24.414241 5.5616924,23.955347 6.5878978,24.07004 C 7.6141031,24.184732 8.6723404,24.866747 9.6465951,26.058642 C 10.62085,27.250537 11.400705,28.930062 11.660755,30.759535 z "
     id="path879" />
  <path
     style="font-size:12px;fill:#000000;fill-opacity:1;fill-rule:evenodd;stroke:none;stroke-width:3.12500119;stroke-linecap:round;stroke-linejoin:round;stroke-opacity:1"
     d="M 29.96875,29.625 C 29.376578,29.681353 28.867758,30.069026 28.65625,30.625 C 27.374209,33.914883 23.794809,35.582231 19.78125,36.375 C 15.767691,37.167769 11.607299,37.010944 9.84375,36.9375 C 9.1460644,36.925426 8.5249275,37.37738 8.3217578,38.044937 C 8.1185882,38.712495 8.3826307,39.433851 8.96875,39.8125 C 12.387562,41.915556 17.338668,43.232126 24.6875,43.625 C 24.718743,43.625938 24.750007,43.625938 24.78125,43.625 C 26.174084,43.625 27.177849,43.153454 27.90625,42.96875 C 28.242209,42.880257 28.539099,42.68233 28.75,42.40625 C 30.257894,40.439125 31.288736,37.944681 31.8125,35.71875 C 32.074382,34.605784 32.213395,33.563751 32.1875,32.625 C 32.161605,31.686249 32.113584,30.664894 31,29.90625 C 30.699999,29.694191 30.334874,29.594611 29.96875,29.625 L 29.96875,29.625 z M 28.46875,35.8125 C 28.028261,37.311061 27.37622,38.87032 26.53125,40.09375 C 25.870199,40.286254 25.242613,40.494657 24.8125,40.5 C 24.800161,40.499328 24.793573,40.500678 24.78125,40.5 C 22.223432,40.359272 20.321155,40.012042 18.40625,39.65625 C 19.098216,39.565966 19.701274,39.576749 20.40625,39.4375 C 23.273766,38.8711 26.187628,37.727192 28.46875,35.8125 z "
     id="path886" />
</svg>
