<?xml version="1.0" encoding="UTF-8" standalone="no"?>
<svg
   xmlns:dc="http://purl.org/dc/elements/1.1/"
   xmlns:cc="http://web.resource.org/cc/"
   xmlns:rdf="http://www.w3.org/1999/02/22-rdf-syntax-ns#"
   xmlns:svg="http://www.w3.org/2000/svg"
   xmlns="http://www.w3.org/2000/svg"
   xmlns:sodipodi="http://sodipodi.sourceforge.net/DTD/sodipodi-0.dtd"
   xmlns:inkscape="http://www.inkscape.org/namespaces/inkscape"
   version="1.0"
   width="48"
   height="48"
   id="svg2"
   sodipodi:version="0.32"
   inkscape:version="0.45.1"
   sodipodi:docname="bluefish-icon.svg"
   sodipodi:docbase="/home/qwerty/.icons/qw3rtY_new/scalable/apps"
   inkscape:output_extension="org.inkscape.output.svg.inkscape">
  <metadata
     id="metadata13">
    <rdf:RDF>
      <cc:Work
         rdf:about="">
        <dc:format>image/svg+xml</dc:format>
        <dc:type
           rdf:resource="http://purl.org/dc/dcmitype/StillImage" />
      </cc:Work>
    </rdf:RDF>
  </metadata>
  <defs
     id="defs11" />
  <sodipodi:namedview
     inkscape:window-height="614"
     inkscape:window-width="772"
     inkscape:pageshadow="2"
     inkscape:pageopacity="0.0"
     guidetolerance="10000"
     gridtolerance="10000"
     objecttolerance="10000"
     borderopacity="1.0"
     bordercolor="#666666"
     pagecolor="#ffffff"
     id="base"
     width="48px"
     height="48px"
     showgrid="true"
     inkscape:zoom="2.8284271"
     inkscape:cx="-62.740486"
     inkscape:cy="25.004192"
     inkscape:window-x="507"
     inkscape:window-y="42"
     inkscape:current-layer="svg2" />
  <path
     style="stroke:#000000;stroke-width:3.20000005;stroke-miterlimit:4;stroke-dasharray:none;stroke-opacity:1;fill:#ffffff;fill-opacity:1"
     d="M 2.0980599,1.7494334 L 2.0612031,1.7494334 C -1.7171959,25.324249 18.433854,39.127256 36.411793,38.860161 C 36.265145,41.527363 35.822664,44.089205 35.048089,46.363222 L 37.370071,46.400002 C 38.050434,44.141153 38.501274,41.547175 38.660061,38.749822 C 41.301057,38.536142 43.841666,37.989427 46.252573,37.131514 L 46.215716,35.21897 C 45.010846,35.407375 40.878796,36.16121 38.733774,36.322361 C 37.942902,15.193818 23.882604,0.32544882 2.0980599,1.7494334 z M 30.735837,16.681995 C 34.428045,22.572798 36.333051,29.714777 36.448649,36.322361 C 29.764609,36.257861 22.59088,34.510635 16.50909,30.915744 C 7.6948153,25.414277 1.7091879,16.319059 3.4617636,3.4780798 C 15.104061,1.5466446 24.207686,7.5744174 30.735837,16.681995 z "
     id="path4"
     sodipodi:nodetypes="ccccccccccccccc" />
</svg>
