<?xml version="1.0" encoding="UTF-8" standalone="no"?>
<svg
   xmlns:dc="http://purl.org/dc/elements/1.1/"
   xmlns:cc="http://web.resource.org/cc/"
   xmlns:rdf="http://www.w3.org/1999/02/22-rdf-syntax-ns#"
   xmlns:svg="http://www.w3.org/2000/svg"
   xmlns="http://www.w3.org/2000/svg"
   xmlns:sodipodi="http://sodipodi.sourceforge.net/DTD/sodipodi-0.dtd"
   xmlns:inkscape="http://www.inkscape.org/namespaces/inkscape"
   version="1.1"
   width="128"
   height="128"
   viewBox="0 0 128 128"
   overflow="visible"
   enable-background="new 0 0 128 128"
   xml:space="preserve"
   id="svg2"
   sodipodi:version="0.32"
   inkscape:version="0.45"
   sodipodi:docname="gnome-session-reboot.svg"
   sodipodi:docbase="/home/martino/.icons/ALLBLACK/true-scalable/apps"
   inkscape:output_extension="org.inkscape.output.svg.inkscape"
   sodipodi:modified="true"><sodipodi:namedview
   inkscape:window-height="628"
   inkscape:window-width="794"
   inkscape:pageshadow="2"
   inkscape:pageopacity="0.0"
   guidetolerance="10.0"
   gridtolerance="10.0"
   objecttolerance="10.0"
   borderopacity="1.0"
   bordercolor="#666666"
   pagecolor="#ffffff"
   id="base"
   inkscape:zoom="1.6484375"
   inkscape:cx="107.91538"
   inkscape:cy="99.600013"
   inkscape:window-x="202"
   inkscape:window-y="168"
   inkscape:current-layer="svg2" /><metadata
   id="metadata93"><rdf:RDF><cc:Work
       rdf:about=""><dc:format>image/svg+xml</dc:format><dc:type
         rdf:resource="http://purl.org/dc/dcmitype/StillImage" /></cc:Work></rdf:RDF></metadata><defs
   id="defs91" />
	
	
	
	<linearGradient
   id="XMLID_9_"
   x1="65.0986"
   y1="67.5"
   x2="121"
   gradientUnits="userSpaceOnUse"
   y2="67.5">
		<stop
   offset="0"
   id="stop11"
   style="stop-color:#545454" />
		<stop
   offset="0.3319"
   id="stop13"
   style="stop-color:#505050" />
		<stop
   offset="0.8192"
   id="stop15"
   style="stop-color:#474747" />
		<stop
   offset="1"
   id="stop17"
   style="stop-color:#424242" />
	</linearGradient>
	<path
   fill="url(#XMLID_9_)"
   d="M76,13c-0.553,0-1,0.448-1,1v34c0,0.404,0.244,0.769,0.617,0.924   c0.374,0.155,0.804,0.069,1.09-0.217c0,0,8.8-8.8,9.912-9.912C95.622,45.409,101,55.872,101,67c0,19.299-15.602,35-34.901,35   c-0.553,0-1,0.447-1,1v18c0,0.553,0.447,1,1,1C96.426,122,121,97.327,121,67c0-16.275-7.531-32.033-20.14-42.446   c1.293-1.293,9.847-9.847,9.847-9.847C110.898,14.516,111,14.26,111,14c0-0.129-0.025-0.259-0.076-0.383   C110.77,13.244,110.404,13,110,13H76z"
   id="path19"
   style="fill:#000000" />
	<linearGradient
   id="XMLID_10_"
   x1="98.1133"
   y1="117.6191"
   x2="74.4431"
   gradientUnits="userSpaceOnUse"
   y2="-4.7358">
		<stop
   offset="0"
   id="stop22"
   style="stop-color:#696969" />
		<stop
   offset="0.5072"
   id="stop24"
   style="stop-color:#585858" />
		<stop
   offset="1"
   id="stop26"
   style="stop-color:#464646" />
	</linearGradient>
	
	
	<linearGradient
   id="XMLID_11_"
   x1="78.252"
   y1="10.0327"
   x2="105.918"
   gradientUnits="userSpaceOnUse"
   y2="49.3657">
		<stop
   offset="0"
   id="stop33"
   style="stop-color:#9a9a9a" />
		<stop
   offset="1"
   id="stop35"
   style="stop-color:#848484" />
	</linearGradient>
	
	<linearGradient
   id="XMLID_12_"
   x1="-6.25"
   y1="26.9766"
   x2="116.7498"
   gradientUnits="userSpaceOnUse"
   y2="26.9766">
		<stop
   offset="0"
   id="stop40"
   style="stop-color:#a2a2a2" />
		<stop
   offset="0.4719"
   id="stop42"
   style="stop-color:#dedede" />
		<stop
   offset="0.8119"
   id="stop44"
   style="stop-color:#b9b9b9" />
		<stop
   offset="1"
   id="stop46"
   style="stop-color:#a9a9a9" />
	</linearGradient>
	
	
	<linearGradient
   id="XMLID_13_"
   x1="33.1445"
   y1="0.1035"
   x2="46.1445"
   gradientUnits="userSpaceOnUse"
   y2="114.1035">
		<stop
   offset="0"
   id="stop53"
   style="stop-color:#545454" />
		<stop
   offset="0.3319"
   id="stop55"
   style="stop-color:#505050" />
		<stop
   offset="0.8192"
   id="stop57"
   style="stop-color:#474747" />
		<stop
   offset="1"
   id="stop59"
   style="stop-color:#424242" />
	</linearGradient>
	<path
   fill="url(#XMLID_13_)"
   d="M54,113c0.553,0,1-0.447,1-1V78c0-0.404-0.244-0.77-0.617-0.924   c-0.374-0.154-0.804-0.068-1.09,0.217c0,0-8.8,8.8-9.912,9.912C34.378,80.591,29,70.129,29,59c0-19.299,15.602-35,34.901-35   c0.553,0,1-0.448,1-1V5c0-0.552-0.447-1-1-1C33.574,4,9,28.673,9,59c0,16.275,7.531,32.033,20.14,42.446   c-1.293,1.293-9.847,9.847-9.847,9.847C19.102,111.484,19,111.74,19,112c0,0.129,0.025,0.259,0.076,0.383   C19.23,112.756,19.596,113,20,113H54z"
   id="path61"
   style="fill:#000000" />
	<linearGradient
   id="XMLID_14_"
   x1="36.9512"
   y1="114"
   x2="36.9512"
   gradientUnits="userSpaceOnUse"
   y2="6.7496">
		<stop
   offset="0"
   id="stop64"
   style="stop-color:#696969" />
		<stop
   offset="0.5072"
   id="stop66"
   style="stop-color:#585858" />
		<stop
   offset="1"
   id="stop68"
   style="stop-color:#464646" />
	</linearGradient>
	
	
	<linearGradient
   id="XMLID_15_"
   x1="53.4395"
   y1="2.8052"
   x2="12.9391"
   gradientUnits="userSpaceOnUse"
   y2="80.3058">
		<stop
   offset="0"
   id="stop75"
   style="stop-color:#9a9a9a" />
		<stop
   offset="1"
   id="stop77"
   style="stop-color:#848484" />
	</linearGradient>
	
	<linearGradient
   id="XMLID_16_"
   x1="81.5479"
   y1="-17.3154"
   x2="-3.4521"
   gradientUnits="userSpaceOnUse"
   y2="59.4346">
		<stop
   offset="0"
   id="stop82"
   style="stop-color:#dedede" />
		<stop
   offset="0.6438"
   id="stop84"
   style="stop-color:#b9b9b9" />
		<stop
   offset="1"
   id="stop86"
   style="stop-color:#a9a9a9" />
	</linearGradient>
	
</svg>