<?xml version="1.0" encoding="UTF-8" standalone="no"?>
<!-- Created with Inkscape (http://www.inkscape.org/) -->
<svg
   xmlns:dc="http://purl.org/dc/elements/1.1/"
   xmlns:cc="http://web.resource.org/cc/"
   xmlns:rdf="http://www.w3.org/1999/02/22-rdf-syntax-ns#"
   xmlns:svg="http://www.w3.org/2000/svg"
   xmlns="http://www.w3.org/2000/svg"
   xmlns:xlink="http://www.w3.org/1999/xlink"
   xmlns:sodipodi="http://sodipodi.sourceforge.net/DTD/sodipodi-0.dtd"
   xmlns:inkscape="http://www.inkscape.org/namespaces/inkscape"
   width="48px"
   height="48px"
   id="svg2285"
   sodipodi:version="0.32"
   inkscape:version="0.45.1"
   sodipodi:docbase="/home/qwerty/.icons/MonoIce/scalable/apps"
   sodipodi:docname="gnome-panel-window-list.svg"
   inkscape:output_extension="org.inkscape.output.svg.inkscape">
  <defs
     id="defs2287">
    <linearGradient
       id="linearGradient2250">
      <stop
         id="stop2252"
         offset="0"
         style="stop-color:#ffffff;stop-opacity:0;" />
      <stop
         style="stop-color:#ffffff;stop-opacity:1;"
         offset="0.1"
         id="stop2254" />
      <stop
         id="stop2256"
         offset="0.75999999"
         style="stop-color:#ffffff;stop-opacity:1;" />
      <stop
         id="stop2258"
         offset="1"
         style="stop-color:#ffffff;stop-opacity:0;" />
    </linearGradient>
    <linearGradient
       id="linearGradient2258">
      <stop
         style="stop-color:#ffffff;stop-opacity:0;"
         offset="0"
         id="stop2260" />
      <stop
         id="stop2266"
         offset="0.05"
         style="stop-color:#d3d7cf;stop-opacity:1;" />
      <stop
         style="stop-color:#d3d7cf;stop-opacity:1;"
         offset="0.80000001"
         id="stop2268" />
      <stop
         style="stop-color:#ffffff;stop-opacity:0;"
         offset="1"
         id="stop2262" />
    </linearGradient>
    <linearGradient
       inkscape:collect="always"
       id="linearGradient2249">
      <stop
         style="stop-color:#000000;stop-opacity:1;"
         offset="0"
         id="stop2251" />
      <stop
         style="stop-color:#000000;stop-opacity:0;"
         offset="1"
         id="stop2253" />
    </linearGradient>
    <linearGradient
       id="linearGradient2228">
      <stop
         style="stop-color:#babdb6;stop-opacity:0;"
         offset="0"
         id="stop2230" />
      <stop
         id="stop2236"
         offset="0.1"
         style="stop-color:#babdb6;stop-opacity:1;" />
      <stop
         style="stop-color:#babdb6;stop-opacity:1;"
         offset="0.75"
         id="stop2238" />
      <stop
         style="stop-color:#bbbeb7;stop-opacity:0;"
         offset="1"
         id="stop2232" />
    </linearGradient>
    <linearGradient
       id="linearGradient2215">
      <stop
         style="stop-color:#555753;stop-opacity:0;"
         offset="0"
         id="stop2217" />
      <stop
         id="stop2223"
         offset="0.1"
         style="stop-color:#555753;stop-opacity:1;" />
      <stop
         style="stop-color:#555753;stop-opacity:1;"
         offset="0.75"
         id="stop2225" />
      <stop
         style="stop-color:#555753;stop-opacity:0;"
         offset="1"
         id="stop2219" />
    </linearGradient>
    <linearGradient
       inkscape:collect="always"
       xlink:href="#linearGradient2249"
       id="linearGradient2255"
       x1="31.4828"
       y1="36.75"
       x2="61.263157"
       y2="36.71875"
       gradientUnits="userSpaceOnUse"
       gradientTransform="matrix(0.9047619,0,0,1.0000001,4.5714294,-6.0000001)" />
  </defs>
  <sodipodi:namedview
     id="base"
     pagecolor="#ffffff"
     bordercolor="#666666"
     borderopacity="1.0"
     inkscape:pageopacity="0.0"
     inkscape:pageshadow="2"
     inkscape:zoom="5.656854"
     inkscape:cx="36.986072"
     inkscape:cy="17.803142"
     inkscape:current-layer="layer1"
     showgrid="true"
     inkscape:grid-bbox="true"
     inkscape:document-units="px"
     fill="#eeeeec"
     showguides="true"
     inkscape:guide-bbox="true"
     stroke="#204a87"
     inkscape:window-width="1278"
     inkscape:window-height="949"
     inkscape:window-x="1"
     inkscape:window-y="48"
     showborder="true"
     inkscape:showpageshadow="false"
     objecttolerance="10000"
     guidetolerance="10000"
     gridtolerance="10000" />
  <metadata
     id="metadata2290">
    <rdf:RDF>
      <cc:Work
         rdf:about="">
        <dc:format>image/svg+xml</dc:format>
        <dc:type
           rdf:resource="http://purl.org/dc/dcmitype/StillImage" />
        <dc:title>Taskbar</dc:title>
        <dc:creator>
          <cc:Agent>
            <dc:title>Andreas Nilsson</dc:title>
          </cc:Agent>
        </dc:creator>
        <cc:license
           rdf:resource="http://creativecommons.org/licenses/GPL/2.0/" />
        <dc:contributor>
          <cc:Agent>
            <dc:title>Lapo Calamandrei</dc:title>
          </cc:Agent>
        </dc:contributor>
        <dc:subject>
          <rdf:Bag>
            <rdf:li>taskbar</rdf:li>
            <rdf:li>panel</rdf:li>
            <rdf:li>applet</rdf:li>
          </rdf:Bag>
        </dc:subject>
      </cc:Work>
      <cc:License
         rdf:about="http://creativecommons.org/licenses/GPL/2.0/">
        <cc:permits
           rdf:resource="http://web.resource.org/cc/Reproduction" />
        <cc:permits
           rdf:resource="http://web.resource.org/cc/Distribution" />
        <cc:requires
           rdf:resource="http://web.resource.org/cc/Notice" />
        <cc:permits
           rdf:resource="http://web.resource.org/cc/DerivativeWorks" />
        <cc:requires
           rdf:resource="http://web.resource.org/cc/ShareAlike" />
        <cc:requires
           rdf:resource="http://web.resource.org/cc/SourceCode" />
      </cc:License>
    </rdf:RDF>
  </metadata>
  <g
     id="layer1"
     inkscape:label="Layer 1"
     inkscape:groupmode="layer">
    <path
       style="opacity:1;fill:#000000;fill-opacity:1;stroke:#000000;stroke-width:1.00000048;stroke-linecap:butt;stroke-linejoin:round;stroke-miterlimit:4;stroke-dasharray:none;stroke-dashoffset:0;stroke-opacity:1"
       d="M -7.5 4.5 L -7.5 9.6875 L 4.28125 9.6875 C 4.5224028 9.6875 4.781649 9.7152069 5 9.78125 C 5.3419745 9.89381 5.6883488 10.131698 5.9375 10.375 C 6.0526662 10.492982 6.1629351 10.672286 6.25 10.8125 C 6.4452374 11.144817 6.5937502 11.58789 6.59375 12 L 6.59375 38.15625 C 6.59375 38.56836 6.4452375 39.011435 6.25 39.34375 C 6.162935 39.483965 6.0526662 39.632018 5.9375 39.75 C 5.6883486 39.993302 5.3419743 40.231191 5 40.34375 C 4.7816492 40.409793 4.5224032 40.46875 4.28125 40.46875 L -7.5 40.46875 L -7.5 45.5 L 75.46875 45.5 L 75.46875 40.46875 L 12.4375 40.46875 C 12.196346 40.46875 11.937102 40.409794 11.71875 40.34375 C 11.376776 40.23119 11.030401 39.993302 10.78125 39.75 C 10.666084 39.632018 10.555814 39.483966 10.46875 39.34375 C 10.273513 39.011435 10.125 38.568361 10.125 38.15625 L 10.125 12 C 10.125 11.58789 10.273513 11.144817 10.46875 10.8125 C 10.555814 10.672286 10.666084 10.492982 10.78125 10.375 C 11.030401 10.131698 11.376776 9.8938096 11.71875 9.78125 C 11.846122 9.7427254 12.020385 9.7042685 12.15625 9.6875 C 12.253295 9.6755236 12.337021 9.6874998 12.4375 9.6875 L 75.46875 9.6875 L 75.46875 4.5 L -7.5 4.5 z "
       id="rect3734" />
    <g
       id="g1374"
       transform="matrix(1.6934599,0,0,1.7105504,-4.9598074,-33.903453)">
      <path
         style="opacity:1;fill:#000000;fill-opacity:1;stroke:none;stroke-width:0.58754987;stroke-linecap:round;stroke-linejoin:round;stroke-miterlimit:4;stroke-dasharray:none;stroke-dashoffset:0;stroke-opacity:1"
         d="M 13.4375,29.21875 C 13.388135,29.238145 13.344941,29.27054 13.3125,29.3125 C 13.281916,29.348533 13.260476,29.391413 13.25,29.4375 C 13.247778,29.458274 13.247778,29.479226 13.25,29.5 L 13.25,39.53125 C 13.247778,39.552024 13.247778,39.572976 13.25,39.59375 C 13.283796,39.72168 13.398938,39.811235 13.53125,39.8125 L 24.5,39.8125 C 24.543466,39.811461 24.586159,39.800787 24.625,39.78125 C 24.65999,39.76666 24.691825,39.745437 24.71875,39.71875 C 24.760611,39.665343 24.782694,39.599092 24.78125,39.53125 L 24.78125,29.5 C 24.782254,29.417124 24.748206,29.337679 24.6875,29.28125 C 24.651467,29.250666 24.608587,29.229226 24.5625,29.21875 C 24.541726,29.216528 24.520774,29.216528 24.5,29.21875 L 13.53125,29.21875 C 13.500201,29.213732 13.468549,29.213732 13.4375,29.21875 L 13.4375,29.21875 z M 13.84375,29.78125 L 24.21875,29.78125 L 24.21875,39.21875 L 13.84375,39.21875 L 13.84375,29.78125 z "
         id="rect3746" />
      <rect
         ry="0"
         rx="0"
         y="29.4375"
         x="13.5"
         height="3.125"
         width="11"
         id="rect3748"
         style="opacity:1;fill:#000000;fill-opacity:1;stroke:#000000;stroke-width:0.58754969;stroke-linecap:round;stroke-linejoin:round;stroke-miterlimit:4;stroke-dasharray:none;stroke-dashoffset:0;stroke-opacity:1" />
    </g>
    <rect
       style="opacity:1;fill:url(#linearGradient2255);fill-opacity:1;stroke:none;stroke-width:1;stroke-linecap:round;stroke-linejoin:round;stroke-miterlimit:4;stroke-dasharray:none;stroke-dashoffset:0;stroke-opacity:1"
       id="rect3752"
       width="52.497253"
       height="8.5527525"
       x="42.457069"
       y="20.727251"
       rx="1.5541952"
       ry="0.96218461" />
  </g>
</svg>
