<?xml version="1.0" encoding="UTF-8" standalone="no"?>
<svg
   xmlns:dc="http://purl.org/dc/elements/1.1/"
   xmlns:cc="http://web.resource.org/cc/"
   xmlns:rdf="http://www.w3.org/1999/02/22-rdf-syntax-ns#"
   xmlns:svg="http://www.w3.org/2000/svg"
   xmlns="http://www.w3.org/2000/svg"
   xmlns:sodipodi="http://sodipodi.sourceforge.net/DTD/sodipodi-0.dtd"
   xmlns:inkscape="http://www.inkscape.org/namespaces/inkscape"
   version="1.1"
   width="128"
   height="128"
   viewBox="0 0 128 128"
   overflow="visible"
   enable-background="new 0 0 128 128"
   xml:space="preserve"
   id="svg2"
   sodipodi:version="0.32"
   inkscape:version="0.45"
   sodipodi:docname="gnome-session-suspend.svg"
   sodipodi:docbase="/home/martino/.icons/ALLBLACK/true-scalable/apps"
   inkscape:output_extension="org.inkscape.output.svg.inkscape"
   sodipodi:modified="true"><sodipodi:namedview
   inkscape:window-height="628"
   inkscape:window-width="794"
   inkscape:pageshadow="2"
   inkscape:pageopacity="0.0"
   guidetolerance="10.0"
   gridtolerance="10.0"
   objecttolerance="10.0"
   borderopacity="1.0"
   bordercolor="#666666"
   pagecolor="#ffffff"
   id="base"
   inkscape:zoom="2.3312427"
   inkscape:cx="67.234176"
   inkscape:cy="54.676307"
   inkscape:window-x="7"
   inkscape:window-y="30"
   inkscape:current-layer="svg2" /><metadata
   id="metadata62"><rdf:RDF><cc:Work
       rdf:about=""><dc:format>image/svg+xml</dc:format><dc:type
         rdf:resource="http://purl.org/dc/dcmitype/StillImage" /></cc:Work></rdf:RDF></metadata><defs
   id="defs60" />
	
	
	<linearGradient
   id="XMLID_6_"
   x1="66.7852"
   y1="136.1797"
   x2="60.7851"
   gradientUnits="userSpaceOnUse"
   y2="-7.0716">
		<stop
   offset="0"
   id="stop9"
   style="stop-color:#828282" />
		<stop
   offset="0.4791"
   id="stop11"
   style="stop-color:#7d7d7d" />
		<stop
   offset="1"
   id="stop13"
   style="stop-color:#727272" />
	</linearGradient>
	<path
   fill="url(#XMLID_6_)"
   d="M83.228,7.611c-0.265,0.188-0.423,0.492-0.423,0.816v18.523c0,0.371,0.205,0.711,0.533,0.885   C97.195,35.149,105.805,49.391,105.805,65c0,23.159-18.842,42-42.006,42c-23.158,0-42-18.841-42-42   c0-15.609,8.609-29.851,22.467-37.164c0.328-0.174,0.533-0.514,0.533-0.885V8.428c0-0.324-0.158-0.629-0.423-0.816   s-0.604-0.234-0.911-0.126C19.142,16.085,2.799,39.198,2.799,65c0,33.636,27.364,61,61,61c33.642,0,61.006-27.364,61.006-61   c0-25.802-16.343-48.915-40.666-57.515C83.832,7.377,83.492,7.424,83.228,7.611z"
   id="path15"
   style="fill:#000000" />
	<linearGradient
   id="XMLID_7_"
   x1="63.7988"
   y1="124.5"
   x2="63.7988"
   gradientUnits="userSpaceOnUse"
   y2="51.5">
		<stop
   offset="0"
   id="stop18"
   style="stop-color:#b6b6b6" />
		<stop
   offset="0.4606"
   id="stop20"
   style="stop-color:#a1a1a1" />
		<stop
   offset="1"
   id="stop22"
   style="stop-color:#878787" />
	</linearGradient>
	
	
	<linearGradient
   id="XMLID_8_"
   x1="22.0308"
   y1="44.6582"
   x2="130.2798"
   gradientUnits="userSpaceOnUse"
   y2="61.4081">
		<stop
   offset="0"
   id="stop29"
   style="stop-color:#b5b5b5" />
		<stop
   offset="1"
   id="stop31"
   style="stop-color:#a4a4a4" />
	</linearGradient>
	
	
	
	
	<linearGradient
   id="XMLID_9_"
   x1="68.4375"
   y1="136.1094"
   x2="62.4375"
   gradientUnits="userSpaceOnUse"
   y2="-7.1408">
		<stop
   offset="0"
   id="stop42"
   style="stop-color:#828282" />
		<stop
   offset="0.4791"
   id="stop44"
   style="stop-color:#7d7d7d" />
		<stop
   offset="1"
   id="stop46"
   style="stop-color:#727272" />
	</linearGradient>
	<path
   fill="url(#XMLID_9_)"
   d="M55.799,1c-1.654,0-3,1.346-3,3v43c0,1.654,1.346,3,3,3h16.006c1.654,0,3-1.346,3-3V4   c0-1.654-1.346-3-3-3H55.799z"
   id="path48"
   style="fill:#000000" />
	<linearGradient
   id="XMLID_10_"
   x1="57.71"
   y1="3.7095"
   x2="81.4595"
   gradientUnits="userSpaceOnUse"
   y2="88.7079">
		<stop
   offset="0"
   id="stop51"
   style="stop-color:#b5b5b5" />
		<stop
   offset="1"
   id="stop53"
   style="stop-color:#a4a4a4" />
	</linearGradient>
	
	
</svg>