<?xml version="1.0" encoding="UTF-8" standalone="no"?>
<!-- Generator: Adobe Illustrator 9.0, SVG Export Plug-In  -->
<svg
   xmlns:dc="http://purl.org/dc/elements/1.1/"
   xmlns:cc="http://web.resource.org/cc/"
   xmlns:rdf="http://www.w3.org/1999/02/22-rdf-syntax-ns#"
   xmlns:svg="http://www.w3.org/2000/svg"
   xmlns="http://www.w3.org/2000/svg"
   xmlns:sodipodi="http://sodipodi.sourceforge.net/DTD/sodipodi-0.dtd"
   xmlns:inkscape="http://www.inkscape.org/namespaces/inkscape"
   width="48"
   height="48"
   viewBox="0 0 48 48"
   xml:space="preserve"
   id="svg2"
   sodipodi:version="0.32"
   inkscape:version="0.45.1"
   sodipodi:docname="help-contents.svg"
   sodipodi:docbase="/home/qwerty/.icons/MonoIce/scalable/actions"
   inkscape:output_extension="org.inkscape.output.svg.inkscape"
   version="1.0"><metadata
   id="metadata35"><rdf:RDF><cc:Work
       rdf:about=""><dc:format>image/svg+xml</dc:format><dc:type
         rdf:resource="http://purl.org/dc/dcmitype/StillImage" /></cc:Work></rdf:RDF></metadata><defs
   id="defs33" /><sodipodi:namedview
   inkscape:window-height="616"
   inkscape:window-width="772"
   inkscape:pageshadow="2"
   inkscape:pageopacity="0.0"
   guidetolerance="10.0"
   gridtolerance="10.0"
   objecttolerance="10.0"
   borderopacity="1.0"
   bordercolor="#666666"
   pagecolor="#ffffff"
   id="base"
   width="48px"
   height="48px"
   inkscape:zoom="6.7833333"
   inkscape:cx="30"
   inkscape:cy="24.103194"
   inkscape:window-x="2"
   inkscape:window-y="52"
   inkscape:current-layer="svg2" />
	<g
   id="Layer_x0020_4"
   style="fill-rule:nonzero;stroke:#000000;stroke-width:0.81389493;stroke-miterlimit:4;fill:#000000;fill-opacity:1"
   transform="matrix(1.2287002,0,0,1.2286195,-5.5002387,-5.4868675)">
		<g
   style="stroke:none;fill:#000000;fill-opacity:1"
   id="g5">
			
			<path
   style="fill:#000000;fill-opacity:1;stroke:none"
   d="M 10.09375 0.40625 C 4.9332095 0.40625003 0.78125 4.589799 0.78125 9.75 C 0.78124995 12.385323 1.8713605 14.74038 3.625 16.4375 C 2.7483777 18.798674 2.25 21.341664 2.25 24 C 2.2500003 26.658338 2.7483773 29.201323 3.625 31.5625 C 1.8713607 33.25962 0.78125 35.614677 0.78125 38.25 C 0.78124998 43.410205 4.933209 47.59375 10.09375 47.59375 C 12.778985 47.593751 15.203365 46.436999 16.90625 44.625 C 19.169485 45.421682 21.596466 45.875 24.125 45.875 C 26.618371 45.875002 29.015772 45.431878 31.25 44.65625 C 32.950956 46.446674 35.333056 47.59375 38 47.59375 C 43.160544 47.593749 47.34375 43.410202 47.34375 38.25 C 47.343751 35.669901 46.283213 33.345602 44.59375 31.65625 C 45.489552 29.269666 45.96875 26.692516 45.96875 24 C 45.968754 21.307488 45.491657 18.729901 44.59375 16.34375 C 46.283217 14.654394 47.34375 12.330101 47.34375 9.75 C 47.343754 4.5898007 43.160541 0.40625 38 0.40625 C 35.32539 0.40625004 32.920536 1.5442895 31.21875 3.34375 C 28.98762 2.5723255 26.611931 2.125 24.125 2.125 C 21.596466 2.1249997 19.169485 2.5783221 16.90625 3.375 C 15.203365 1.5630009 12.778985 0.40625 10.09375 0.40625 z M 9.96875 4.34375 C 11.05109 4.3437493 12.084783 4.6851481 12.9375 5.25 C 9.8854421 7.0819998 7.291901 9.619175 5.4375 12.65625 C 4.8893267 11.812264 4.5625 10.814646 4.5625 9.75 C 4.5625004 6.8013148 7.0198692 4.34375 9.96875 4.34375 z M 38 4.34375 C 41.071756 4.343749 43.40625 6.8013136 43.40625 9.75 C 43.406253 10.726686 43.12402 11.640085 42.65625 12.4375 C 40.781408 9.44864 38.200395 6.948642 35.15625 5.15625 C 35.988421 4.6444313 36.95871 4.34375 38 4.34375 z M 24 5.6875 C 34.075342 5.6875 42.281249 13.925321 42.28125 24 C 42.28125 34.07468 34.200341 42.3125 24.125 42.3125 C 14.049658 42.3125 5.8125002 34.07468 5.8125 24 C 5.8125 13.92532 13.924659 5.6874998 24 5.6875 z M 24.125 15.15625 C 19.210199 15.15625 15.25 19.085522 15.25 24 C 15.25 28.914478 19.210198 32.843749 24.125 32.84375 C 29.039801 32.84375 32.968751 28.914479 32.96875 24 C 32.96875 19.085522 29.0398 15.15625 24.125 15.15625 z M 24.125 18.09375 C 27.319624 18.093746 30 20.682727 30 24 C 30.000004 27.317277 27.442491 29.90625 24.125 29.90625 C 20.930379 29.906251 18.21875 27.317273 18.21875 24 C 18.218751 20.805594 20.807509 18.09375 24.125 18.09375 z M 5.4375 35.3125 C 7.2929167 38.359431 9.877925 40.913489 12.9375 42.75 C 12.084783 43.314856 11.05109 43.65625 9.96875 43.65625 C 7.0198695 43.656253 4.5625 41.198687 4.5625 38.25 C 4.5625002 37.151334 4.8986511 36.149441 5.4375 35.3125 z M 42.6875 35.53125 C 43.149846 36.333848 43.40625 37.264 43.40625 38.25 C 43.406249 41.198688 40.94888 43.65625 38 43.65625 C 36.974015 43.656252 36.0117 43.355861 35.1875 42.84375 C 38.231105 41.043586 40.819267 38.530708 42.6875 35.53125 z "
   transform="matrix(0.8138682,0,0,0.8139216,4.4764693,4.4658802)"
   id="path9" />
			
			
			
			
			
			<path
   d="M 9.2,31.2 L 18.7,25.9 C 19.7,27.7 20.5,28.5 22.1,29.3 L 17.5,39 C 14.4,37.8 10.4,33.9 9.2,31.2 z "
   id="path21"
   style="fill:#000000;fill-opacity:1;stroke:none" />
			<path
   d="M 31.5,39 L 26,29.4 C 27.9,28.4 28.7,27.6 29.5,25.9 L 39.6,30.6 C 38.3,33.7 34.3,37.9 31.6,39.1 L 31.5,39 z "
   id="path23"
   style="fill:#000000;fill-opacity:1;stroke:none" />
			<path
   d="M 38.9,16.8 L 29.5,22.2 C 28.6,20.3 27.7,19.6 26.1,18.8 L 30.7,8.9 C 33.7,10.1 37.7,14.1 38.9,16.8 L 38.9,16.8 z "
   id="path25"
   style="fill:#000000;fill-opacity:1;stroke:none" />
			<path
   d="M 16.6,9 L 22.1,18.4 C 20.2,19.4 19.4,20.2 18.6,21.8 L 8.6,17.3 C 9.9,14.2 13.9,10.2 16.6,9 z "
   id="path27"
   style="fill:#000000;fill-opacity:1;stroke:none" />
		</g>
	</g>
	
</svg>