<?xml version="1.0" encoding="UTF-8" standalone="no"?>
<!-- Created with Inkscape (http://www.inkscape.org/) -->
<svg
   xmlns:dc="http://purl.org/dc/elements/1.1/"
   xmlns:cc="http://web.resource.org/cc/"
   xmlns:rdf="http://www.w3.org/1999/02/22-rdf-syntax-ns#"
   xmlns:svg="http://www.w3.org/2000/svg"
   xmlns="http://www.w3.org/2000/svg"
   xmlns:xlink="http://www.w3.org/1999/xlink"
   xmlns:sodipodi="http://sodipodi.sourceforge.net/DTD/sodipodi-0.dtd"
   xmlns:inkscape="http://www.inkscape.org/namespaces/inkscape"
   inkscape:export-ydpi="90.000000"
   inkscape:export-xdpi="90.000000"
   inkscape:export-filename="/home/jimmac/Desktop/wi-fi.png"
   width="48px"
   height="48px"
   id="svg11300"
   sodipodi:version="0.32"
   inkscape:version="0.45.1"
   sodipodi:docbase="/home/qwerty/.icons/MonoIce/scalable/apps"
   sodipodi:docname="im-icq.svg"
   inkscape:output_extension="org.inkscape.output.svg.inkscape">
  <defs
     id="defs3">
    <linearGradient
       inkscape:collect="always"
       id="linearGradient4876">
      <stop
         style="stop-color:#000000;stop-opacity:1;"
         offset="0"
         id="stop4878" />
      <stop
         style="stop-color:#000000;stop-opacity:0;"
         offset="1"
         id="stop4880" />
    </linearGradient>
    <radialGradient
       inkscape:collect="always"
       xlink:href="#linearGradient4876"
       id="radialGradient4882"
       cx="24.25"
       cy="39.5"
       fx="24.25"
       fy="39.5"
       r="19.75"
       gradientTransform="matrix(1,0,0,0.341772,0,26)"
       gradientUnits="userSpaceOnUse" />
  </defs>
  <sodipodi:namedview
     stroke="#fcaf3e"
     fill="#edd400"
     id="base"
     pagecolor="#ffffff"
     bordercolor="#666666"
     borderopacity="0.25490196"
     inkscape:pageopacity="0.0"
     inkscape:pageshadow="2"
     inkscape:zoom="7.9999999"
     inkscape:cx="32.874342"
     inkscape:cy="26.328713"
     inkscape:current-layer="layer1"
     showgrid="false"
     inkscape:grid-bbox="true"
     inkscape:document-units="px"
     inkscape:showpageshadow="false"
     inkscape:window-width="780"
     inkscape:window-height="622"
     inkscape:window-x="498"
     inkscape:window-y="347"
     showguides="true"
     inkscape:guide-bbox="true" />
  <metadata
     id="metadata4">
    <rdf:RDF>
      <cc:Work
         rdf:about="">
        <dc:format>image/svg+xml</dc:format>
        <dc:type
           rdf:resource="http://purl.org/dc/dcmitype/StillImage" />
        <dc:creator>
          <cc:Agent>
            <dc:title>Jakub Steiner</dc:title>
          </cc:Agent>
        </dc:creator>
        <dc:source>http://jimmac.musichall.cz</dc:source>
        <cc:license
           rdf:resource="http://creativecommons.org/licenses/GPL/2.0/" />
        <dc:title>IM - ICQ</dc:title>
      </cc:Work>
      <cc:License
         rdf:about="http://creativecommons.org/licenses/GPL/2.0/">
        <cc:permits
           rdf:resource="http://web.resource.org/cc/Reproduction" />
        <cc:permits
           rdf:resource="http://web.resource.org/cc/Distribution" />
        <cc:requires
           rdf:resource="http://web.resource.org/cc/Notice" />
        <cc:permits
           rdf:resource="http://web.resource.org/cc/DerivativeWorks" />
        <cc:requires
           rdf:resource="http://web.resource.org/cc/ShareAlike" />
        <cc:requires
           rdf:resource="http://web.resource.org/cc/SourceCode" />
      </cc:License>
    </rdf:RDF>
  </metadata>
  <g
     id="layer1"
     inkscape:label="Layer 1"
     inkscape:groupmode="layer">
    <path
       style="color:#000000;fill:#000000;fill-opacity:1;fill-rule:evenodd;stroke:none;stroke-width:4;stroke-linecap:round;stroke-linejoin:round;marker:none;stroke-miterlimit:4;stroke-dasharray:none;stroke-dashoffset:0;stroke-opacity:1;visibility:visible;display:inline;overflow:visible"
       d="M 6.96875,17.09375 C 3.1291186,17.266246 0.14045573,20.57666 0.3125,24.40625 C 0.48496502,28.245208 3.780398,31.266467 7.625,31.09375 C 7.7517008,31.08487 7.8772679,31.063942 8,31.03125 L 20.5625,28.09375 C 21.180576,27.944959 21.691113,27.511211 21.937814,26.925297 C 22.184515,26.339383 22.137996,25.671085 21.8125,25.125 C 21.457923,24.543696 21.25,23.91442 21.25,23.25 C 21.25,22.707635 21.373849,22.189485 21.59375,21.71875 C 21.856197,21.145836 21.83331,20.482742 21.531985,19.929288 C 21.230659,19.375833 20.686135,18.996741 20.0625,18.90625 L 7.34375,17.125 C 7.2200098,17.102822 7.0944543,17.092359 6.96875,17.09375 z M 7.125,21.125 L 17.40625,22.5625 C 17.382746,22.80322 17.25,23.003384 17.25,23.25 C 17.25,23.766975 17.366955,24.236364 17.46875,24.71875 L 7.40625,27.09375 C 5.732183,27.152249 4.3881459,25.902578 4.3125,24.21875 C 4.2366344,22.530034 5.4546818,21.223083 7.125,21.125 z "
       id="path4856" />
    <path
       style="color:#000000;fill:#000000;fill-opacity:1;fill-rule:evenodd;stroke:none;stroke-width:4;stroke-linecap:round;stroke-linejoin:round;marker:none;stroke-miterlimit:4;stroke-dasharray:none;stroke-dashoffset:0;stroke-opacity:1;visibility:visible;display:inline;overflow:visible"
       d="M 33.59375,0.84375 C 30.872348,0.66837794 28.193923,2.1099593 26.90625,4.6875 C 26.843444,4.7968999 26.791127,4.9119959 26.75,5.03125 L 23.28125,17.09375 C 23.108386,17.680659 23.213649,18.314404 23.566963,18.813917 C 23.920276,19.313429 24.482777,19.623763 25.09375,19.65625 C 26.364281,19.735225 27.416131,20.443639 28,21.46875 C 28.331481,22.05787 28.93809,22.439708 29.612623,22.483836 C 30.287156,22.527965 30.938342,22.228412 31.34375,21.6875 L 39.21875,11.28125 C 39.290629,11.183006 39.35339,11.078405 39.40625,10.96875 C 41.121194,7.5359402 39.758817,3.2841906 36.3125,1.5625 C 35.406633,1.1099515 34.457841,0.89943366 33.59375,0.84375 z M 33.34375,4.84375 C 33.776005,4.8716053 34.167049,4.9586663 34.5,5.125 C 35.988427,5.8685797 36.558206,7.585867 35.84375,9.09375 L 29.53125,17.4375 C 28.967575,16.986301 28.364064,16.683987 27.6875,16.40625 L 30.5625,6.40625 C 31.149699,5.3501719 32.219871,4.7713252 33.34375,4.84375 z "
       id="path4854" />
    <path
       style="color:#000000;fill:#000000;fill-opacity:1;fill-rule:evenodd;stroke:none;stroke-width:4;stroke-linecap:round;stroke-linejoin:round;marker:none;stroke-miterlimit:4;stroke-dasharray:none;stroke-dashoffset:0;stroke-opacity:1;visibility:visible;display:inline;overflow:visible"
       d="M 10.03125,9.9375 C 8.1290702,10.041069 6.3120046,11.08902 5.28125,12.8125 C 3.62265,15.585777 4.5390248,19.24753 7.3125,20.90625 C 7.4218999,20.969056 7.5369959,21.021373 7.65625,21.0625 L 18.5625,25.125 C 19.175357,25.349242 19.859071,25.260412 20.394281,24.88701 C 20.92949,24.513609 21.248888,23.902592 21.25,23.25 C 21.25,22.386937 21.565454,21.64611 22.09375,21 C 22.384085,20.636757 22.538786,20.183705 22.53125,19.71875 L 22.53125,19.6875 C 22.528603,19.111866 22.278084,18.565278 21.84375,18.1875 L 13.65625,11 C 13.569194,10.918862 13.475071,10.845655 13.375,10.78125 C 12.345943,10.165807 11.187031,9.8745702 10.03125,9.9375 z M 10.21875,13.9375 C 10.553604,13.919268 10.927706,14.014651 11.28125,14.21875 C 11.290986,14.22437 11.302784,14.212939 11.3125,14.21875 L 18,20.125 C 17.930652,20.273772 17.841276,20.408455 17.78125,20.5625 L 9.34375,17.4375 C 8.4397422,16.869421 8.1663358,15.798669 8.71875,14.875 C 9.0751132,14.27914 9.6211708,13.970037 10.21875,13.9375 z "
       id="path4858" />
    <path
       style="color:#000000;fill:#000000;fill-opacity:1;fill-rule:evenodd;stroke:none;stroke-width:4;stroke-linecap:round;stroke-linejoin:round;marker:none;stroke-miterlimit:4;stroke-dasharray:none;stroke-dashoffset:0;stroke-opacity:1;visibility:visible;display:inline;overflow:visible"
       d="M 16.59375,1.0625 C 15.243065,0.94715819 13.868565,1.2448345 12.625,1.9375 C 9.263687,3.8097514 8.0342553,8.1078977 9.90625,11.46875 C 9.9690448,11.579648 10.042294,11.68429 10.125,11.78125 L 18.4375,21.78125 C 18.860436,22.28602 19.504732,22.550269 20.1603,22.487834 C 20.815868,22.425399 21.398699,22.04428 21.71875,21.46875 C 22.286553,20.454013 23.341308,19.755275 24.59375,19.65625 C 25.208477,19.610549 25.767794,19.283961 26.109724,18.771066 C 26.451654,18.258171 26.537998,17.616267 26.34375,17.03125 L 22.28125,5 C 22.240123,4.8807459 22.187806,4.7656499 22.125,4.65625 C 20.959008,2.5629068 18.840242,1.2543393 16.59375,1.0625 z M 16.28125,5.0625 C 17.202296,5.1411528 18.038013,5.6503474 18.5625,6.53125 L 21.90625,16.4375 C 21.23677,16.729392 20.648016,17.068141 20.09375,17.53125 L 13.40625,9.46875 C 12.62934,8.0022867 13.104571,6.2495667 14.5625,5.4375 C 15.133629,5.1193809 15.714681,5.0141178 16.28125,5.0625 z "
       id="path4860" />
    <path
       style="color:#000000;fill:#000000;fill-opacity:1;fill-rule:evenodd;stroke:none;stroke-width:4;stroke-linecap:round;stroke-linejoin:round;marker:none;stroke-miterlimit:4;stroke-dasharray:none;stroke-dashoffset:0;stroke-opacity:1;visibility:visible;display:inline;overflow:visible"
       d="M 41,16.75 C 40.93704,16.757439 40.874469,16.767868 40.8125,16.78125 L 29.5625,18.875 C 28.947224,18.987746 28.420121,19.381836 28.137929,19.940086 C 27.855737,20.498337 27.850953,21.156457 28.125,21.71875 C 28.362525,22.21766 28.5,22.719331 28.5,23.25 C 28.5,24.056566 28.230796,24.764178 27.78125,25.375 C 27.370983,25.930359 27.276155,26.658045 27.530394,27.299999 C 27.784633,27.941952 28.351985,28.407389 29.03125,28.53125 L 40.8125,30.71875 C 40.93624,30.740928 41.061796,30.751391 41.1875,30.75 C 45.030855,30.75 48.187497,27.593352 48.1875,23.75 C 48.1875,19.906646 45.030855,16.75 41.1875,16.75 C 41.125034,16.747069 41.062466,16.747069 41,16.75 z M 41.25,20.78125 C 42.90825,20.819992 44.1875,22.079844 44.1875,23.75 C 44.187499,25.420157 42.90825,26.680008 41.25,26.71875 L 32.1875,25.03125 C 32.331453,24.450256 32.5,23.873151 32.5,23.25 C 32.5,22.954101 32.347038,22.722014 32.3125,22.4375 L 41.25,20.78125 z "
       id="rect4849" />
    <path
       style="color:#000000;fill:#000000;fill-opacity:1;fill-rule:evenodd;stroke:none;stroke-width:4;stroke-linecap:round;stroke-linejoin:round;marker:none;stroke-miterlimit:4;stroke-dasharray:none;stroke-dashoffset:0;stroke-opacity:1;visibility:visible;display:inline;overflow:visible"
       d="M 38.78125,9.34375 C 37.622353,9.2627381 36.466259,9.5622958 35.4375,10.15625 C 35.327845,10.20911 35.223244,10.271871 35.125,10.34375 L 27,17.28125 C 26.536145,17.67488 26.276647,18.25822 26.29489,18.86631 C 26.313133,19.4744 26.607132,20.041134 27.09375,20.40625 C 27.76156,20.925503 28.231053,21.675806 28.40625,22.53125 C 28.526175,23.094712 28.88322,23.579109 29.385958,23.860402 C 29.888696,24.141696 30.488306,24.192571 31.03125,24 L 41,20.5 C 41.119254,20.458873 41.23435,20.406556 41.34375,20.34375 C 44.134734,18.732373 45.117286,15.113716 43.5,12.3125 C 42.486809,10.557605 40.694896,9.477523 38.78125,9.34375 z M 38.53125,13.34375 C 39.114972,13.384555 39.724445,13.726973 40.0625,14.3125 C 40.594514,15.233974 40.276451,16.28194 39.375,16.84375 L 31.46875,19.625 C 31.359512,19.426718 31.282082,19.218236 31.15625,19.03125 L 37.5625,13.5625 C 37.892441,13.398899 38.23071,13.322741 38.53125,13.34375 z "
       id="path4852" />
    <path
       style="color:#000000;fill:#000000;fill-opacity:1;fill-rule:evenodd;stroke:none;stroke-width:4;stroke-linecap:round;stroke-linejoin:round;marker:none;stroke-miterlimit:4;stroke-dasharray:none;stroke-dashoffset:0;stroke-opacity:1;visibility:visible;display:inline;overflow:visible"
       d="M 24.75,2.40625 C 21.506057,2.5006917 18.905389,5.2501416 19,8.5 C 18.998609,8.6257043 19.009072,8.7512598 19.03125,8.875 L 21.09375,18.375 C 21.213675,18.938462 21.57072,19.422859 22.073458,19.704152 C 22.576196,19.985446 23.175806,20.036321 23.71875,19.84375 C 24.11229,19.708384 24.476525,19.625 24.875,19.625 C 25.417365,19.625 25.935515,19.748849 26.40625,19.96875 C 26.974583,20.230787 27.632803,20.211713 28.185008,19.917203 C 28.737214,19.622694 29.119744,19.086702 29.21875,18.46875 L 30.78125,8.53125 C 30.803428,8.4075098 30.813891,8.2819543 30.8125,8.15625 C 30.71862,4.9315625 27.9993,2.3116531 24.75,2.40625 z M 24.875,6.40625 C 25.922856,6.3757438 26.71368,7.1604327 26.78125,8.21875 L 25.59375,15.78125 C 25.342914,15.755704 25.132285,15.625 24.875,15.625 C 24.786431,15.625 24.712541,15.653025 24.625,15.65625 L 23.03125,8.28125 C 23.055815,7.258635 23.832895,6.4365891 24.875,6.40625 z "
       id="path4862" />
    <path
       style="color:#000000;fill:#000000;fill-opacity:1;fill-rule:evenodd;stroke:none;stroke-width:4;stroke-linecap:round;stroke-linejoin:round;marker:none;stroke-miterlimit:4;stroke-dasharray:none;stroke-dashoffset:0;stroke-opacity:1;visibility:visible;display:inline;overflow:visible"
       d="M 19.90625,24.09375 C 19.310034,24.127097 18.759899,24.425087 18.40625,24.90625 L 10.84375,35.3125 C 10.771871,35.410744 10.70911,35.515345 10.65625,35.625 C 8.9982968,39.074978 10.443114,43.30447 13.90625,44.96875 C 17.362103,46.629527 21.611099,45.194108 23.28125,41.71875 C 23.333328,41.608225 23.37517,41.493161 23.40625,41.375 L 26.65625,29.40625 C 26.819764,28.81333 26.701402,28.178149 26.335305,27.683918 C 25.969208,27.189687 25.396086,26.891365 24.78125,26.875 C 23.490463,26.838735 22.363429,26.136662 21.75,25.09375 C 21.373489,24.43907 20.660336,24.052275 19.90625,24.09375 L 19.90625,24.09375 z M 20.3125,29.125 C 20.921575,29.602899 21.513143,30.067139 22.25,30.34375 L 19.625,40 C 18.88339,41.484886 17.17814,42.075123 15.65625,41.34375 C 14.147569,40.618723 13.585602,38.963431 14.28125,37.4375 L 20.3125,29.125 z "
       id="path4864" />
    <path
       style="color:#000000;fill:#000000;fill-opacity:1;fill-rule:evenodd;stroke:none;stroke-width:4;stroke-linecap:round;stroke-linejoin:round;marker:none;stroke-miterlimit:4;stroke-dasharray:none;stroke-dashoffset:0;stroke-opacity:1;visibility:visible;display:inline;overflow:visible"
       d="M 19.4375,22.90625 C 19.223825,22.914242 19.012813,22.956444 18.8125,23.03125 L 8.4375,26.84375 C 8.3182459,26.884877 8.2031499,26.937194 8.09375,27 C 5.3058095,28.667098 4.3991149,32.343264 6.0625,35.125 C 7.7211086,37.898746 11.383003,38.814559 14.15625,37.15625 C 14.256321,37.091845 14.350444,37.018638 14.4375,36.9375 L 23.03125,29.375 C 23.496702,28.967826 23.747639,28.368252 23.710966,27.750927 C 23.674293,27.133601 23.354135,26.567953 22.84375,26.21875 C 22.169256,25.755255 21.640648,25.065588 21.40625,24.3125 C 21.140013,23.455001 20.334995,22.879988 19.4375,22.90625 L 19.4375,22.90625 z M 18.5625,27.375 C 18.647017,27.502191 18.689624,27.659829 18.78125,27.78125 L 12.09375,33.71875 C 12.083855,33.724667 12.072431,33.71302 12.0625,33.71875 C 11.131178,34.256167 10.054598,33.989972 9.5,33.0625 C 8.9524993,32.146896 9.2341422,31.02989 10.125,30.46875 L 18.5625,27.375 z "
       id="path4868" />
    <path
       style="color:#000000;fill:#000000;fill-opacity:1;fill-rule:evenodd;stroke:none;stroke-width:4;stroke-linecap:round;stroke-linejoin:round;marker:none;stroke-miterlimit:4;stroke-dasharray:none;stroke-dashoffset:0;stroke-opacity:1;visibility:visible;display:inline;overflow:visible"
       d="M 29.84375,23.71875 C 29.107321,23.74845 28.446893,24.18073 28.125,24.84375 C 27.603034,25.906564 26.570054,26.684035 25.34375,26.84375 C 24.751699,26.924115 24.226575,27.264943 23.912088,27.772959 C 23.597602,28.280976 23.526686,28.902981 23.71875,29.46875 L 27.90625,41.34375 C 27.947377,41.463004 27.999694,41.5781 28.0625,41.6875 C 29.98247,45.013545 34.275359,46.134303 37.59375,44.21875 C 40.913281,42.30254 42.07832,38.017175 40.15625,34.6875 C 40.10339,34.577845 40.040629,34.473244 39.96875,34.375 L 31.4375,24.40625 C 31.038537,23.946513 30.451936,23.693469 29.84375,23.71875 z M 29.84375,28.75 L 36.71875,36.8125 C 37.473884,38.255111 37.03179,39.951137 35.59375,40.78125 C 34.136927,41.622206 32.425422,41.138288 31.5625,39.71875 L 28.09375,29.90625 C 28.747197,29.587447 29.311364,29.234212 29.84375,28.75 z "
       id="path4870" />
    <path
       style="color:#000000;fill:#000000;fill-opacity:1;fill-rule:evenodd;stroke:none;stroke-width:4;stroke-linecap:round;stroke-linejoin:round;marker:none;stroke-miterlimit:4;stroke-dasharray:none;stroke-dashoffset:0;stroke-opacity:1;visibility:visible;display:inline;overflow:visible"
       d="M 22.5,26.4375 C 21.580485,26.530118 20.844138,27.240628 20.71875,28.15625 L 19.34375,37.9375 C 19.321572,38.06124 19.311109,38.186796 19.3125,38.3125 C 19.455946,41.539045 22.240857,44.081006 25.46875,43.9375 C 28.695294,43.794053 31.237257,41.009143 31.09375,37.78125 C 31.082983,37.665063 31.06207,37.550041 31.03125,37.4375 L 28.875,28.0625 C 28.749073,27.497001 28.384139,27.013883 27.874616,26.738141 C 27.365094,26.4624 26.761044,26.421126 26.21875,26.625 C 25.837724,26.774891 25.370549,26.875 24.875,26.875 C 24.362935,26.875 23.892704,26.773166 23.46875,26.59375 C 23.163816,26.462037 22.830881,26.408337 22.5,26.4375 L 22.5,26.4375 z M 24.375,30.78125 C 24.547508,30.792784 24.700504,30.875 24.875,30.875 C 25.067541,30.875 25.245823,30.794731 25.4375,30.78125 L 27.09375,37.96875 L 27.09375,38 C 27.125452,39.07548 26.363291,39.889394 25.28125,39.9375 C 24.204748,39.985359 23.413324,39.224907 23.34375,38.15625 L 24.375,30.78125 z "
       id="path4872" />
    <path
       style="color:#000000;fill:#000000;fill-opacity:1;fill-rule:evenodd;stroke:none;stroke-width:4;stroke-linecap:round;stroke-linejoin:round;marker:none;stroke-miterlimit:4;stroke-dasharray:none;stroke-dashoffset:0;stroke-opacity:1;visibility:visible;display:inline;overflow:visible"
       d="M 30.375,21.5 C 29.354718,21.562946 28.546074,22.385067 28.5,23.40625 C 28.460585,24.282865 28.102406,25.083163 27.5,25.71875 C 27.116332,26.113475 26.912295,26.648869 26.935949,27.198823 C 26.959603,27.748778 27.208857,28.264675 27.625,28.625 L 35.65625,35.46875 C 35.754494,35.540629 35.859095,35.60339 35.96875,35.65625 C 38.769997,37.273821 42.388507,36.290717 44,33.5 C 45.622392,30.690405 44.64892,27.057337 41.84375,25.4375 C 41.73435,25.374694 41.619254,25.322377 41.5,25.28125 L 31.15625,21.625 C 30.906754,21.531731 30.641142,21.489233 30.375,21.5 z M 31.90625,26.09375 L 39.875,28.9375 C 40.763521,29.493805 41.08979,30.58686 40.5625,31.5 C 40.029388,32.423221 38.983734,32.693943 38.0625,32.21875 L 31.59375,26.6875 C 31.700094,26.485603 31.817623,26.306437 31.90625,26.09375 z "
       id="path4866" />
    <path
       style="opacity:1;color:#000000;fill:none;fill-opacity:1;fill-rule:evenodd;stroke:none;stroke-width:6.16710997;stroke-linecap:round;stroke-linejoin:round;marker:none;stroke-miterlimit:4;stroke-dasharray:none;stroke-dashoffset:0;stroke-opacity:1;visibility:visible;display:inline;overflow:visible"
       d="M 24.87847,15.627659 C 20.695082,15.627659 17.257396,19.065345 17.257396,23.248733 C 17.257396,27.43212 20.695082,30.869806 24.87847,30.869806 C 29.061857,30.869806 32.499541,27.432119 32.499543,23.248733 C 32.499543,19.065345 29.061857,15.627659 24.87847,15.627659 z M 24.87847,19.640884 C 26.897606,19.640884 28.486318,21.229596 28.486318,23.248733 C 28.486317,25.267869 26.897606,26.87685 24.87847,26.87685 C 22.859333,26.87685 21.250352,25.267869 21.250352,23.248733 C 21.250352,21.229596 22.859333,19.640884 24.87847,19.640884 z "
       id="path4838" />
  </g>
</svg>
