<?xml version="1.0" encoding="UTF-8" standalone="no"?>
<!-- Created with Inkscape (http://www.inkscape.org/) -->
<svg
   xmlns:dc="http://purl.org/dc/elements/1.1/"
   xmlns:cc="http://web.resource.org/cc/"
   xmlns:rdf="http://www.w3.org/1999/02/22-rdf-syntax-ns#"
   xmlns:svg="http://www.w3.org/2000/svg"
   xmlns="http://www.w3.org/2000/svg"
   xmlns:sodipodi="http://sodipodi.sourceforge.net/DTD/sodipodi-0.dtd"
   xmlns:inkscape="http://www.inkscape.org/namespaces/inkscape"
   id="svg2"
   sodipodi:version="0.32"
   inkscape:version="0.45.1"
   width="48"
   height="48"
   version="1.0"
   sodipodi:docbase="/home/qwerty/.icons/MonoIce/scalable/apps"
   sodipodi:docname="mercurylogo.svg"
   inkscape:output_extension="org.inkscape.output.svg.inkscape">
  <metadata
     id="metadata7">
    <rdf:RDF>
      <cc:Work
         rdf:about="">
        <dc:format>image/svg+xml</dc:format>
        <dc:type
           rdf:resource="http://purl.org/dc/dcmitype/StillImage" />
      </cc:Work>
    </rdf:RDF>
  </metadata>
  <defs
     id="defs5" />
  <sodipodi:namedview
     inkscape:window-height="757"
     inkscape:window-width="772"
     inkscape:pageshadow="2"
     inkscape:pageopacity="0.0"
     guidetolerance="10000"
     gridtolerance="10000"
     objecttolerance="10000"
     borderopacity="1.0"
     bordercolor="#666666"
     pagecolor="#ffffff"
     id="base"
     width="48px"
     height="48px"
     showgrid="true"
     showguides="true"
     inkscape:guide-bbox="true"
     inkscape:zoom="4"
     inkscape:cx="-5.641523"
     inkscape:cy="16.032959"
     inkscape:window-x="481"
     inkscape:window-y="112"
     inkscape:current-layer="svg2" />
  <path
     style="opacity:1;color:#000000;fill:#000000;fill-opacity:1;fill-rule:nonzero;stroke:none;stroke-width:0.1736111;stroke-linecap:round;stroke-linejoin:round;marker:none;stroke-miterlimit:4;stroke-dasharray:none;stroke-dashoffset:0;stroke-opacity:1;visibility:visible;display:inline;overflow:visible;enable-background:accumulate"
     d="M 20,7.84 C 8.9818803,7.84 -0.16,16.98188 -0.16,28 C -0.16,39.01812 8.9818803,48.16 20,48.16 C 31.01812,48.16 40.16,39.01812 40.16,28 C 40.16,16.98188 31.01812,7.84 20,7.84 z M 20,12.16 C 28.85388,12.16 35.84,19.14612 35.84,28 C 35.84,36.85388 28.85388,43.84 20,43.84 C 11.14612,43.84 4.16,36.85388 4.16,28 C 4.16,19.14612 11.14612,12.16 20,12.16 z "
     id="path2165" />
  <path
     style="fill:#000000;fill-rule:evenodd;stroke:#000000;stroke-width:1px;stroke-linecap:butt;stroke-linejoin:round;stroke-opacity:1;fill-opacity:1"
     d="M 15,28 C 17.5,34 22.260586,30.53705 30,28 C 37.739414,25.46295 47.902948,24.660317 48,25 L 30,22 L 48,19 L 30,16 L 48,13 L 30,10 L 48,7 C 48.072821,7.0728206 38.406711,6.156711 30,4 C 21.593289,1.843289 23.75,-2 20,4 C 16.25,10 12.5,22 15,28 z "
     id="path2162"
     sodipodi:nodetypes="czccccccczzz" />
</svg>
