<?xml version="1.0" encoding="UTF-8" standalone="no"?>
<!-- Created with Inkscape (http://www.inkscape.org/) -->
<svg
   xmlns:dc="http://purl.org/dc/elements/1.1/"
   xmlns:cc="http://web.resource.org/cc/"
   xmlns:rdf="http://www.w3.org/1999/02/22-rdf-syntax-ns#"
   xmlns:svg="http://www.w3.org/2000/svg"
   xmlns="http://www.w3.org/2000/svg"
   xmlns:sodipodi="http://sodipodi.sourceforge.net/DTD/sodipodi-0.dtd"
   xmlns:inkscape="http://www.inkscape.org/namespaces/inkscape"
   width="48"
   height="48"
   id="svg2"
   sodipodi:version="0.32"
   inkscape:version="0.45.1"
   sodipodi:docbase="/home/qwerty/.icons/MonoIce/scalable/apps"
   sodipodi:docname="onboard.svg"
   version="1.0"
   inkscape:output_extension="org.inkscape.output.svg.inkscape">
  <defs
     id="defs4" />
  <sodipodi:namedview
     id="base"
     pagecolor="#ffffff"
     bordercolor="#666666"
     borderopacity="1.0"
     inkscape:pageopacity="0.0"
     inkscape:pageshadow="2"
     inkscape:zoom="15.839192"
     inkscape:cx="20.373763"
     inkscape:cy="23.222076"
     inkscape:document-units="px"
     inkscape:current-layer="layer1"
     inkscape:window-width="1278"
     inkscape:window-height="978"
     inkscape:window-x="1"
     inkscape:window-y="22"
     showgrid="true"
     objecttolerance="10000"
     gridtolerance="10000"
     guidetolerance="10000"
     width="48px"
     height="48px" />
  <metadata
     id="metadata7">
    <rdf:RDF>
      <cc:Work
         rdf:about="">
        <dc:format>image/svg+xml</dc:format>
        <dc:type
           rdf:resource="http://purl.org/dc/dcmitype/StillImage" />
      </cc:Work>
    </rdf:RDF>
  </metadata>
  <g
     inkscape:label="Layer 1"
     inkscape:groupmode="layer"
     id="layer1">
    <path
       style="fill:#000000;fill-opacity:1;stroke:none;stroke-width:4;stroke-miterlimit:4;stroke-dasharray:none;stroke-opacity:1"
       d="M 4.4375 0 C 2.0196551 0 0 2.0196576 0 4.4375 L 0 20.125 C 0 22.542842 2.0196551 24.53125 4.4375 24.53125 L 20.125 24.53125 C 22.542845 24.53125 24.53125 22.542842 24.53125 20.125 L 24.53125 4.4375 C 24.53125 2.0196576 22.542845 0 20.125 0 L 4.4375 0 z M 12 3 C 14.726471 3.0000176 16.930067 3.8029136 18.5625 5.4375 C 20.194898 7.0643697 20.999981 9.2575965 21 12 C 20.99998 14.734674 20.194899 16.9279 18.5625 18.5625 C 16.930067 20.189357 14.726471 21 12 21 C 9.2648253 21 7.0785947 20.189357 5.4375 18.5625 C 3.8050802 16.935648 2.9999985 14.742421 3 12 C 2.9999985 9.2575967 3.8050805 7.0643699 5.4375 5.4375 C 7.0785945 3.8029134 9.2648251 3.0000177 12 3 z M 12 4.90625 C 10.089716 4.9062659 8.5975421 5.5420178 7.46875 6.8125 C 6.3486293 8.08301 5.7812457 9.8076283 5.78125 12 C 5.7812457 14.184642 6.3486291 15.917007 7.46875 17.1875 C 8.5975423 18.457999 10.089716 19.093752 12 19.09375 C 13.910263 19.093752 15.419803 18.458 16.53125 17.1875 C 17.651351 15.917007 18.218733 14.184642 18.21875 12 C 18.218732 9.8076285 17.65135 8.0830099 16.53125 6.8125 C 15.419804 5.5420179 13.910263 4.9062658 12 4.90625 z "
       id="rect1307" />
    <path
       style="fill:#000000;fill-opacity:1;stroke:none;stroke-width:4;stroke-miterlimit:4;stroke-dasharray:none;stroke-opacity:1"
       d="M 27.875,0 C 25.457155,0 23.46875,2.0196576 23.46875,4.4375 L 23.46875,20.125 C 23.46875,22.542842 25.457155,24.53125 27.875,24.53125 L 43.5625,24.53125 C 45.980345,24.53125 48,22.542842 48,20.125 L 48,4.4375 C 48,2.0196576 45.980345,0 43.5625,0 L 27.875,0 z M 27.875,4 L 43.5625,4 C 43.833529,4 44,4.166462 44,4.4375 L 44,20.125 C 44,20.396036 43.833527,20.53125 43.5625,20.53125 L 27.875,20.53125 C 27.603971,20.53125 27.46875,20.396038 27.46875,20.125 L 27.46875,4.4375 C 27.46875,4.166462 27.603973,4 27.875,4 z "
       id="rect2202" />
    <path
       style="fill:#000000;fill-opacity:1;stroke:none;stroke-width:4;stroke-miterlimit:4;stroke-dasharray:none;stroke-opacity:1"
       d="M 4.4375,23.46875 C 2.0196551,23.46875 0,25.457157 0,27.875 L 0,43.5625 C 0,45.980342 2.0196536,48.000003 4.4375,48 L 20.125,48 C 22.542845,48 24.53125,45.980342 24.53125,43.5625 L 24.53125,27.875 C 24.53125,25.457158 22.542845,23.46875 20.125,23.46875 L 4.4375,23.46875 z M 4.4375,27.46875 L 20.125,27.46875 C 20.396029,27.46875 20.53125,27.603962 20.53125,27.875 L 20.53125,43.5625 C 20.53125,43.833536 20.396027,44 20.125,44 L 4.4375,44 C 4.1664745,44 4,43.833538 4,43.5625 L 4,27.875 C 4,27.60396 4.1664729,27.46875 4.4375,27.46875 z "
       id="rect2208" />
    <path
       style="fill:#000000;fill-opacity:1;stroke:none;stroke-width:4;stroke-miterlimit:4;stroke-dasharray:none;stroke-opacity:1"
       d="M 27.875 23.46875 C 25.457155 23.46875 23.46875 25.457157 23.46875 27.875 L 23.46875 43.5625 C 23.46875 45.980342 25.457153 48.000003 27.875 48 L 43.5625 48 C 45.980345 48 48 45.980342 48 43.5625 L 48 27.875 C 48 25.457158 45.980345 23.46875 43.5625 23.46875 L 27.875 23.46875 z M 27 27 L 35.78125 27 C 38.398801 27.000018 40.396052 27.384666 41.8125 28.15625 C 43.228912 28.927867 43.93748 30.014875 43.9375 31.4375 C 43.937481 32.538652 43.568943 33.411473 42.84375 34.0625 C 42.118519 34.713548 41.061332 35.12051 39.65625 35.28125 C 41.344619 35.53846 42.664552 36.086433 43.59375 36.90625 C 44.534238 37.718047 44.999979 38.747054 45 39.96875 C 44.99998 41.576257 44.228557 42.811413 42.6875 43.6875 C 41.146406 44.56359 38.969179 45 36.125 45 L 27 45 L 27 27 z M 30.4375 29 L 30.4375 34.4375 L 35.5 34.4375 C 37.177039 34.437509 38.434121 34.192074 39.25 33.75 C 40.07718 33.299912 40.499983 32.635039 40.5 31.71875 C 40.499983 30.810525 40.077179 30.137616 39.25 29.6875 C 38.434122 29.237416 37.177041 29.000016 35.5 29 L 30.4375 29 z M 30.4375 36.40625 L 30.4375 43 L 35.9375 43 C 37.784513 43.000002 39.147381 42.726016 40.03125 42.1875 C 40.926416 41.640952 41.374982 40.804718 41.375 39.6875 C 41.374981 38.562254 40.926417 37.749233 40.03125 37.21875 C 39.14738 36.680246 37.784512 36.406259 35.9375 36.40625 L 30.4375 36.40625 z "
       id="rect2210" />
  </g>
</svg>
