<?xml version="1.0" encoding="UTF-8" standalone="no"?>
<!-- Created with Inkscape (http://www.inkscape.org/) -->
<svg
   xmlns:dc="http://purl.org/dc/elements/1.1/"
   xmlns:cc="http://web.resource.org/cc/"
   xmlns:rdf="http://www.w3.org/1999/02/22-rdf-syntax-ns#"
   xmlns:svg="http://www.w3.org/2000/svg"
   xmlns="http://www.w3.org/2000/svg"
   xmlns:sodipodi="http://sodipodi.sourceforge.net/DTD/sodipodi-0.dtd"
   xmlns:inkscape="http://www.inkscape.org/namespaces/inkscape"
   id="svg2"
   sodipodi:version="0.32"
   inkscape:version="0.45.1"
   width="48"
   height="48"
   version="1.0"
   sodipodi:docbase="/home/qwerty/.icons/MonoIce/scalable/apps"
   sodipodi:docname="ooo-impress.svg"
   inkscape:output_extension="org.inkscape.output.svg.inkscape">
  <metadata
     id="metadata7">
    <rdf:RDF>
      <cc:Work
         rdf:about="">
        <dc:format>image/svg+xml</dc:format>
        <dc:type
           rdf:resource="http://purl.org/dc/dcmitype/StillImage" />
      </cc:Work>
    </rdf:RDF>
  </metadata>
  <defs
     id="defs5" />
  <sodipodi:namedview
     inkscape:window-height="777"
     inkscape:window-width="853"
     inkscape:pageshadow="2"
     inkscape:pageopacity="1"
     guidetolerance="10000"
     gridtolerance="10000"
     objecttolerance="10000"
     borderopacity="1.0"
     bordercolor="#666666"
     pagecolor="#ff0000"
     id="base"
     showgrid="true"
     inkscape:zoom="16"
     inkscape:cx="27.170379"
     inkscape:cy="31.080145"
     inkscape:window-x="421"
     inkscape:window-y="216"
     inkscape:current-layer="svg2" />
  <path
     style="fill:#000000;fill-opacity:1;fill-rule:evenodd;stroke:none;stroke-width:1px;stroke-linecap:butt;stroke-linejoin:miter;stroke-opacity:1"
     d="M 13 0 C 13 0 7.4558565 14.079714 7.03125 25.9375 C 6.6066433 37.795288 9.7926442 46.902731 13.1875 48.0625 C 16.582353 49.222263 24.848183 44.132007 32.0625 34.59375 C 39.276816 25.055494 44 10.6875 44 10.6875 C 44 10.6875 34.633458 9.3820317 27.84375 7.0625 C 21.054041 4.7429685 13 -6.8232457e-17 13 0 z M 14.25 7 L 22.4375 17.84375 L 11.3125 10.96875 L 14.25 7 z M 38.1875 14.625 L 38.15625 19.53125 L 25.0625 18.625 L 38.1875 14.625 z M 12.21875 29 C 13.839837 29.045397 15.967887 32.313757 18.8125 33.0625 C 22.020815 33.906976 25.210046 32.767469 26.28125 33.375 C 27.096187 33.837192 27.022565 37.015886 23.40625 39.65625 C 20.883934 41.497857 17.491198 41.07178 16.03125 40.6875 C 14.451488 40.271685 11.63607 38.487994 10.71875 35.125 C 10.129392 32.964361 10.876293 29.294124 11.875 29.03125 C 11.978642 29.00397 12.110678 28.996974 12.21875 29 z "
     id="path3136" />
  <g
     id="g2196"
     transform="matrix(-0.163237,0,0,0.1603525,-6.858047,-7.0707214)"
     style="fill:#ffffff">
    <g
       id="g2184"
       style="fill:#ffffff" />
    <g
       id="g2190"
       style="fill:#ffffff" />
  </g>
</svg>
