<?xml version="1.0" encoding="UTF-8" standalone="no"?>
<!-- Generator: Adobe Illustrator 9.0, SVG Export Plug-In  -->
<svg
   xmlns:dc="http://purl.org/dc/elements/1.1/"
   xmlns:cc="http://web.resource.org/cc/"
   xmlns:rdf="http://www.w3.org/1999/02/22-rdf-syntax-ns#"
   xmlns:svg="http://www.w3.org/2000/svg"
   xmlns="http://www.w3.org/2000/svg"
   xmlns:sodipodi="http://sodipodi.sourceforge.net/DTD/sodipodi-0.dtd"
   xmlns:inkscape="http://www.inkscape.org/namespaces/inkscape"
   width="48"
   height="48"
   viewBox="0 0 48 48"
   xml:space="preserve"
   id="svg2"
   sodipodi:version="0.32"
   inkscape:version="0.45.1"
   sodipodi:docname="ooo-base.svg"
   sodipodi:docbase="/home/qwerty/.icons/MonoIce/scalable/apps"
   version="1.0"
   inkscape:output_extension="org.inkscape.output.svg.inkscape"><metadata
   id="metadata23"><rdf:RDF><cc:Work
       rdf:about=""><dc:format>image/svg+xml</dc:format><dc:type
         rdf:resource="http://purl.org/dc/dcmitype/StillImage" /><dc:title>Empty Trash Icon</dc:title><dc:subject><rdf:Bag><rdf:li>trash</rdf:li><rdf:li>delete</rdf:li><rdf:li>deleted files</rdf:li><rdf:li>waste</rdf:li><rdf:li>recycle</rdf:li><rdf:li>bin</rdf:li><rdf:li>empty</rdf:li></rdf:Bag></dc:subject><dc:description>An empty trash bin</dc:description><cc:license
         rdf:resource="http://creativecommons.org/licenses/LGPL/2.1/" /></cc:Work><cc:License
       rdf:about="http://creativecommons.org/licenses/LGPL/2.1/"><cc:permits
         rdf:resource="http://web.resource.org/cc/Reproduction" /><cc:permits
         rdf:resource="http://web.resource.org/cc/Distribution" /><cc:requires
         rdf:resource="http://web.resource.org/cc/Notice" /><cc:permits
         rdf:resource="http://web.resource.org/cc/DerivativeWorks" /><cc:requires
         rdf:resource="http://web.resource.org/cc/ShareAlike" /><cc:requires
         rdf:resource="http://web.resource.org/cc/SourceCode" /></cc:License></rdf:RDF></metadata><defs
   id="defs21" /><sodipodi:namedview
   inkscape:window-height="947"
   inkscape:window-width="1268"
   inkscape:pageshadow="2"
   inkscape:pageopacity="0.0"
   borderopacity="1.0"
   bordercolor="#666666"
   pagecolor="#ffffff"
   id="base"
   showgrid="true"
   inkscape:grid-bbox="true"
   inkscape:grid-points="true"
   inkscape:zoom="8"
   inkscape:cx="30.374628"
   inkscape:cy="20.107873"
   inkscape:window-x="6"
   inkscape:window-y="42"
   inkscape:current-layer="svg2"
   showguides="true"
   inkscape:guide-bbox="true"
   objecttolerance="10000"
   gridtolerance="10000"
   guidetolerance="10000"><sodipodi:guide
     orientation="vertical"
     position="24"
     id="guide2162" /><sodipodi:guide
     orientation="horizontal"
     position="37"
     id="guide2164" /><sodipodi:guide
     orientation="vertical"
     position="6"
     id="guide2166" /><sodipodi:guide
     orientation="vertical"
     position="10"
     id="guide2168" /><sodipodi:guide
     orientation="horizontal"
     position="42"
     id="guide2170" /><sodipodi:guide
     orientation="horizontal"
     position="45"
     id="guide2172" /></sodipodi:namedview>
	
	
<path
   style="fill:#000000;fill-opacity:1;fill-rule:evenodd;stroke:none;stroke-width:3.99999952;stroke-linecap:butt;stroke-linejoin:miter;stroke-miterlimit:4;stroke-dasharray:none;stroke-opacity:1"
   d="M 6,8.9375 L 6,37.65625 L 6,37.71875 L 6,37.8125 C 6.2475519,41.434718 8.8816928,44.088318 12.125,45.65625 C 15.368307,47.224182 19.38219,47.93 23.4375,47.9375 C 27.49281,47.945 31.601954,47.258021 35,45.71875 C 38.398046,44.179479 41.247061,41.660975 41.96875,38.0625 L 42,37.875 L 42,37.65625 L 42,8.9375 L 38,8.9375 L 38,37.34375 C 37.584593,39.269291 36.006167,40.856459 33.34375,42.0625 C 30.650356,43.282573 27.009793,43.944107 23.4375,43.9375 C 19.865207,43.930893 16.354055,43.260965 13.875,42.0625 C 11.395945,40.864035 10.128164,39.406559 10,37.53125 L 10,8.9375 L 6,8.9375 z "
   id="path3197" /><path
   style="fill:#000000;fill-opacity:1;fill-rule:evenodd;stroke:none;stroke-width:3.99999952;stroke-linecap:butt;stroke-linejoin:miter;stroke-miterlimit:4;stroke-dasharray:none;stroke-opacity:1"
   d="M 24,0 C 19.711072,0 15.516326,0.91460499 12.21875,2.34375 C 10.569962,3.0583225 9.1162625,3.9008288 8,4.9375 C 6.8837375,5.9741712 6,7.3015893 6,8.9375 C 6,10.573411 6.8837375,11.900829 8,12.9375 C 9.1162625,13.974171 10.569962,14.816678 12.21875,15.53125 C 15.516326,16.960395 19.711072,17.875 24,17.875 C 28.288928,17.875 32.483674,16.960395 35.78125,15.53125 C 37.430038,14.816678 38.883738,13.974171 40,12.9375 C 41.116262,11.900829 42,10.573411 42,8.9375 C 42,7.3015893 41.116262,5.9741711 40,4.9375 C 38.883738,3.9008289 37.430038,3.0583225 35.78125,2.34375 C 32.483674,0.91460505 28.288928,2.0596817e-08 24,0 z M 24,4 C 27.711072,4 31.516326,4.8287895 34.21875,6 C 35.569962,6.5856052 36.616262,7.255199 37.25,7.84375 C 37.883738,8.432301 38,8.8398403 38,8.9375 C 38,9.0351596 37.883738,9.411449 37.25,10 C 36.616262,10.588551 35.569962,11.289395 34.21875,11.875 C 31.516326,13.04621 27.711072,13.875 24,13.875 C 20.288928,13.875 16.483674,13.04621 13.78125,11.875 C 12.430038,11.289395 11.383738,10.588551 10.75,10 C 10.116262,9.411449 10,9.0351598 10,8.9375 C 10,8.8398402 10.116262,8.4323011 10.75,7.84375 C 11.383738,7.2551989 12.430038,6.5856053 13.78125,6 C 16.483674,4.8287895 20.288928,4 24,4 z "
   id="path2224" /></svg>