<?xml version="1.0" encoding="UTF-8" standalone="no"?>
<!-- Created with Inkscape (http://www.inkscape.org/) -->
<svg
   xmlns:dc="http://purl.org/dc/elements/1.1/"
   xmlns:cc="http://web.resource.org/cc/"
   xmlns:rdf="http://www.w3.org/1999/02/22-rdf-syntax-ns#"
   xmlns:svg="http://www.w3.org/2000/svg"
   xmlns="http://www.w3.org/2000/svg"
   xmlns:sodipodi="http://sodipodi.sourceforge.net/DTD/sodipodi-0.dtd"
   xmlns:inkscape="http://www.inkscape.org/namespaces/inkscape"
   id="svg2"
   sodipodi:version="0.32"
   inkscape:version="0.45.1"
   width="48"
   height="48"
   version="1.0"
   sodipodi:docbase="/home/qwerty/.icons/MonoIce/scalable/apps"
   sodipodi:docname="gnome-palm.svg"
   inkscape:output_extension="org.inkscape.output.svg.inkscape">
  <metadata
     id="metadata7">
    <rdf:RDF>
      <cc:Work
         rdf:about="">
        <dc:format>image/svg+xml</dc:format>
        <dc:type
           rdf:resource="http://purl.org/dc/dcmitype/StillImage" />
      </cc:Work>
    </rdf:RDF>
  </metadata>
  <defs
     id="defs5" />
  <sodipodi:namedview
     inkscape:window-height="614"
     inkscape:window-width="772"
     inkscape:pageshadow="2"
     inkscape:pageopacity="0.0"
     guidetolerance="10000"
     gridtolerance="10000"
     objecttolerance="10000"
     borderopacity="1.0"
     bordercolor="#666666"
     pagecolor="#ffffff"
     id="base"
     showgrid="true"
     showguides="true"
     inkscape:guide-bbox="true"
     inkscape:zoom="5.9956763"
     inkscape:cx="42.676761"
     inkscape:cy="27.708103"
     inkscape:window-x="1"
     inkscape:window-y="42"
     inkscape:current-layer="svg2" />
  <path
     style="fill:#000000;fill-rule:evenodd;stroke:none;stroke-width:1px;stroke-linecap:butt;stroke-linejoin:miter;stroke-opacity:1"
     d="M 12 0 C 9.7379512 0 8 1.8804904 8 4.21875 L 8 33.8125 C 8 46.405295 16 48 24 48 C 32 48 40 46.405293 40 33.8125 L 40 4.21875 C 40 1.8804902 38.262049 2.9490299e-17 36 0 L 12 0 z M 15.75 6 L 32.25 6 C 33.827235 6 35 7.5414308 35 8.75 L 35 25.25 C 35 26.695106 33.525138 28 32.25 28 L 15.75 28 C 13.879768 28 13 26.458569 13 25.25 L 13 8.75 C 13 7.541431 14.228164 6 15.75 6 z M 21 33 L 27 33 L 27 45 L 21 45 L 21 33 z M 12.40625 35 L 16.40625 35 L 16.40625 43 C 16.40625 46.432326 10.40625 35 12.40625 35 z M 32 35 L 36 35 C 38 35 32 46.432326 32 43 L 32 35 z "
     id="path2161" />
</svg>
