<?xml version="1.0" encoding="UTF-8" standalone="no"?>
<!-- Generator: Adobe Illustrator 11.0, SVG Export Plug-In  -->
<svg
   xmlns:dc="http://purl.org/dc/elements/1.1/"
   xmlns:cc="http://web.resource.org/cc/"
   xmlns:rdf="http://www.w3.org/1999/02/22-rdf-syntax-ns#"
   xmlns:svg="http://www.w3.org/2000/svg"
   xmlns="http://www.w3.org/2000/svg"
   xmlns:sodipodi="http://sodipodi.sourceforge.net/DTD/sodipodi-0.dtd"
   xmlns:inkscape="http://www.inkscape.org/namespaces/inkscape"
   width="48"
   height="48"
   viewBox="-0.7 -0.596 512 438"
   xml:space="preserve"
   id="svg2"
   sodipodi:version="0.32"
   inkscape:version="0.45.1"
   sodipodi:docname="gnome-settings-keybindings.svg"
   sodipodi:docbase="/home/qwerty/.icons/MonoBlack/scalable/apps"
   inkscape:output_extension="org.inkscape.output.svg.inkscape"
   version="1.0"><metadata
   id="metadata29"><rdf:RDF><cc:Work
       rdf:about=""><dc:format>image/svg+xml</dc:format><dc:type
         rdf:resource="http://purl.org/dc/dcmitype/StillImage" /></cc:Work></rdf:RDF></metadata><sodipodi:namedview
   inkscape:window-height="614"
   inkscape:window-width="772"
   inkscape:pageshadow="2"
   inkscape:pageopacity="0.0"
   guidetolerance="10000"
   gridtolerance="10000"
   objecttolerance="10000"
   borderopacity="1.0"
   bordercolor="#666666"
   pagecolor="#ffffff"
   id="base"
   width="48px"
   height="48px"
   showgrid="true"
   inkscape:zoom="7.4337899"
   inkscape:cx="21.110548"
   inkscape:cy="24.97912"
   inkscape:window-x="485"
   inkscape:window-y="42"
   inkscape:current-layer="svg2" />
	<defs
   id="defs4">
	</defs>
	<g
   id="g6"
   transform="matrix(2.1643768,0,0,2.1629686,-296.86235,-253.41762)"
   style="fill:#000000;fill-opacity:1;stroke:none">
		 
		
		
		 
		<path
   d="M 10.03125,-0.09375 C 4.4577703,-0.093749996 -0.062500001,4.4245282 -0.0625,9.96875 C -0.0625,15.542229 4.487028,20.075135 10.03125,20.03125 L 14.75,20.03125 L 14.75,27.90625 L 10.03125,27.90625 C 4.4577703,27.90625 -0.062500001,32.393279 -0.0625,37.9375 C -0.0625,43.525611 4.4577709,48 10.03125,48 C 15.575472,48.000004 20.09375,43.525608 20.09375,37.9375 L 20.09375,33.25 L 27.9375,33.25 L 27.9375,37.9375 C 27.937496,43.525611 32.409898,48 37.96875,48 C 43.542233,48.000004 48.031251,43.525608 48.03125,37.9375 C 48.031254,32.393278 43.542227,27.90625 37.96875,27.90625 L 33.25,27.90625 L 33.25,20.03125 L 37.96875,20.03125 C 43.542233,20.03125 48.031251,15.542229 48.03125,9.96875 C 48.031254,4.4245291 43.542227,-0.09375 37.96875,-0.09375 C 32.409904,-0.093749996 27.908243,4.4245282 27.9375,9.96875 L 27.9375,14.71875 L 20.09375,14.71875 L 20.09375,9.96875 C 20.093754,4.4245291 15.575472,-0.09375 10.03125,-0.09375 z M 10.03125,5.25 C 12.620504,5.2499992 14.75,7.3482459 14.75,9.9375 L 14.75,14.6875 L 10.03125,14.6875 C 7.39811,14.6875 5.3124998,12.570639 5.3125,9.9375 C 5.3124992,7.3482472 7.3981103,5.2500001 10.03125,5.25 z M 37.96875,5.25 C 40.601892,5.2499995 42.6875,7.348246 42.6875,9.9375 C 42.687503,12.570639 40.60189,14.6875 37.96875,14.6875 L 33.25,14.6875 L 33.25,9.9375 C 33.250003,7.3482468 35.379496,5.25 37.96875,5.25 z M 20.09375,20.03125 L 27.9375,20.03125 L 27.9375,27.90625 L 20.09375,27.90625 L 20.09375,20.03125 z M 10.03125,33.25 L 14.75,33.25 L 14.75,37.9375 C 14.75,40.570641 12.620504,42.687501 10.03125,42.6875 C 7.3981103,42.687501 5.3124998,40.57064 5.3125,37.9375 C 5.3124998,35.348247 7.3981103,33.250002 10.03125,33.25 z M 33.25,33.25 L 37.96875,33.25 C 40.601892,33.25 42.6875,35.348247 42.6875,37.9375 C 42.687502,40.570642 40.601889,42.687501 37.96875,42.6875 C 35.379498,42.687502 33.25,40.57064 33.25,37.9375 L 33.25,33.25 z "
   transform="matrix(4.9218811,0,0,4.9218811,137.14255,100.24171)"
   id="path16"
   style="fill:#000000;fill-opacity:1;stroke:none" />
		 
		
		
		
		
	</g>
</svg>