<?xml version="1.0" encoding="UTF-8" standalone="no"?>
<!-- Created with Inkscape (http://www.inkscape.org/) -->
<svg
   xmlns:dc="http://purl.org/dc/elements/1.1/"
   xmlns:cc="http://web.resource.org/cc/"
   xmlns:rdf="http://www.w3.org/1999/02/22-rdf-syntax-ns#"
   xmlns:svg="http://www.w3.org/2000/svg"
   xmlns="http://www.w3.org/2000/svg"
   xmlns:sodipodi="http://sodipodi.sourceforge.net/DTD/sodipodi-0.dtd"
   xmlns:inkscape="http://www.inkscape.org/namespaces/inkscape"
   id="svg2"
   sodipodi:version="0.32"
   inkscape:version="0.45.1"
   width="49"
   height="46"
   version="1.0"
   sodipodi:docbase="/home/qwerty/.icons/MonoIce/scalable/apps"
   sodipodi:docname="python2.5.svg"
   inkscape:output_extension="org.inkscape.output.svg.inkscape">
  <metadata
     id="metadata7">
    <rdf:RDF>
      <cc:Work
         rdf:about="">
        <dc:format>image/svg+xml</dc:format>
        <dc:type
           rdf:resource="http://purl.org/dc/dcmitype/StillImage" />
      </cc:Work>
    </rdf:RDF>
  </metadata>
  <defs
     id="defs5" />
  <sodipodi:namedview
     inkscape:window-height="976"
     inkscape:window-width="1278"
     inkscape:pageshadow="2"
     inkscape:pageopacity="0.0"
     guidetolerance="10000"
     gridtolerance="10000"
     objecttolerance="10000"
     borderopacity="1.0"
     bordercolor="#666666"
     pagecolor="#ffffff"
     id="base"
     showgrid="true"
     inkscape:zoom="5.6568543"
     inkscape:cx="87.908202"
     inkscape:cy="-2.0265796"
     inkscape:window-x="1"
     inkscape:window-y="24"
     inkscape:current-layer="svg2" />
  <path
     style="fill:#000000;fill-opacity:1;stroke:none;stroke-width:2.5;stroke-linejoin:round;stroke-miterlimit:4;stroke-dasharray:none;stroke-opacity:1"
     d="M 39.6875,11.90625 C 39.420128,11.918429 39.236493,11.959599 39.0625,12 L 38.75,12.09375 C 38.749934,12.093776 38.531339,12.187445 38.53125,12.1875 C 38.531071,12.18761 38.344019,12.312258 38.34375,12.3125 C 38.34375,12.3125 38.27545,12.356537 38.242188,12.390625 C 38.208925,12.424713 38.200917,12.451576 38.1875,12.46875 L 38.03125,12.75 C 38.022458,12.771718 38.008208,12.822898 38,12.84375 C 37.970706,12.918172 37.95683,12.99134 37.9375,13.0625 C 37.936505,13.06537 37.9375,13.09375 37.9375,13.09375 C 37.914066,13.1849 37.895558,13.257488 37.875,13.375 C 37.784909,13.889962 37.75,14.511821 37.75,15.375 C 37.75,18.336954 36.831403,20.446679 34.78125,21.75 C 32.682682,23.084099 29.396105,23.65625 24.65625,23.65625 C 19.29658,23.65625 16.332192,23.940285 14.53125,25.625 C 13.6705,26.430199 13.145682,27.563973 12.84375,29.09375 C 12.53879,30.638864 12.4375,32.591171 12.4375,35.09375 C 12.4375,38.635998 12.466935,40.514067 12.96875,41.875 C 13.191974,42.480389 13.584542,43.07491 14.09375,43.5 C 14.602958,43.92509 15.171607,44.203469 15.96875,44.625 C 18.127299,45.766444 21.927018,46.199179 25.71875,46.09375 C 27.60916,46.041187 29.461769,45.829318 31.03125,45.5 C 31.389864,45.424754 31.68959,45.307107 31.875,45.21875 C 32.06041,45.130393 32.114944,45.095658 32.21875,45.0625 C 32.596287,44.941908 33.026444,44.823402 33.4375,44.6875 C 33.848556,44.551598 34.218636,44.490229 34.6875,44.125 C 35.361898,43.599668 35.718673,42.928932 36.09375,42 C 36.461484,41.089254 36.687499,40.081511 36.6875,39.125 C 36.6875,38.336262 36.716629,37.840271 36.5625,37.25 C 36.523494,37.10062 36.499763,36.906685 36.28125,36.59375 C 36.062737,36.280815 35.819852,36.169131 35.75,36.125 C 35.12388,35.729427 34.748212,35.72987 33.9375,35.59375 C 33.126788,35.45763 32.025002,35.324676 30.59375,35.21875 C 29.713529,35.153606 29.227133,35.118198 28.875,35.0625 C 29.673286,34.95299 31.570799,34.850029 34.875,34.78125 C 40.958584,34.654617 44.187932,34.428468 46.21875,32.96875 C 47.172427,32.283263 47.820184,31.247003 48.21875,29.90625 C 48.626694,28.533949 48.829998,26.834595 49,24.59375 C 49.308044,20.533374 48.948202,17.564952 47.78125,15.46875 C 46.647181,13.431616 44.653735,12.244701 41.96875,12 C 40.999569,11.911672 40.247693,11.880732 39.6875,11.90625 z M 40.28125,14.4375 C 40.656846,14.441058 41.035731,14.437752 41.71875,14.5 C 43.909649,14.699671 44.805073,15.239546 45.59375,16.65625 C 46.349544,18.013886 46.78859,20.602306 46.5,24.40625 C 46.334032,26.593913 46.143158,28.211559 45.84375,29.21875 C 45.534964,30.257489 45.280281,30.610055 44.78125,30.96875 C 43.906652,31.597396 40.80596,32.156493 34.8125,32.28125 C 31.39429,32.352402 29.467328,32.384458 28.3125,32.5625 C 28.273796,32.568467 28.047643,32.606531 27.78125,32.6875 C 27.743644,32.69893 27.483318,32.758305 27.21875,32.90625 C 27.15918,32.939561 26.389782,33.482695 26.125,34.25 C 25.927022,34.823717 26.005082,35.317095 26.125,35.71875 C 26.244918,36.120405 26.350517,36.428291 26.71875,36.78125 C 27.060216,37.108552 27.607267,37.313187 27.53125,37.28125 C 27.735146,37.366912 27.938073,37.430697 28.125,37.46875 C 28.728625,37.591629 29.39516,37.64392 30.40625,37.71875 C 31.782077,37.820575 32.801006,37.945137 33.5,38.0625 C 33.988399,38.144503 34.062714,38.16818 34.15625,38.1875 C 34.169582,38.358787 34.1875,38.570842 34.1875,39.125 C 34.187499,39.643909 34.026124,40.456036 33.78125,41.0625 C 33.543719,41.650778 33.014476,42.211094 33.125,42.125 C 33.269928,42.012106 32.993817,42.200895 32.65625,42.3125 C 32.583975,42.336395 32.486342,42.381181 32.40625,42.40625 C 32.492149,42.330627 32.605155,42.300136 32.65625,42.21875 C 33.002426,41.667345 32.90625,41.428244 32.90625,41.0625 C 32.90625,40.553278 32.80844,40.093738 32.5625,39.59375 C 32.419964,39.303979 32.2653,39.120877 32.125,38.96875 C 32.05485,38.892686 31.96558,38.833986 31.90625,38.78125 C 31.84692,38.728514 31.938616,38.726295 31.65625,38.5625 C 31.562635,38.508196 31.49143,38.404597 31,38.375 C 30.794131,38.362601 30.612126,38.398564 30.5,38.4375 C 30.473558,38.446145 30.492342,38.460317 30.46875,38.46875 C 30.108017,38.597692 30.014982,38.707864 29.90625,38.8125 C 29.790407,38.923979 29.689238,39.047142 29.59375,39.1875 C 29.140815,39.853263 29.002353,40.805566 29.5625,41.65625 C 29.858454,42.105708 30.19514,42.433228 30.5625,42.625 C 30.807407,42.752848 31.067131,42.731634 31.3125,42.75 C 31.104817,42.830344 30.900616,42.926758 30.8125,42.96875 C 30.69722,43.023687 30.676835,43.031952 30.53125,43.0625 C 29.146731,43.353008 27.407676,43.545051 25.65625,43.59375 C 22.164308,43.690843 18.268905,43.025874 17.15625,42.4375 C 16.382813,42.028504 15.902129,41.741674 15.6875,41.5625 C 15.472871,41.383326 15.4671,41.334527 15.34375,41 C 15.152417,40.481101 14.9375,38.578038 14.9375,35.09375 C 14.9375,32.659011 15.03718,30.830362 15.28125,29.59375 C 15.528348,28.341801 15.823956,27.806815 16.21875,27.4375 C 16.928894,26.773187 19.438546,26.15625 24.65625,26.15625 C 29.582263,26.15625 33.30357,25.648769 36.09375,23.875 C 38.932345,22.070453 40.25,18.91057 40.25,15.375 C 40.25,14.896464 40.261963,14.722012 40.28125,14.4375 z M 31.25,40.375 C 31.584964,40.319545 31.587476,40.372544 31.625,40.40625 C 31.632021,40.460596 31.689305,40.513912 31.65625,40.5625 C 31.659264,40.55807 31.652729,40.567065 31.625,40.59375 C 31.604454,40.613522 31.489706,40.681063 31.34375,40.75 C 31.25427,40.782614 31.046969,40.855989 30.84375,40.84375 C 30.650354,40.832102 30.722075,40.83731 30.65625,40.8125 C 30.825203,40.629817 31.068196,40.420347 31.25,40.375 z "
     id="path3136"
     sodipodi:nodetypes="cccsczccsscssssssssssssssssssssssscssssssccsssssssssssssssscsssssssssssssssssscssssssssssssccssssscc" />
  <path
     style="fill:#000000"
     d="M 32.800715,41.067555 C 32.800715,40.125755 32.270349,39.047534 31.622124,38.67151 C 30.116902,37.798356 28.603039,40.02357 29.635529,41.591591 C 30.799755,43.359674 32.800715,43.028392 32.800715,41.067555 z M 2.3265172,32.579118 C 1.4110231,31.54375 0.42280428,27.59307 0.13047542,23.799827 C -0.63453395,13.873108 1.6789711,11.954653 14.759155,11.669117 C 21.655717,11.518568 22.784304,11.322673 18.557378,11.009841 C 12.629475,10.571122 12.543524,10.505828 12.543524,6.4412991 C 12.543524,1.5554209 15.552671,7.1054274e-15 25.00498,7.1054274e-15 C 34.371937,7.1054274e-15 36.59894,2.1650918 36.59894,11.271648 C 36.59894,21.224546 35.148032,22.578292 24.480797,22.578292 C 15.051043,22.578292 11.27745,24.955715 11.27745,30.896609 C 11.27745,34.031783 10.838201,34.461603 7.6342515,34.461603 C 5.6304916,34.461603 3.2420113,33.614484 2.3265172,32.579118 z M 19.849829,5.7188436 C 19.067301,3.5154126 16.341747,3.1499568 16.341747,5.2484626 C 16.341747,6.2833009 17.243826,7.1299868 18.346366,7.1299868 C 19.448906,7.1299868 20.125464,6.4949725 19.849829,5.7188436 z "
     id="path2161"
     sodipodi:nodetypes="cssccsssssssssccssc" />
</svg>
