<?xml version="1.0" encoding="UTF-8" standalone="no"?>
<!-- Created with Inkscape (http://www.inkscape.org/) -->
<svg
   xmlns:dc="http://purl.org/dc/elements/1.1/"
   xmlns:cc="http://web.resource.org/cc/"
   xmlns:rdf="http://www.w3.org/1999/02/22-rdf-syntax-ns#"
   xmlns:svg="http://www.w3.org/2000/svg"
   xmlns="http://www.w3.org/2000/svg"
   xmlns:sodipodi="http://sodipodi.sourceforge.net/DTD/sodipodi-0.dtd"
   xmlns:inkscape="http://www.inkscape.org/namespaces/inkscape"
   id="svg2"
   sodipodi:version="0.32"
   inkscape:version="0.45.1"
   width="48"
   height="48"
   version="1.0"
   sodipodi:docbase="/home/qwerty/.icons/MonoBlack/scalable/apps"
   sodipodi:docname="skype.svg"
   inkscape:output_extension="org.inkscape.output.svg.inkscape"
   inkscape:export-filename="/home/qwerty/.icons/MonoBlack/48x48/apps/skype.png"
   inkscape:export-xdpi="90"
   inkscape:export-ydpi="90">
  <metadata
     id="metadata7">
    <rdf:RDF>
      <cc:Work
         rdf:about="">
        <dc:format>image/svg+xml</dc:format>
        <dc:type
           rdf:resource="http://purl.org/dc/dcmitype/StillImage" />
      </cc:Work>
    </rdf:RDF>
  </metadata>
  <defs
     id="defs5" />
  <sodipodi:namedview
     inkscape:window-height="940"
     inkscape:window-width="1278"
     inkscape:pageshadow="2"
     inkscape:pageopacity="0.0"
     guidetolerance="10000"
     gridtolerance="10000"
     objecttolerance="10000"
     borderopacity="1.0"
     bordercolor="#666666"
     pagecolor="#ffffff"
     id="base"
     width="48px"
     height="48px"
     showgrid="true"
     inkscape:zoom="8.9935144"
     inkscape:cx="-3.8921899"
     inkscape:cy="15.970591"
     inkscape:window-x="1"
     inkscape:window-y="42"
     inkscape:current-layer="svg2" />
  <path
     style="opacity:1;color:#000000;fill:#000000;fill-opacity:1;fill-rule:nonzero;stroke:none;stroke-width:4.4000001;stroke-linecap:round;stroke-linejoin:round;marker:none;stroke-miterlimit:4;stroke-dasharray:none;stroke-dashoffset:0;stroke-opacity:1;visibility:visible;display:inline;overflow:visible;enable-background:accumulate"
     d="M 14.34375 1 C 7.056998 1.0000001 1 6.7151443 1 13.8125 C 1.0000001 15.846419 1.5897404 17.710066 2.46875 19.40625 C 2.2142171 20.70417 1.96875 22.018594 1.96875 23.40625 C 1.9687502 35.361569 11.928475 45.062499 24.09375 45.0625 C 24.955197 45.0625 25.813405 44.969198 26.65625 44.875 C 28.735343 46.158232 31.161807 47 33.8125 47 C 41.092006 46.999999 47.125 41.308476 47.125 34.21875 C 47.125001 32.099224 46.488119 30.13749 45.53125 28.375 C 45.921953 26.774469 46.25 25.13269 46.25 23.40625 C 46.25 11.45093 36.259027 1.7500001 24.09375 1.75 C 22.63033 1.75 21.247555 1.9849627 19.875 2.25 C 18.1938 1.4991679 16.348139 1 14.34375 1 z M 24.15625 9.21875 C 25.761348 9.2187771 27.428522 9.3335625 29.125 9.5625 C 30.82144 9.7794412 32.561069 10.116648 34.375 10.5625 L 34.375 16.28125 C 32.769863 15.618477 31.214294 15.118694 29.6875 14.78125 C 28.160667 14.44385 26.732152 14.250022 25.375 14.25 C 23.574128 14.250023 22.236268 14.479592 21.375 14.9375 C 20.513709 15.395451 20.09374 16.129708 20.09375 17.09375 C 20.093741 17.816816 20.363303 18.371542 20.9375 18.78125 C 21.524726 19.178944 22.598173 19.523298 24.125 19.8125 L 27.3125 20.40625 C 30.561855 21.008805 32.879759 21.927085 34.25 23.15625 C 35.620194 24.385441 36.312474 26.140713 36.3125 28.40625 C 36.312474 31.382798 35.355781 33.604358 33.4375 35.0625 C 31.532224 36.508593 28.615442 37.218749 24.6875 37.21875 C 22.834431 37.218749 20.959847 37.044121 19.09375 36.71875 C 17.227636 36.393378 15.366102 35.919942 13.5 35.28125 L 13.5 29.40625 C 15.366102 30.322115 17.170633 31.030025 18.90625 31.5 C 20.6549 31.957935 22.350575 32.187505 23.96875 32.1875 C 25.612997 32.187503 26.844404 31.912388 27.71875 31.40625 C 28.593061 30.900123 29.031231 30.189968 29.03125 29.25 C 29.031231 28.406454 28.756518 27.770439 28.15625 27.3125 C 27.568997 26.854581 26.368493 26.424034 24.59375 26.0625 L 21.6875 25.46875 C 18.764358 24.890324 16.607163 23.984095 15.25 22.71875 C 13.905878 21.453432 13.249997 19.738806 13.25 17.59375 C 13.249997 14.906448 14.183339 12.852368 16.0625 11.40625 C 17.94165 9.9601825 20.632821 9.2187775 24.15625 9.21875 z "
     id="path2161" />
</svg>
