<?xml version="1.0" encoding="UTF-8" standalone="no"?>
<!-- Created with Inkscape (http://www.inkscape.org/) -->
<svg
   xmlns:dc="http://purl.org/dc/elements/1.1/"
   xmlns:cc="http://web.resource.org/cc/"
   xmlns:rdf="http://www.w3.org/1999/02/22-rdf-syntax-ns#"
   xmlns:svg="http://www.w3.org/2000/svg"
   xmlns="http://www.w3.org/2000/svg"
   xmlns:sodipodi="http://sodipodi.sourceforge.net/DTD/sodipodi-0.dtd"
   xmlns:inkscape="http://www.inkscape.org/namespaces/inkscape"
   id="svg2"
   sodipodi:version="0.32"
   inkscape:version="0.45.1"
   width="48"
   height="48"
   version="1.0"
   sodipodi:docbase="/home/qwerty/.icons/MinimalBlack/scalable/apps"
   sodipodi:docname="sun-java6.svg"
   inkscape:output_extension="org.inkscape.output.svg.inkscape">
  <metadata
     id="metadata7">
    <rdf:RDF>
      <cc:Work
         rdf:about="">
        <dc:format>image/svg+xml</dc:format>
        <dc:type
           rdf:resource="http://purl.org/dc/dcmitype/StillImage" />
      </cc:Work>
    </rdf:RDF>
  </metadata>
  <defs
     id="defs5" />
  <sodipodi:namedview
     inkscape:window-height="614"
     inkscape:window-width="772"
     inkscape:pageshadow="2"
     inkscape:pageopacity="0.0"
     guidetolerance="10000"
     gridtolerance="10000"
     objecttolerance="10000"
     borderopacity="1.0"
     bordercolor="#666666"
     pagecolor="#ffffff"
     id="base"
     inkscape:zoom="3.1796875"
     inkscape:cx="-14.503932"
     inkscape:cy="34.910416"
     inkscape:window-x="1"
     inkscape:window-y="24"
     inkscape:current-layer="svg2"
     width="48px"
     height="48px"
     showgrid="true" />
  <path
     style="fill:#000000"
     d="M 14.462248,44.449001 C 6.2604253,41.933779 0.13903336,33.582835 0.048011582,26.358911 L 7.3400487e-15,22.548481 L 19.66251,22.548481 L 39.325023,22.548481 L 39.471559,23.561222 C 39.606828,24.496128 39.814908,24.55397 42.178865,24.313822 C 45.291438,23.997623 47.513236,24.779458 47.908632,26.330088 C 48.335253,28.003191 47.211763,31.874816 45.705851,33.921 C 44.276578,35.863055 41.31809,37.266841 37.249015,37.93372 C 35.788906,38.173019 34.319091,38.951246 32.294667,40.556914 C 30.711579,41.812537 28.234452,43.278705 26.789944,43.815062 C 23.325185,45.101552 17.846098,45.38331 14.462248,44.449001 z M 42.743398,33.426407 C 43.723127,32.628473 45.223652,29.380117 45.237062,28.028102 C 45.246687,27.057352 45.03822,26.978814 42.451947,26.978814 L 39.656431,26.978814 L 39.071802,29.427154 C 38.750255,30.773742 38.195971,32.442184 37.840055,33.134802 C 37.484141,33.82742 37.192941,34.595392 37.192941,34.841407 C 37.192941,35.414026 41.719976,34.259934 42.743398,33.426407 z M 10.356842,19.029476 C 9.5384187,18.513375 8.6034599,17.460592 8.279157,16.689958 C 7.7408783,15.410856 7.8395471,15.006902 9.4118546,12.05262 C 10.359141,10.272719 11.134193,8.6169874 11.134193,8.3732153 C 11.134193,8.1294443 10.569231,7.2691256 9.8787215,6.461397 L 8.6232491,4.9927966 L 9.6355549,3.9963989 L 10.64786,3 L 12.307483,4.5832959 C 14.81559,6.9760503 14.916261,8.5796373 12.796651,12.375203 L 11.041789,15.517618 L 12.041921,16.314751 C 12.591994,16.753173 13.301197,17.196906 13.61793,17.300827 C 14.035228,17.437739 13.965242,17.833125 13.363771,18.736661 C 12.374118,20.223328 12.266634,20.233795 10.356842,19.029476 z M 19.358956,19.029476 C 18.540532,18.513375 17.605573,17.460592 17.28127,16.689958 C 16.742992,15.410856 16.84166,15.006902 18.413967,12.05262 C 19.361253,10.272719 20.136306,8.6169874 20.136306,8.3732153 C 20.136306,8.1294443 19.571344,7.2691256 18.880835,6.461397 L 17.625364,4.9927966 L 18.637668,3.9963989 L 19.649973,3 L 21.309597,4.5832959 C 23.817703,6.9760503 23.918374,8.5796373 21.798764,12.375203 L 20.043902,15.517618 L 21.044034,16.314751 C 21.594106,16.753173 22.30331,17.196906 22.620045,17.300827 C 23.037343,17.437739 22.967355,17.833125 22.365884,18.736661 C 21.376233,20.223328 21.268747,20.233795 19.358956,19.029476 z M 28.361068,19.029476 C 27.542645,18.513375 26.607687,17.460592 26.283383,16.689958 C 25.745104,15.410856 25.843773,15.006902 27.41608,12.05262 C 28.363367,10.272719 29.138419,8.6169874 29.138419,8.3732153 C 29.138419,8.1294443 28.573457,7.2691256 27.882947,6.461397 L 26.627476,4.9927966 L 27.639781,3.9963989 L 28.652087,3 L 30.311709,4.5832959 C 32.819816,6.9760503 32.920487,8.5796373 30.800877,12.375203 L 29.046016,15.517618 L 30.046147,16.314751 C 30.596219,16.753173 31.305425,17.196906 31.622158,17.300827 C 32.039456,17.437739 31.969469,17.833125 31.367998,18.736661 C 30.378346,20.223328 30.270861,20.233795 28.361068,19.029476 z "
     id="path2163"
     sodipodi:nodetypes="czccccssssssccscccssccsssccccccccssccsssccccccccssccsssccccccccssc" />
</svg>
