<?xml version="1.0" encoding="UTF-8" standalone="no"?>
<!-- Created with Inkscape (http://www.inkscape.org/) -->
<svg
   xmlns:dc="http://purl.org/dc/elements/1.1/"
   xmlns:cc="http://web.resource.org/cc/"
   xmlns:rdf="http://www.w3.org/1999/02/22-rdf-syntax-ns#"
   xmlns:svg="http://www.w3.org/2000/svg"
   xmlns="http://www.w3.org/2000/svg"
   xmlns:sodipodi="http://sodipodi.sourceforge.net/DTD/sodipodi-0.dtd"
   xmlns:inkscape="http://www.inkscape.org/namespaces/inkscape"
   id="svg2"
   sodipodi:version="0.32"
   inkscape:version="0.45.1"
   width="48"
   height="48"
   version="1.0"
   sodipodi:docbase="/home/qwerty/.icons/MinimalBlack/scalable/apps"
   sodipodi:docname="synaptic.svg"
   inkscape:output_extension="org.inkscape.output.svg.inkscape">
  <metadata
     id="metadata7">
    <rdf:RDF>
      <cc:Work
         rdf:about="">
        <dc:format>image/svg+xml</dc:format>
        <dc:type
           rdf:resource="http://purl.org/dc/dcmitype/StillImage" />
      </cc:Work>
    </rdf:RDF>
  </metadata>
  <defs
     id="defs5" />
  <sodipodi:namedview
     inkscape:window-height="583"
     inkscape:window-width="722"
     inkscape:pageshadow="2"
     inkscape:pageopacity="0.0"
     guidetolerance="10000"
     gridtolerance="10000"
     objecttolerance="10000"
     borderopacity="1.0"
     bordercolor="#666666"
     pagecolor="#ffffff"
     id="base"
     showgrid="true"
     width="48px"
     height="48px"
     inkscape:zoom="4.187398"
     inkscape:cx="-17.912765"
     inkscape:cy="27.54955"
     inkscape:window-x="557"
     inkscape:window-y="417"
     inkscape:current-layer="svg2" />
  <path
     style="fill:#000000"
     d="M 9.2930607,47.536395 C 8.4981356,46.914501 8.4834102,45.938898 9.2493292,44.639052 C 9.8936385,43.545593 9.831304,42.792264 9.0440153,42.157774 C 8.6244134,41.819609 8.593501,41.673469 8.8168456,41.083832 C 9.0171703,40.554969 9.0039788,40.304211 8.7582513,39.969987 C 8.583836,39.732753 8.4411339,39.283005 8.4411339,38.970545 C 8.4411339,38.255875 7.2157751,36.109126 6.5905807,35.728497 C 6.3131737,35.559605 6.0627029,35.082002 5.9793448,34.562974 C 5.9016654,34.079315 5.5069222,32.975542 5.1021371,32.110142 C 4.5051709,30.833873 4.2640458,30.536686 3.8255008,30.536686 C 3.0838439,30.536686 2.3473294,29.74166 2.3473294,28.941084 C 2.3473294,28.282818 2.957112,27.506327 3.4740507,27.506327 C 3.6704802,27.506327 3.6767144,27.360454 3.4970448,26.968262 C 3.2897608,26.515793 3.0783076,26.432357 2.167834,26.443777 C 1.2313833,26.455523 1.0368591,26.372903 0.72786135,25.832188 C 0.21080583,24.927393 0.59495971,23.961944 1.5881311,23.670175 C 2.2450573,23.477188 2.3473294,23.34373 2.3473294,22.67948 C 2.3473294,21.964333 2.2936999,21.911821 1.5633353,21.911821 C 0.28054407,21.911821 -0.38677453,20.741719 0.23598644,19.584398 C 0.53021872,19.037606 1.7019782,18.771061 2.3335827,19.10725 C 2.7177922,19.311757 2.8160835,19.295058 2.8160835,19.025281 C 2.8160835,18.838945 2.8784077,18.524956 2.9545819,18.327526 C 3.0509972,18.077636 2.9066872,17.922038 2.4796456,17.815439 C 1.4085599,17.548074 1.0230412,16.038387 1.838436,15.304472 C 2.3679827,14.82784 3.6028768,14.80209 4.0613945,15.258119 C 4.3601899,15.555291 4.4549599,15.540095 4.8226041,15.136059 C 5.1445265,14.78227 5.1781826,14.610569 4.9668145,14.400348 C 4.5445875,13.980414 4.6359798,12.70951 5.1197152,12.274114 C 5.9490438,11.527656 7.7380015,12.033139 7.7380015,13.013929 C 7.7380015,13.164093 7.9489417,13.286954 8.2067565,13.286954 C 8.5843633,13.286954 8.6755101,13.131552 8.6755101,12.487739 C 8.6755101,11.473603 9.1942026,10.95591 10.2103,10.95591 C 11.121779,10.95591 11.863207,11.793886 11.654392,12.588053 C 11.44806,13.372791 12.267676,13.130836 12.659921,12.291216 C 12.944695,11.681642 13.167333,11.52563 13.831806,11.47002 C 14.282982,11.432263 14.854275,11.548536 15.101349,11.728407 C 15.669605,12.1421 15.693709,13.356737 15.145615,13.959084 C 14.75762,14.385488 14.767904,14.413159 15.391159,14.619782 C 15.976915,14.813975 16.077481,14.76418 16.401588,14.119473 C 16.689551,13.546664 16.931428,13.389386 17.611282,13.332888 C 18.823413,13.232155 19.307142,13.777131 19.159778,15.077447 C 19.097026,15.631166 19.138196,16.084209 19.251269,16.084209 C 19.364343,16.084209 19.456855,15.838224 19.456855,15.537576 C 19.456855,14.91847 20.119217,14.219373 20.70579,14.219373 C 21.207568,14.219373 21.197846,14.03625 20.648492,13.140229 C 20.184958,12.384178 19.96029,11.244697 20.194813,10.839218 C 20.26892,10.711088 20.392895,10.341508 20.470312,10.017929 C 20.547726,9.694351 21.195128,8.6531707 21.908979,7.7041955 C 22.622828,6.7552198 23.206889,5.9009022 23.206889,5.8057115 C 23.206889,5.7105206 23.270907,5.4667128 23.349153,5.2639157 C 23.579883,4.6659038 22.719675,4.8168915 21.494947,5.5893735 L 20.394364,6.283553 L 20.394364,3.943885 C 20.394364,1.4053659 20.336321,1.4676991 21.730901,2.5085803 C 22.479179,3.0670749 23.21052,3.1370216 23.368444,2.6651978 C 23.414213,2.5284634 23.134829,1.9515299 22.747596,1.3831233 C 22.360361,0.81471677 22.041616,0.27098392 22.03927,0.17482835 C 22.036924,0.078672676 22.931496,9.8529042e-15 24.027209,9.8529042e-15 C 25.122921,9.8529042e-15 26.019413,0.0488056 26.019413,0.10845687 C 26.019413,0.16810824 25.703005,0.71312991 25.316282,1.3196166 C 24.92956,1.9261031 24.613151,2.5591281 24.613151,2.7263389 C 24.613151,3.1959176 25.4012,3.0869096 26.279677,2.4958141 C 26.716615,2.2018152 27.205948,1.8809332 27.367082,1.7827437 C 27.593921,1.6445151 27.660053,2.1323394 27.660053,3.943885 L 27.660053,6.283553 L 26.55947,5.5893735 C 25.393433,4.8539102 24.613151,4.6970135 24.613151,5.1980134 C 24.613151,5.4966513 25.20809,6.4516278 26.626777,8.4302234 C 28.022664,10.377019 28.226927,11.839953 27.305549,13.291587 L 26.716665,14.219373 L 27.269222,14.219373 C 27.941462,14.219373 28.597562,14.89047 28.597562,15.578079 C 28.597562,15.85645 28.687548,16.084209 28.797534,16.084209 C 28.907519,16.084209 28.948975,15.581877 28.889659,14.967916 C 28.758351,13.608798 29.111841,13.224891 30.397626,13.33019 C 31.127529,13.389965 31.359382,13.535755 31.652828,14.119473 C 31.974666,14.759663 32.080227,14.813071 32.650237,14.6241 L 33.287714,14.412761 L 32.804406,13.801671 C 32.000346,12.785026 32.569415,11.42212 33.797965,11.42212 C 34.7503,11.42212 35.313697,11.769513 35.489189,12.46494 C 35.676091,13.205567 36.332005,13.250717 36.332005,12.522957 C 36.332005,11.615339 36.971637,10.95591 37.852005,10.95591 C 38.860582,10.95591 39.378907,11.475908 39.378907,12.487739 C 39.378907,13.131552 39.470053,13.286954 39.847662,13.286954 C 40.105476,13.286954 40.316415,13.145867 40.316415,12.973426 C 40.316415,12.452448 41.129596,11.888328 41.880588,11.888328 C 43.135881,11.888328 43.807811,13.292581 43.047414,14.32684 C 42.77556,14.696602 42.793069,14.817743 43.172973,15.195585 C 43.569947,15.590403 43.650708,15.598574 43.974372,15.276668 C 44.471093,14.782643 45.780687,14.821838 46.256705,15.344974 C 47.022058,16.186086 46.47187,17.578949 45.208881,17.99766 C 45.072049,18.043023 45.034636,18.339113 45.121996,18.68529 C 45.263947,19.2478 45.326225,19.274179 45.955005,19.038131 C 46.527362,18.823264 46.737083,18.858832 47.284132,19.263554 C 48.535178,20.189115 48.056093,21.911821 46.547647,21.911821 C 45.820112,21.911821 45.750881,21.975639 45.662605,22.727686 C 45.577684,23.451157 45.627864,23.543552 46.105716,23.543552 C 46.4021,23.543552 46.855536,23.753346 47.113351,24.009761 C 48.070802,24.962014 47.428905,26.57391 46.092241,26.57391 C 45.674154,26.57391 45.228087,26.470478 45.100981,26.344062 C 44.949094,26.192999 44.779328,26.352804 44.60571,26.810271 C 44.393295,27.369971 44.403823,27.506327 44.659461,27.506327 C 45.0932,27.506327 45.707089,28.424585 45.707089,29.073376 C 45.707089,29.758556 44.921055,30.536686 44.228917,30.536686 C 43.789518,30.536686 43.552029,30.831389 42.960924,32.110142 C 42.560895,32.975542 42.114923,34.127698 41.969875,34.670487 C 41.824529,35.214393 41.499312,35.767474 41.245346,35.902656 C 40.678299,36.204481 39.613285,38.239122 39.613285,39.020601 C 39.613285,39.336223 39.459667,39.747244 39.271911,39.933978 C 38.99072,40.213642 38.980391,40.405086 39.213317,41.019921 C 39.467753,41.69153 39.444464,41.807954 38.980975,42.181473 C 38.152285,42.849302 38.087421,43.627654 38.776324,44.637294 C 39.580699,45.816171 39.575104,46.899774 38.761357,47.536395 C 37.928078,48.188291 36.701998,48.154135 34.755311,47.424789 C 33.882242,47.097684 31.955013,46.498277 30.472578,46.092776 C 27.96756,45.407555 27.512452,45.355497 24.027209,45.355497 C 20.541965,45.355497 20.086856,45.407555 17.581839,46.092776 C 16.099404,46.498277 14.172174,47.097684 13.299107,47.424789 C 11.352419,48.154135 10.12634,48.188291 9.2930607,47.536395 z M 6.6542155,22.392034 C 7.3215126,22.070756 8.1169762,21.911821 9.0576652,21.911821 C 10.437973,21.911821 10.470981,21.896652 10.86107,21.083068 C 11.117652,20.547931 11.545546,20.135004 12.068837,19.917546 C 13.393559,19.367048 13.670983,19.40311 18.050593,20.695099 C 18.888491,20.942281 20.075025,21.19938 20.687336,21.266432 L 21.800626,21.388343 L 21.800626,20.06506 L 21.800626,18.741776 L 19.588615,18.123422 C 18.372011,17.783328 16.183516,16.972551 14.725292,16.321698 C 11.709246,14.975533 10.575799,14.741489 8.978854,15.135112 C 7.3669954,15.532411 6.2997862,16.316653 5.5792531,17.633323 C 4.8307037,19.001186 4.3674194,21.583458 4.5863959,23.167347 L 4.7438619,24.306322 L 5.2003352,23.589285 C 5.4513952,23.194916 6.1056412,22.656153 6.6542155,22.392034 z M 43.365204,20.722486 C 43.016263,17.79873 41.679253,15.900133 39.520177,15.262439 C 37.665126,14.714539 36.718627,14.825751 34.400133,15.864045 C 31.714635,17.066694 29.830174,17.764892 27.835836,18.296135 L 26.253791,18.717553 L 26.253791,20.086023 C 26.253791,21.381275 26.282004,21.448805 26.781139,21.348179 C 27.071181,21.289707 27.766964,21.179945 28.327325,21.104264 C 28.887685,21.028583 30.097953,20.705428 31.016809,20.386143 C 34.406984,19.208116 36.345747,19.438368 37.145209,21.113967 C 37.516106,21.891328 37.561913,21.911821 38.928679,21.911821 C 40.653789,21.911821 41.640161,22.301506 42.548789,23.342012 L 43.246129,24.140565 L 43.397504,23.201022 C 43.480759,22.684273 43.466225,21.568931 43.365204,20.722486 z "
     id="path2161"
     sodipodi:nodetypes="cssssssssssssssssssssssssssssssssssssssssssssssssscccsssssssssscccsscccssssscccssssssssssssssssssssssssssssssssssssssssccsssscccccssscccccsscccssssscccc" />
</svg>
