<?xml version="1.0" encoding="UTF-8" standalone="no"?>
<!-- Created with Inkscape (http://www.inkscape.org/) -->
<svg
   xmlns:dc="http://purl.org/dc/elements/1.1/"
   xmlns:cc="http://web.resource.org/cc/"
   xmlns:rdf="http://www.w3.org/1999/02/22-rdf-syntax-ns#"
   xmlns:svg="http://www.w3.org/2000/svg"
   xmlns="http://www.w3.org/2000/svg"
   xmlns:sodipodi="http://sodipodi.sourceforge.net/DTD/sodipodi-0.dtd"
   xmlns:inkscape="http://www.inkscape.org/namespaces/inkscape"
   version="1.0"
   width="48"
   height="48"
   viewBox="0 0 800 202.049"
   id="Layer_1"
   xml:space="preserve"
   sodipodi:version="0.32"
   inkscape:version="0.45.1"
   sodipodi:docname="vmware-workstation.svg"
   sodipodi:docbase="/home/qwerty/Desktop"
   inkscape:output_extension="org.inkscape.output.svg.inkscape"><metadata
   id="metadata21"><rdf:RDF><cc:Work
       rdf:about=""><dc:format>image/svg+xml</dc:format><dc:type
         rdf:resource="http://purl.org/dc/dcmitype/StillImage" /></cc:Work></rdf:RDF></metadata><sodipodi:namedview
   inkscape:window-height="614"
   inkscape:window-width="772"
   inkscape:pageshadow="2"
   inkscape:pageopacity="0.0"
   guidetolerance="10000"
   gridtolerance="10000"
   objecttolerance="10000"
   borderopacity="1.0"
   bordercolor="#666666"
   pagecolor="#ffffff"
   id="base"
   width="48px"
   height="48px"
   showgrid="true"
   inkscape:zoom="4.8224682"
   inkscape:cx="-15.290493"
   inkscape:cy="36.029657"
   inkscape:window-x="1"
   inkscape:window-y="42"
   inkscape:current-layer="Layer_1" /><defs
   id="defs34" />

<path
   d="M 172.4593,181.9969 L 172.4593,-227.06852 C 172.4593,-240.46369 183.34395,-251.26368 196.78996,-251.26368 L 605.83458,-251.26368 C 619.20015,-251.26368 630.14407,-240.46369 630.14407,-227.06852 L 630.14407,181.9969 C 630.14407,195.32435 619.20015,206.23863 605.83458,206.23863 L 196.78572,206.23863 C 183.34395,206.23863 172.4593,195.32435 172.4593,181.9969 M 196.78572,-282.30884 C 166.26973,-282.30884 141.49878,-257.55485 141.49878,-227.06852 L 141.49878,181.9969 C 141.49878,212.44512 166.26973,237.27532 196.78572,237.27532 L 605.83034,237.27532 C 636.27012,237.27532 661.02415,212.44512 661.02415,181.9969 L 661.02415,-227.06852 C 661.02415,-257.55485 636.27012,-282.30884 605.83034,-282.30884 L 196.78572,-282.30884 z "
   style="fill:#000000;stroke:#000000;stroke-width:33.33333206;stroke-miterlimit:4;stroke-dasharray:none;stroke-opacity:1"
   id="path25" /><path
   d="M 294.65873,304.21738 L 294.65873,-104.88614 C 294.65873,-118.29403 305.52222,-129.10669 318.892,-129.10669 L 727.96626,-129.10669 C 741.36146,-129.10669 752.16992,-118.28979 752.16992,-104.88614 L 752.16992,304.21738 C 752.16992,317.61257 741.36146,328.4718 727.96626,328.4718 L 318.892,328.4718 C 305.52645,328.46757 294.65873,317.61257 294.65873,304.21738 M 318.892,-160.08412 C 288.43529,-160.08412 263.71091,-135.28356 263.71091,-104.88191 L 263.71091,304.22161 C 263.71091,334.63174 288.43529,359.44076 318.892,359.44076 L 727.96626,359.44076 C 758.45262,359.44076 783.16007,334.63174 783.16007,304.22161 L 783.16007,-104.88614 C 783.16007,-135.28778 758.45685,-160.08836 727.96626,-160.08836 L 318.892,-160.08836 L 318.892,-160.08412 z "
   style="fill:#000000;stroke:#000000;stroke-width:33.33333206;stroke-miterlimit:4;stroke-dasharray:none;stroke-opacity:1"
   id="path27" /><path
   d="M 50.353018,426.37858 L 50.353018,17.287771 C 50.353018,3.9391553 61.140303,-6.894688 74.645581,-6.894688 L 483.60552,-6.894688 C 497.07692,-6.894688 507.95311,3.9433888 507.95311,17.287771 L 507.95311,426.37858 C 507.95311,439.74413 497.07692,450.63302 483.60552,450.63302 L 74.645581,450.63302 C 61.140303,450.63302 50.353018,439.74837 50.353018,426.37858 M 74.645581,-37.952551 C 44.13805,-37.952551 19.384033,-13.105414 19.384033,17.287771 L 19.384033,426.37858 C 19.384033,456.89455 44.13805,481.63584 74.645581,481.63584 L 483.60552,481.63584 C 514.12998,481.63584 538.93903,456.89455 538.93903,426.37858 L 538.93903,17.287771 C 538.93903,-13.105414 514.12998,-37.952551 483.60552,-37.952551 L 74.645581,-37.952551 z "
   style="fill:#000000;stroke:#000000;stroke-width:33.33333206;stroke-miterlimit:4;stroke-dasharray:none;stroke-opacity:1"
   id="path29" /></svg>