<?xml version="1.0" encoding="UTF-8" standalone="no"?>
<svg
   xmlns:dc="http://purl.org/dc/elements/1.1/"
   xmlns:cc="http://web.resource.org/cc/"
   xmlns:rdf="http://www.w3.org/1999/02/22-rdf-syntax-ns#"
   xmlns:svg="http://www.w3.org/2000/svg"
   xmlns="http://www.w3.org/2000/svg"
   xmlns:sodipodi="http://sodipodi.sourceforge.net/DTD/sodipodi-0.dtd"
   xmlns:inkscape="http://www.inkscape.org/namespaces/inkscape"
   version="1.0"
   width="48"
   height="48"
   viewBox="0 0 192.756 192.756"
   id="svg2"
   xml:space="preserve"
   sodipodi:version="0.32"
   inkscape:version="0.45"
   sodipodi:docname="wine.svg"
   sodipodi:docbase="/home/martino/.icons/ALLBLACK/scalable/apps"
   inkscape:output_extension="org.inkscape.output.svg.inkscape"
   sodipodi:modified="true"><metadata
   id="metadata86"><rdf:RDF><cc:Work
       rdf:about=""><dc:format>image/svg+xml</dc:format><dc:type
         rdf:resource="http://purl.org/dc/dcmitype/StillImage" /></cc:Work></rdf:RDF></metadata><defs
   id="defs84" /><sodipodi:namedview
   inkscape:window-height="658"
   inkscape:window-width="820"
   inkscape:pageshadow="2"
   inkscape:pageopacity="0.0"
   guidetolerance="10000"
   gridtolerance="10000"
   objecttolerance="10000"
   borderopacity="1.0"
   bordercolor="#666666"
   pagecolor="#ffffff"
   id="base"
   width="48px"
   height="48px"
   showgrid="true"
   inkscape:zoom="5.5612998"
   inkscape:cx="18.153946"
   inkscape:cy="24.153111"
   inkscape:window-x="1"
   inkscape:window-y="53"
   inkscape:current-layer="svg2" />
	<g
   id="switch6"
   transform="matrix(0.9814619,0,0,1.0538352,10.533067,29.141546)"
   style="fill:#000000;fill-opacity:1;stroke:none">

		<g
   id="g10"
   style="fill:#000000;fill-opacity:1;stroke:none">
			<g
   id="Layer_1"
   style="fill:#000000;fill-opacity:1;stroke:none">
				<g
   id="g13"
   style="fill:#000000;fill-opacity:1;stroke:none">






























<path
   style="fill:#000000;fill-opacity:1;fill-rule:evenodd;stroke:none"
   d="M 36.34375,3 C 32.531399,2.9769002 28.772782,3.8768075 25.09375,5.59375 L 25.09375,10.65625 C 28.106947,9.225015 30.558911,8.4594133 32.71875,8.3125 L 32.71875,19.75 C 30.148538,19.970793 27.629528,20.814459 25.09375,22.0625 L 25.09375,25.625 C 27.898194,24.161974 30.424981,23.527733 32.71875,23.34375 L 32.71875,34.25 C 30.012211,34.76544 27.425487,35.544284 25.09375,36.71875 L 25.09375,41.875 C 32.314256,37.371487 39.988377,37.797389 48,41.96875 L 48,6 C 44.028577,3.96945 40.156101,3.0230998 36.34375,3 z M 36.65625,7.71875 C 38.859323,7.6390655 41.084483,8.0923004 43.28125,9.09375 L 43.28125,20.625 C 42.283796,20.218649 40.090709,19.500001 38.75,19.5 L 35.71875,19.5 L 35.71875,7.78125 C 36.032574,7.748962 36.341525,7.7301335 36.65625,7.71875 z M 37.625,22.71875 C 39.517195,22.722228 41.398547,23.103252 43.28125,23.90625 L 43.28125,35.28125 C 40.874628,34.432483 38.641373,33.977297 35.71875,34.125 L 35.71875,22.84375 C 36.346398,22.760711 36.994268,22.717591 37.625,22.71875 z "
   transform="matrix(3.1259584,0,0,2.9112798,23.344001,-5.9005835)"
   id="path75" />
<path
   d="M 86.329,17.842 L 86.329,31.17 L 99.656,24.183 L 99.656,11.393 L 86.329,17.842 z "
   style="fill:#000000;fill-opacity:1;fill-rule:evenodd;stroke:none"
   id="path77" />
<path
   d="M 86.329,33.104 L 86.329,46.432 L 99.656,39.446 L 99.656,26.548 L 86.329,33.104 z "
   style="fill:#000000;fill-opacity:1;fill-rule:evenodd;stroke:none"
   id="path79" />
<path
   d="M 86.329,48.152 L 86.329,61.48 L 99.656,54.6 L 99.656,41.703 L 86.329,48.152 z "
   style="fill:#000000;fill-opacity:1;fill-rule:evenodd;stroke:none"
   id="path81" />
<path
   d="M 86.329,63.415 L 86.329,76.743 L 99.656,69.757 L 99.656,56.965 L 86.329,63.415 z "
   style="fill:#000000;fill-opacity:1;fill-rule:evenodd;stroke:none"
   id="path83" />
<path
   d="M 86.329,78.462 L 86.329,91.682 L 99.656,84.803 L 99.656,71.906 L 86.329,78.462 z "
   style="fill:#000000;fill-opacity:1;fill-rule:evenodd;stroke:none"
   id="path85" />
<path
   d="M 86.329,93.939 L 86.329,107.266 L 99.656,100.389 L 99.656,87.491 L 86.329,93.939 z "
   style="fill:#000000;fill-opacity:1;fill-rule:evenodd;stroke:none"
   id="path87" />
<path
   d="M 86.329,109.201 L 86.329,122.529 L 99.656,115.543 L 99.656,102.752 L 86.329,109.201 z "
   style="fill:#000000;fill-opacity:1;fill-rule:evenodd;stroke:none"
   id="path89" />
<path
   d="M 71.282,22.463 L 83.64,16.229 L 83.64,28.268 L 71.282,34.502 L 71.282,22.463 z "
   style="fill:#000000;fill-opacity:1;fill-rule:evenodd;stroke:none"
   id="path91" />


<path
   d="M 71.282,67.714 L 83.64,61.481 L 83.64,73.519 L 71.282,79.86 L 71.282,67.714 z "
   style="fill:#000000;fill-opacity:1;fill-rule:evenodd;stroke:none"
   id="path97" />


<path
   d="M 71.282,113.07 L 83.64,106.838 L 83.64,118.875 L 71.282,125.107 L 71.282,113.07 z "
   style="fill:#000000;fill-opacity:1;fill-rule:evenodd;stroke:none"
   id="path103" />
<path
   d="M 57.955,21.926 L 68.487,16.982 L 68.487,27.515 L 57.955,32.567 L 57.955,21.926 z "
   style="fill:#000000;fill-opacity:1;fill-rule:evenodd;stroke:none"
   id="path105" />


<path
   d="M 57.955,67.284 L 68.487,62.34 L 68.487,72.873 L 57.955,77.925 L 57.955,67.284 z "
   style="fill:#000000;fill-opacity:1;fill-rule:evenodd;stroke:none"
   id="path111" />


<path
   d="M 57.955,112.533 L 68.487,107.59 L 68.487,118.123 L 57.955,123.174 L 57.955,112.533 z "
   style="fill:#000000;fill-opacity:1;fill-rule:evenodd;stroke:none"
   id="path117" />
<path
   d="M 45.592,30.095 L 54.191,26.226 L 54.191,18.38 L 45.592,22.464 L 45.592,30.095 z "
   style="fill:#000000;fill-opacity:1;fill-rule:evenodd;stroke:none"
   id="path119" />


<path
   d="M 45.592,75.345 L 54.191,71.474 L 54.191,63.628 L 45.592,67.713 L 45.592,75.345 z "
   style="fill:#000000;fill-opacity:1;fill-rule:evenodd;stroke:none"
   id="path125" />


<path
   d="M 45.592,120.701 L 54.191,116.832 L 54.191,108.986 L 45.592,113.07 L 45.592,120.701 z "
   style="fill:#000000;fill-opacity:1;fill-rule:evenodd;stroke:none"
   id="path131" />
<path
   d="M 33.984,17.412 L 40.217,13.651 L 40.217,20.207 L 33.984,23.753 L 33.984,17.412 z "
   style="fill:#000000;fill-opacity:1;fill-rule:evenodd;stroke:none"
   id="path133" />


<path
   d="M 33.984,62.662 L 40.217,58.9 L 40.217,65.564 L 33.984,69.111 L 33.984,62.662 z "
   style="fill:#000000;fill-opacity:1;fill-rule:evenodd;stroke:none"
   id="path139" />


<path
   d="M 33.984,108.02 L 40.217,104.258 L 40.217,110.922 L 33.984,114.361 L 33.984,108.02 z "
   style="fill:#000000;fill-opacity:1;fill-rule:evenodd;stroke:none"
   id="path145" />
<path
   d="M 23.344,13.864 L 28.18,11.393 L 28.18,16.122 L 23.344,18.272 L 23.344,13.864 z "
   style="fill:#000000;fill-opacity:1;fill-rule:evenodd;stroke:none"
   id="path147" />


<path
   d="M 23.344,59.008 L 28.18,56.643 L 28.18,61.371 L 23.344,63.522 L 23.344,59.008 z "
   style="fill:#000000;fill-opacity:1;fill-rule:evenodd;stroke:none"
   id="path153" />


<path
   d="M 23.344,104.473 L 28.18,102 L 28.18,106.73 L 23.344,108.88 L 23.344,104.473 z "
   style="fill:#000000;fill-opacity:1;fill-rule:evenodd;stroke:none"
   id="path159" />




				</g>
			</g>
		</g>
	</g>
</svg>