<?xml version="1.0" encoding="UTF-8" standalone="no"?>
<!-- Created with Inkscape (http://www.inkscape.org/) -->
<svg
   xmlns:dc="http://purl.org/dc/elements/1.1/"
   xmlns:cc="http://web.resource.org/cc/"
   xmlns:rdf="http://www.w3.org/1999/02/22-rdf-syntax-ns#"
   xmlns:svg="http://www.w3.org/2000/svg"
   xmlns="http://www.w3.org/2000/svg"
   xmlns:sodipodi="http://sodipodi.sourceforge.net/DTD/sodipodi-0.dtd"
   xmlns:inkscape="http://www.inkscape.org/namespaces/inkscape"
   width="48"
   height="48"
   id="svg2"
   sodipodi:version="0.32"
   inkscape:version="0.45.1"
   sodipodi:docbase="/home/qwerty/.icons/MonoIce/scalable/apps"
   sodipodi:docname="xmoto.svg"
   inkscape:output_extension="org.inkscape.output.svg.inkscape"
   version="1.0">
  <defs
     id="defs4" />
  <sodipodi:namedview
     id="base"
     pagecolor="#ffffff"
     bordercolor="#666666"
     borderopacity="1.0"
     inkscape:pageopacity="0.0"
     inkscape:pageshadow="2"
     inkscape:zoom="5.6568545"
     inkscape:cx="54.15736"
     inkscape:cy="15.795327"
     inkscape:document-units="px"
     inkscape:current-layer="layer1"
     showgrid="true"
     inkscape:grid-bbox="true"
     inkscape:grid-points="true"
     gridspacingy="1px"
     gridspacingx="1px"
     gridoriginy="0.0000000pt"
     gridoriginx="0.0000000pt"
     gridtolerance="10000"
     guidetolerance="10000"
     inkscape:guide-points="true"
     inkscape:window-width="1278"
     inkscape:window-height="948"
     inkscape:window-x="1"
     inkscape:window-y="48"
     showguides="true"
     inkscape:guide-bbox="true"
     objecttolerance="10000"
     width="48px"
     height="48px"
     gridanglex="37.5px"
     gridanglez="37.5px"
     grid_units="px" />
  <metadata
     id="metadata7">
    <rdf:RDF>
      <cc:Work
         rdf:about="">
        <dc:format>image/svg+xml</dc:format>
        <dc:type
           rdf:resource="http://purl.org/dc/dcmitype/StillImage" />
        <cc:license
           rdf:resource="http://creativecommons.org/licenses/GPL/2.0/" />
        <dc:title>Calculator</dc:title>
        <dc:contributor>
          <cc:Agent>
            <dc:title>Design based on existing icon in HighContast GNOME icon theme.</dc:title>
          </cc:Agent>
        </dc:contributor>
        <dc:creator>
          <cc:Agent>
            <dc:title>Luca Ferretti &lt;elle.uca@infinito.it&gt;</dc:title>
          </cc:Agent>
        </dc:creator>
        <dc:description>A calculator.</dc:description>
      </cc:Work>
      <cc:License
         rdf:about="http://creativecommons.org/licenses/GPL/2.0/">
        <cc:permits
           rdf:resource="http://web.resource.org/cc/Reproduction" />
        <cc:permits
           rdf:resource="http://web.resource.org/cc/Distribution" />
        <cc:requires
           rdf:resource="http://web.resource.org/cc/Notice" />
        <cc:permits
           rdf:resource="http://web.resource.org/cc/DerivativeWorks" />
        <cc:requires
           rdf:resource="http://web.resource.org/cc/ShareAlike" />
        <cc:requires
           rdf:resource="http://web.resource.org/cc/SourceCode" />
      </cc:License>
    </rdf:RDF>
  </metadata>
  <g
     inkscape:label="Livello 1"
     inkscape:groupmode="layer"
     id="layer1">
    <rect
       style="fill:none;fill-opacity:1;fill-rule:nonzero;stroke:none;stroke-width:9.375;stroke-linecap:round;stroke-linejoin:round;stroke-miterlimit:4;stroke-dasharray:none;stroke-dashoffset:0;stroke-opacity:1;display:none"
       id="rect1306"
       width="60"
       height="60"
       x="0"
       y="0"
       sodipodi:insensitive="true" />
    <path
       style="fill:#000000;fill-opacity:1;fill-rule:evenodd;stroke:none;stroke-width:8.87500095;stroke-linecap:butt;stroke-linejoin:miter;stroke-miterlimit:4;stroke-dasharray:none;stroke-opacity:1"
       d="M 7.5625 1.3125 L 1.3125 7.5625 L 9.96875 16.21875 C 9.8332973 16.21875 9.6982107 16.21875 9.5625 16.21875 C 8.9297647 16.222157 8.3671978 16.622204 8.15625 17.21875 C 7.6580208 18.606955 7.1544791 19.986795 6.65625 21.375 C 6.1611965 19.988402 5.6825535 18.605347 5.1875 17.21875 C 4.972779 16.611321 4.3941871 16.208822 3.75 16.21875 C 2.9879344 16.21875 2.2308166 16.218749 1.46875 16.21875 C 0.64035719 16.218833 -0.031167173 16.890357 -0.03125 17.71875 C -0.03125 21.625175 -0.031250052 25.531074 -0.03125 29.4375 C -0.032129847 29.585619 -0.011068017 29.733052 0.03125 29.875 C 0.22532575 30.491077 0.89421917 30.984927 1.3125 31.09375 C 1.7307808 31.202573 2.0078246 31.171955 2.21875 31.15625 C 2.4296754 31.140545 2.603038 31.130358 2.6875 31.125 C 2.6576941 31.113917 2.6342582 31.082315 2.5625 31.0625 C 3.0134754 31.189322 3.5009624 31.094562 3.875 30.8125 C 4.2490378 30.530439 4.4666786 30.093464 4.46875 29.625 C 4.46875 29.021411 4.46875 28.416089 4.46875 27.8125 C 4.5204546 27.913014 4.5833538 28.007363 4.65625 28.09375 C 4.9840108 28.513752 5.4556142 28.735119 5.8125 28.8125 C 6.1693858 28.889881 6.4480601 28.856486 6.65625 28.84375 C 7.0726298 28.818278 7.3281437 28.854992 7.125 28.8125 C 7.8595466 28.964738 8.5936311 28.550981 8.84375 27.84375 C 8.84375 28.374281 8.84375 28.906969 8.84375 29.4375 C 8.849744 29.597757 8.8813958 29.756015 8.9375 29.90625 C 9.1379645 30.520294 9.8033091 30.986212 10.21875 31.09375 C 10.375339 31.134284 10.477677 31.146587 10.59375 31.15625 L 1.3125 40.4375 L 7.5625 46.6875 L 24 30.25 L 40.4375 46.6875 L 46.6875 40.4375 L 32.65625 26.40625 C 32.65625 24.801627 32.65625 23.197435 32.65625 21.59375 L 33.6875 20.5625 C 34.062254 20.5625 34.437006 20.5625 34.8125 20.5625 L 34.8125 20.53125 C 34.911826 20.539628 35.011127 20.541804 35.125 20.53125 C 34.981022 20.934124 34.737768 21.305228 34.65625 21.71875 C 34.28348 23.609724 34.491462 25.593171 35.15625 27.3125 C 36.521463 30.945032 40.749515 32.25326 44 30.8125 C 45.798672 30.035096 46.930584 28.467528 47.5 26.8125 C 48.058911 25.188004 48.138918 23.449073 47.84375 21.84375 C 47.838202 21.813578 47.849559 21.780066 47.84375 21.75 L 47.8125 21.75 C 47.33365 18.508066 44.577414 15.842128 41.25 16 C 41.219299 15.999911 41.187053 15.999729 41.15625 16 C 40.064452 16.009612 38.921702 16.256726 37.875 16.875 C 37.363198 17.182587 37.04332 17.650302 36.65625 18.0625 C 36.654697 18.048345 36.657311 18.011912 36.65625 18 C 36.654066 17.975475 36.622626 18.043571 36.625 18.03125 C 36.65558 17.8876 36.669294 17.736009 36.65625 17.59375 L 46.6875 7.5625 L 40.4375 1.3125 L 25.5625 16.21875 C 24.734107 16.218833 24.062583 16.890357 24.0625 17.71875 L 24 17.75 L 7.5625 1.3125 z M 36.5 17.0625 C 36.537163 17.133582 36.568836 17.205802 36.59375 17.28125 C 36.569705 17.207207 36.535367 17.132534 36.5 17.0625 z M 19.5 17.5 C 22.009005 17.340583 24.25237 19.458893 24.59375 22.03125 C 25.126064 24.786417 24.350413 28.273056 21.65625 29.4375 C 19.171627 30.538795 15.849111 29.508191 14.8125 26.75 C 13.698935 23.870005 14.094843 19.827093 16.875 18.15625 C 17.668592 17.687485 18.595683 17.497385 19.5 17.5 z M 41.25 17.5 C 43.759008 17.340583 46.033619 19.458893 46.375 22.03125 C 46.907312 24.786417 46.100413 28.273056 43.40625 29.4375 C 40.921629 30.538795 37.59911 29.508191 36.5625 26.75 C 35.448935 23.870005 35.876094 19.827093 38.65625 18.15625 C 39.449843 17.687485 40.345684 17.497385 41.25 17.5 z M 1.46875 17.71875 C 2.2308155 17.718749 2.9879344 17.71875 3.75 17.71875 C 4.7146078 20.420523 5.691642 23.110724 6.65625 25.8125 C 7.6259217 23.110724 8.5928284 20.420524 9.5625 17.71875 C 10.324566 17.718749 11.081685 17.71875 11.84375 17.71875 C 11.84375 21.688975 11.84375 25.654773 11.84375 29.625 C 11.398905 29.504569 10.486615 29.875111 10.34375 29.4375 C 10.34375 26.015053 10.34375 22.578697 10.34375 19.15625 C 9.3690143 21.879299 8.412235 24.6207 7.4375 27.34375 C 6.9324428 27.238106 6.1240388 27.555465 5.8125 27.15625 C 4.8591419 24.49292 3.9221079 21.81958 2.96875 19.15625 C 2.9687499 22.642496 2.96875 26.138753 2.96875 29.625 C 2.5277228 29.503219 1.6072217 29.877067 1.46875 29.4375 C 1.4687499 25.531074 1.46875 21.625175 1.46875 17.71875 z M 25.5625 17.71875 C 28.760139 17.718749 31.958613 17.71875 35.15625 17.71875 C 35.017879 18.153083 35.515145 19.220845 34.8125 19.0625 C 33.592144 19.062499 32.376607 19.0625 31.15625 19.0625 C 31.15625 22.580657 31.15625 26.106841 31.15625 29.625 C 30.689009 29.512138 29.762388 29.863998 29.59375 29.4375 C 29.59375 25.983142 29.59375 22.516857 29.59375 19.0625 C 28.251907 19.062499 26.904344 19.0625 25.5625 19.0625 C 25.562501 18.61043 25.5625 18.170818 25.5625 17.71875 z M 19.5 18.8125 C 17.507017 18.690425 16.055217 20.674985 15.9375 22.625 C 15.65079 24.761826 16.151978 27.584289 18.34375 28.375 C 20.09187 29.037811 22.187448 28.007205 22.75 26.125 C 23.439183 23.918474 23.342593 20.985161 21.46875 19.4375 C 20.902713 19.002638 20.194239 18.808312 19.5 18.8125 z M 41.25 18.8125 C 39.25702 18.690425 37.805217 20.674985 37.6875 22.625 C 37.400793 24.761826 37.901979 27.584289 40.09375 28.375 C 41.841871 29.037811 43.937448 28.007205 44.5 26.125 C 45.189184 23.918474 45.092594 20.985161 43.21875 19.4375 C 42.652714 19.002638 41.944241 18.808312 41.25 18.8125 z M 13.34375 19.59375 L 13.625 19.875 C 13.520123 20.114415 13.429304 20.347793 13.34375 20.59375 C 13.34375 20.260293 13.34375 19.927039 13.34375 19.59375 z M 41.15625 20.3125 C 41.197899 20.314237 41.239601 20.314237 41.28125 20.3125 C 41.698954 20.30998 42.059613 20.430718 42.3125 20.625 C 42.898011 21.10859 43.211319 21.811487 43.34375 22.75 C 43.476181 23.688513 43.345017 24.782978 43.0625 25.6875 C 42.748865 26.73687 41.526773 27.310663 40.625 26.96875 C 40.030134 26.754144 39.642504 26.281776 39.375 25.5 C 39.107496 24.718224 39.040214 23.677312 39.15625 22.8125 C 39.167693 22.781602 39.178116 22.750335 39.1875 22.71875 C 39.225624 22.087217 39.51363 21.356373 39.90625 20.90625 C 40.29887 20.456127 40.675359 20.283044 41.15625 20.3125 z M 17.34375 23.59375 L 17.75 24 L 17.40625 24.34375 C 17.426955 24.548701 17.465292 24.742936 17.5 24.9375 C 17.460804 24.745535 17.426751 24.546681 17.40625 24.34375 C 17.380687 24.090714 17.34087 23.847829 17.34375 23.59375 z M 13.34375 27.03125 C 13.375268 27.120375 13.372292 27.224676 13.40625 27.3125 C 13.50025 27.562613 13.598859 27.803314 13.71875 28.03125 L 13.34375 28.40625 C 13.34375 27.948001 13.34375 27.489754 13.34375 27.03125 z M 14.4375 29.09375 C 14.581485 29.265374 14.746462 29.44101 14.90625 29.59375 C 14.741082 29.435976 14.585715 29.271673 14.4375 29.09375 z M 17.15625 30.96875 C 17.351448 31.039565 17.54899 31.103575 17.75 31.15625 C 17.547238 31.103581 17.353143 31.039811 17.15625 30.96875 z M 21.4375 31.09375 C 21.292905 31.136092 21.146738 31.186264 21 31.21875 C 21.151538 31.185214 21.288228 31.137817 21.4375 31.09375 z M 18.375 31.28125 C 18.548615 31.309547 18.730776 31.328673 18.90625 31.34375 C 18.729445 31.328575 18.549929 31.30981 18.375 31.28125 z "
       id="path4138" />
  </g>
</svg>
