<?xml version="1.0" encoding="UTF-8" standalone="no"?>
<!-- Created with Inkscape (http://www.inkscape.org/) -->
<svg
   xmlns:dc="http://purl.org/dc/elements/1.1/"
   xmlns:cc="http://web.resource.org/cc/"
   xmlns:rdf="http://www.w3.org/1999/02/22-rdf-syntax-ns#"
   xmlns:svg="http://www.w3.org/2000/svg"
   xmlns="http://www.w3.org/2000/svg"
   xmlns:xlink="http://www.w3.org/1999/xlink"
   xmlns:sodipodi="http://sodipodi.sourceforge.net/DTD/sodipodi-0.dtd"
   xmlns:inkscape="http://www.inkscape.org/namespaces/inkscape"
   width="128"
   height="128"
   id="svg2"
   sodipodi:version="0.32"
   inkscape:version="0.45"
   version="1.0"
   sodipodi:docbase="/home/martino/.icons/ALLBLACK/true-scalable/mimetypes"
   sodipodi:docname="text-x-generic.svg"
   inkscape:output_extension="org.inkscape.output.svg.inkscape"
   sodipodi:modified="true">
  <defs
     id="defs4">
    <linearGradient
       inkscape:collect="always"
       id="linearGradient4132">
      <stop
         style="stop-color:#f2f2f2;stop-opacity:1;"
         offset="0"
         id="stop4134" />
      <stop
         style="stop-color:#f2f2f2;stop-opacity:0;"
         offset="1"
         id="stop4136" />
    </linearGradient>
    <linearGradient
       inkscape:collect="always"
       id="linearGradient3155">
      <stop
         style="stop-color:#000000;stop-opacity:1;"
         offset="0"
         id="stop3157" />
      <stop
         style="stop-color:#000000;stop-opacity:0;"
         offset="1"
         id="stop3159" />
    </linearGradient>
    <linearGradient
       inkscape:collect="always"
       id="linearGradient6067">
      <stop
         style="stop-color:#ffffff;stop-opacity:1;"
         offset="0"
         id="stop6069" />
      <stop
         style="stop-color:#ffffff;stop-opacity:0;"
         offset="1"
         id="stop6071" />
    </linearGradient>
    <linearGradient
       inkscape:collect="always"
       id="linearGradient3142">
      <stop
         style="stop-color:#000000;stop-opacity:1;"
         offset="0"
         id="stop3144" />
      <stop
         style="stop-color:#000000;stop-opacity:0;"
         offset="1"
         id="stop3146" />
    </linearGradient>
    <linearGradient
       inkscape:collect="always"
       xlink:href="#linearGradient3142"
       id="linearGradient3148"
       x1="92.804863"
       y1="75.855133"
       x2="92.804863"
       y2="110.71667"
       gradientUnits="userSpaceOnUse"
       gradientTransform="matrix(1.6258627,0,0,1.6258627,-28.787153,-52.145846)" />
    <linearGradient
       inkscape:collect="always"
       xlink:href="#linearGradient6067"
       id="linearGradient6073"
       x1="29.731594"
       y1="96.211563"
       x2="29.731594"
       y2="119.78299"
       gradientUnits="userSpaceOnUse" />
    <linearGradient
       inkscape:collect="always"
       xlink:href="#linearGradient3155"
       id="linearGradient3161"
       x1="100.75668"
       y1="85.389313"
       x2="100.75668"
       y2="124.82345"
       gradientUnits="userSpaceOnUse" />
    <linearGradient
       inkscape:collect="always"
       xlink:href="#linearGradient4132"
       id="linearGradient4138"
       x1="96.899597"
       y1="-101.65641"
       x2="96.899597"
       y2="-115.67227"
       gradientUnits="userSpaceOnUse"
       gradientTransform="translate(-17.142816,0)" />
  </defs>
  <sodipodi:namedview
     id="base"
     pagecolor="#ffffff"
     bordercolor="#666666"
     borderopacity="1.0"
     inkscape:pageopacity="0.0"
     inkscape:pageshadow="2"
     inkscape:zoom="2.8"
     inkscape:cx="54.534868"
     inkscape:cy="55.06693"
     inkscape:document-units="px"
     inkscape:current-layer="layer1"
     showgrid="true"
     width="128px"
     height="128px"
     showguides="true"
     inkscape:guide-bbox="true"
     inkscape:window-width="1276"
     inkscape:window-height="958"
     inkscape:window-x="0"
     inkscape:window-y="20" />
  <metadata
     id="metadata7">
    <rdf:RDF>
      <cc:Work
         rdf:about="">
        <dc:format>image/svg+xml</dc:format>
        <dc:type
           rdf:resource="http://purl.org/dc/dcmitype/StillImage" />
      </cc:Work>
    </rdf:RDF>
  </metadata>
  <g
     inkscape:label="Livello 1"
     inkscape:groupmode="layer"
     id="layer1">
    <path
       style="fill:#000000;fill-opacity:1;stroke:none;stroke-width:0.2;stroke-linecap:round;stroke-linejoin:round;stroke-miterlimit:4;stroke-dashoffset:0;stroke-opacity:1"
       d="M 36.110672,12.46579 L 77.22478,12.447802 L 100.75696,35.898259 L 100.67178,96.257326 C 100.67178,98.935577 98.515638,101.09171 95.837388,101.09171 L 36.110672,101.09171 C 33.432419,101.09171 31.276283,98.935577 31.276283,96.257326 L 31.276283,17.300177 C 31.276283,14.621928 33.432419,12.46579 36.110672,12.46579 z "
       id="rect2162"
       sodipodi:nodetypes="ccccccccc" />
    <text
       xml:space="preserve"
       style="font-size:12px;font-style:normal;font-weight:normal;fill:#f2f2f2;fill-opacity:1;stroke:none;stroke-width:1px;stroke-linecap:butt;stroke-linejoin:miter;stroke-opacity:1;font-family:Bitstream Vera Sans"
       x="57.040218"
       y="96.053925"
       id="text8053"><tspan
         sodipodi:role="line"
         id="tspan8055"
         x="57.040218"
         y="96.053925">SCRIPT</tspan></text>
    <path
       style="fill:url(#linearGradient3161);fill-opacity:1.0;stroke:none;stroke-width:0.2;stroke-linecap:round;stroke-linejoin:round;stroke-miterlimit:4;stroke-dashoffset:0;stroke-opacity:1"
       d="M 36.110389,189.58301 L 77.224497,189.601 L 100.75668,166.15054 L 100.6715,105.79147 C 100.6715,103.11322 98.515355,100.95709 95.837105,100.95709 L 36.110389,100.95709 C 33.432136,100.95709 31.276,103.11322 31.276,105.79147 L 31.276,184.74862 C 31.276,187.42687 33.432136,189.58301 36.110389,189.58301 z "
       id="path2178"
       sodipodi:nodetypes="ccccccccc" />
    <text
       xml:space="preserve"
       style="font-size:12px;font-style:normal;font-weight:normal;fill:url(#linearGradient4138);fill-opacity:1;stroke:none;stroke-width:1px;stroke-linecap:butt;stroke-linejoin:miter;stroke-opacity:1;font-family:Bitstream Vera Sans"
       x="57.039986"
       y="-105.99495"
       id="text2180"
       transform="scale(1,-1)"><tspan
         sodipodi:role="line"
         id="tspan2182"
         x="57.039986"
         y="-105.99495"
         style="fill:url(#linearGradient4138);fill-opacity:1">SCRIPT</tspan></text>
    <path
       style="fill:#ffffff;fill-opacity:1;fill-rule:nonzero;stroke:none;stroke-width:1;stroke-linecap:butt;stroke-linejoin:miter;stroke-miterlimit:4;stroke-dashoffset:0;stroke-opacity:1"
       d="M 53.986827,21.538056 C 53.058842,21.572744 52.558003,22.327777 52.299616,23.292087 L 51.520047,26.610824 C 50.603867,26.89893 49.722649,27.265489 48.883437,27.702223 L 45.954482,25.886938 C 45.237971,25.473258 44.163336,25.200169 43.476563,25.886938 L 40.093791,29.269713 C 39.407024,29.956482 39.58269,30.862372 40.093791,31.747629 L 41.900719,34.662659 C 41.452964,35.516331 41.077797,36.412849 40.784266,37.346605 L 37.465531,38.126176 C 36.478155,38.39074 35.714286,38.908967 35.714286,39.880204 L 35.714286,44.660634 C 35.714286,45.631873 36.666366,46.200529 37.465531,46.414664 L 40.784266,47.194233 C 41.075745,48.121219 41.446042,49.013369 41.889585,49.861474 L 40.093791,52.759801 C 39.58269,53.64506 39.407024,54.550945 40.093791,55.237717 L 43.476563,58.620485 C 44.163336,59.307258 45.237971,59.03417 45.954482,58.620485 L 48.852807,56.824696 C 49.700912,57.268232 50.593062,57.638533 51.520047,57.93001 L 52.299616,61.248752 C 52.564187,62.236125 53.08241,63 54.053647,63 L 58.834076,63 C 59.805312,63 60.373971,62.047918 60.588107,61.248752 L 61.367676,57.93001 C 62.304969,57.635291 63.206199,57.258076 64.062756,56.80799 L 66.93324,58.587079 C 67.818502,59.09818 68.724387,59.273852 69.41116,58.587079 L 72.793932,55.207091 C 73.480698,54.52032 73.207609,53.442903 72.793932,52.72639 L 71.006487,49.841985 C 71.445718,48.999513 71.814104,48.11437 72.103457,47.194233 L 75.422192,46.414664 C 76.221361,46.200529 77.173443,45.631873 77.173443,44.660634 L 77.173443,39.880204 C 77.173443,38.908967 76.409568,38.39074 75.422192,38.126176 L 72.103457,37.346605 C 71.811938,36.419318 71.441808,35.527724 70.998137,34.679366 L 72.793932,31.781037 C 73.207609,31.064526 73.480698,29.989893 72.793932,29.303121 L 69.41116,25.920349 C 68.724387,25.233579 67.818495,25.409246 66.93324,25.920349 L 64.034916,27.716143 C 63.186924,27.272663 62.294526,26.90229 61.367676,26.610824 L 60.588107,23.292087 C 60.373971,22.49292 59.805312,21.538056 58.834076,21.538056 L 54.053647,21.538056 C 54.049857,21.538056 54.046289,21.538034 54.042507,21.538056 C 54.023681,21.538174 54.005311,21.537366 53.986827,21.538056 z M 56.280986,33.894228 C 56.334929,33.893201 56.388288,33.894228 56.442473,33.894228 C 61.066089,33.894228 64.820051,37.645406 64.820051,42.269029 C 64.820051,46.892646 61.066089,50.643827 56.442473,50.643827 C 51.81885,50.643827 48.067671,46.892646 48.067671,42.269029 C 48.067671,37.69959 51.732124,33.980756 56.280986,33.894228 z "
       id="path1371" />
  </g>
</svg>
