<?xml version="1.0" encoding="UTF-8" standalone="no"?>
<!-- Created with Inkscape (http://www.inkscape.org/) -->
<svg
   xmlns:dc="http://purl.org/dc/elements/1.1/"
   xmlns:cc="http://web.resource.org/cc/"
   xmlns:rdf="http://www.w3.org/1999/02/22-rdf-syntax-ns#"
   xmlns:svg="http://www.w3.org/2000/svg"
   xmlns="http://www.w3.org/2000/svg"
   xmlns:xlink="http://www.w3.org/1999/xlink"
   xmlns:sodipodi="http://sodipodi.sourceforge.net/DTD/sodipodi-0.dtd"
   xmlns:inkscape="http://www.inkscape.org/namespaces/inkscape"
   width="128"
   height="128"
   id="svg2"
   sodipodi:version="0.32"
   inkscape:version="0.45"
   version="1.0"
   sodipodi:docbase="/home/martino/Projects/Icone/extrim-black"
   sodipodi:docname="mp3-2.svg"
   inkscape:output_extension="org.inkscape.output.svg.inkscape"
   sodipodi:modified="true">
  <defs
     id="defs4">
    <linearGradient
       inkscape:collect="always"
       id="linearGradient4132">
      <stop
         style="stop-color:#f2f2f2;stop-opacity:1;"
         offset="0"
         id="stop4134" />
      <stop
         style="stop-color:#f2f2f2;stop-opacity:0;"
         offset="1"
         id="stop4136" />
    </linearGradient>
    <linearGradient
       inkscape:collect="always"
       id="linearGradient3155">
      <stop
         style="stop-color:#000000;stop-opacity:1;"
         offset="0"
         id="stop3157" />
      <stop
         style="stop-color:#000000;stop-opacity:0;"
         offset="1"
         id="stop3159" />
    </linearGradient>
    <linearGradient
       inkscape:collect="always"
       id="linearGradient6067">
      <stop
         style="stop-color:#ffffff;stop-opacity:1;"
         offset="0"
         id="stop6069" />
      <stop
         style="stop-color:#ffffff;stop-opacity:0;"
         offset="1"
         id="stop6071" />
    </linearGradient>
    <linearGradient
       inkscape:collect="always"
       id="linearGradient3142">
      <stop
         style="stop-color:#000000;stop-opacity:1;"
         offset="0"
         id="stop3144" />
      <stop
         style="stop-color:#000000;stop-opacity:0;"
         offset="1"
         id="stop3146" />
    </linearGradient>
    <linearGradient
       inkscape:collect="always"
       xlink:href="#linearGradient3142"
       id="linearGradient3148"
       x1="92.804863"
       y1="75.855133"
       x2="92.804863"
       y2="110.71667"
       gradientUnits="userSpaceOnUse"
       gradientTransform="matrix(1.6258627,0,0,1.6258627,-28.787153,-52.145846)" />
    <linearGradient
       inkscape:collect="always"
       xlink:href="#linearGradient6067"
       id="linearGradient6073"
       x1="29.731594"
       y1="96.211563"
       x2="29.731594"
       y2="119.78299"
       gradientUnits="userSpaceOnUse" />
    <linearGradient
       inkscape:collect="always"
       xlink:href="#linearGradient3155"
       id="linearGradient3161"
       x1="100.75668"
       y1="85.389313"
       x2="100.75668"
       y2="124.82345"
       gradientUnits="userSpaceOnUse" />
    <linearGradient
       inkscape:collect="always"
       xlink:href="#linearGradient4132"
       id="linearGradient4138"
       x1="96.899597"
       y1="-101.65641"
       x2="96.899597"
       y2="-115.67227"
       gradientUnits="userSpaceOnUse"
       gradientTransform="translate(-12.85655,0)" />
  </defs>
  <sodipodi:namedview
     id="base"
     pagecolor="#ffffff"
     bordercolor="#666666"
     borderopacity="1.0"
     inkscape:pageopacity="0.0"
     inkscape:pageshadow="2"
     inkscape:zoom="2.8"
     inkscape:cx="13.369232"
     inkscape:cy="62.571696"
     inkscape:document-units="px"
     inkscape:current-layer="layer1"
     showgrid="true"
     width="128px"
     height="128px"
     showguides="true"
     inkscape:guide-bbox="true"
     inkscape:window-width="1276"
     inkscape:window-height="958"
     inkscape:window-x="0"
     inkscape:window-y="22" />
  <metadata
     id="metadata7">
    <rdf:RDF>
      <cc:Work
         rdf:about="">
        <dc:format>image/svg+xml</dc:format>
        <dc:type
           rdf:resource="http://purl.org/dc/dcmitype/StillImage" />
      </cc:Work>
    </rdf:RDF>
  </metadata>
  <g
     inkscape:label="Livello 1"
     inkscape:groupmode="layer"
     id="layer1">
    <path
       style="fill:#000000;fill-opacity:1;stroke:none;stroke-width:0.2;stroke-linecap:round;stroke-linejoin:round;stroke-miterlimit:4;stroke-dashoffset:0;stroke-opacity:1"
       d="M 36.110672,12.46579 L 77.22478,12.447802 L 100.75696,35.898259 L 100.67178,96.257326 C 100.67178,98.935577 98.515638,101.09171 95.837388,101.09171 L 36.110672,101.09171 C 33.432419,101.09171 31.276283,98.935577 31.276283,96.257326 L 31.276283,17.300177 C 31.276283,14.621928 33.432419,12.46579 36.110672,12.46579 z "
       id="rect2162"
       sodipodi:nodetypes="ccccccccc" />
    <text
       xml:space="preserve"
       style="font-size:12px;font-style:normal;font-weight:normal;fill:#f2f2f2;fill-opacity:1;stroke:none;stroke-width:1px;stroke-linecap:butt;stroke-linejoin:miter;stroke-opacity:1;font-family:Bitstream Vera Sans"
       x="61.325932"
       y="96.053925"
       id="text8053"><tspan
         sodipodi:role="line"
         id="tspan8055"
         x="61.325932"
         y="96.053925">VIDEO</tspan></text>
    <path
       style="fill:url(#linearGradient3161);fill-opacity:1.0;stroke:none;stroke-width:0.2;stroke-linecap:round;stroke-linejoin:round;stroke-miterlimit:4;stroke-dashoffset:0;stroke-opacity:1"
       d="M 36.110389,189.58301 L 77.224497,189.601 L 100.75668,166.15054 L 100.6715,105.79147 C 100.6715,103.11322 98.515355,100.95709 95.837105,100.95709 L 36.110389,100.95709 C 33.432136,100.95709 31.276,103.11322 31.276,105.79147 L 31.276,184.74862 C 31.276,187.42687 33.432136,189.58301 36.110389,189.58301 z "
       id="path2178"
       sodipodi:nodetypes="ccccccccc" />
    <text
       xml:space="preserve"
       style="font-size:12px;font-style:normal;font-weight:normal;fill:url(#linearGradient4138);fill-opacity:1;stroke:none;stroke-width:1px;stroke-linecap:butt;stroke-linejoin:miter;stroke-opacity:1;font-family:Bitstream Vera Sans"
       x="61.326248"
       y="-105.99495"
       id="text2180"
       transform="scale(1,-1)"><tspan
         sodipodi:role="line"
         id="tspan2182"
         x="61.326248"
         y="-105.99495"
         style="fill:url(#linearGradient4138);fill-opacity:1">VIDEO</tspan></text>
    <path
       style="fill:none;fill-rule:evenodd;stroke:#000000;stroke-width:1px;stroke-linecap:butt;stroke-linejoin:miter;stroke-opacity:1"
       d="M 42.552676,48 L 49.006555,72.086207 L 60.735421,72.086207 L 50.886434,38.727769 L 42.552676,48 z "
       id="path4158" />
    <path
       sodipodi:type="arc"
       style="opacity:1;fill:none;fill-opacity:1;stroke:none;stroke-width:5;stroke-linecap:butt;stroke-linejoin:miter;stroke-miterlimit:19.60000038;stroke-dasharray:none;stroke-dashoffset:0;stroke-opacity:0.32156863"
       id="path4164"
       sodipodi:cx="60.267857"
       sodipodi:cy="53.089287"
       sodipodi:rx="15.625"
       sodipodi:ry="15.625"
       d="M 75.892857 53.089287 A 15.625 15.625 0 1 1  44.642857,53.089287 A 15.625 15.625 0 1 1  75.892857 53.089287 z" />
    <path
       style="fill:#ffffff;fill-opacity:1;fill-rule:nonzero;stroke:none;stroke-width:1;stroke-linecap:butt;stroke-linejoin:miter;stroke-miterlimit:4;stroke-dasharray:none;stroke-dashoffset:0;stroke-opacity:1"
       d="M 76.205061,34.79071 C 63.366443,31.473542 50.2247,39.149744 46.821218,51.985831 C 43.404386,64.872264 51.08986,78.103894 63.976295,81.520727 C 76.862731,84.937552 90.094361,77.252078 93.511181,64.365645 C 96.928011,51.47922 89.242541,38.24759 76.356111,34.830757 C 76.305771,34.817413 76.255421,34.80372 76.205061,34.79071 z M 66.390768,38.065954 C 66.410665,38.070693 66.430768,38.076896 66.450609,38.081818 C 68.465093,38.581519 70.212185,40.023509 71.017394,42.104872 C 72.330351,45.498691 70.640841,49.317603 67.247022,50.630553 C 63.853211,51.943502 60.034296,50.254 58.721347,46.860188 C 57.408398,43.466377 59.095053,39.646701 62.488863,38.333752 C 63.780808,37.83394 65.137031,37.767316 66.390768,38.065954 z M 83.075931,42.490013 C 83.091091,42.4936 83.106391,42.498411 83.121531,42.5021 C 84.468661,42.830765 85.723661,43.586837 86.665971,44.744297 C 88.963411,47.566281 88.535971,51.719822 85.713981,54.017263 C 82.892001,56.314703 78.737691,55.890111 76.440251,53.068135 C 74.142821,50.246151 74.567401,46.091838 77.389391,43.794398 C 79.040921,42.449862 81.150821,42.034741 83.075931,42.490013 z M 70.710622,55.593326 C 70.715974,55.594456 70.722367,55.59669 70.727719,55.597859 C 70.766224,55.606257 70.803241,55.617883 70.841706,55.628078 C 72.248666,56.001139 73.086911,57.44429 72.713855,58.85125 C 72.340809,60.258203 70.897642,61.096453 69.49069,60.723399 C 68.083729,60.350345 67.245487,58.907186 67.618541,57.500234 C 67.979977,56.13709 69.346254,55.304447 70.710622,55.593326 z M 57.071908,52.574843 C 57.112933,52.584871 57.153688,52.596529 57.194443,52.607336 C 59.880715,53.319528 61.926761,55.696411 62.087652,58.620183 C 62.2876,62.253618 59.499582,65.36573 55.866147,65.565673 C 52.232719,65.765623 49.123454,62.978358 48.923512,59.344923 C 48.723561,55.711496 51.511573,52.599384 55.145009,52.399442 C 55.810314,52.36283 56.456503,52.424412 57.071908,52.574843 z M 84.067391,59.732681 C 84.109491,59.742947 84.150811,59.754796 84.192781,59.765921 C 84.844781,59.938818 85.478901,60.215229 86.075971,60.60076 C 89.133011,62.574681 90.012821,66.659308 88.038891,69.716343 C 86.064971,72.773387 81.983191,73.653942 78.926161,71.680022 C 75.869121,69.706101 74.989321,65.621473 76.963241,62.564438 C 78.526811,60.142919 81.415251,59.085634 84.067391,59.732681 z M 67.970283,65.962909 C 67.983921,65.966249 67.996549,65.970058 68.01018,65.973486 C 68.03767,65.980404 68.065344,65.98811 68.092827,65.995394 C 71.610207,66.928029 73.707921,70.539532 72.775281,74.056928 C 71.842658,77.574309 68.231155,79.672022 64.713765,78.739387 C 61.196368,77.806752 59.098663,74.195249 60.031298,70.677861 C 60.95303,67.201585 64.492206,65.110974 67.970283,65.962909 z "
       id="path1305" />
    <path
       style="fill:none;fill-opacity:0.75;fill-rule:evenodd;stroke:#ffffff;stroke-width:2.00096583;stroke-linecap:butt;stroke-linejoin:miter;stroke-miterlimit:4;stroke-dasharray:none;stroke-opacity:1"
       d="M 57.455188,73.85239 C 55.654491,75.547172 56.078184,81.796677 52.159002,82.538141 C 48.239829,83.279612 45.485804,77.877495 41.990324,77.453801 C 38.494844,77.030108 37.859303,79.04266 36.482291,79.572277"
       id="path2246"
       sodipodi:nodetypes="czzz" />
  </g>
</svg>
