<?xml version="1.0" encoding="UTF-8" standalone="no"?>
<!-- Created with Inkscape (http://www.inkscape.org/) -->

<svg
   xmlns:dc="http://purl.org/dc/elements/1.1/"
   xmlns:cc="http://creativecommons.org/ns#"
   xmlns:rdf="http://www.w3.org/1999/02/22-rdf-syntax-ns#"
   xmlns:svg="http://www.w3.org/2000/svg"
   xmlns="http://www.w3.org/2000/svg"
   xmlns:sodipodi="http://sodipodi.sourceforge.net/DTD/sodipodi-0.dtd"
   xmlns:inkscape="http://www.inkscape.org/namespaces/inkscape"
   width="16"
   height="16"
   id="svg4216"
   version="1.1"
   inkscape:version="0.91 r13725"
   viewBox="0 0 16 16"
   sodipodi:docname="agave-symbolic.svg">
  <defs
     id="defs4218" />
  <sodipodi:namedview
     id="base"
     pagecolor="#242424"
     bordercolor="#666666"
     borderopacity="1.0"
     inkscape:pageopacity="0"
     inkscape:pageshadow="2"
     inkscape:zoom="15.556349"
     inkscape:cx="0.88572922"
     inkscape:cy="8.2928194"
     inkscape:current-layer="layer1"
     showgrid="false"
     inkscape:document-units="px"
     inkscape:grid-bbox="true"
     showguides="false"
     inkscape:guide-bbox="true"
     objecttolerance="10000"
     guidetolerance="10000"
     inkscape:snap-path-clip="true"
     inkscape:snap-perpendicular="true"
     inkscape:snap-tangential="true"
     inkscape:window-width="1366"
     inkscape:window-height="704"
     inkscape:window-x="0"
     inkscape:window-y="27"
     inkscape:window-maximized="1">
    <inkscape:grid
       type="xygrid"
       id="grid4764" />
    <sodipodi:guide
       position="0,57"
       orientation="1,0"
       id="guide4768" />
    <sodipodi:guide
       position="17,0"
       orientation="0,1"
       id="guide4772" />
    <sodipodi:guide
       position="40,48"
       orientation="0,1"
       id="guide4150" />
    <sodipodi:guide
       position="3,41"
       orientation="1,0"
       id="guide4154" />
    <sodipodi:guide
       position="7,45"
       orientation="0,1"
       id="guide4156" />
    <sodipodi:guide
       position="24,3"
       orientation="0,1"
       id="guide4160" />
  </sodipodi:namedview>
  <metadata
     id="metadata4221">
    <rdf:RDF>
      <cc:Work
         rdf:about="">
        <dc:format>image/svg+xml</dc:format>
        <dc:type
           rdf:resource="http://purl.org/dc/dcmitype/StillImage" />
        <dc:title></dc:title>
        <dc:creator>
          <cc:Agent>
            <dc:title>Chris D</dc:title>
          </cc:Agent>
        </dc:creator>
        <dc:description>diazchris.deviantart.com</dc:description>
      </cc:Work>
    </rdf:RDF>
  </metadata>
  <g
     id="layer1"
     inkscape:label="Layer 1"
     inkscape:groupmode="layer"
     transform="translate(0,-48)">
    <path
       style="color:#000000;font-style:normal;font-variant:normal;font-weight:normal;font-stretch:normal;font-size:medium;line-height:normal;font-family:sans-serif;text-indent:0;text-align:start;text-decoration:none;text-decoration-line:none;text-decoration-style:solid;text-decoration-color:#000000;letter-spacing:normal;word-spacing:normal;text-transform:none;direction:ltr;block-progression:tb;writing-mode:lr-tb;baseline-shift:baseline;text-anchor:start;white-space:normal;clip-rule:nonzero;display:inline;overflow:visible;visibility:visible;opacity:1;isolation:auto;mix-blend-mode:normal;color-interpolation:sRGB;color-interpolation-filters:linearRGB;solid-color:#000000;solid-opacity:1;fill:#bbc5cd;fill-opacity:1;fill-rule:evenodd;stroke:none;stroke-width:1.75140119;stroke-linecap:butt;stroke-linejoin:miter;stroke-miterlimit:4;stroke-dasharray:none;stroke-dashoffset:0;stroke-opacity:1;color-rendering:auto;image-rendering:auto;shape-rendering:auto;text-rendering:auto;enable-background:accumulate"
       d="m 8.0039062,50.126953 -0.6347656,0.667969 c 0,0 -0.8706628,1.01357 -1.6464844,2.001953 C 4.5470647,52.351791 3.2753906,51.933594 3.2753906,51.933594 L 2.390625,51.691406 2.1914062,52.585938 c 0,0 -0.290227,1.772536 -0.4257812,3.410156 -0.3328145,0.0579 -0.84179688,0.142578 -0.84179688,0.142578 L 0,56.318359 0.24609375,57.228516 c 0,0 0.2945382,1.095633 0.78906245,2.296875 0.2472622,0.60062 0.5434911,1.232288 0.9023438,1.794921 0.3588527,0.562634 0.76019,1.083427 1.3964844,1.386719 1.1500791,0.54819 2.3637829,0.216519 3.3164062,-0.105469 0.7613837,-0.257348 1.1326384,-0.472438 1.3535156,-0.589843 0.2216261,0.117377 0.5924622,0.333726 1.3535157,0.589843 0.9531331,0.320758 2.1669481,0.64889 3.3164061,0.09961 0.636004,-0.30392 1.03836,-0.823764 1.396484,-1.386719 0.358125,-0.562955 0.653972,-1.194142 0.900391,-1.794922 0.492839,-1.201559 0.785156,-2.300781 0.785156,-2.300781 L 16,56.3125 15.078125,56.132812 c 0,0 -0.512547,-0.08411 -0.849609,-0.142578 -0.139123,-1.6431 -0.433594,-3.419922 -0.433594,-3.419922 l -0.203125,-0.894531 -0.884766,0.244141 c 0,0 -1.262289,0.420241 -2.429687,0.865234 C 9.5057277,51.803721 8.6386719,50.794922 8.6386719,50.794922 L 8.0039062,50.126953 Z m 0,2.646485 c 0.3668879,0.409421 0.6793029,0.715426 1.2753907,1.550781 l 0.4121093,0.576172 0.6503908,-0.283203 c 0.931,-0.405482 1.3424,-0.50227 1.871094,-0.666016 0.130239,0.668312 0.332246,1.501039 0.357421,2.8125 l 0.01563,0.742187 0.734374,0.107422 c 0.236261,0.03465 0.232966,0.03952 0.429688,0.07227 -0.123162,0.395317 -0.152356,0.563251 -0.400391,1.167969 -0.221667,0.540432 -0.48697,1.093779 -0.757812,1.519531 -0.270843,0.425752 -0.566807,0.697839 -0.671875,0.748047 -0.332685,0.158977 -1.223842,0.08283 -2.0039064,-0.179688 C 9.3894194,60.764191 9.2100591,60.651849 8.9707031,60.53125 l 0.00195,-0.501953 -0.3847656,-0.0078 -0.2109375,-0.380859 -0.3730469,0.216797 -0.375,-0.216797 -0.2109374,0.382813 -0.3847657,0.0078 0.00195,0.5 C 6.7962776,60.652064 6.6168371,60.765235 6.0898438,60.943359 5.3102981,61.206847 4.42065,61.285564 4.0878906,61.126953 3.9827658,61.076845 3.6855247,60.804523 3.4140625,60.378906 3.1426003,59.95329 2.876745,59.39972 2.6542969,58.859375 2.4054034,58.254792 2.3756944,58.086698 2.2519531,57.691406 c 0.1952746,-0.03261 0.1919251,-0.03765 0.4257813,-0.07227 l 0.734375,-0.109375 0.013672,-0.742188 c 0.02242,-1.309096 0.2212201,-2.13715 0.3496094,-2.804687 0.53107,0.162656 0.9499072,0.260275 1.8867188,0.666015 L 6.3125,54.910156 6.7226562,54.332031 c 0.5981266,-0.839491 0.9130963,-1.147634 1.28125,-1.558593 z"
       id="path4170-9"
       inkscape:connector-curvature="0" />
  </g>
</svg>
