<?xml version="1.0" encoding="UTF-8" standalone="no"?>
<!-- Created with Inkscape (http://www.inkscape.org/) -->

<svg
   xmlns:dc="http://purl.org/dc/elements/1.1/"
   xmlns:cc="http://creativecommons.org/ns#"
   xmlns:rdf="http://www.w3.org/1999/02/22-rdf-syntax-ns#"
   xmlns:svg="http://www.w3.org/2000/svg"
   xmlns="http://www.w3.org/2000/svg"
   xmlns:sodipodi="http://sodipodi.sourceforge.net/DTD/sodipodi-0.dtd"
   xmlns:inkscape="http://www.inkscape.org/namespaces/inkscape"
   width="48"
   height="48"
   id="svg4216"
   version="1.1"
   inkscape:version="0.91 r13725"
   viewBox="0 0 48 48"
   sodipodi:docname="easytag.svg">
  <defs
     id="defs4218">
    <clipPath
       clipPathUnits="userSpaceOnUse"
       id="clipPath4197">
      <g
         style="font-style:normal;font-variant:normal;font-weight:bold;font-stretch:normal;font-size:40px;line-height:125%;font-family:'Open Sans';-inkscape-font-specification:'Open Sans Bold';letter-spacing:0px;word-spacing:0px;fill:#000000;fill-opacity:1;stroke:none;stroke-width:1px;stroke-linecap:butt;stroke-linejoin:miter;stroke-opacity:1"
         id="g4199"
         transform="matrix(1.3291484,0,0,1.3291484,-10.892551,-0.90621883)">
        <path
           d="m 39.195312,32.003906 0,1.992188 -16.347656,0 q 0.253906,2.460937 1.777344,3.691406 1.523437,1.230469 4.257812,1.230469 2.207032,0 4.511719,-0.644532 2.324219,-0.664062 4.765625,-1.992187 l 0,5.390625 q -2.480469,0.9375 -4.960937,1.40625 -2.480469,0.488281 -4.960938,0.488281 -5.9375,0 -9.238281,-3.007812 -3.28125,-3.027344 -3.28125,-8.476563 0,-5.351562 3.222656,-8.417969 3.242188,-3.066406 8.90625,-3.066406 5.15625,0 8.242188,3.105469 3.105468,3.105469 3.105468,8.300781 z m -7.1875,-2.324219 q 0,-1.992187 -1.171875,-3.203125 -1.152343,-1.230468 -3.027343,-1.230468 -2.03125,0 -3.300782,1.152343 -1.269531,1.132813 -1.582031,3.28125 l 9.082031,0 z"
           id="path4201"
           inkscape:connector-curvature="0" />
      </g>
    </clipPath>
  </defs>
  <sodipodi:namedview
     id="base"
     pagecolor="#242424"
     bordercolor="#666666"
     borderopacity="1.0"
     inkscape:pageopacity="0"
     inkscape:pageshadow="2"
     inkscape:zoom="3.8890873"
     inkscape:cx="10.699153"
     inkscape:cy="26.856179"
     inkscape:current-layer="layer1"
     showgrid="false"
     inkscape:document-units="px"
     inkscape:grid-bbox="true"
     showguides="false"
     inkscape:guide-bbox="true"
     objecttolerance="10000"
     guidetolerance="10000"
     inkscape:snap-path-clip="true"
     inkscape:snap-perpendicular="true"
     inkscape:snap-tangential="true"
     inkscape:window-width="1366"
     inkscape:window-height="704"
     inkscape:window-x="0"
     inkscape:window-y="27"
     inkscape:window-maximized="1">
    <inkscape:grid
       type="xygrid"
       id="grid4764" />
    <sodipodi:guide
       position="0,57"
       orientation="1,0"
       id="guide4768" />
    <sodipodi:guide
       position="17,0"
       orientation="0,1"
       id="guide4772" />
    <sodipodi:guide
       position="40,48"
       orientation="0,1"
       id="guide4150" />
    <sodipodi:guide
       position="3,41"
       orientation="1,0"
       id="guide4154" />
    <sodipodi:guide
       position="7,45"
       orientation="0,1"
       id="guide4156" />
    <sodipodi:guide
       position="24,3"
       orientation="0,1"
       id="guide4160" />
    <sodipodi:guide
       position="45,41"
       orientation="1,0"
       id="guide4143" />
    <sodipodi:guide
       position="13,15"
       orientation="0.70710678,0.70710678"
       id="guide4149" />
    <sodipodi:guide
       position="30,38"
       orientation="0.70710678,0.70710678"
       id="guide4151" />
    <sodipodi:guide
       position="35,13"
       orientation="-0.70710678,0.70710678"
       id="guide4155" />
    <sodipodi:guide
       position="15,33"
       orientation="0.70710678,0.70710678"
       id="guide4205" />
  </sodipodi:namedview>
  <metadata
     id="metadata4221">
    <rdf:RDF>
      <cc:Work
         rdf:about="">
        <dc:format>image/svg+xml</dc:format>
        <dc:type
           rdf:resource="http://purl.org/dc/dcmitype/StillImage" />
        <dc:title />
        <dc:creator>
          <cc:Agent>
            <dc:title>Chris D</dc:title>
          </cc:Agent>
        </dc:creator>
        <dc:description>diazchris.deviantart.com</dc:description>
      </cc:Work>
    </rdf:RDF>
  </metadata>
  <g
     id="layer1"
     inkscape:label="Layer 1"
     inkscape:groupmode="layer"
     transform="translate(0,-16)">
    <path
       style="fill:#84e4b6;fill-rule:evenodd;stroke:#6acb9c;stroke-width:0.5;stroke-linecap:butt;stroke-linejoin:miter;stroke-opacity:1;fill-opacity:1;stroke-miterlimit:4;stroke-dasharray:none"
       d="M 3 3 L 3 23 L 25 45 L 45 25 L 23 3 L 3 3 z M 6.5 5 A 1.5 1.5 0 0 1 8 6.5 A 1.5 1.5 0 0 1 6.5 8 A 1.5 1.5 0 0 1 5 6.5 A 1.5 1.5 0 0 1 6.5 5 z "
       transform="translate(0,16)"
       id="path4159" />
    <path
       style="fill:#d1f7e6;fill-opacity:1;fill-rule:evenodd;stroke:none;stroke-width:1px;stroke-linecap:butt;stroke-linejoin:miter;stroke-opacity:1"
       d="M 4,39 25,60 44,41 23,20 4,20 Z"
       id="path4159-7"
       inkscape:connector-curvature="0"
       sodipodi:nodetypes="cccccc"
       clip-path="url(#clipPath4197)" />
    <circle
       style="opacity:1;fill:none;fill-opacity:1;fill-rule:nonzero;stroke:#d1f7e6;stroke-width:0.5;stroke-linecap:square;stroke-linejoin:miter;stroke-miterlimit:4;stroke-dasharray:none;stroke-dashoffset:0;stroke-opacity:1"
       id="path4208"
       cx="6.5"
       cy="22.5"
       r="1.5" />
  </g>
</svg>
