<?xml version="1.0" encoding="UTF-8" standalone="no"?>
<!-- Created with Inkscape (http://www.inkscape.org/) -->

<svg
   xmlns:dc="http://purl.org/dc/elements/1.1/"
   xmlns:cc="http://creativecommons.org/ns#"
   xmlns:rdf="http://www.w3.org/1999/02/22-rdf-syntax-ns#"
   xmlns:svg="http://www.w3.org/2000/svg"
   xmlns="http://www.w3.org/2000/svg"
   xmlns:sodipodi="http://sodipodi.sourceforge.net/DTD/sodipodi-0.dtd"
   xmlns:inkscape="http://www.inkscape.org/namespaces/inkscape"
   width="48"
   height="48"
   id="svg4216"
   version="1.1"
   inkscape:version="0.91 r13725"
   viewBox="0 0 48 48"
   sodipodi:docname="fceux.svg">
  <defs
     id="defs4218" />
  <sodipodi:namedview
     id="base"
     pagecolor="#c5c5c5"
     bordercolor="#666666"
     borderopacity="1.0"
     inkscape:pageopacity="0"
     inkscape:pageshadow="2"
     inkscape:zoom="7.7781745"
     inkscape:cx="42.738626"
     inkscape:cy="17.2427"
     inkscape:current-layer="layer1"
     showgrid="false"
     inkscape:document-units="px"
     inkscape:grid-bbox="true"
     showguides="true"
     inkscape:guide-bbox="true"
     objecttolerance="10000"
     guidetolerance="10000"
     inkscape:snap-path-clip="true"
     inkscape:snap-perpendicular="true"
     inkscape:snap-tangential="true"
     inkscape:window-width="1366"
     inkscape:window-height="704"
     inkscape:window-x="0"
     inkscape:window-y="27"
     inkscape:window-maximized="1">
    <inkscape:grid
       type="xygrid"
       id="grid4764" />
  </sodipodi:namedview>
  <metadata
     id="metadata4221">
    <rdf:RDF>
      <cc:Work
         rdf:about="">
        <dc:format>image/svg+xml</dc:format>
        <dc:type
           rdf:resource="http://purl.org/dc/dcmitype/StillImage" />
        <dc:title />
        <dc:creator>
          <cc:Agent>
            <dc:title>Chris D</dc:title>
          </cc:Agent>
        </dc:creator>
        <dc:description>diazchris.deviantart.com</dc:description>
      </cc:Work>
    </rdf:RDF>
  </metadata>
  <g
     id="layer1"
     inkscape:label="Layer 1"
     inkscape:groupmode="layer"
     transform="translate(0,-16)">
    <rect
       style="opacity:1;fill:#bbc5cd;fill-opacity:1;fill-rule:nonzero;stroke:#8698a6;stroke-width:0.5;stroke-linecap:round;stroke-linejoin:round;stroke-miterlimit:4;stroke-dasharray:none;stroke-dashoffset:0;stroke-opacity:1"
       id="rect4197"
       width="42"
       height="20"
       x="3"
       y="29"
       ry="1"
       rx="1" />
    <rect
       style="opacity:1;fill:#1a1d20;fill-opacity:1;fill-rule:nonzero;stroke:none;stroke-width:0.5;stroke-linecap:round;stroke-linejoin:round;stroke-miterlimit:4;stroke-dasharray:none;stroke-dashoffset:0;stroke-opacity:1"
       id="rect4153"
       width="38"
       height="15"
       x="5"
       y="32"
       rx="1"
       ry="1" />
    <path
       style="fill:#1a1d20;fill-rule:evenodd;stroke:#bbc5cd;stroke-width:0.5;stroke-linecap:round;stroke-linejoin:round;stroke-opacity:1;fill-opacity:1;stroke-miterlimit:4;stroke-dasharray:none"
       d="m 7,38 0,3 3,0 0,3 3,0 0,-3 3,0 0,-3 -3,0 0,-3 -3,0 0,3 z"
       id="path4159"
       inkscape:connector-curvature="0" />
    <rect
       style="opacity:1;fill:#bbc5cd;fill-opacity:1;fill-rule:nonzero;stroke:none;stroke-width:0.5;stroke-linecap:round;stroke-linejoin:round;stroke-miterlimit:4;stroke-dasharray:none;stroke-dashoffset:0;stroke-opacity:1"
       id="rect4161"
       width="10"
       height="3"
       x="19"
       y="41"
       rx="0"
       ry="1" />
    <rect
       style="opacity:1;fill:#1a1d20;fill-opacity:1;fill-rule:nonzero;stroke:none;stroke-width:0.5;stroke-linecap:round;stroke-linejoin:round;stroke-miterlimit:4;stroke-dasharray:none;stroke-dashoffset:0;stroke-opacity:1"
       id="rect4163"
       width="3"
       height="1"
       x="20"
       y="42"
       ry="0.5" />
    <rect
       style="opacity:1;fill:#1a1d20;fill-opacity:1;fill-rule:nonzero;stroke:none;stroke-width:0.5;stroke-linecap:round;stroke-linejoin:round;stroke-miterlimit:4;stroke-dasharray:none;stroke-dashoffset:0;stroke-opacity:1"
       id="rect4165"
       width="3"
       height="1"
       x="25"
       y="42"
       ry="0.5" />
    <rect
       style="opacity:1;fill:#bbc5cd;fill-opacity:1;fill-rule:nonzero;stroke:none;stroke-width:0.5;stroke-linecap:round;stroke-linejoin:round;stroke-miterlimit:4;stroke-dasharray:none;stroke-dashoffset:0;stroke-opacity:1"
       id="rect4161-8"
       width="5"
       height="5"
       x="30"
       y="39"
       rx="0"
       ry="1" />
    <rect
       style="opacity:1;fill:#bbc5cd;fill-opacity:1;fill-rule:nonzero;stroke:none;stroke-width:0.5;stroke-linecap:round;stroke-linejoin:round;stroke-miterlimit:4;stroke-dasharray:none;stroke-dashoffset:0;stroke-opacity:1"
       id="rect4161-8-6"
       width="5"
       height="5"
       x="36"
       y="39"
       rx="0"
       ry="1" />
    <circle
       style="opacity:1;fill:#c4604a;fill-opacity:1;fill-rule:nonzero;stroke:none;stroke-width:0.5;stroke-linecap:round;stroke-linejoin:round;stroke-miterlimit:4;stroke-dasharray:none;stroke-dashoffset:0;stroke-opacity:1"
       id="path4197"
       cx="32.5"
       cy="41.5"
       r="1.5" />
    <circle
       style="opacity:1;fill:#c4604a;fill-opacity:1;fill-rule:nonzero;stroke:none;stroke-width:0.5;stroke-linecap:round;stroke-linejoin:round;stroke-miterlimit:4;stroke-dasharray:none;stroke-dashoffset:0;stroke-opacity:1"
       id="path4199"
       cx="38.5"
       cy="41.5"
       r="1.5" />
    <path
       style="opacity:1;fill:#8698a6;fill-opacity:1;fill-rule:nonzero;stroke:none;stroke-width:0.5;stroke-linecap:round;stroke-linejoin:round;stroke-miterlimit:4;stroke-dasharray:none;stroke-dashoffset:0;stroke-opacity:1"
       d="m 19.5,38 9,0 c 0.277,0 0.5,0.223 0.5,0.5 l 0,1 c 0,0.277 -0.223,0.5 -0.5,0.5 l -9,0 C 19.223,40 19,39.777 19,39.5 l 0,-1 C 19,38.223 19.223,38 19.5,38 Z"
       id="rect4201" />
    <path
       style="opacity:1;fill:#8698a6;fill-opacity:1;fill-rule:nonzero;stroke:none;stroke-width:0.5;stroke-linecap:round;stroke-linejoin:round;stroke-miterlimit:4;stroke-dasharray:none;stroke-dashoffset:0;stroke-opacity:1"
       d="m 19.5,35 9,0 c 0.277,0 0.5,0.223 0.5,0.5 l 0,1 c 0,0.277 -0.223,0.5 -0.5,0.5 l -9,0 C 19.223,37 19,36.777 19,36.5 l 0,-1 C 19,35.223 19.223,35 19.5,35 Z"
       id="rect4203" />
    <path
       style="opacity:1;fill:#8698a6;fill-opacity:1;fill-rule:nonzero;stroke:none;stroke-width:0.5;stroke-linecap:round;stroke-linejoin:round;stroke-miterlimit:4;stroke-dasharray:none;stroke-dashoffset:0;stroke-opacity:1"
       d="m 19,32 10,0 c 0,0 0,0.223 0,0.5 l 0,1 c 0,0.277 -0.223,0.5 -0.5,0.5 l -9,0 C 19.223,34 19,33.777 19,33.5 l 0,-1 C 19,32.223 19,32 19,32 Z"
       id="rect4214"
       inkscape:connector-curvature="0"
       sodipodi:nodetypes="ccssssssc" />
    <path
       style="opacity:1;fill:#8698a6;fill-opacity:1;fill-rule:nonzero;stroke:none;stroke-width:0.5;stroke-linecap:round;stroke-linejoin:round;stroke-miterlimit:4;stroke-dasharray:none;stroke-dashoffset:0;stroke-opacity:1"
       d="m 19.5,45 9,0 c 0.277,0 0.5,0.223 0.5,0.5 l 0,1 c 0,0.277 0,0.5 0,0.5 l -10,0 c 0,0 0,-0.223 0,-0.5 l 0,-1 C 19,45.223 19.223,45 19.5,45 Z"
       id="rect4214-2"
       inkscape:connector-curvature="0"
       sodipodi:nodetypes="ssssccsss" />
    <path
       style="font-style:normal;font-variant:normal;font-weight:bold;font-stretch:normal;font-size:medium;line-height:125%;font-family:'Open Sans';-inkscape-font-specification:'Open Sans Bold';letter-spacing:0px;word-spacing:0px;fill:#c4604a;fill-opacity:1;stroke:none;stroke-width:1px;stroke-linecap:butt;stroke-linejoin:miter;stroke-opacity:1"
       inkscape:connector-curvature="0"
       id="path4295"
       d="m 34.725614,45.99059 -0.07129,-0.234026 -0.358436,0 -0.07129,0.234026 -0.224611,0 0.347004,-0.987213 0.254873,0 0.34835,0.987213 -0.224612,0 z m -0.121048,-0.408873 q -0.09886,-0.318088 -0.111633,-0.359782 -0.0121,-0.04169 -0.01748,-0.0659 -0.02219,0.08608 -0.1271,0.425685 l 0.256218,0 z" />
    <path
       style="font-style:normal;font-variant:normal;font-weight:bold;font-stretch:normal;font-size:medium;line-height:125%;font-family:'Open Sans';-inkscape-font-specification:'Open Sans Bold';letter-spacing:0px;word-spacing:0px;fill:#c4604a;fill-opacity:1;stroke:none;stroke-width:1px;stroke-linecap:butt;stroke-linejoin:miter;stroke-opacity:1"
       inkscape:connector-curvature="0"
       id="path4297"
       d="m 39.995059,44.991418 0.315195,0 q 0.215441,0 0.312424,0.06166 0.09768,0.06096 0.09768,0.194659 0,0.09075 -0.04295,0.148938 -0.04226,0.05819 -0.112916,0.06997 l 0,0.007 q 0.09629,0.02147 0.138547,0.08036 0.04295,0.05888 0.04295,0.156559 0,0.138547 -0.100447,0.216133 -0.09975,0.07759 -0.271553,0.07759 l -0.378927,0 0,-1.012781 z m 0.214749,0.401095 0.124692,0 q 0.08729,0 0.126078,-0.02702 0.03949,-0.02702 0.03949,-0.08936 0,-0.05819 -0.04295,-0.08313 -0.04226,-0.02563 -0.134391,-0.02563 l -0.112916,0 0,0.225139 z m 0,0.170413 0,0.263932 0.139932,0 q 0.08867,0 0.130928,-0.03394 0.04226,-0.03395 0.04226,-0.103911 0,-0.126077 -0.180111,-0.126077 l -0.133005,0 z" />
    <g
       id="g4316"
       transform="matrix(0.31617007,0,0,0.31617007,12.07579,20.527957)"
       style="fill:#c4604a">
      <path
         d="m 64.204636,52.001954 -1.183254,0 0,-5.67186 3.251039,0 0,0.985399 -2.067785,0 0,1.462579 1.924242,0 0,0.981519 -1.924242,0 0,2.242363 z"
         id="path4299"
         inkscape:connector-curvature="0"
         style="font-style:normal;font-variant:normal;font-weight:bold;font-stretch:normal;font-size:medium;line-height:125%;font-family:'Open Sans';-inkscape-font-specification:'Open Sans Bold';letter-spacing:0px;word-spacing:0px;fill:#c4604a;fill-opacity:1;stroke:none;stroke-width:1px;stroke-linecap:butt;stroke-linejoin:miter;stroke-opacity:1" />
      <path
         d="m 69.050158,52.079544 q -2.02511,0 -2.02511,-2.222965 0,-1.105664 0.550892,-1.687592 0.550892,-0.585808 1.578965,-0.585808 0.752627,0 1.350073,0.294844 l -0.349157,0.915567 q -0.279325,-0.112506 -0.519856,-0.182337 -0.24053,-0.07371 -0.48106,-0.07371 -0.923326,0 -0.923326,1.311278 0,1.272483 0.923326,1.272483 0.341398,0 0.632362,-0.08923 0.290964,-0.09311 0.581928,-0.287085 l 0,1.012555 q -0.287085,0.182337 -0.581928,0.252169 -0.290964,0.06983 -0.737109,0.06983 z"
         id="path4301"
         inkscape:connector-curvature="0"
         style="font-style:normal;font-variant:normal;font-weight:bold;font-stretch:normal;font-size:medium;line-height:125%;font-family:'Open Sans';-inkscape-font-specification:'Open Sans Bold';letter-spacing:0px;word-spacing:0px;fill:#c4604a;fill-opacity:1;stroke:none;stroke-width:1px;stroke-linecap:butt;stroke-linejoin:miter;stroke-opacity:1" />
      <path
         d="m 73.166329,48.425036 q -0.376313,0 -0.589687,0.24053 -0.213373,0.236651 -0.24441,0.675036 l 1.660435,0 q -0.0078,-0.438385 -0.228891,-0.675036 -0.221133,-0.24053 -0.597447,-0.24053 z m 0.16682,3.654508 q -1.047471,0 -1.637158,-0.578048 -0.589687,-0.578049 -0.589687,-1.637158 0,-1.090146 0.543133,-1.683712 0.547012,-0.597447 1.509133,-0.597447 0.919447,0 1.431544,0.523736 0.512096,0.523735 0.512096,1.447061 l 0,0.574169 -2.797134,0 q 0.0194,0.504338 0.298723,0.787543 0.279325,0.283205 0.783663,0.283205 0.391832,0 0.740989,-0.08147 0.349157,-0.08147 0.72935,-0.259928 l 0,0.915567 q -0.310362,0.155181 -0.663398,0.228892 -0.353037,0.07759 -0.861254,0.07759 z"
         id="path4303"
         inkscape:connector-curvature="0"
         style="font-style:normal;font-variant:normal;font-weight:bold;font-stretch:normal;font-size:medium;line-height:125%;font-family:'Open Sans';-inkscape-font-specification:'Open Sans Bold';letter-spacing:0px;word-spacing:0px;fill:#c4604a;fill-opacity:1;stroke:none;stroke-width:1px;stroke-linecap:butt;stroke-linejoin:miter;stroke-opacity:1" />
      <path
         d="m 79.144671,52.001954 -0.15906,-0.554772 -0.06207,0 q -0.190097,0.302603 -0.539254,0.469422 -0.349157,0.16294 -0.795302,0.16294 -0.764265,0 -1.152217,-0.407349 -0.387952,-0.41123 -0.387952,-1.179375 l 0,-2.828171 1.183253,0 0,2.533328 q 0,0.469422 0.16682,0.706072 0.166819,0.232772 0.531494,0.232772 0.496579,0 0.717712,-0.32976 0.221132,-0.333638 0.221132,-1.101784 l 0,-2.040628 1.183254,0 0,4.337305 -0.907808,0 z"
         id="path4305"
         inkscape:connector-curvature="0"
         style="font-style:normal;font-variant:normal;font-weight:bold;font-stretch:normal;font-size:medium;line-height:125%;font-family:'Open Sans';-inkscape-font-specification:'Open Sans Bold';letter-spacing:0px;word-spacing:0px;fill:#c4604a;fill-opacity:1;stroke:none;stroke-width:1px;stroke-linecap:butt;stroke-linejoin:miter;stroke-opacity:1" />
      <path
         d="m 82.190095,49.786747 -1.396627,-2.122098 1.342314,0 0.841856,1.38111 0.849615,-1.38111 1.342314,0 -1.412145,2.122098 1.478097,2.215207 -1.346194,0 -0.911687,-1.485857 -0.915567,1.485857 -1.342314,0 1.470338,-2.215207 z"
         id="path4307"
         inkscape:connector-curvature="0"
         style="font-style:normal;font-variant:normal;font-weight:bold;font-stretch:normal;font-size:medium;line-height:125%;font-family:'Open Sans';-inkscape-font-specification:'Open Sans Bold';letter-spacing:0px;word-spacing:0px;fill:#c4604a;fill-opacity:1;stroke:none;stroke-width:1px;stroke-linecap:butt;stroke-linejoin:miter;stroke-opacity:1" />
    </g>
  </g>
</svg>
