<?xml version="1.0" encoding="UTF-8" standalone="no"?>
<!-- Created with Inkscape (http://www.inkscape.org/) -->

<svg
   xmlns:dc="http://purl.org/dc/elements/1.1/"
   xmlns:cc="http://creativecommons.org/ns#"
   xmlns:rdf="http://www.w3.org/1999/02/22-rdf-syntax-ns#"
   xmlns:svg="http://www.w3.org/2000/svg"
   xmlns="http://www.w3.org/2000/svg"
   xmlns:sodipodi="http://sodipodi.sourceforge.net/DTD/sodipodi-0.dtd"
   xmlns:inkscape="http://www.inkscape.org/namespaces/inkscape"
   width="16"
   height="16"
   id="svg4159"
   version="1.1"
   inkscape:version="0.91 r13725"
   viewBox="0 0 16 16"
   sodipodi:docname="firefox-symbolic.svg">
  <defs
     id="defs4161">
    <inkscape:perspective
       sodipodi:type="inkscape:persp3d"
       inkscape:vp_x="0 : 8 : 1"
       inkscape:vp_y="0 : 1000 : 0"
       inkscape:vp_z="16 : 8 : 1"
       inkscape:persp3d-origin="8 : 5.3333333 : 1"
       id="perspective4709" />
    <linearGradient
       x1="0"
       y1="0"
       x2="1"
       y2="0"
       gradientUnits="userSpaceOnUse"
       gradientTransform="matrix(0,150.61848,150.61848,0,251.27441,183.7959)"
       spreadMethod="pad"
       id="linearGradient5199">
      <stop
         style="stop-opacity:1;stop-color:#a81e22"
         offset="0"
         id="stop5201" />
      <stop
         style="stop-opacity:1;stop-color:#d02026"
         offset="0.395203"
         id="stop5203" />
      <stop
         style="stop-opacity:1;stop-color:#e51e26"
         offset="1"
         id="stop5205" />
    </linearGradient>
  </defs>
  <sodipodi:namedview
     id="base"
     pagecolor="#222222"
     bordercolor="#00fff6"
     borderopacity="1"
     inkscape:pageopacity="0"
     inkscape:pageshadow="2"
     inkscape:zoom="22.197802"
     inkscape:cx="13.536079"
     inkscape:cy="9.3099187"
     inkscape:current-layer="layer1"
     showgrid="false"
     inkscape:grid-bbox="true"
     inkscape:document-units="px"
     inkscape:window-width="1366"
     inkscape:window-height="704"
     inkscape:window-x="0"
     inkscape:window-y="27"
     inkscape:window-maximized="1"
     showguides="true"
     inkscape:guide-bbox="true">
    <inkscape:grid
       type="xygrid"
       id="grid4707" />
  </sodipodi:namedview>
  <metadata
     id="metadata4164">
    <rdf:RDF>
      <cc:Work
         rdf:about="">
        <dc:format>image/svg+xml</dc:format>
        <dc:type
           rdf:resource="http://purl.org/dc/dcmitype/StillImage" />
        <dc:title />
        <cc:license
           rdf:resource="http://creativecommons.org/licenses/by-nc-nd/3.0/" />
        <dc:creator>
          <cc:Agent>
            <dc:title>Chris D</dc:title>
          </cc:Agent>
        </dc:creator>
        <dc:description>diazchris.deviantart.com</dc:description>
      </cc:Work>
      <cc:License
         rdf:about="http://creativecommons.org/licenses/by-nc-nd/3.0/">
        <cc:permits
           rdf:resource="http://creativecommons.org/ns#Reproduction" />
        <cc:permits
           rdf:resource="http://creativecommons.org/ns#Distribution" />
        <cc:requires
           rdf:resource="http://creativecommons.org/ns#Notice" />
        <cc:requires
           rdf:resource="http://creativecommons.org/ns#Attribution" />
        <cc:prohibits
           rdf:resource="http://creativecommons.org/ns#CommercialUse" />
      </cc:License>
    </rdf:RDF>
  </metadata>
  <g
     id="layer1"
     inkscape:label="Layer 1"
     inkscape:groupmode="layer">
    <path
       style="fill:#bebebe;fill-opacity:1"
       d="M 7.4087099,14.782998 C 6.4209645,14.723503 5.817051,14.572564 4.9250844,14.162258 4.1571844,13.809025 3.318092,13.134401 2.7349642,12.401418 2.524228,12.136527 2.1461271,11.596772 2.1461271,11.560823 c 0,-0.01337 -0.06189,-0.125715 -0.1375333,-0.249674 C 1.8529114,11.056034 1.6016175,10.50569 1.4401116,10.066149 1.3252411,9.7535285 1.2087336,9.2385396 1.1721939,8.8818891 1.1477627,8.6434073 1.1069319,8.6049058 1.0764652,8.7916179 1.0653946,8.8594562 1.0516403,8.9371593 1.0458984,8.9642937 1.0401564,8.9914231 1.0337436,8.813375 1.0316432,8.5686214 1.0274134,8.0760657 1.091859,7.4673055 1.1882182,7.0894375 1.2228059,6.953795 1.242961,6.8293883 1.2330013,6.8129745 1.2230441,6.7965899 1.1661233,6.8779686 1.1065113,6.9938766 0.97660585,7.2464628 0.97272993,7.2285029 1.0739171,6.8428169 1.2850929,6.0378833 1.4404864,5.6235413 1.6864813,5.2094713 1.8172109,4.9894211 1.8172157,4.9894017 1.8174092,4.6333588 1.8178434,3.8363064 2.0203927,3.1241673 2.3699638,2.6906498 2.4845402,2.5485557 2.5408207,2.5358905 2.5408207,2.6521921 c 0,0.1039088 0.1893652,0.5634229 0.2766283,0.6712699 L 2.897292,3.422135 3.2206467,3.1075546 c 0.79971,-0.7780033 1.7404252,-1.3300299 2.8286177,-1.6598767 1.036811,-0.3142692 2.7267325,-0.3218684 3.7490802,-0.016871 0.8078774,0.2410245 1.5874864,0.6330892 2.2376994,1.1253337 0.184272,0.1395027 0.377843,0.2757773 0.430159,0.302829 0.229856,0.1188641 0.645916,0.465572 0.859061,0.7158682 0.142541,0.167386 0.298496,0.4020365 0.405529,0.6101556 0.09565,0.1859974 0.185018,0.3383552 0.198586,0.3385789 0.07175,9.723e-4 -0.01,-0.531733 -0.138234,-0.9012773 -0.03713,-0.1069865 -0.06209,-0.1999317 -0.05548,-0.2065487 0.01989,-0.019885 0.272918,0.3880245 0.360989,0.5819711 0.326622,0.7192715 0.44431,1.1821695 0.633443,2.4915074 0.0503,0.3482346 0.102813,0.6331525 0.11669,0.6331525 0.02642,0 0.03715,-0.046918 0.109037,-0.4769197 l 0.044,-0.2631317 0.003,0.4769246 c 0.0046,0.7323453 -0.08081,1.4545194 -0.278241,2.3517127 -0.138164,0.6278522 -0.224128,0.9013398 -0.475887,1.5139698 -0.480631,1.169577 -1.220798,2.135727 -2.169459,2.831822 -0.597902,0.43872 -1.6222,0.890897 -2.4097636,1.063787 -0.2637987,0.05791 -0.8763463,0.130989 -1.2575987,0.150038 -0.1989913,0.0099 -0.4136059,0.02237 -0.4769212,0.02762 -0.063316,0.0053 -0.3001317,-0.0015 -0.5262584,-0.01522 z m 1.9076862,-3.271057 c 0.292803,-0.06818 0.5857226,-0.171018 0.7236049,-0.25405 0.54439,-0.327819 1.069579,-0.861579 1.502383,-1.5269027 0.05834,-0.089683 0.02105,0.1249171 -0.105502,0.6071117 -0.06389,0.243431 -0.09327,0.411328 -0.07406,0.4232 0.01752,0.01084 0.09807,-0.04492 0.179012,-0.12394 0.157881,-0.154083 0.32535,-0.468537 0.435591,-0.8178946 0.151795,-0.4810523 0.231715,-1.3093134 0.176691,-1.8311912 -0.02566,-0.2433631 -0.02326,-0.2661412 0.02523,-0.2401835 0.09686,0.051833 0.286775,0.2854138 0.330597,0.4066019 0.02364,0.065388 0.05936,0.1188884 0.07936,0.1188884 0.05837,0 0.14941,-0.4419917 0.186306,-0.9045056 0.03836,-0.480853 0.01401,-1.4222363 -0.04261,-1.6470706 -0.0205,-0.081408 -0.03053,-0.1547596 -0.02229,-0.1630005 0.03143,-0.031408 0.297655,0.2304984 0.425222,0.4183482 0.0733,0.1079442 0.139663,0.1898869 0.147463,0.1820835 C 13.309944,6.13289 13.222264,5.793509 13.130758,5.5686454 12.887304,4.970377 12.48042,4.4241653 12.002414,4.0539062 11.555245,3.7075386 11.239197,3.5420147 10.639887,3.3403134 L 10.269485,3.215649 10.557659,3.161614 C 10.716155,3.131908 11.0006,3.092662 11.189759,3.074425 11.378918,3.056193 11.540405,3.034557 11.548618,3.026341 11.578038,2.996926 11.435175,2.8709782 11.289864,2.798244 11.100976,2.7036992 10.621172,2.5459011 10.142977,2.4210472 9.9373082,2.3673522 9.7609292,2.3153103 9.751025,2.3054066 c -0.035648,-0.035638 0.457691,-0.017017 0.821771,0.031068 0.204441,0.026984 0.525591,0.086489 0.713667,0.1322246 0.291077,0.070785 0.419635,0.084199 0.362462,0.037826 C 11.520348,2.4022413 11.220715,2.2349185 10.788255,2.0259097 10.227405,1.7548483 9.6193848,1.557124 9.0039292,1.4456549 8.6051851,1.3734311 7.660719,1.3475609 7.2530183,1.3976678 6.1383215,1.5347251 5.0636941,1.9415847 4.1756738,2.562772 3.7970921,2.8276002 3.0323782,3.512712 3.0360066,3.5838126 c 0.00102,0.019594 0.048488,0.072661 0.105525,0.1178868 0.1158137,0.091827 0.183773,0.095692 0.8793894,0.04998 0.295212,-0.019399 0.4409698,-0.01303 0.6639576,0.029026 l 0.2857089,0.05389 0.141876,-0.1357203 C 5.2756425,3.5427732 5.460083,3.4109035 5.6501104,3.3144772 5.823427,3.22653 6.3526896,3.0839398 6.6028759,3.0577827 L 6.8002224,3.0371682 6.6332789,3.1526581 c -0.3464138,0.2396437 -0.631514,0.656971 -0.7381645,1.0805166 -0.033416,0.1327059 -0.030017,0.1660295 0.028389,0.2783397 0.090864,0.1747323 0.323222,0.4047884 0.4820248,0.4772504 0.1083886,0.04946 0.2242694,0.06074 0.6578228,0.064036 0.6217731,0.00486 0.6869592,0.017357 0.7008799,0.1360267 C 7.7814758,5.335823 7.7038694,5.5511182 7.5948848,5.65862 7.5377125,5.7150085 7.315862,5.8693402 7.1018833,6.0015697 6.8879046,6.1337992 6.6331957,6.3179685 6.5358641,6.4108359 l -0.1769673,0.1688494 0.063647,0.2795746 c 0.055288,0.2428575 0.088699,0.6578219 0.052965,0.6578219 -0.00673,0 -0.1256007,-0.036999 -0.2641448,-0.08223 C 5.8995237,7.3330583 5.866432,7.3330194 5.6666735,7.434366 5.4726369,7.5326885 5.4164425,7.6068667 5.3663254,7.8308114 5.3343292,7.9737905 5.3369838,8.0277432 5.382817,8.165734 5.5196454,8.577684 6.1496434,9.036882 6.6954127,9.1224663 6.9638901,9.1645705 7.2127039,9.1185768 7.6734888,8.9410975 8.068938,8.7889098 8.094815,8.7835083 8.4283326,8.7835083 c 0.3227202,0 0.3604482,0.00715 0.5755952,0.1089652 0.2679274,0.1268036 0.3689531,0.2111043 0.4328956,0.3612402 0.038205,0.089702 0.038837,0.1237503 0.00365,0.1973451 -0.03867,0.080922 -0.063242,0.090611 -0.2724273,0.1074094 C 8.9020114,9.5798122 8.8983542,9.5815622 8.3851748,9.9233492 8.1715044,10.065663 7.9360332,10.213047 7.861905,10.250863 7.6312349,10.36854 7.1424769,10.452481 6.6192966,10.464262 c -0.2623066,0.0059 -0.484322,0.01133 -0.4933671,0.01206 -0.027309,0.0019 0.3590596,0.255625 0.6742682,0.442332 0.5851158,0.346587 0.8696325,0.462558 1.4636558,0.596606 0.2560075,0.05777 0.7977623,0.05613 1.0525169,-0.0034 z"
       id="path4209"
       inkscape:connector-curvature="0" />
  </g>
</svg>
