<?xml version="1.0" encoding="UTF-8" standalone="no"?>
<!-- Created with Inkscape (http://www.inkscape.org/) -->

<svg
   xmlns:dc="http://purl.org/dc/elements/1.1/"
   xmlns:cc="http://creativecommons.org/ns#"
   xmlns:rdf="http://www.w3.org/1999/02/22-rdf-syntax-ns#"
   xmlns:svg="http://www.w3.org/2000/svg"
   xmlns="http://www.w3.org/2000/svg"
   xmlns:sodipodi="http://sodipodi.sourceforge.net/DTD/sodipodi-0.dtd"
   xmlns:inkscape="http://www.inkscape.org/namespaces/inkscape"
   width="48"
   height="48"
   id="svg4216"
   version="1.1"
   inkscape:version="0.91 r13725"
   viewBox="0 0 48 48"
   sodipodi:docname="gnome-logs.svg">
  <defs
     id="defs4218" />
  <sodipodi:namedview
     id="base"
     pagecolor="#242424"
     bordercolor="#666666"
     borderopacity="1.0"
     inkscape:pageopacity="0"
     inkscape:pageshadow="2"
     inkscape:zoom="5.5"
     inkscape:cx="-21.186277"
     inkscape:cy="19.171641"
     inkscape:current-layer="layer1"
     showgrid="false"
     inkscape:document-units="px"
     inkscape:grid-bbox="true"
     showguides="false"
     inkscape:guide-bbox="true"
     objecttolerance="10000"
     guidetolerance="10000"
     inkscape:snap-path-clip="true"
     inkscape:snap-perpendicular="true"
     inkscape:snap-tangential="true"
     inkscape:window-width="1366"
     inkscape:window-height="704"
     inkscape:window-x="0"
     inkscape:window-y="27"
     inkscape:window-maximized="1">
    <inkscape:grid
       type="xygrid"
       id="grid4764" />
    <sodipodi:guide
       position="-2,64"
       orientation="0,1"
       id="guide4766" />
    <sodipodi:guide
       position="0,57"
       orientation="1,0"
       id="guide4768" />
    <sodipodi:guide
       position="64,51"
       orientation="1,0"
       id="guide4770" />
    <sodipodi:guide
       position="17,0"
       orientation="0,1"
       id="guide4772" />
    <sodipodi:guide
       position="10,38"
       orientation="1,0"
       id="guide4167" />
    <sodipodi:guide
       position="40,33"
       orientation="1,0"
       id="guide4169" />
    <sodipodi:guide
       position="31,45"
       orientation="0,1"
       id="guide4171" />
    <sodipodi:guide
       position="26,3"
       orientation="0,1"
       id="guide4173" />
    <sodipodi:guide
       position="31,35"
       orientation="1,0"
       id="guide4175" />
    <sodipodi:guide
       position="41,37"
       orientation="0,1"
       id="guide4177" />
    <sodipodi:guide
       position="15,41"
       orientation="1,0"
       id="guide4181" />
    <sodipodi:guide
       position="16,40"
       orientation="0,1"
       id="guide4183" />
    <sodipodi:guide
       position="35,32"
       orientation="1,0"
       id="guide4185" />
    <sodipodi:guide
       position="25,6"
       orientation="0,1"
       id="guide4187" />
  </sodipodi:namedview>
  <metadata
     id="metadata4221">
    <rdf:RDF>
      <cc:Work
         rdf:about="">
        <dc:format>image/svg+xml</dc:format>
        <dc:type
           rdf:resource="http://purl.org/dc/dcmitype/StillImage" />
        <dc:title />
        <dc:creator>
          <cc:Agent>
            <dc:title>Chris D</dc:title>
          </cc:Agent>
        </dc:creator>
        <dc:description>diazchris.deviantart.com</dc:description>
      </cc:Work>
    </rdf:RDF>
  </metadata>
  <g
     id="layer1"
     inkscape:label="Layer 1"
     inkscape:groupmode="layer"
     transform="translate(0,-16)">
    <path
       style="opacity:1;fill:#ffffff;fill-opacity:1;fill-rule:nonzero;stroke:#b6c1c9;stroke-width:0.5;stroke-linecap:butt;stroke-linejoin:miter;stroke-miterlimit:4;stroke-dasharray:none;stroke-dashoffset:5;stroke-opacity:1"
       d="M 10 3 L 10 45 L 40 45 L 40 11 L 40 3 L 10 3 z M 12.5 5 A 0.5 0.5 0 0 1 13 5.5 A 0.5 0.5 0 0 1 12.5 6 A 0.5 0.5 0 0 1 12 5.5 A 0.5 0.5 0 0 1 12.5 5 z M 37.5 5 A 0.5 0.5 0 0 1 38 5.5 A 0.5 0.5 0 0 1 37.5 6 A 0.5 0.5 0 0 1 37 5.5 A 0.5 0.5 0 0 1 37.5 5 z M 12.5 7 A 0.5 0.5 0 0 1 13 7.5 A 0.5 0.5 0 0 1 12.5 8 A 0.5 0.5 0 0 1 12 7.5 A 0.5 0.5 0 0 1 12.5 7 z M 37.5 7 A 0.5 0.5 0 0 1 38 7.5 A 0.5 0.5 0 0 1 37.5 8 A 0.5 0.5 0 0 1 37 7.5 A 0.5 0.5 0 0 1 37.5 7 z M 12.5 9 A 0.5 0.5 0 0 1 13 9.5 A 0.5 0.5 0 0 1 12.5 10 A 0.5 0.5 0 0 1 12 9.5 A 0.5 0.5 0 0 1 12.5 9 z M 37.5 9 A 0.5 0.5 0 0 1 38 9.5 A 0.5 0.5 0 0 1 37.5 10 A 0.5 0.5 0 0 1 37 9.5 A 0.5 0.5 0 0 1 37.5 9 z M 12.5 11 A 0.5 0.5 0 0 1 13 11.5 A 0.5 0.5 0 0 1 12.5 12 A 0.5 0.5 0 0 1 12 11.5 A 0.5 0.5 0 0 1 12.5 11 z M 37.5 11 A 0.5 0.5 0 0 1 38 11.5 A 0.5 0.5 0 0 1 37.5 12 A 0.5 0.5 0 0 1 37 11.5 A 0.5 0.5 0 0 1 37.5 11 z M 12.5 13 A 0.5 0.5 0 0 1 13 13.5 A 0.5 0.5 0 0 1 12.5 14 A 0.5 0.5 0 0 1 12 13.5 A 0.5 0.5 0 0 1 12.5 13 z M 37.5 13 A 0.5 0.5 0 0 1 38 13.5 A 0.5 0.5 0 0 1 37.5 14 A 0.5 0.5 0 0 1 37 13.5 A 0.5 0.5 0 0 1 37.5 13 z M 12.5 15 A 0.5 0.5 0 0 1 13 15.5 A 0.5 0.5 0 0 1 12.5 16 A 0.5 0.5 0 0 1 12 15.5 A 0.5 0.5 0 0 1 12.5 15 z M 37.5 15 A 0.5 0.5 0 0 1 38 15.5 A 0.5 0.5 0 0 1 37.5 16 A 0.5 0.5 0 0 1 37 15.5 A 0.5 0.5 0 0 1 37.5 15 z M 12.5 17 A 0.5 0.5 0 0 1 13 17.5 A 0.5 0.5 0 0 1 12.5 18 A 0.5 0.5 0 0 1 12 17.5 A 0.5 0.5 0 0 1 12.5 17 z M 37.5 17 A 0.5 0.5 0 0 1 38 17.5 A 0.5 0.5 0 0 1 37.5 18 A 0.5 0.5 0 0 1 37 17.5 A 0.5 0.5 0 0 1 37.5 17 z M 12.5 19 A 0.5 0.5 0 0 1 13 19.5 A 0.5 0.5 0 0 1 12.5 20 A 0.5 0.5 0 0 1 12 19.5 A 0.5 0.5 0 0 1 12.5 19 z M 37.5 19 A 0.5 0.5 0 0 1 38 19.5 A 0.5 0.5 0 0 1 37.5 20 A 0.5 0.5 0 0 1 37 19.5 A 0.5 0.5 0 0 1 37.5 19 z M 12.5 21 A 0.5 0.5 0 0 1 13 21.5 A 0.5 0.5 0 0 1 12.5 22 A 0.5 0.5 0 0 1 12 21.5 A 0.5 0.5 0 0 1 12.5 21 z M 37.5 21 A 0.5 0.5 0 0 1 38 21.5 A 0.5 0.5 0 0 1 37.5 22 A 0.5 0.5 0 0 1 37 21.5 A 0.5 0.5 0 0 1 37.5 21 z M 12.5 23 A 0.5 0.5 0 0 1 13 23.5 A 0.5 0.5 0 0 1 12.5 24 A 0.5 0.5 0 0 1 12 23.5 A 0.5 0.5 0 0 1 12.5 23 z M 37.5 23 A 0.5 0.5 0 0 1 38 23.5 A 0.5 0.5 0 0 1 37.5 24 A 0.5 0.5 0 0 1 37 23.5 A 0.5 0.5 0 0 1 37.5 23 z M 12.5 25 A 0.5 0.5 0 0 1 13 25.5 A 0.5 0.5 0 0 1 12.5 26 A 0.5 0.5 0 0 1 12 25.5 A 0.5 0.5 0 0 1 12.5 25 z M 37.5 25 A 0.5 0.5 0 0 1 38 25.5 A 0.5 0.5 0 0 1 37.5 26 A 0.5 0.5 0 0 1 37 25.5 A 0.5 0.5 0 0 1 37.5 25 z M 12.5 27 A 0.5 0.5 0 0 1 13 27.5 A 0.5 0.5 0 0 1 12.5 28 A 0.5 0.5 0 0 1 12 27.5 A 0.5 0.5 0 0 1 12.5 27 z M 37.5 27 A 0.5 0.5 0 0 1 38 27.5 A 0.5 0.5 0 0 1 37.5 28 A 0.5 0.5 0 0 1 37 27.5 A 0.5 0.5 0 0 1 37.5 27 z M 12.5 29 A 0.5 0.5 0 0 1 13 29.5 A 0.5 0.5 0 0 1 12.5 30 A 0.5 0.5 0 0 1 12 29.5 A 0.5 0.5 0 0 1 12.5 29 z M 37.5 29 A 0.5 0.5 0 0 1 38 29.5 A 0.5 0.5 0 0 1 37.5 30 A 0.5 0.5 0 0 1 37 29.5 A 0.5 0.5 0 0 1 37.5 29 z M 12.5 31 A 0.5 0.5 0 0 1 13 31.5 A 0.5 0.5 0 0 1 12.5 32 A 0.5 0.5 0 0 1 12 31.5 A 0.5 0.5 0 0 1 12.5 31 z M 37.5 31 A 0.5 0.5 0 0 1 38 31.5 A 0.5 0.5 0 0 1 37.5 32 A 0.5 0.5 0 0 1 37 31.5 A 0.5 0.5 0 0 1 37.5 31 z M 12.5 33 A 0.5 0.5 0 0 1 13 33.5 A 0.5 0.5 0 0 1 12.5 34 A 0.5 0.5 0 0 1 12 33.5 A 0.5 0.5 0 0 1 12.5 33 z M 37.5 33 A 0.5 0.5 0 0 1 38 33.5 A 0.5 0.5 0 0 1 37.5 34 A 0.5 0.5 0 0 1 37 33.5 A 0.5 0.5 0 0 1 37.5 33 z M 12.5 35 A 0.5 0.5 0 0 1 13 35.5 A 0.5 0.5 0 0 1 12.5 36 A 0.5 0.5 0 0 1 12 35.5 A 0.5 0.5 0 0 1 12.5 35 z M 37.5 35 A 0.5 0.5 0 0 1 38 35.5 A 0.5 0.5 0 0 1 37.5 36 A 0.5 0.5 0 0 1 37 35.5 A 0.5 0.5 0 0 1 37.5 35 z M 12.5 37 A 0.5 0.5 0 0 1 13 37.5 A 0.5 0.5 0 0 1 12.5 38 A 0.5 0.5 0 0 1 12 37.5 A 0.5 0.5 0 0 1 12.5 37 z M 37.5 37 A 0.5 0.5 0 0 1 38 37.5 A 0.5 0.5 0 0 1 37.5 38 A 0.5 0.5 0 0 1 37 37.5 A 0.5 0.5 0 0 1 37.5 37 z M 12.5 39 A 0.5 0.5 0 0 1 13 39.5 A 0.5 0.5 0 0 1 12.5 40 A 0.5 0.5 0 0 1 12 39.5 A 0.5 0.5 0 0 1 12.5 39 z M 37.5 39 A 0.5 0.5 0 0 1 38 39.5 A 0.5 0.5 0 0 1 37.5 40 A 0.5 0.5 0 0 1 37 39.5 A 0.5 0.5 0 0 1 37.5 39 z M 12.5 41 A 0.5 0.5 0 0 1 13 41.5 A 0.5 0.5 0 0 1 12.5 42 A 0.5 0.5 0 0 1 12 41.5 A 0.5 0.5 0 0 1 12.5 41 z M 37.5 41 A 0.5 0.5 0 0 1 38 41.5 A 0.5 0.5 0 0 1 37.5 42 A 0.5 0.5 0 0 1 37 41.5 A 0.5 0.5 0 0 1 37.5 41 z "
       transform="translate(0,16)"
       id="rect4179" />
    <path
       style="fill:none;fill-rule:evenodd;stroke:#b6c1c9;stroke-width:0.5;stroke-linecap:butt;stroke-linejoin:miter;stroke-opacity:1;stroke-miterlimit:4;stroke-dasharray:none"
       d="m 15,24 20,0"
       id="path4179"
       inkscape:connector-curvature="0" />
    <path
       style="fill:none;fill-rule:evenodd;stroke:#b6c1c9;stroke-width:0.5;stroke-linecap:butt;stroke-linejoin:miter;stroke-opacity:1;stroke-miterlimit:4;stroke-dasharray:none"
       d="m 15,26 16,0"
       id="path4185"
       inkscape:connector-curvature="0" />
    <rect
       style="opacity:1;fill:#c8e6fc;fill-opacity:1;fill-rule:nonzero;stroke:none;stroke-width:0.5;stroke-linecap:square;stroke-linejoin:round;stroke-miterlimit:4;stroke-dasharray:none;stroke-dashoffset:2;stroke-opacity:1"
       id="rect4331"
       width="8"
       height="2"
       x="24"
       y="27" />
    <path
       style="fill:none;fill-rule:evenodd;stroke:#b6c1c9;stroke-width:0.5;stroke-linecap:butt;stroke-linejoin:miter;stroke-opacity:1;stroke-miterlimit:4;stroke-dasharray:none"
       d="m 15,28 17,0"
       id="path4187"
       inkscape:connector-curvature="0" />
    <path
       style="fill:none;fill-rule:evenodd;stroke:#b6c1c9;stroke-width:0.5;stroke-linecap:butt;stroke-linejoin:miter;stroke-opacity:1;stroke-miterlimit:4;stroke-dasharray:none"
       d="m 15,30 6,0"
       id="path4189"
       inkscape:connector-curvature="0" />
    <path
       style="fill:none;fill-rule:evenodd;stroke:#b6c1c9;stroke-width:0.5;stroke-linecap:butt;stroke-linejoin:miter;stroke-opacity:1;stroke-miterlimit:4;stroke-dasharray:none"
       d="m 15,32 11,0"
       id="path4191"
       inkscape:connector-curvature="0" />
    <path
       style="fill:none;fill-rule:evenodd;stroke:#b6c1c9;stroke-width:0.5;stroke-linecap:butt;stroke-linejoin:miter;stroke-opacity:1;stroke-miterlimit:4;stroke-dasharray:none"
       d="m 15,34 8,0"
       id="path4193"
       inkscape:connector-curvature="0" />
    <path
       style="fill:none;fill-rule:evenodd;stroke:#b6c1c9;stroke-width:0.5;stroke-linecap:butt;stroke-linejoin:miter;stroke-opacity:1;stroke-miterlimit:4;stroke-dasharray:none"
       d="m 15,36 13,0"
       id="path4195"
       inkscape:connector-curvature="0" />
    <path
       style="fill:none;fill-rule:evenodd;stroke:#b6c1c9;stroke-width:0.5;stroke-linecap:butt;stroke-linejoin:miter;stroke-opacity:1;stroke-miterlimit:4;stroke-dasharray:none"
       d="m 15,38 3,0"
       id="path4309"
       inkscape:connector-curvature="0" />
    <rect
       style="opacity:1;fill:#c8e6fc;fill-opacity:1;fill-rule:nonzero;stroke:none;stroke-width:0.5;stroke-linecap:square;stroke-linejoin:round;stroke-miterlimit:4;stroke-dasharray:none;stroke-dashoffset:2;stroke-opacity:1"
       id="rect4333"
       width="5"
       height="2"
       x="15"
       y="39" />
    <path
       style="fill:none;fill-rule:evenodd;stroke:#b6c1c9;stroke-width:0.5;stroke-linecap:butt;stroke-linejoin:miter;stroke-opacity:1;stroke-miterlimit:4;stroke-dasharray:none"
       d="m 15,40 5,0"
       id="path4311"
       inkscape:connector-curvature="0" />
    <path
       style="fill:none;fill-rule:evenodd;stroke:#b6c1c9;stroke-width:0.5;stroke-linecap:butt;stroke-linejoin:miter;stroke-opacity:1;stroke-miterlimit:4;stroke-dasharray:none"
       d="m 15,42 18,0"
       id="path4313"
       inkscape:connector-curvature="0" />
    <path
       style="fill:none;fill-rule:evenodd;stroke:#b6c1c9;stroke-width:0.5;stroke-linecap:butt;stroke-linejoin:miter;stroke-opacity:1;stroke-miterlimit:4;stroke-dasharray:none"
       d="m 15,44 10,0"
       id="path4315"
       inkscape:connector-curvature="0" />
    <path
       style="fill:none;fill-rule:evenodd;stroke:#b6c1c9;stroke-width:0.5;stroke-linecap:butt;stroke-linejoin:miter;stroke-opacity:1;stroke-miterlimit:4;stroke-dasharray:none"
       d="m 15,46 13,0"
       id="path4317"
       inkscape:connector-curvature="0" />
    <path
       style="fill:none;fill-rule:evenodd;stroke:#b6c1c9;stroke-width:0.5;stroke-linecap:butt;stroke-linejoin:miter;stroke-opacity:1;stroke-miterlimit:4;stroke-dasharray:none"
       d="m 15,48 7,0"
       id="path4319"
       inkscape:connector-curvature="0" />
    <path
       style="fill:none;fill-rule:evenodd;stroke:#b6c1c9;stroke-width:0.5;stroke-linecap:butt;stroke-linejoin:miter;stroke-opacity:1;stroke-miterlimit:4;stroke-dasharray:none"
       d="m 15,50 2,0"
       id="path4321"
       inkscape:connector-curvature="0" />
    <rect
       style="opacity:1;fill:#c8e6fc;fill-opacity:1;fill-rule:nonzero;stroke:none;stroke-width:0.5;stroke-linecap:square;stroke-linejoin:round;stroke-miterlimit:4;stroke-dasharray:none;stroke-dashoffset:2;stroke-opacity:1"
       id="rect4335"
       width="4"
       height="2"
       x="20"
       y="51" />
    <path
       style="fill:none;fill-rule:evenodd;stroke:#b6c1c9;stroke-width:0.5;stroke-linecap:butt;stroke-linejoin:miter;stroke-opacity:1;stroke-miterlimit:4;stroke-dasharray:none"
       d="m 15,52 11,0"
       id="path4323"
       inkscape:connector-curvature="0" />
    <path
       style="fill:none;fill-rule:evenodd;stroke:#b6c1c9;stroke-width:0.5;stroke-linecap:butt;stroke-linejoin:miter;stroke-opacity:1;stroke-miterlimit:4;stroke-dasharray:none"
       d="m 15,54 15,0"
       id="path4325"
       inkscape:connector-curvature="0" />
    <path
       style="fill:none;fill-rule:evenodd;stroke:#b6c1c9;stroke-width:0.5;stroke-linecap:butt;stroke-linejoin:miter;stroke-opacity:1;stroke-miterlimit:4;stroke-dasharray:none"
       d="m 15,56 8,0"
       id="path4327"
       inkscape:connector-curvature="0" />
    <path
       style="fill:#c8e6fc;fill-rule:evenodd;stroke:none;stroke-width:1px;stroke-linecap:butt;stroke-linejoin:miter;stroke-opacity:1;fill-opacity:1"
       d="m 22,52 4,4 19,0 z"
       id="path4339"
       inkscape:connector-curvature="0" />
    <rect
       style="opacity:1;fill:#99cef3;fill-opacity:1;fill-rule:nonzero;stroke:#6caace;stroke-width:0.5;stroke-linecap:square;stroke-linejoin:round;stroke-miterlimit:4;stroke-dasharray:none;stroke-dashoffset:2;stroke-opacity:1"
       id="rect4337"
       width="19"
       height="5"
       x="26"
       y="56" />
  </g>
</svg>
