<?xml version="1.0" encoding="UTF-8" standalone="no"?>
<!-- Created with Inkscape (http://www.inkscape.org/) -->

<svg
   xmlns:dc="http://purl.org/dc/elements/1.1/"
   xmlns:cc="http://creativecommons.org/ns#"
   xmlns:rdf="http://www.w3.org/1999/02/22-rdf-syntax-ns#"
   xmlns:svg="http://www.w3.org/2000/svg"
   xmlns="http://www.w3.org/2000/svg"
   xmlns:sodipodi="http://sodipodi.sourceforge.net/DTD/sodipodi-0.dtd"
   xmlns:inkscape="http://www.inkscape.org/namespaces/inkscape"
   width="48"
   height="48"
   id="svg4216"
   version="1.1"
   inkscape:version="0.91 r13725"
   viewBox="0 0 48 48"
   sodipodi:docname="preferences-desktop-font.svg">
  <defs
     id="defs4218" />
  <sodipodi:namedview
     id="base"
     pagecolor="#242424"
     bordercolor="#666666"
     borderopacity="1.0"
     inkscape:pageopacity="0"
     inkscape:pageshadow="2"
     inkscape:zoom="11"
     inkscape:cx="-4.1644833"
     inkscape:cy="20.581117"
     inkscape:current-layer="layer1"
     showgrid="false"
     inkscape:document-units="px"
     inkscape:grid-bbox="true"
     showguides="false"
     inkscape:guide-bbox="true"
     objecttolerance="10000"
     guidetolerance="10000"
     inkscape:snap-path-clip="true"
     inkscape:snap-perpendicular="true"
     inkscape:snap-tangential="true"
     inkscape:window-width="1366"
     inkscape:window-height="704"
     inkscape:window-x="0"
     inkscape:window-y="27"
     inkscape:window-maximized="1">
    <inkscape:grid
       type="xygrid"
       id="grid4764" />
    <sodipodi:guide
       position="0,57"
       orientation="1,0"
       id="guide4768" />
    <sodipodi:guide
       position="17,0"
       orientation="0,1"
       id="guide4772" />
    <sodipodi:guide
       position="40,48"
       orientation="0,1"
       id="guide4150" />
    <sodipodi:guide
       position="3,41"
       orientation="1,0"
       id="guide4154" />
    <sodipodi:guide
       position="7,45"
       orientation="0,1"
       id="guide4156" />
    <sodipodi:guide
       position="24,3"
       orientation="0,1"
       id="guide4160" />
    <sodipodi:guide
       position="41,22"
       orientation="1,0"
       id="guide4143" />
  </sodipodi:namedview>
  <metadata
     id="metadata4221">
    <rdf:RDF>
      <cc:Work
         rdf:about="">
        <dc:format>image/svg+xml</dc:format>
        <dc:type
           rdf:resource="http://purl.org/dc/dcmitype/StillImage" />
        <dc:title />
        <dc:creator>
          <cc:Agent>
            <dc:title>Chris D</dc:title>
          </cc:Agent>
        </dc:creator>
        <dc:description>diazchris.deviantart.com</dc:description>
      </cc:Work>
    </rdf:RDF>
  </metadata>
  <g
     id="layer1"
     inkscape:label="Layer 1"
     inkscape:groupmode="layer"
     transform="translate(0,-16)">
    <rect
       style="opacity:1;fill:#ffffff;fill-opacity:1;fill-rule:nonzero;stroke:#b6c1c9;stroke-width:0.5;stroke-linecap:round;stroke-linejoin:round;stroke-miterlimit:4;stroke-dasharray:none;stroke-dashoffset:0;stroke-opacity:1"
       id="rect4197"
       width="42"
       height="42"
       x="3"
       y="19"
       ry="0"
       rx="0" />
    <g
       style="font-style:normal;font-variant:normal;font-weight:bold;font-stretch:normal;font-size:64px;line-height:125%;font-family:'Open Sans';-inkscape-font-specification:'Open Sans Bold';letter-spacing:0px;word-spacing:0px;fill:#b6c1c9;fill-opacity:1;stroke:none;stroke-width:1px;stroke-linecap:butt;stroke-linejoin:miter;stroke-opacity:1"
       id="text4162"
       transform="matrix(0.41018498,0,0,0.41018498,18.263819,30.411926)">
      <path
         d="M 8.71875,46 5.40625,35.125 -11.25,35.125 -14.5625,46 -25,46 -8.875,0.125 2.96875,0.125 19.15625,46 8.71875,46 Z M 3.09375,27 Q -1.5,12.21875 -2.09375,10.28125 -2.65625,8.34375 -2.90625,7.21875 -3.9375,11.21875 -8.8125,27 l 11.90625,0 z"
         id="path4167"
         inkscape:connector-curvature="0"
         style="fill:#b6c1c9" />
      <path
         d="m 46.3125,46 -1.84375,-4.75 -0.25,0 Q 41.8125,44.28125 39.25,45.46875 36.71875,46.625 32.625,46.625 q -5.03125,0 -7.9375,-2.875 -2.875,-2.875 -2.875,-8.1875 0,-5.5625 3.875,-8.1875 3.90625,-2.65625 11.75,-2.9375 L 43.5,24.25 l 0,-1.53125 q 0,-5.3125 -5.4375,-5.3125 -4.1875,0 -9.84375,2.53125 L 25.0625,13.5 q 6.03125,-3.15625 13.375,-3.15625 7.03125,0 10.78125,3.0625 3.75,3.0625 3.75,9.3125 l 0,23.28125 -6.65625,0 z M 43.5,29.8125 l -3.6875,0.125 q -4.15625,0.125 -6.1875,1.5 -2.03125,1.375 -2.03125,4.1875 0,4.03125 4.625,4.03125 3.3125,0 5.28125,-1.90625 2,-1.90625 2,-5.0625 l 0,-2.875 z"
         id="path4169"
         inkscape:connector-curvature="0"
         style="fill:#b6c1c9" />
    </g>
  </g>
</svg>
