<?xml version="1.0" encoding="UTF-8" standalone="no"?>
<!-- Created with Inkscape (http://www.inkscape.org/) -->

<svg
   xmlns:dc="http://purl.org/dc/elements/1.1/"
   xmlns:cc="http://creativecommons.org/ns#"
   xmlns:rdf="http://www.w3.org/1999/02/22-rdf-syntax-ns#"
   xmlns:svg="http://www.w3.org/2000/svg"
   xmlns="http://www.w3.org/2000/svg"
   xmlns:sodipodi="http://sodipodi.sourceforge.net/DTD/sodipodi-0.dtd"
   xmlns:inkscape="http://www.inkscape.org/namespaces/inkscape"
   width="48"
   height="48"
   id="svg4216"
   version="1.1"
   inkscape:version="0.91 r13725"
   viewBox="0 0 48 48"
   sodipodi:docname="totem.svg">
  <defs
     id="defs4218" />
  <sodipodi:namedview
     id="base"
     pagecolor="#242424"
     bordercolor="#666666"
     borderopacity="1.0"
     inkscape:pageopacity="0"
     inkscape:pageshadow="2"
     inkscape:zoom="5.5"
     inkscape:cx="12.091928"
     inkscape:cy="18.384588"
     inkscape:current-layer="layer1"
     showgrid="false"
     inkscape:document-units="px"
     inkscape:grid-bbox="true"
     showguides="false"
     inkscape:guide-bbox="true"
     objecttolerance="10000"
     guidetolerance="10000"
     inkscape:snap-path-clip="true"
     inkscape:snap-perpendicular="true"
     inkscape:snap-tangential="true"
     inkscape:window-width="1366"
     inkscape:window-height="704"
     inkscape:window-x="0"
     inkscape:window-y="27"
     inkscape:window-maximized="1">
    <inkscape:grid
       type="xygrid"
       id="grid4764" />
    <sodipodi:guide
       position="0,57"
       orientation="1,0"
       id="guide4768" />
    <sodipodi:guide
       position="17,0"
       orientation="0,1"
       id="guide4772" />
    <sodipodi:guide
       position="40,48"
       orientation="0,1"
       id="guide4150" />
    <sodipodi:guide
       position="3,41"
       orientation="1,0"
       id="guide4154" />
    <sodipodi:guide
       position="7,45"
       orientation="0,1"
       id="guide4156" />
    <sodipodi:guide
       position="24,3"
       orientation="0,1"
       id="guide4160" />
    <sodipodi:guide
       position="41,22"
       orientation="1,0"
       id="guide4143" />
    <sodipodi:guide
       position="20,36"
       orientation="1,0"
       id="guide4146" />
    <sodipodi:guide
       position="28,33"
       orientation="1,0"
       id="guide4148" />
  </sodipodi:namedview>
  <metadata
     id="metadata4221">
    <rdf:RDF>
      <cc:Work
         rdf:about="">
        <dc:format>image/svg+xml</dc:format>
        <dc:type
           rdf:resource="http://purl.org/dc/dcmitype/StillImage" />
        <dc:title />
        <dc:creator>
          <cc:Agent>
            <dc:title>Chris D</dc:title>
          </cc:Agent>
        </dc:creator>
        <dc:description>diazchris.deviantart.com</dc:description>
      </cc:Work>
    </rdf:RDF>
  </metadata>
  <g
     id="layer1"
     inkscape:label="Layer 1"
     inkscape:groupmode="layer"
     transform="translate(0,-16)">
    <path
       style="opacity:1;fill:#1a1d20;fill-opacity:1;fill-rule:nonzero;stroke:#101216;stroke-width:0.5;stroke-linecap:round;stroke-linejoin:miter;stroke-miterlimit:4;stroke-dasharray:none;stroke-dashoffset:0;stroke-opacity:1"
       d="M 3 3 L 3 45 L 45 45 L 45 3 L 3 3 z M 6 6 L 10 6 L 10 10 L 6 10 L 6 6 z M 38 6 L 42 6 L 42 10 L 38 10 L 38 6 z M 6 14 L 10 14 L 10 18 L 6 18 L 6 14 z M 38 14 L 42 14 L 42 18 L 38 18 L 38 14 z M 6 22 L 10 22 L 10 26 L 6 26 L 6 22 z M 38 22 L 42 22 L 42 26 L 38 26 L 38 22 z M 6 30 L 10 30 L 10 34 L 6 34 L 6 30 z M 38 30 L 42 30 L 42 34 L 38 34 L 38 30 z M 6 38 L 10 38 L 10 42 L 6 42 L 6 38 z M 38 38 L 42 38 L 42 42 L 38 42 L 38 38 z "
       transform="translate(0,16)"
       id="rect4197" />
    <path
       style="fill:#ffffff;fill-rule:evenodd;stroke:#e0e4e7;stroke-width:0.5;stroke-linecap:butt;stroke-linejoin:miter;stroke-miterlimit:4;stroke-dasharray:none;stroke-opacity:1"
       d="m 15,27.8 18,11.999871 -18,12 z"
       id="path4150"
       inkscape:connector-curvature="0"
       sodipodi:nodetypes="cccc" />
  </g>
</svg>
