<?xml version="1.0" encoding="UTF-8" standalone="no"?>
<!-- Created with Inkscape (http://www.inkscape.org/) -->
<svg
   xmlns:dc="http://purl.org/dc/elements/1.1/"
   xmlns:cc="http://web.resource.org/cc/"
   xmlns:rdf="http://www.w3.org/1999/02/22-rdf-syntax-ns#"
   xmlns:svg="http://www.w3.org/2000/svg"
   xmlns="http://www.w3.org/2000/svg"
   xmlns:sodipodi="http://sodipodi.sourceforge.net/DTD/sodipodi-0.dtd"
   xmlns:inkscape="http://www.inkscape.org/namespaces/inkscape"
   id="svg2"
   sodipodi:version="0.32"
   inkscape:version="0.45.1"
   width="48"
   height="48"
   version="1.0"
   sodipodi:docbase="/home/qwerty/.icons/MonoIce/scalable/categories"
   sodipodi:docname="applications-office.svg"
   inkscape:output_extension="org.inkscape.output.svg.inkscape">
  <metadata
     id="metadata7">
    <rdf:RDF>
      <cc:Work
         rdf:about="">
        <dc:format>image/svg+xml</dc:format>
        <dc:type
           rdf:resource="http://purl.org/dc/dcmitype/StillImage" />
      </cc:Work>
    </rdf:RDF>
  </metadata>
  <defs
     id="defs5" />
  <sodipodi:namedview
     inkscape:window-height="614"
     inkscape:window-width="772"
     inkscape:pageshadow="2"
     inkscape:pageopacity="0.0"
     guidetolerance="10000"
     gridtolerance="10000"
     objecttolerance="10000"
     borderopacity="1.0"
     bordercolor="#666666"
     pagecolor="#ffffff"
     id="base"
     width="48px"
     height="48px"
     showgrid="true"
     showguides="true"
     inkscape:guide-bbox="true"
     inkscape:zoom="12.71875"
     inkscape:cx="35.268075"
     inkscape:cy="27.685628"
     inkscape:window-x="1"
     inkscape:window-y="380"
     inkscape:current-layer="svg2">
    <sodipodi:guide
       orientation="vertical"
       position="24"
       id="guide2161" />
    <sodipodi:guide
       orientation="horizontal"
       position="24"
       id="guide2165" />
  </sodipodi:namedview>
  <path
     style="fill:#000000;fill-opacity:1;fill-rule:evenodd;stroke:none;stroke-width:1px;stroke-linecap:butt;stroke-linejoin:miter;stroke-opacity:1"
     d="M 22,22 L 3,22 L 3,3 L 12.5,3 C 17.810662,3 22,7.1893386 22,12.5 L 22,22 z "
     id="path5091"
     sodipodi:nodetypes="ccczzc" />
  <path
     style="fill:#000000;fill-opacity:1;fill-rule:evenodd;stroke:none;stroke-width:1px;stroke-linecap:butt;stroke-linejoin:miter;stroke-opacity:1"
     d="M 3,26 L 22,26 L 22,45 L 12.5,45 C 7.1893385,45 3,40.810661 3,35.5 L 3,26 z "
     id="path6062"
     sodipodi:nodetypes="ccczzc" />
  <path
     style="opacity:1;color:#000000;fill:#000000;fill-opacity:1;fill-rule:nonzero;stroke:none;stroke-width:6;stroke-linecap:round;stroke-linejoin:round;marker:none;marker-start:none;marker-mid:none;marker-end:none;stroke-miterlimit:4;stroke-dasharray:none;stroke-dashoffset:0;stroke-opacity:1;visibility:visible;display:inline;overflow:visible;enable-background:accumulate"
     d="M 36 26 C 30.48 26 26 30.480001 26 36 C 26 41.52 30.479999 46.000001 36 46 C 41.52 46 45.999999 41.520001 46 36 C 46 30.48 41.519999 26.000001 36 26 z M 36 30 C 39.312001 30.000001 42 32.687999 42 36 C 41.999998 39.312002 39.312001 42 36 42 C 32.688 41.999999 30 39.312001 30 36 C 30.000001 32.688 32.687999 30 36 30 z "
     id="path6064" />
</svg>
