<?xml version="1.0" encoding="UTF-8" standalone="no"?>
<!-- Created with Inkscape (http://www.inkscape.org/) -->
<svg
   xmlns:dc="http://purl.org/dc/elements/1.1/"
   xmlns:cc="http://web.resource.org/cc/"
   xmlns:rdf="http://www.w3.org/1999/02/22-rdf-syntax-ns#"
   xmlns:svg="http://www.w3.org/2000/svg"
   xmlns="http://www.w3.org/2000/svg"
   xmlns:xlink="http://www.w3.org/1999/xlink"
   xmlns:sodipodi="http://sodipodi.sourceforge.net/DTD/sodipodi-0.dtd"
   xmlns:inkscape="http://www.inkscape.org/namespaces/inkscape"
   id="svg2"
   sodipodi:version="0.32"
   inkscape:version="0.45.1"
   width="48"
   height="48"
   version="1.0"
   sodipodi:docbase="/home/qwerty/.icons/MonoIce/scalable/apps"
   sodipodi:docname="browser.svg"
   inkscape:output_extension="org.inkscape.output.svg.inkscape">
  <metadata
     id="metadata7">
    <rdf:RDF>
      <cc:Work
         rdf:about="">
        <dc:format>image/svg+xml</dc:format>
        <dc:type
           rdf:resource="http://purl.org/dc/dcmitype/StillImage" />
      </cc:Work>
    </rdf:RDF>
  </metadata>
  <defs
     id="defs5" />
  <sodipodi:namedview
     inkscape:window-height="614"
     inkscape:window-width="772"
     inkscape:pageshadow="2"
     inkscape:pageopacity="0.76470588"
     guidetolerance="10000"
     gridtolerance="10000"
     objecttolerance="10000"
     borderopacity="1.0"
     bordercolor="#666666"
     pagecolor="#ff0000"
     id="base"
     showgrid="true"
     width="48px"
     height="48px"
     showguides="true"
     inkscape:guide-bbox="true"
     inkscape:zoom="5.6568543"
     inkscape:cx="32.725666"
     inkscape:cy="35.707903"
     inkscape:window-x="59"
     inkscape:window-y="123"
     inkscape:current-layer="svg2" />
  <image
     y="-62"
     x="-67"
     id="image2169"
     height="52"
     width="52"
     sodipodi:absref="/home/qwerty/Desktop/INTERNET.png"
     xlink:href="/home/qwerty/Desktop/INTERNET.png"
     style="fill:#ff0000" />
  <path
     id="path6192"
     style="color:#000000;fill:none;fill-opacity:1;fill-rule:nonzero;stroke:#000000;stroke-width:4;stroke-linecap:round;stroke-linejoin:round;stroke-miterlimit:4;stroke-dashoffset:0;stroke-opacity:1;marker:none;marker-start:none;marker-mid:none;marker-end:none;visibility:visible;display:inline;overflow:visible;enable-background:accumulate"
     d="M 44.40625,32.1875 C 44.357394,32.308977 44.332201,32.442105 44.28125,32.5625 C 43.724375,33.878375 43.040969,35.142031 42.25,36.3125 C 41.459031,37.482969 40.558,38.567 39.5625,39.5625 C 38.567,40.558 37.482969,41.459031 36.3125,42.25 C 35.142031,43.040969 33.878375,43.724375 32.5625,44.28125 C 31.246625,44.838125 29.869219,45.269281 28.4375,45.5625 C 27.005781,45.855719 25.518,46 24,46 C 22.482,46 20.994219,45.855719 19.5625,45.5625 C 18.130781,45.269281 16.753375,44.838125 15.4375,44.28125 C 14.121625,43.724375 12.857969,43.040969 11.6875,42.25 C 10.517031,41.459031 9.433,40.558 8.4375,39.5625 C 7.442,38.567 6.5409688,37.482969 5.75,36.3125 C 4.9590312,35.142031 4.275625,33.878375 3.71875,32.5625 C 3.6677991,32.442105 3.6426062,32.308977 3.59375,32.1875 C 9.397496,30.796172 16.418804,30 24,30 C 31.581196,30 38.602504,30.796172 44.40625,32.1875 z M 44.40625,15.8125 C 44.357394,15.691023 44.332201,15.557895 44.28125,15.4375 C 43.724375,14.121625 43.040969,12.857969 42.25,11.6875 C 41.459031,10.517031 40.558,9.433 39.5625,8.4375 C 38.567,7.442 37.482969,6.5409688 36.3125,5.75 C 35.142031,4.9590312 33.878375,4.275625 32.5625,3.71875 C 31.246625,3.161875 29.869219,2.7307188 28.4375,2.4375 C 27.005781,2.1442812 25.518,2 24,2 C 22.482,2 20.994219,2.1442812 19.5625,2.4375 C 18.130781,2.7307188 16.753375,3.161875 15.4375,3.71875 C 14.121625,4.275625 12.857969,4.9590312 11.6875,5.75 C 10.517031,6.5409688 9.433,7.442 8.4375,8.4375 C 7.442,9.433 6.5409688,10.517031 5.75,11.6875 C 4.9590312,12.857969 4.275625,14.121625 3.71875,15.4375 C 3.6677991,15.557895 3.6426062,15.691023 3.59375,15.8125 C 9.397496,17.203828 16.418804,18 24,18 C 31.581196,18 38.602504,17.203828 44.40625,15.8125 z M 24.34375,2 C 24.837824,2.5006418 25.384794,2.9236107 25.84375,3.46875 C 26.950116,4.7828665 27.964693,6.2049149 28.84375,7.75 C 29.722807,9.2950852 30.474859,10.95047 31.09375,12.6875 C 31.712642,14.42453 32.205377,16.266297 32.53125,18.15625 C 32.857123,20.0462 33.031251,21.996154 33.03125,24 C 33.03125,26.003847 32.857124,27.9538 32.53125,29.84375 C 32.205376,31.7337 31.712643,33.57547 31.09375,35.3125 C 30.474858,37.04953 29.722807,38.704916 28.84375,40.25 C 27.964693,41.795085 26.950116,43.217132 25.84375,44.53125 C 25.384794,45.076389 24.837824,45.499359 24.34375,46 C 36.315874,45.82832 46.000002,36.054207 46,24 C 46,11.945793 36.315874,2.1716795 24.34375,2 z M 23.6875,2.03125 C 11.69093,2.2026857 2,11.962915 2,24 C 2,36.037084 11.69093,45.797313 23.6875,45.96875 C 23.192417,45.468819 22.647394,45.044365 22.1875,44.5 C 21.078875,43.18775 20.068352,41.761641 19.1875,40.21875 C 18.306648,38.675859 17.557656,37.015813 16.9375,35.28125 C 16.317344,33.546687 15.826539,31.731016 15.5,29.84375 C 15.173461,27.956484 15,26.001 15,24 C 15,21.999 15.173461,20.043516 15.5,18.15625 C 15.826539,16.268984 16.317344,14.453313 16.9375,12.71875 C 17.557656,10.984187 18.306648,9.3241406 19.1875,7.78125 C 20.068352,6.2383594 21.078875,4.81225 22.1875,3.5 C 22.647394,2.9556352 23.192417,2.5311807 23.6875,2.03125 z " />
</svg>
