<?xml version="1.0" encoding="UTF-8" standalone="no"?>
<!-- Created with Inkscape (http://www.inkscape.org/) -->
<svg
   xmlns:dc="http://purl.org/dc/elements/1.1/"
   xmlns:cc="http://web.resource.org/cc/"
   xmlns:rdf="http://www.w3.org/1999/02/22-rdf-syntax-ns#"
   xmlns:svg="http://www.w3.org/2000/svg"
   xmlns="http://www.w3.org/2000/svg"
   xmlns:sodipodi="http://sodipodi.sourceforge.net/DTD/sodipodi-0.dtd"
   xmlns:inkscape="http://www.inkscape.org/namespaces/inkscape"
   id="svg2"
   sodipodi:version="0.32"
   inkscape:version="0.45"
   width="48"
   height="48"
   version="1.0"
   sodipodi:docbase="/home/qwerty/.icons/qw3rtY_new/scalable/categories"
   sodipodi:docname="applications-games.svg"
   inkscape:output_extension="org.inkscape.output.svg.inkscape"
   sodipodi:modified="true">
  <metadata
     id="metadata7">
    <rdf:RDF>
      <cc:Work
         rdf:about="">
        <dc:format>image/svg+xml</dc:format>
        <dc:type
           rdf:resource="http://purl.org/dc/dcmitype/StillImage" />
      </cc:Work>
    </rdf:RDF>
  </metadata>
  <defs
     id="defs5" />
  <sodipodi:namedview
     inkscape:window-height="616"
     inkscape:window-width="772"
     inkscape:pageshadow="2"
     inkscape:pageopacity="0.0"
     guidetolerance="10000"
     gridtolerance="10000"
     objecttolerance="10000"
     borderopacity="1.0"
     bordercolor="#666666"
     pagecolor="#ffffff"
     id="base"
     width="48px"
     height="48px"
     showgrid="true"
     inkscape:zoom="8.14"
     inkscape:cx="27.081904"
     inkscape:cy="19.551216"
     inkscape:window-x="331"
     inkscape:window-y="351"
     inkscape:current-layer="svg2"
     showguides="true"
     inkscape:guide-bbox="true" />
  <path
     style="fill:#000000;fill-opacity:1;fill-rule:evenodd;stroke:#000000;stroke-width:1px;stroke-linecap:butt;stroke-linejoin:miter;stroke-opacity:1"
     d="M 9.875 6.5 L 9.875 11.21875 L 14.59375 11.21875 L 14.59375 6.5 L 9.875 6.5 z M 14.59375 11.21875 L 14.59375 14.75 L 9.875 14.75 L 9.875 18.28125 L 6.34375 18.28125 L 6.34375 23 L 1.625 23 L 1.625 34.78125 L 6.34375 34.78125 L 6.34375 26.53125 L 9.875 26.53125 L 9.875 34.78125 L 13.40625 34.78125 L 13.40625 31.25 L 34.59375 31.25 L 34.59375 34.78125 L 38.125 34.78125 L 38.125 26.53125 L 41.65625 26.53125 L 41.65625 34.78125 L 46.375 34.78125 L 46.375 23 L 41.65625 23 L 41.65625 18.28125 L 38.125 18.28125 L 38.125 14.75 L 33.40625 14.75 L 33.40625 11.21875 L 29.875 11.21875 L 29.875 14.75 L 18.125 14.75 L 18.125 11.21875 L 14.59375 11.21875 z M 33.40625 11.21875 L 38.125 11.21875 L 38.125 6.5 L 33.40625 6.5 L 33.40625 11.21875 z M 34.59375 34.78125 L 26.34375 34.78125 L 26.34375 39.5 L 34.59375 39.5 L 34.59375 34.78125 z M 13.40625 34.78125 L 13.40625 39.5 L 21.65625 39.5 L 21.65625 34.78125 L 13.40625 34.78125 z M 13.40625 18.28125 L 18.125 18.28125 L 18.125 23 L 13.40625 23 L 13.40625 18.28125 z M 29.875 18.28125 L 34.59375 18.28125 L 34.59375 23 L 29.875 23 L 29.875 18.28125 z "
     id="path2163" />
</svg>
