<?xml version="1.0" encoding="UTF-8" standalone="no"?>
<!-- Created with Inkscape (http://www.inkscape.org/) -->
<svg
   xmlns:dc="http://purl.org/dc/elements/1.1/"
   xmlns:cc="http://web.resource.org/cc/"
   xmlns:rdf="http://www.w3.org/1999/02/22-rdf-syntax-ns#"
   xmlns:svg="http://www.w3.org/2000/svg"
   xmlns="http://www.w3.org/2000/svg"
   xmlns:sodipodi="http://sodipodi.sourceforge.net/DTD/sodipodi-0.dtd"
   xmlns:inkscape="http://www.inkscape.org/namespaces/inkscape"
   width="48px"
   height="48px"
   id="svg1307"
   sodipodi:version="0.32"
   inkscape:version="0.45.1"
   sodipodi:docbase="/home/qwerty/.icons/MonoIce/scalable/categories"
   sodipodi:docname="gnome-control-center.svg"
   inkscape:output_extension="org.inkscape.output.svg.inkscape">
  <defs
     id="defs1309" />
  <sodipodi:namedview
     id="base"
     pagecolor="#ffffff"
     bordercolor="#666666"
     borderopacity="1.0"
     inkscape:pageopacity="0.0"
     inkscape:pageshadow="2"
     inkscape:zoom="5.6568543"
     inkscape:cx="8.2870368"
     inkscape:cy="48.1256"
     inkscape:current-layer="layer1"
     showgrid="true"
     inkscape:grid-bbox="true"
     inkscape:document-units="px"
     inkscape:window-width="1278"
     inkscape:window-height="951"
     inkscape:window-x="1"
     inkscape:window-y="49"
     objecttolerance="10000"
     gridtolerance="10000"
     guidetolerance="10000" />
  <metadata
     id="metadata1312">
    <rdf:RDF>
      <cc:Work
         rdf:about="">
        <dc:format>image/svg+xml</dc:format>
        <dc:type
           rdf:resource="http://purl.org/dc/dcmitype/StillImage" />
      </cc:Work>
    </rdf:RDF>
  </metadata>
  <g
     id="layer1"
     inkscape:label="Layer 1"
     inkscape:groupmode="layer">
    <path
       style="fill:#000000;fill-opacity:1;fill-rule:evenodd;stroke:none;stroke-width:8;stroke-linecap:butt;stroke-linejoin:miter;stroke-miterlimit:4;stroke-dasharray:none;stroke-opacity:1"
       d="M 4.90625 -0.125 C 2.1227209 -0.125 -0.125 2.1227207 -0.125 4.90625 L -0.125 43.09375 C -0.125 45.877279 2.1227207 48.124999 4.90625 48.125 L 43.09375 48.125 C 45.877279 48.125 48.124999 45.877279 48.125 43.09375 L 48.125 4.90625 C 48.125 2.1227209 45.877279 -0.125 43.09375 -0.125 L 4.90625 -0.125 z M 11.15625 5.90625 L 15.15625 5.90625 L 15.15625 21.875 L 11.15625 21.875 L 11.15625 5.90625 z M 32.84375 5.90625 L 36.84375 5.90625 L 36.84375 10.1875 L 32.84375 10.1875 L 32.84375 5.90625 z M 28.75 12.3125 L 29.3125 12.3125 L 32.84375 12.3125 L 36.84375 12.3125 L 38.9375 12.3125 L 40.9375 12.3125 C 42.90738 12.3125 44.5 13.842453 44.5 15.75 L 44.5 20.5625 C 44.500002 22.470047 42.907382 24 40.9375 24 L 40 24 L 36.84375 24 L 32.84375 24 L 30.375 24 L 28.75 24 C 26.780118 24 25.21875 22.470047 25.21875 20.5625 L 25.21875 15.75 C 25.21875 13.842453 26.780118 12.3125 28.75 12.3125 z M 6.9375 24 L 8.0625 24 L 11.15625 24 L 15.15625 24 L 17.6875 24 L 19.34375 24 C 21.251298 24 22.78125 25.529953 22.78125 27.4375 L 22.78125 32.25 C 22.781251 34.157549 21.251297 35.6875 19.34375 35.6875 L 17.6875 35.6875 L 15.15625 35.6875 L 11.15625 35.6875 L 8.0625 35.6875 L 6.9375 35.6875 C 5.0299526 35.687502 3.5 34.157547 3.5 32.25 L 3.5 27.4375 C 3.5 25.529953 5.0299526 24 6.9375 24 z M 32.84375 26.125 L 36.84375 26.125 L 36.84375 42.09375 L 32.84375 42.09375 L 32.84375 26.125 z M 11.15625 37.8125 L 15.15625 37.8125 L 15.15625 42.09375 L 11.15625 42.09375 L 11.15625 37.8125 z "
       id="rect3938" />
  </g>
</svg>
