<?xml version="1.0" encoding="UTF-8" standalone="no"?>
<svg
   xmlns:dc="http://purl.org/dc/elements/1.1/"
   xmlns:cc="http://web.resource.org/cc/"
   xmlns:rdf="http://www.w3.org/1999/02/22-rdf-syntax-ns#"
   xmlns:svg="http://www.w3.org/2000/svg"
   xmlns="http://www.w3.org/2000/svg"
   xmlns:sodipodi="http://sodipodi.sourceforge.net/DTD/sodipodi-0.dtd"
   xmlns:inkscape="http://www.inkscape.org/namespaces/inkscape"
   version="1.1"
   id="Layer_1"
   width="128"
   height="128"
   viewBox="0 0 128 128"
   overflow="visible"
   enable-background="new 0 0 128 128"
   xml:space="preserve"
   sodipodi:version="0.32"
   inkscape:version="0.45"
   sodipodi:docname="gnome-session-hibernate.svg"
   sodipodi:docbase="/home/martino/.icons/ALLBLACK/true-scalable/apps"
   inkscape:output_extension="org.inkscape.output.svg.inkscape"
   sodipodi:modified="true"><sodipodi:namedview
   inkscape:window-height="628"
   inkscape:window-width="846"
   inkscape:pageshadow="2"
   inkscape:pageopacity="0.0"
   guidetolerance="10.0"
   gridtolerance="10.0"
   objecttolerance="10.0"
   borderopacity="1.0"
   bordercolor="#666666"
   pagecolor="#ffffff"
   id="base"
   inkscape:zoom="2.093699"
   inkscape:cx="-5.524043"
   inkscape:cy="76.045235"
   inkscape:window-x="7"
   inkscape:window-y="30"
   inkscape:current-layer="Layer_1" /><metadata
   id="metadata83"><rdf:RDF><cc:Work
       rdf:about=""><dc:format>image/svg+xml</dc:format><dc:type
         rdf:resource="http://purl.org/dc/dcmitype/StillImage" /></cc:Work></rdf:RDF></metadata><defs
   id="defs81" />
	
	
	
		<linearGradient
   id="XMLID_38_"
   x1="66.3691"
   y1="-7.8506"
   gradientTransform="matrix(1 0 0 -1 -0.9624 127.9346)"
   x2="63.0356"
   gradientUnits="userSpaceOnUse"
   y2="130.815">
		<stop
   offset="0"
   id="stop8"
   style="stop-color:#545454" />
		<stop
   offset="0.3319"
   id="stop10"
   style="stop-color:#505050" />
		<stop
   offset="0.8192"
   id="stop12"
   style="stop-color:#474747" />
		<stop
   offset="1"
   id="stop14"
   style="stop-color:#424242" />
	</linearGradient>
	<path
   fill="url(#XMLID_38_)"
   d="M83.128,7.611c-0.265,0.188-0.423,0.493-0.423,0.817v18.523c0,0.371,0.205,0.711,0.533,0.885   C97.096,35.149,105.705,49.391,105.705,65c0,23.159-18.842,42-42.004,42c-23.162,0-42.002-18.841-42.002-42   c0-15.609,8.609-29.851,22.467-37.164c0.328-0.174,0.533-0.514,0.533-0.885V8.428c0-0.324-0.158-0.629-0.423-0.816   c-0.265-0.188-0.604-0.234-0.911-0.126C19.042,16.085,2.699,39.198,2.699,65c0,33.636,27.364,61,61.002,61   c33.641,0,61.004-27.364,61.004-61c0-25.802-16.343-48.915-40.666-57.515C83.732,7.377,83.393,7.424,83.128,7.611z"
   id="path16"
   style="fill:#333333" />
	
		<linearGradient
   id="XMLID_39_"
   x1="70.084"
   y1="6.2559"
   gradientTransform="matrix(1 0 0 -1 -0.9624 127.9346)"
   x2="62.5839"
   gradientUnits="userSpaceOnUse"
   y2="84.7562">
		<stop
   offset="0"
   id="stop19"
   style="stop-color:#696969" />
		<stop
   offset="0.5072"
   id="stop21"
   style="stop-color:#585858" />
		<stop
   offset="1"
   id="stop23"
   style="stop-color:#464646" />
	</linearGradient>
	
	
	
		<linearGradient
   id="XMLID_40_"
   x1="17.4536"
   y1="101.3174"
   gradientTransform="matrix(1 0 0 -1 -0.9624 127.9346)"
   x2="124.1777"
   gradientUnits="userSpaceOnUse"
   y2="27.3354">
		<stop
   offset="0"
   id="stop30"
   style="stop-color:#8b8b8b" />
		<stop
   offset="1"
   id="stop32"
   style="stop-color:#5c5c5c" />
	</linearGradient>
	
	
		<linearGradient
   id="XMLID_41_"
   x1="4.6631"
   y1="90.8906"
   gradientTransform="matrix(1 0 0 -1 -0.9624 127.9346)"
   x2="124.6597"
   gradientUnits="userSpaceOnUse"
   y2="90.8906">
		<stop
   offset="0"
   id="stop37"
   style="stop-color:#a2a2a2" />
		<stop
   offset="0.4719"
   id="stop39"
   style="stop-color:#dedede" />
		<stop
   offset="0.8119"
   id="stop41"
   style="stop-color:#b9b9b9" />
		<stop
   offset="1"
   id="stop43"
   style="stop-color:#a9a9a9" />
	</linearGradient>
	
	
	
	
		<linearGradient
   id="XMLID_42_"
   x1="70.1055"
   y1="65.8984"
   gradientTransform="matrix(1 0 0 -1 -0.9624 127.9346)"
   x2="58.3585"
   gradientUnits="userSpaceOnUse"
   y2="144.8388">
		<stop
   offset="0"
   id="stop52"
   style="stop-color:#545454" />
		<stop
   offset="0.3319"
   id="stop54"
   style="stop-color:#505050" />
		<stop
   offset="0.8192"
   id="stop56"
   style="stop-color:#474747" />
		<stop
   offset="1"
   id="stop58"
   style="stop-color:#424242" />
	</linearGradient>
	<path
   d="M55.699,1c-1.654,0-3,1.346-3,3v43c0,1.654,1.346,3,3,3h16.006c1.654,0,3-1.346,3-3V4   c0-1.654-1.346-3-3-3H55.699z"
   id="path60"
   style="fill:#333333"
   fill="url(#XMLID_42_)" />
	
		<linearGradient
   id="XMLID_43_"
   x1="15.9951"
   y1="108.5723"
   gradientTransform="matrix(1 0 0 -1 -0.9624 127.9346)"
   x2="144.7145"
   gradientUnits="userSpaceOnUse"
   y2="92.3395">
		<stop
   offset="0"
   id="stop63"
   style="stop-color:#8b8b8b" />
		<stop
   offset="1"
   id="stop65"
   style="stop-color:#5c5c5c" />
	</linearGradient>
	
	
		<linearGradient
   id="XMLID_44_"
   x1="10.9971"
   y1="123.9756"
   gradientTransform="matrix(1 0 0 -1 -0.9624 127.9346)"
   x2="146.2321"
   gradientUnits="userSpaceOnUse"
   y2="125.112">
		<stop
   offset="0"
   id="stop70"
   style="stop-color:#a2a2a2" />
		<stop
   offset="0.4719"
   id="stop72"
   style="stop-color:#cdcdcd" />
		<stop
   offset="0.8119"
   id="stop74"
   style="stop-color:#b4b4b4" />
		<stop
   offset="1"
   id="stop76"
   style="stop-color:#a9a9a9" />
	</linearGradient>
	
</svg>