<?xml version="1.0" encoding="UTF-8" standalone="no"?>
<!-- Created with Inkscape (http://www.inkscape.org/) -->
<svg
   xmlns:dc="http://purl.org/dc/elements/1.1/"
   xmlns:cc="http://web.resource.org/cc/"
   xmlns:rdf="http://www.w3.org/1999/02/22-rdf-syntax-ns#"
   xmlns:svg="http://www.w3.org/2000/svg"
   xmlns="http://www.w3.org/2000/svg"
   xmlns:sodipodi="http://sodipodi.sourceforge.net/DTD/sodipodi-0.dtd"
   xmlns:inkscape="http://www.inkscape.org/namespaces/inkscape"
   id="svg2"
   sodipodi:version="0.32"
   inkscape:version="0.45.1"
   width="48"
   height="48"
   version="1.0"
   sodipodi:docbase="/home/qwerty/.icons/MonoIce/scalable/apps"
   sodipodi:docname="applets-screenshooter.svg"
   inkscape:output_extension="org.inkscape.output.svg.inkscape">
  <metadata
     id="metadata7">
    <rdf:RDF>
      <cc:Work
         rdf:about="">
        <dc:format>image/svg+xml</dc:format>
        <dc:type
           rdf:resource="http://purl.org/dc/dcmitype/StillImage" />
      </cc:Work>
    </rdf:RDF>
  </metadata>
  <defs
     id="defs5" />
  <sodipodi:namedview
     inkscape:window-height="622"
     inkscape:window-width="776"
     inkscape:pageshadow="2"
     inkscape:pageopacity="0.0"
     guidetolerance="10000"
     gridtolerance="10000"
     objecttolerance="10000"
     borderopacity="1.0"
     bordercolor="#666666"
     pagecolor="#ffffff"
     id="base"
     showgrid="true"
     inkscape:zoom="4.2395833"
     inkscape:cx="15.980724"
     inkscape:cy="29.879792"
     inkscape:window-x="1"
     inkscape:window-y="45"
     inkscape:current-layer="svg2" />
  <path
     style="opacity:1;color:#000000;fill:#000000;fill-opacity:1;fill-rule:nonzero;stroke:none;stroke-width:2.79999995;stroke-linecap:round;stroke-linejoin:round;marker:none;marker-start:none;marker-mid:none;marker-end:none;stroke-miterlimit:4;stroke-dasharray:none;stroke-dashoffset:0;stroke-opacity:1;visibility:visible;display:inline;overflow:visible;enable-background:accumulate"
     d="M 36.34375 3 C 33.41081 3 31.0625 5.3483089 31.0625 8.28125 C 31.062499 8.4839674 31.103031 8.6783353 31.125 8.875 L 11.0625 8.875 C 11.0625 6.919706 9.4865441 5.34375 7.53125 5.34375 C 5.5759558 5.3437502 4 6.9197059 4 8.875 L 0.46875 8.875 L 0.46875 43 L 47.53125 43 L 47.53125 8.875 L 45.09375 8.875 C 45.115721 8.6783354 45.1875 8.4839677 45.1875 8.28125 C 45.187499 5.3483086 42.807941 3 39.875 3 L 36.34375 3 z M 24 12.40625 C 31.764707 12.40625 38.0625 18.738309 38.0625 26.53125 C 38.062501 34.324191 31.764706 40.65625 24 40.65625 C 16.235295 40.656249 9.9375 34.324191 9.9375 26.53125 C 9.9375002 18.738308 16.235294 12.40625 24 12.40625 z "
     id="rect3137" />
  <path
     sodipodi:type="arc"
     style="opacity:1;color:#000000;fill:#000000;fill-opacity:1;fill-rule:nonzero;stroke:none;stroke-width:2.79999995;stroke-linecap:round;stroke-linejoin:round;marker:none;marker-start:none;marker-mid:none;marker-end:none;stroke-miterlimit:4;stroke-dasharray:none;stroke-dashoffset:0;stroke-opacity:1;visibility:visible;display:inline;overflow:visible;enable-background:accumulate"
     id="path2163"
     sodipodi:cx="23.933914"
     sodipodi:cy="26.067528"
     sodipodi:rx="7.755589"
     sodipodi:ry="7.755589"
     d="M 31.689503 26.067528 A 7.755589 7.755589 0 1 1  16.178325,26.067528 A 7.755589 7.755589 0 1 1  31.689503 26.067528 z"
     transform="matrix(1.3652393,0,5.9499928e-8,1.3652393,-8.6755212,-9.0590027)" />
</svg>
