<?xml version="1.0" encoding="UTF-8" standalone="no"?>
<!-- Generator: Adobe Illustrator 9.0, SVG Export Plug-In  -->
<svg
   xmlns:dc="http://purl.org/dc/elements/1.1/"
   xmlns:cc="http://web.resource.org/cc/"
   xmlns:rdf="http://www.w3.org/1999/02/22-rdf-syntax-ns#"
   xmlns:svg="http://www.w3.org/2000/svg"
   xmlns="http://www.w3.org/2000/svg"
   xmlns:sodipodi="http://sodipodi.sourceforge.net/DTD/sodipodi-0.dtd"
   xmlns:inkscape="http://www.inkscape.org/namespaces/inkscape"
   width="48"
   height="48"
   viewBox="0 0 48 48"
   xml:space="preserve"
   id="svg2"
   sodipodi:version="0.32"
   inkscape:version="0.45.1"
   sodipodi:docname="accessories-text-editor.svg"
   sodipodi:docbase="/home/qwerty/.icons/MonoIce/scalable/apps"
   inkscape:output_extension="org.inkscape.output.svg.inkscape"
   version="1.0"><metadata
   id="metadata32"><rdf:RDF><cc:Work
       rdf:about=""><dc:format>image/svg+xml</dc:format><dc:type
         rdf:resource="http://purl.org/dc/dcmitype/StillImage" /></cc:Work></rdf:RDF></metadata><defs
   id="defs30" /><sodipodi:namedview
   inkscape:window-height="614"
   inkscape:window-width="772"
   inkscape:pageshadow="2"
   inkscape:pageopacity="0.0"
   guidetolerance="10000"
   gridtolerance="10000"
   objecttolerance="10000"
   borderopacity="1.0"
   bordercolor="#666666"
   pagecolor="#ffffff"
   id="base"
   showgrid="true"
   inkscape:zoom="4.796541"
   inkscape:cx="55.254078"
   inkscape:cy="14.447973"
   inkscape:window-x="1"
   inkscape:window-y="42"
   inkscape:current-layer="svg2"
   width="48px"
   height="48px" />
	
	
	
<path
   style="fill:#000000;fill-opacity:1;stroke:none;stroke-width:2.51800728;stroke-linejoin:round;stroke-opacity:1;fill-rule:nonzero;stroke-miterlimit:4"
   d="M 34.625 0.0625 C 33.978202 0.062499999 33.337112 0.3032078 32.84375 0.78125 L 6.15625 26.84375 C 5.8934624 27.1212 5.7021523 27.450958 5.59375 27.8125 L 0.125 44.75 C -0.098092806 45.437605 0.00742771 46.17271 0.40625 46.78125 C 0.80507228 47.389794 1.4499977 47.808945 2.1875 47.90625 C 2.6146969 47.949756 3.0422872 47.881709 3.4375 47.71875 L 18.9375 41.90625 C 19.243805 41.778023 19.518236 41.576235 19.75 41.34375 L 47.28125 14.75 C 48.268609 13.79453 48.26861 12.236721 47.28125 11.28125 L 36.4375 0.78125 C 35.944138 0.3032078 35.271798 0.062500001 34.625 0.0625 z M 7.75 28.9375 L 13.1875 29.53125 L 18 34.1875 L 18.59375 38.84375 L 8.5625 43.125 L 4.5625 39.03125 L 7.75 28.9375 z "
   id="path16" /><g
   id="Layer_x0020_4"
   style="fill-rule:nonzero;stroke:none;stroke-width:0.50648838;stroke-miterlimit:4;fill:#ffffff;fill-opacity:1"
   transform="matrix(2.0064107,0,0,-1.9428582,-32.166702,72.070971)">
		
		
		
		<path
   style="fill:#ffffff;stroke-width:0.6295144;fill-opacity:1;stroke:none"
   d="M 22.6,21.9 L 25,19.5"
   id="path22"
   sodipodi:nodetypes="cc" />
		
	</g></svg>