<?xml version="1.0" encoding="UTF-8" standalone="no"?>
<!-- Created with Inkscape (http://www.inkscape.org/) -->
<svg
   xmlns:dc="http://purl.org/dc/elements/1.1/"
   xmlns:cc="http://web.resource.org/cc/"
   xmlns:rdf="http://www.w3.org/1999/02/22-rdf-syntax-ns#"
   xmlns:svg="http://www.w3.org/2000/svg"
   xmlns="http://www.w3.org/2000/svg"
   xmlns:sodipodi="http://sodipodi.sourceforge.net/DTD/sodipodi-0.dtd"
   xmlns:inkscape="http://www.inkscape.org/namespaces/inkscape"
   width="48px"
   height="48px"
   id="svg1872"
   sodipodi:version="0.32"
   inkscape:version="0.45.1"
   sodipodi:docbase="/home/qwerty/.icons/MonoIce/scalable/apps"
   sodipodi:docname="gnome-settings-accessibility-keyboard.svg"
   inkscape:output_extension="org.inkscape.output.svg.inkscape">
  <defs
     id="defs1874" />
  <sodipodi:namedview
     id="base"
     pagecolor="#ffffff"
     bordercolor="#666666"
     borderopacity="1.0"
     inkscape:pageopacity="0.0"
     inkscape:pageshadow="2"
     inkscape:zoom="6.7916664"
     inkscape:cx="52.848086"
     inkscape:cy="13.373255"
     inkscape:current-layer="layer1"
     showgrid="true"
     inkscape:grid-bbox="true"
     inkscape:document-units="px"
     inkscape:grid-points="true"
     inkscape:window-width="1196"
     inkscape:window-height="867"
     inkscape:window-x="2"
     inkscape:window-y="67" />
  <metadata
     id="metadata1877">
    <rdf:RDF>
      <cc:Work
         rdf:about="">
        <dc:format>image/svg+xml</dc:format>
        <dc:type
           rdf:resource="http://purl.org/dc/dcmitype/StillImage" />
        <dc:title>Keyboard</dc:title>
        <dc:creator>
          <cc:Agent>
            <dc:title>Luca Ferretti &lt;elle.uca@libero.it&gt;</dc:title>
          </cc:Agent>
        </dc:creator>
        <dc:subject>
          <rdf:Bag>
            <rdf:li>keyboard device input</rdf:li>
          </rdf:Bag>
        </dc:subject>
        <dc:description>A keybord</dc:description>
        <cc:license
           rdf:resource="http://creativecommons.org/licenses/LGPL/2.1/" />
      </cc:Work>
      <cc:License
         rdf:about="http://creativecommons.org/licenses/LGPL/2.1/">
        <cc:permits
           rdf:resource="http://web.resource.org/cc/Reproduction" />
        <cc:permits
           rdf:resource="http://web.resource.org/cc/Distribution" />
        <cc:requires
           rdf:resource="http://web.resource.org/cc/Notice" />
        <cc:permits
           rdf:resource="http://web.resource.org/cc/DerivativeWorks" />
        <cc:requires
           rdf:resource="http://web.resource.org/cc/ShareAlike" />
        <cc:requires
           rdf:resource="http://web.resource.org/cc/SourceCode" />
      </cc:License>
    </rdf:RDF>
  </metadata>
  <g
     id="layer1"
     inkscape:label="Layer 1"
     inkscape:groupmode="layer">
    <path
       style="fill:#000000;fill-opacity:1;fill-rule:evenodd;stroke:none;stroke-width:1px;stroke-linecap:butt;stroke-linejoin:miter;stroke-opacity:1"
       d="M 2.46875 7.25 C 1.1143974 7.25 0 8.437427 0 9.9375 L 0 36.0625 C 0 37.562573 1.1143975 38.750002 2.46875 38.75 L 45.53125 38.75 C 46.885603 38.75 47.999999 37.562572 48 36.0625 L 48 9.9375 C 48 8.4374268 46.885601 7.25 45.53125 7.25 L 2.46875 7.25 z M 3.625 12.53125 L 8.40625 12.53125 L 8.40625 16.53125 L 3.625 16.53125 L 3.625 12.53125 z M 10.8125 12.53125 L 15.59375 12.53125 L 15.59375 16.53125 L 10.8125 16.53125 L 10.8125 12.53125 z M 18 12.53125 L 22.8125 12.53125 L 22.8125 16.53125 L 18 16.53125 L 18 12.53125 z M 25.1875 12.53125 L 30 12.53125 L 30 16.53125 L 25.1875 16.53125 L 25.1875 12.53125 z M 32.40625 12.53125 L 37.1875 12.53125 L 37.1875 16.53125 L 32.40625 16.53125 L 32.40625 12.53125 z M 39.59375 12.53125 L 44.375 12.53125 L 44.375 16.53125 L 39.59375 16.53125 L 39.59375 12.53125 z M 7.21875 21 L 12 21 L 12 25 L 7.21875 25 L 7.21875 21 z M 14.40625 21 L 19.1875 21 L 19.1875 25 L 14.40625 25 L 14.40625 21 z M 21.59375 21 L 26.40625 21 L 26.40625 25 L 21.59375 25 L 21.59375 21 z M 28.8125 21 L 33.59375 21 L 33.59375 25 L 28.8125 25 L 28.8125 21 z M 36 21 L 40.78125 21 L 40.78125 25 L 36 25 L 36 21 z M 3.625 29.46875 L 9.59375 29.46875 L 9.59375 33.46875 L 3.625 33.46875 L 3.625 29.46875 z M 12 29.46875 L 34.78125 29.46875 L 34.78125 33.46875 L 12 33.46875 L 12 29.46875 z M 37.1875 29.46875 L 44.375 29.46875 L 44.375 33.46875 L 37.1875 33.46875 L 37.1875 29.46875 z "
       id="rect1880" />
  </g>
</svg>
