<?xml version="1.0" encoding="UTF-8" standalone="no"?>
<!-- Generator: Adobe Illustrator 9.0, SVG Export Plug-In  -->
<svg
   xmlns:dc="http://purl.org/dc/elements/1.1/"
   xmlns:cc="http://web.resource.org/cc/"
   xmlns:rdf="http://www.w3.org/1999/02/22-rdf-syntax-ns#"
   xmlns:svg="http://www.w3.org/2000/svg"
   xmlns="http://www.w3.org/2000/svg"
   xmlns:sodipodi="http://sodipodi.sourceforge.net/DTD/sodipodi-0.dtd"
   xmlns:inkscape="http://www.inkscape.org/namespaces/inkscape"
   width="48"
   height="48"
   viewBox="0 0 48 48"
   xml:space="preserve"
   id="svg2"
   sodipodi:version="0.32"
   inkscape:version="0.45.1"
   sodipodi:docname="document-save.svg"
   sodipodi:docbase="/home/qwerty/.icons/MonoIce/scalable/actions"
   version="1.0"
   inkscape:output_extension="org.inkscape.output.svg.inkscape"><metadata
   id="metadata25"><rdf:RDF><cc:Work
       rdf:about=""><dc:format>image/svg+xml</dc:format><dc:type
         rdf:resource="http://purl.org/dc/dcmitype/StillImage" /></cc:Work></rdf:RDF></metadata><defs
   id="defs23">
		
	
			
			
			
			
			
			
		</defs><sodipodi:namedview
   inkscape:window-height="951"
   inkscape:window-width="1278"
   inkscape:pageshadow="2"
   inkscape:pageopacity="0.55686275"
   borderopacity="1.0"
   bordercolor="#666666"
   pagecolor="#8f3b3b"
   id="base"
   showgrid="true"
   inkscape:grid-bbox="true"
   inkscape:grid-points="true"
   inkscape:zoom="11.608336"
   inkscape:cx="42.948"
   inkscape:cy="25.876218"
   inkscape:window-x="1"
   inkscape:window-y="49"
   inkscape:current-layer="svg2" />
	<path
   style="fill:#000000;fill-opacity:1;fill-rule:nonzero;stroke:none;stroke-width:5.99999905;stroke-linecap:round;stroke-linejoin:round;stroke-miterlimit:4;stroke-dasharray:none;stroke-opacity:1"
   d="M 4.1875 1.9375 C 2.6538207 2.0982492 1.4917527 3.3954415 1.5 4.9375 L 1.5 38.03125 C 1.49808 38.827639 1.8128654 39.592118 2.375 40.15625 L 7.25 45.0625 C 7.8141317 45.624635 8.5786105 45.93942 9.375 45.9375 L 43.6875 45.9375 C 45.344286 45.937335 46.687335 44.594286 46.6875 42.9375 L 46.6875 4.9375 C 46.687335 3.2807143 45.344286 1.9376654 43.6875 1.9375 L 4.5 1.9375 C 4.3959041 1.9320715 4.2915959 1.9320715 4.1875 1.9375 z M 6.9375 6.15625 L 41.25 6.15625 L 41.25 22.09375 L 6.9375 22.09375 L 6.9375 6.15625 z M 11.84375 27 L 32.65625 27 C 34.003869 27 35.125 28.088617 35.125 29.4375 L 35.125 40.5 C 35.125 41.848884 34.00387 42.9375 32.65625 42.9375 L 11.84375 42.9375 C 10.496129 42.937501 9.375 41.848882 9.375 40.5 L 9.375 29.4375 C 9.3750001 28.088617 10.496129 27 11.84375 27 z "
   id="path9" /><path
   style="fill-rule:nonzero;stroke:none;stroke-miterlimit:4;fill:#000000;fill-opacity:1"
   d="M 20.410815,40.485193 L 13.060153,40.485193 L 13.060153,29.448881 L 20.410815,29.448881 L 20.410815,40.485193 z "
   id="path15"
   sodipodi:nodetypes="ccccc" />
	
</svg>