<?xml version="1.0" encoding="UTF-8" standalone="no"?>
<!-- Created with Inkscape (http://www.inkscape.org/) -->
<svg
   xmlns:dc="http://purl.org/dc/elements/1.1/"
   xmlns:cc="http://web.resource.org/cc/"
   xmlns:rdf="http://www.w3.org/1999/02/22-rdf-syntax-ns#"
   xmlns:svg="http://www.w3.org/2000/svg"
   xmlns="http://www.w3.org/2000/svg"
   xmlns:sodipodi="http://sodipodi.sourceforge.net/DTD/sodipodi-0.dtd"
   xmlns:inkscape="http://www.inkscape.org/namespaces/inkscape"
   width="48px"
   height="48px"
   id="svg3304"
   sodipodi:version="0.32"
   inkscape:version="0.45.1"
   sodipodi:docbase="/home/qwerty/.icons/MonoIce/scalable/actions"
   sodipodi:docname="stock_new-bcard.svg"
   inkscape:output_extension="org.inkscape.output.svg.inkscape">
  <defs
     id="defs3306">
    <linearGradient
       id="linearGradient4622">
      <stop
         id="stop4624"
         offset="0"
         style="stop-color:#dabce7;stop-opacity:1;" />
      <stop
         id="stop4626"
         offset="1"
         style="stop-color:#efe8ef;stop-opacity:1;" />
    </linearGradient>
  </defs>
  <sodipodi:namedview
     id="base"
     pagecolor="white"
     bordercolor="#666666"
     borderopacity="1.0"
     inkscape:pageopacity="0"
     inkscape:pageshadow="2"
     inkscape:zoom="7.0000001"
     inkscape:cx="25.124364"
     inkscape:cy="33.316893"
     inkscape:current-layer="layer1"
     showgrid="true"
     inkscape:grid-bbox="true"
     inkscape:document-units="px"
     inkscape:window-width="1278"
     inkscape:window-height="951"
     inkscape:window-x="1"
     inkscape:window-y="49"
     objecttolerance="10000"
     gridtolerance="10000"
     guidetolerance="10000" />
  <metadata
     id="metadata3309">
    <rdf:RDF>
      <cc:Work
         rdf:about="">
        <dc:format>image/svg+xml</dc:format>
        <dc:type
           rdf:resource="http://purl.org/dc/dcmitype/StillImage" />
        <dc:title>New Contact</dc:title>
        <dc:date>September 2006</dc:date>
        <dc:creator>
          <cc:Agent>
            <dc:title>Andreas Nilsson</dc:title>
          </cc:Agent>
        </dc:creator>
        <dc:subject>
          <rdf:Bag>
            <rdf:li>contact</rdf:li>
            <rdf:li>address</rdf:li>
            <rdf:li>add</rdf:li>
          </rdf:Bag>
        </dc:subject>
        <dc:source>http://www.gnome.org</dc:source>
        <cc:license
           rdf:resource="http://creativecommons.org/licenses/GPL/2.0/" />
      </cc:Work>
      <cc:License
         rdf:about="http://creativecommons.org/licenses/GPL/2.0/">
        <cc:permits
           rdf:resource="http://web.resource.org/cc/Reproduction" />
        <cc:permits
           rdf:resource="http://web.resource.org/cc/Distribution" />
        <cc:requires
           rdf:resource="http://web.resource.org/cc/Notice" />
        <cc:permits
           rdf:resource="http://web.resource.org/cc/DerivativeWorks" />
        <cc:requires
           rdf:resource="http://web.resource.org/cc/ShareAlike" />
        <cc:requires
           rdf:resource="http://web.resource.org/cc/SourceCode" />
      </cc:License>
    </rdf:RDF>
  </metadata>
  <g
     id="layer1"
     inkscape:label="Layer 1"
     inkscape:groupmode="layer">
    <path
       style="opacity:1;fill:#000000;fill-opacity:1;stroke:none;stroke-width:2;stroke-linecap:round;stroke-linejoin:miter;stroke-miterlimit:4;stroke-dasharray:none;stroke-dashoffset:0;stroke-opacity:1"
       d="M 24 0 C 15.168 0 7.9999998 6.72 8 15 C 8 19.37158 10.001362 23.288779 13.1875 26.03125 C 13.2188 26.062612 13.249676 26.093908 13.28125 26.125 C 13.457417 26.274072 13.629366 26.420791 13.8125 26.5625 C 14.057925 26.783066 14.271655 27.014112 14.53125 27.21875 L 9.09375 27.21875 C 4.0429973 27.218749 1.4802974e-16 31.875379 0 37.625 L 0 48 L 48 48 L 48 37.625 C 47.999998 31.87538 43.957004 27.21875 38.90625 27.21875 L 33.46875 27.21875 C 33.728345 27.014112 33.942075 26.783066 34.1875 26.5625 C 34.370634 26.420791 34.542583 26.274072 34.71875 26.125 C 34.750324 26.093908 34.7812 26.062612 34.8125 26.03125 C 37.998639 23.288779 39.999999 19.37158 40 15 C 40 6.7199999 32.832001 -2.0568038e-15 24 0 z M 22.21875 3 L 25.75 3.03125 L 25.75 12.5625 L 35 12.5625 L 35 16.1875 L 25.78125 16.21875 L 25.78125 25 L 22.25 24.96875 L 22.25 16.21875 L 13 16.21875 L 13 12.5625 L 22.21875 12.5625 L 22.21875 3 z "
       id="rect4337" />
    <g
       inkscape:label="Layer 1"
       id="g2173"
       transform="matrix(0.4583334,0,0,0.4583334,12.999997,3)"
       style="fill:#ffffff" />
  </g>
</svg>
