<?xml version="1.0" encoding="UTF-8" standalone="no"?>
<!-- Generator: Adobe Illustrator 9.0, SVG Export Plug-In  -->
<svg
   xmlns:dc="http://purl.org/dc/elements/1.1/"
   xmlns:cc="http://web.resource.org/cc/"
   xmlns:rdf="http://www.w3.org/1999/02/22-rdf-syntax-ns#"
   xmlns:svg="http://www.w3.org/2000/svg"
   xmlns="http://www.w3.org/2000/svg"
   xmlns:sodipodi="http://sodipodi.sourceforge.net/DTD/sodipodi-0.dtd"
   xmlns:inkscape="http://www.inkscape.org/namespaces/inkscape"
   width="48"
   height="48"
   viewBox="0 0 48 48"
   xml:space="preserve"
   id="svg2"
   sodipodi:version="0.32"
   inkscape:version="0.45.1"
   sodipodi:docname="document-print.svg"
   sodipodi:docbase="/home/qwerty/.icons/MinimalBlack/scalable/actions"
   version="1.0"
   inkscape:output_extension="org.inkscape.output.svg.inkscape"><metadata
   id="metadata31"><rdf:RDF><cc:Work
       rdf:about=""><dc:format>image/svg+xml</dc:format><dc:type
         rdf:resource="http://purl.org/dc/dcmitype/StillImage" /></cc:Work></rdf:RDF></metadata><defs
   id="defs29">
		
	
			
			
			
			
			
			
			
			
			
		
		
	
			
			
			
			
			
			
			
			
			
			
			
		</defs><sodipodi:namedview
   inkscape:window-height="951"
   inkscape:window-width="1278"
   inkscape:pageshadow="2"
   inkscape:pageopacity="0.0"
   borderopacity="1.0"
   bordercolor="#666666"
   pagecolor="#ffffff"
   id="base"
   showgrid="true"
   inkscape:grid-bbox="true"
   inkscape:grid-points="true"
   inkscape:zoom="5.8041683"
   inkscape:cx="36.798454"
   inkscape:cy="10.890828"
   inkscape:window-x="1"
   inkscape:window-y="46"
   inkscape:current-layer="svg2" />
	<g
   id="g3095"
   transform="matrix(1.1139601,0,0,1.1142857,-2.7350427,-2.1984047)"><path
     sodipodi:nodetypes="ccccccccc"
     id="path13"
     d="M 41,42 C 41,42.4 40.4,43 40,43 L 8,43 C 7.6,43 7,42.4 7,42 L 7,40 C 7,39.6 7.5,39.3 7.9,39.3 L 39.8,39.3 C 40.2,39.3 41,39.6 41,40 L 41,42 z "
     style="fill:#000000;fill-rule:nonzero;stroke:none;stroke-width:7.43289995;stroke-linejoin:round;stroke-miterlimit:4" /><path
     style="fill:#000000;fill-rule:nonzero;stroke:none;stroke-width:7.43289995;stroke-linejoin:round;stroke-miterlimit:4"
     d="M 2.84375 24.53125 C 2.398166 24.53125 1.71875 25.210536 1.71875 25.65625 L 1.71875 41.25 C 1.71875 41.695714 2.398166 42.374999 2.84375 42.375 L 45.15625 42.375 C 45.601834 42.375 46.28125 41.695712 46.28125 41.25 L 46.28125 25.65625 C 46.28125 25.210536 45.601834 24.531249 45.15625 24.53125 L 37.375 24.53125 L 37.375 27.875 L 10.625 27.875 L 10.625 24.53125 L 2.84375 24.53125 z "
     transform="matrix(0.8976982,0,0,0.8974359,2.455243,1.9729273)"
     id="path15" /><path
     style="fill:#000000;fill-rule:nonzero;stroke:none;stroke-width:7.43289995;stroke-linejoin:round;stroke-miterlimit:4"
     d="M 10.625 2.25 C 7.2831195 2.2500001 6.1875 4.4901786 6.1875 6.71875 L 6.1875 26.78125 L 10.625 26.78125 L 10.625 7.84375 C 10.625 7.8437499 10.63604 6.71875 11.75 6.71875 L 36.25 6.71875 C 37.363962 6.7187501 37.375 7.84375 37.375 7.84375 L 37.375 26.78125 L 41.8125 26.78125 L 41.8125 6.71875 C 41.812501 4.4901786 40.71688 2.25 37.375 2.25 L 10.625 2.25 z "
     transform="matrix(0.8976982,0,0,0.8974359,2.455243,1.9729273)"
     id="path17" /></g><path
   style="fill:none;fill-rule:nonzero;stroke:#000000;stroke-width:4;stroke-linejoin:miter;stroke-miterlimit:4;stroke-dasharray:none"
   d="M 15.756695,21.201593 L 31.79772,21.201593"
   id="path21"
   sodipodi:nodetypes="cc" /><path
   style="fill:none;fill-rule:nonzero;stroke:#000000;stroke-width:4;stroke-linejoin:miter;stroke-miterlimit:4;stroke-dasharray:none"
   d="M 15.688494,13.401593 L 31.79772,13.401593"
   id="path23"
   sodipodi:nodetypes="cc" />
	
</svg>