<?xml version="1.0" encoding="UTF-8" standalone="no"?>
<!-- Generator: Adobe Illustrator 9.0, SVG Export Plug-In  -->
<svg
   xmlns:dc="http://purl.org/dc/elements/1.1/"
   xmlns:cc="http://web.resource.org/cc/"
   xmlns:rdf="http://www.w3.org/1999/02/22-rdf-syntax-ns#"
   xmlns:svg="http://www.w3.org/2000/svg"
   xmlns="http://www.w3.org/2000/svg"
   xmlns:sodipodi="http://sodipodi.sourceforge.net/DTD/sodipodi-0.dtd"
   xmlns:inkscape="http://www.inkscape.org/namespaces/inkscape"
   width="48"
   height="48"
   viewBox="0 0 48 48"
   xml:space="preserve"
   id="svg2"
   sodipodi:version="0.32"
   inkscape:version="0.45.1"
   sodipodi:docname="edit-cut.svg"
   sodipodi:docbase="/home/qwerty/.icons/MonoBlack/scalable/actions"
   inkscape:output_extension="org.inkscape.output.svg.inkscape"
   version="1.0"><metadata
   id="metadata17"><rdf:RDF><cc:Work
       rdf:about=""><dc:format>image/svg+xml</dc:format><dc:type
         rdf:resource="http://purl.org/dc/dcmitype/StillImage" /></cc:Work></rdf:RDF></metadata><defs
   id="defs15" /><sodipodi:namedview
   inkscape:window-height="622"
   inkscape:window-width="776"
   inkscape:pageshadow="2"
   inkscape:pageopacity="0.0"
   guidetolerance="10.0"
   gridtolerance="10.0"
   objecttolerance="10.0"
   borderopacity="1.0"
   bordercolor="#666666"
   pagecolor="#ffffff"
   id="base"
   inkscape:zoom="6.7833333"
   inkscape:cx="30"
   inkscape:cy="30"
   inkscape:window-x="1"
   inkscape:window-y="1"
   inkscape:current-layer="svg2"
   width="48px"
   height="48px" />
	<g
   id="Layer_x0020_4"
   style="fill-rule:nonzero;stroke:#000000;stroke-width:0.81959248;stroke-miterlimit:4;fill:#000000;fill-opacity:1"
   transform="matrix(1.2206599,0,0,1.2195775,-5.2958366,-5.2588808)">
		<g
   id="g5"
   style="stroke-width:0.81959248;fill:#000000;fill-opacity:1">
			
			<path
   style="stroke:none;fill:#000000;fill-opacity:1"
   d="M 38.1,31.4 C 36.8,30 35.1,29.3 33.2,29.3 C 31.9,29.3 30.6,29.7 29.5,30.4 L 26.8,26 C 29.7,24 33.7,20.8 36.4,16 C 40.3,9.2 34,5.3 34,5.3 L 24,21.4 L 14,5.2 C 14,5.2 7.7,9.1 11.6,15.9 C 14.3,20.6 18.4,24 21.3,25.9 L 18.5,30.4 C 17.4,29.7 16.2,29.3 14.8,29.3 C 12.9,29.3 11.1,30.1 9.9,31.4 C 8.7,32.6 8.1,34.3 8.1,36 C 8.1,37.7 8.7,39.4 9.9,40.6 C 11.2,42 12.9,42.7 14.8,42.7 C 16.7,42.7 18.5,41.9 19.7,40.6 C 20.9,39.4 21.4,37.6 21.5,36 C 21.6,34.4 23,28 23,28 C 23,28 23.4,27.8 24.1,27.4 C 24.7,27.9 25,28 25,28 C 25,28 26.4,34.3 26.5,36 C 26.6,37.6 27.1,39.4 28.3,40.6 C 29.6,42 31.3,42.7 33.2,42.7 C 35.1,42.7 36.9,41.9 38.1,40.6 C 39.3,39.4 39.9,37.7 39.9,36 C 39.9,34.3 39.3,32.6 38.1,31.4 z M 17.3,39.5 C 16.9,39.9 16,40.7 14.8,40.7 C 13.6,40.7 12.7,39.9 12.3,39.5 C 11.5,38.6 11,37.4 11,36.1 C 11,34.8 11.5,33.6 12.3,32.7 C 12.7,32.3 13.6,31.5 14.8,31.5 C 16,31.5 16.9,32.3 17.3,32.7 C 18.1,33.6 18.6,34.8 18.6,36.1 C 18.6,37.4 18.1,38.6 17.3,39.5 z M 35.7,39.4 C 35.3,39.8 34.4,40.6 33.2,40.6 C 32,40.6 31.1,39.8 30.7,39.4 C 29.9,38.5 29.4,37.3 29.4,36 C 29.4,34.7 29.9,33.5 30.7,32.6 C 31.1,32.2 32,31.4 33.2,31.4 C 34.4,31.4 35.3,32.2 35.7,32.6 C 36.5,33.5 37,34.7 37,36 C 37,37.3 36.5,38.5 35.7,39.4 z "
   id="path9" />
		</g>
	</g>
	<g
   id="crop_x0020_marks"
   style="fill-rule:nonzero;stroke:#000000;stroke-miterlimit:4">
		<path
   style="fill:none;stroke:none"
   d="M 48,48 L 0,48 L 0,0 L 48,0 L 48,48 z "
   id="path12" />
	</g>
</svg>