<?xml version="1.0" encoding="UTF-8" standalone="no"?>
<!-- Generator: Adobe Illustrator 9.0, SVG Export Plug-In  -->
<svg
   xmlns:dc="http://purl.org/dc/elements/1.1/"
   xmlns:cc="http://web.resource.org/cc/"
   xmlns:rdf="http://www.w3.org/1999/02/22-rdf-syntax-ns#"
   xmlns:svg="http://www.w3.org/2000/svg"
   xmlns="http://www.w3.org/2000/svg"
   xmlns:sodipodi="http://sodipodi.sourceforge.net/DTD/sodipodi-0.dtd"
   xmlns:inkscape="http://www.inkscape.org/namespaces/inkscape"
   width="48"
   height="48"
   viewBox="0 0 48 48"
   xml:space="preserve"
   id="svg2"
   sodipodi:version="0.32"
   inkscape:version="0.45.1"
   sodipodi:docname="edit-clear.svg"
   sodipodi:docbase="/home/qwerty/.icons/MonoIce/scalable/actions"
   inkscape:output_extension="org.inkscape.output.svg.inkscape"
   version="1.0"><metadata
   id="metadata25"><rdf:RDF><cc:Work
       rdf:about=""><dc:format>image/svg+xml</dc:format><dc:type
         rdf:resource="http://purl.org/dc/dcmitype/StillImage" /></cc:Work></rdf:RDF></metadata><defs
   id="defs23" /><sodipodi:namedview
   inkscape:window-height="616"
   inkscape:window-width="772"
   inkscape:pageshadow="2"
   inkscape:pageopacity="0.0"
   guidetolerance="10.0"
   gridtolerance="10.0"
   objecttolerance="10.0"
   borderopacity="1.0"
   bordercolor="#666666"
   pagecolor="#ffffff"
   id="base"
   showgrid="true"
   inkscape:zoom="6.7833334"
   inkscape:cx="27.281517"
   inkscape:cy="30.031966"
   inkscape:window-x="2"
   inkscape:window-y="67"
   inkscape:current-layer="svg2"
   width="48px"
   height="48px" />
	<g
   id="Layer_x0020_4"
   style="fill-rule:nonzero;stroke:#000000;stroke-width:0.88239425;stroke-miterlimit:4;fill:#000000;fill-opacity:1"
   transform="matrix(1.1332803,0,0,1.1332803,-3.1987282,-3.1987282)">
		<g
   style="stroke:none;fill:#000000;fill-opacity:1"
   id="g5">
			
			<path
   style="fill:#000000;fill-opacity:1;stroke:none;stroke-width:2.6712718;stroke-linecap:round;stroke-linejoin:round;stroke-opacity:1"
   d="M 25.1875,18.65625 C 24.977576,18.671105 24.774133,18.73535 24.59375,18.84375 L 8.59375,28.5625 C 8.2733393,28.758275 8.0501241,29.079867 7.9787733,29.448513 C 7.9074225,29.817159 7.9945257,30.198812 8.21875,30.5 L 15.125,39.84375 L 15.21875,40 L 15.28125,39.96875 C 15.696915,40.605135 16.278472,41.095581 16.875,41.3125 C 17.528771,41.550235 18.172677,41.594622 18.71875,41.5625 C 19.810895,41.498256 20.6875,41.15625 20.6875,41.15625 C 20.708602,41.14638 20.729443,41.13596 20.75,41.125 L 41.9375,31.625 C 42.532987,31.34334 42.834233,30.669612 42.647093,30.038014 C 42.459953,29.406416 41.840307,29.005545 41.1875,29.09375 C 41.1875,29.09375 39.424601,29.363265 37.5,29.375 C 36.5377,29.380868 35.537423,29.298611 34.78125,29.125 C 34.025077,28.951389 33.593287,28.66535 33.5,28.53125 C 33.489756,28.520662 33.479338,28.510244 33.46875,28.5 L 26.375,19.1875 C 26.097967,18.816605 25.648647,18.615594 25.1875,18.65625 L 25.1875,18.65625 z M 24.96875,21.78125 L 31.34375,30.125 C 32.050463,31.1409 33.106173,31.501736 34.1875,31.75 C 34.442188,31.808474 34.707582,31.77311 34.96875,31.8125 L 19.71875,38.65625 L 19.65625,38.6875 C 19.597658,38.707943 19.105246,38.872485 18.53125,38.90625 C 18.227322,38.924128 17.952479,38.874765 17.78125,38.8125 C 17.610021,38.750235 17.557609,38.722447 17.46875,38.5625 C 17.441093,38.508343 17.40977,38.456139 17.375,38.40625 L 11.25,30.09375 L 24.96875,21.78125 z "
   id="path9" />
			<path
   d="M 16.7,23.8 C 15.3,24.7 13.4,24.2 12.5,22.8 L 5.2,10.5 C 4.3,9.1 4.8,7.2 6.2,6.3 C 7.6,5.4 9.5,5.9 10.4,7.3 L 17.8,19.5 C 19.395545,22.130492 18.100709,22.553215 16.7,23.8 z "
   id="path11"
   style="fill:#000000;fill-opacity:1;stroke:none;stroke-opacity:1"
   sodipodi:nodetypes="cccsczc" />
			<path
   d="M 30.5,20.9 L 28.3,17.5 C 27.3,15.8 25.1,15.3 23.4,16.3 L 7,26.2 C 5.3,27.2 4.8,29.4 5.8,31.1 L 8,34.5 L 30.6,20.8 L 30.5,20.9 z "
   id="path13"
   style="fill:#000000;fill-opacity:1;stroke:none" />
			
			
		</g>
	</g>
	
</svg>