<?xml version="1.0" encoding="UTF-8" standalone="no"?>
<!-- Created with Inkscape (http://www.inkscape.org/) -->
<svg
   xmlns:dc="http://purl.org/dc/elements/1.1/"
   xmlns:cc="http://web.resource.org/cc/"
   xmlns:rdf="http://www.w3.org/1999/02/22-rdf-syntax-ns#"
   xmlns:svg="http://www.w3.org/2000/svg"
   xmlns="http://www.w3.org/2000/svg"
   xmlns:sodipodi="http://sodipodi.sourceforge.net/DTD/sodipodi-0.dtd"
   xmlns:inkscape="http://www.inkscape.org/namespaces/inkscape"
   width="48"
   height="48"
   id="svg1306"
   sodipodi:version="0.32"
   inkscape:version="0.45.1"
   sodipodi:docbase="/home/qwerty/.icons/MonoBlack/scalable/actions"
   sodipodi:docname="format-text-direction-ltr.svg"
   inkscape:export-filename="/home/lapo/Desktop/insert-link-16.png"
   inkscape:export-xdpi="90.000031"
   inkscape:export-ydpi="90.000031"
   version="1.0"
   inkscape:output_extension="org.inkscape.output.svg.inkscape">
  <defs
     id="defs1308">
    <linearGradient
       id="linearGradient3384">
      <stop
         style="stop-color:white;stop-opacity:1"
         offset="0"
         id="stop3386" />
      <stop
         style="stop-color:#eeeeec;stop-opacity:1"
         offset="1"
         id="stop3388" />
    </linearGradient>
    <linearGradient
       id="linearGradient3269">
      <stop
         id="stop3271"
         offset="0"
         style="stop-color:#fecb81;stop-opacity:1" />
      <stop
         id="stop3273"
         offset="1"
         style="stop-color:#fcaf3e;stop-opacity:1" />
    </linearGradient>
  </defs>
  <sodipodi:namedview
     id="base"
     pagecolor="#ffffff"
     bordercolor="#666"
     borderopacity="1"
     inkscape:pageopacity="0.0"
     inkscape:pageshadow="2"
     inkscape:zoom="5.6568545"
     inkscape:cx="56.73472"
     inkscape:cy="13.149015"
     inkscape:current-layer="layer1"
     showgrid="true"
     inkscape:grid-bbox="true"
     inkscape:document-units="px"
     fill="#fcaf3e"
     stroke="#555753"
     showguides="true"
     inkscape:guide-bbox="true"
     inkscape:window-width="1085"
     inkscape:window-height="760"
     inkscape:window-x="193"
     inkscape:window-y="175"
     inkscape:showpageshadow="false"
     showborder="true"
     gridspacingx="0.5px"
     gridspacingy="0.5px"
     gridempspacing="2"
     inkscape:grid-points="true"
     width="48px"
     height="48px"
     objecttolerance="10000"
     gridtolerance="10000"
     guidetolerance="10000" />
  <metadata
     id="metadata1311">
    <rdf:RDF>
      <cc:Work
         rdf:about="">
        <dc:format>image/svg+xml</dc:format>
        <dc:type
           rdf:resource="http://purl.org/dc/dcmitype/StillImage" />
        <dc:title>Insert Text</dc:title>
        <dc:creator>
          <cc:Agent>
            <dc:title>Lapo Calamandrei</dc:title>
          </cc:Agent>
        </dc:creator>
        <dc:source>http://www.gnome.org</dc:source>
        <dc:contributor>
          <cc:Agent>
            <dc:title />
          </cc:Agent>
        </dc:contributor>
        <cc:license
           rdf:resource="http://creativecommons.org/licenses/GPL/2.0/" />
        <dc:subject>
          <rdf:Bag>
            <rdf:li>insert</rdf:li>
            <rdf:li>text</rdf:li>
            <rdf:li>generic</rdf:li>
          </rdf:Bag>
        </dc:subject>
      </cc:Work>
      <cc:License
         rdf:about="http://creativecommons.org/licenses/GPL/2.0/">
        <cc:permits
           rdf:resource="http://web.resource.org/cc/Reproduction" />
        <cc:permits
           rdf:resource="http://web.resource.org/cc/Distribution" />
        <cc:requires
           rdf:resource="http://web.resource.org/cc/Notice" />
        <cc:permits
           rdf:resource="http://web.resource.org/cc/DerivativeWorks" />
        <cc:requires
           rdf:resource="http://web.resource.org/cc/ShareAlike" />
        <cc:requires
           rdf:resource="http://web.resource.org/cc/SourceCode" />
      </cc:License>
    </rdf:RDF>
  </metadata>
  <g
     id="layer1"
     inkscape:label="Layer 1"
     inkscape:groupmode="layer">
    <g
       id="g3362"
       transform="matrix(0,1,1.6541291,0,-26.108737,14.999998)"
       style="fill:#000000;fill-opacity:1;stroke:none;stroke-opacity:1">
      <path
         sodipodi:nodetypes="cccc"
         id="path3364"
         d="M 15.500002,35.500004 L 32.500012,35.500004 L 24.000007,44.499996 L 15.500002,35.500004 z "
         style="color:#000000;fill:#000000;fill-opacity:1;fill-rule:nonzero;stroke:none;stroke-width:0.77752703;stroke-linecap:round;stroke-linejoin:round;marker:none;marker-start:none;marker-mid:none;marker-end:none;stroke-miterlimit:4;stroke-dashoffset:1.4;stroke-opacity:1;visibility:visible;display:inline;overflow:visible" />
    </g>
    <path
       style="font-size:17.50059891px;font-style:normal;font-weight:bold;fill:#000000;fill-opacity:1;stroke:none;stroke-width:1px;stroke-linecap:butt;stroke-linejoin:miter;stroke-opacity:1;font-family:Bitstream Vera Sans"
       d="M 12.522929,24.161209 L 5.5683133,24.161209 L 4.4708223,27.448005 L 3.4932994e-16,27.448005 L 6.3885383,9.4068833 L 11.691145,9.4068833 L 18.079683,27.448005 L 13.608861,27.448005 L 12.522929,24.161209 M 6.6773496,20.511537 L 11.402334,20.511537 L 9.0456073,13.636215 L 6.6773496,20.511537 M 27.055977,24.656646 C 27.941672,24.656649 28.615555,24.318303 29.07767,23.641607 C 29.547458,22.964917 29.782359,21.982101 29.782373,20.693158 C 29.782359,19.404226 29.547458,18.421411 29.07767,17.744708 C 28.615555,17.068026 27.941672,16.729681 27.055977,16.72967 C 26.170283,16.729681 25.229434,17.072053 24.751945,17.756793 C 24.282129,18.433495 24.047228,19.412282 24.047241,20.693158 C 24.047228,21.974047 24.282129,22.956862 24.751945,23.641607 C 25.229434,24.318303 26.170283,24.656649 27.055977,24.656646 M 24.047241,15.895886 C 24.617149,15.106424 25.507944,14.526401 26.201103,14.155818 C 26.894233,13.777207 27.691354,13.587894 28.592465,13.587879 C 30.186705,13.587894 31.49598,14.252502 32.520328,15.581709 C 33.544634,16.902881 34.056787,18.606697 34.056802,20.693158 C 34.056787,22.779632 33.544634,24.487476 32.520328,25.81669 C 31.49598,27.137854 30.186705,27.798435 28.592465,27.798435 C 27.691354,27.798435 26.894233,27.61315 26.201103,27.242581 C 25.507944,26.863955 24.617149,26.279905 24.047241,25.490427 L 24.047241,27.448005 L 19.911439,27.448005 L 19.911439,9.5961855 L 24.047241,9.5961855 L 24.047241,15.895886 M 47.58479,14.337076 L 47.58479,17.865546 C 47.022556,17.462763 46.456493,17.164696 45.886573,16.971344 C 45.324339,16.778015 44.739015,16.681345 44.1306,16.681333 C 42.975342,16.681345 42.074245,17.035803 41.427309,17.744708 C 40.788061,18.445579 40.468444,19.428394 40.468444,20.693158 C 40.468444,21.957934 40.788061,22.944777 41.427309,23.653689 C 42.074245,24.354553 42.975342,24.704983 44.1306,24.70498 C 44.777522,24.704983 45.389808,24.604284 45.967444,24.402886 C 46.552754,24.201492 47.091883,23.903425 47.58479,23.508684 L 47.58479,27.049239 C 46.93784,27.29897 46.279346,27.484256 45.60932,27.605094 C 44.946968,27.733988 44.280771,27.798435 43.610732,27.798435 C 41.277124,27.798435 39.451826,27.174106 38.134836,25.925446 C 36.817861,24.668732 36.159366,22.924639 36.159366,20.693158 C 36.159366,18.46169 36.817861,16.721624 38.134836,15.472954 C 39.451826,14.216251 41.277124,13.587894 43.610732,13.587879 C 44.288473,13.587894 44.954669,13.652341 45.60932,13.781221 C 46.271645,13.902071 46.930139,14.087357 47.58479,14.337076"
       id="text3378"
       sodipodi:nodetypes="ccccccccccccccsssssssccsssssssccccccccsssssssccsssssssc" />
    <rect
       style="opacity:1;color:#000000;fill:#000000;fill-opacity:1;fill-rule:nonzero;stroke:none;stroke-width:4;stroke-linecap:round;stroke-linejoin:round;marker:none;marker-start:none;marker-mid:none;marker-end:none;stroke-miterlimit:4;stroke-dasharray:none;stroke-dashoffset:0;stroke-opacity:1;visibility:visible;display:inline;overflow:visible;enable-background:accumulate"
       id="rect2166"
       width="30.988539"
       height="7"
       x="-33"
       y="35"
       transform="scale(-1,1)" />
  </g>
</svg>
