<?xml version="1.0" encoding="UTF-8" standalone="no"?>
<!-- Generator: Adobe Illustrator 9.0, SVG Export Plug-In  -->
<svg
   xmlns:dc="http://purl.org/dc/elements/1.1/"
   xmlns:cc="http://web.resource.org/cc/"
   xmlns:rdf="http://www.w3.org/1999/02/22-rdf-syntax-ns#"
   xmlns:svg="http://www.w3.org/2000/svg"
   xmlns="http://www.w3.org/2000/svg"
   xmlns:sodipodi="http://sodipodi.sourceforge.net/DTD/sodipodi-0.dtd"
   xmlns:inkscape="http://www.inkscape.org/namespaces/inkscape"
   width="48"
   height="48"
   viewBox="0 0 48 48"
   xml:space="preserve"
   id="svg2"
   sodipodi:version="0.32"
   inkscape:version="0.45.1"
   sodipodi:docname="format-text-bold.svg"
   sodipodi:docbase="/home/qwerty/.icons/MonoBlack/scalable/actions"
   inkscape:output_extension="org.inkscape.output.svg.inkscape"
   version="1.0"><metadata
   id="metadata27"><rdf:RDF><cc:Work
       rdf:about=""><dc:format>image/svg+xml</dc:format><dc:type
         rdf:resource="http://purl.org/dc/dcmitype/StillImage" /></cc:Work></rdf:RDF></metadata><defs
   id="defs25" /><sodipodi:namedview
   inkscape:window-height="616"
   inkscape:window-width="772"
   inkscape:pageshadow="2"
   inkscape:pageopacity="0.0"
   guidetolerance="10.0"
   gridtolerance="10.0"
   objecttolerance="10.0"
   borderopacity="1.0"
   bordercolor="#666666"
   pagecolor="#ffffff"
   id="base"
   showgrid="true"
   inkscape:zoom="3.3916667"
   inkscape:cx="40.917737"
   inkscape:cy="40.394544"
   inkscape:window-x="436"
   inkscape:window-y="358"
   inkscape:current-layer="svg2"
   width="48px"
   height="48px" />
	<g
   id="Layer_x0020_4"
   style="fill-rule:nonzero;stroke:#000000;stroke-width:0.88014984;stroke-miterlimit:4;fill:#000000;fill-opacity:1"
   transform="matrix(1.1361702,0,0,1.1361702,-3.2680851,-3.2680851)">
		<g
   id="g5"
   style="stroke-width:0.88014984;fill:#000000;fill-opacity:1">
			<g
   id="g7"
   style="stroke-width:0.88014984;fill:#000000;fill-opacity:1">
				<g
   id="g9"
   style="stroke-width:0.88014984;fill:#000000;fill-opacity:1">
					<path
   style="stroke:none;fill:#000000;fill-opacity:1"
   d="M 18,30.9 L 15.2,38.1 L 6,38.1 L 18.1,9.9 L 29.7,9.9 L 42,38.1 L 32.4,38.1 L 29.4,30.9 L 18,30.9 L 18,30.9 z M 28,26.1 C 28,26.1 24.2,16.3 23.6,14.7 L 23.4,14.7 C 22.9,16.4 19.2,26.1 19.2,26.1 L 28,26.1 z "
   id="path11" />
				</g>
				<g
   id="g13"
   style="stroke-width:0.88014984;fill:#000000;fill-opacity:1">
					
				</g>
			</g>
			<g
   id="g17"
   style="stroke-width:0.88014984;fill:#000000;fill-opacity:1">
				<path
   style="stroke-width:3.17540455;stroke-linejoin:round;fill:#000000;fill-opacity:1"
   d="M 18,30.9 L 15.2,38.1 L 6,38.1 L 18.1,9.9 L 29.7,9.9 L 42,38.1 L 32.4,38.1 L 29.4,30.9 L 18,30.9 L 18,30.9 z M 28,26.1 C 28,26.1 24.2,16.3 23.6,14.7 L 23.4,14.7 C 22.9,16.4 19.2,26.1 19.2,26.1 L 28,26.1 z "
   id="path19" />
			</g>
		</g>
	</g>
	<g
   id="crop_x0020_marks"
   style="fill-rule:nonzero;stroke:#000000;stroke-width:0.88014984;stroke-miterlimit:4"
   transform="matrix(1.1361702,0,0,1.1361702,-3.2680851,-3.2680851)">
		<path
   style="fill:none;stroke:none"
   d="M 48,48 L 0,48 L 0,0 L 48,0 L 48,48 z "
   id="path22" />
	</g>
</svg>