<?xml version="1.0" encoding="UTF-8" standalone="no"?>
<!-- Generator: Adobe Illustrator 9.0, SVG Export Plug-In  -->
<svg
   xmlns:dc="http://purl.org/dc/elements/1.1/"
   xmlns:cc="http://web.resource.org/cc/"
   xmlns:rdf="http://www.w3.org/1999/02/22-rdf-syntax-ns#"
   xmlns:svg="http://www.w3.org/2000/svg"
   xmlns="http://www.w3.org/2000/svg"
   xmlns:sodipodi="http://sodipodi.sourceforge.net/DTD/sodipodi-0.dtd"
   xmlns:inkscape="http://www.inkscape.org/namespaces/inkscape"
   width="48"
   height="48"
   viewBox="0 0 48 48"
   xml:space="preserve"
   id="svg2"
   sodipodi:version="0.32"
   inkscape:version="0.45.1"
   sodipodi:docname="insert-object.svg"
   sodipodi:docbase="/home/qwerty/.icons/MonoBlack/scalable/actions"
   inkscape:output_extension="org.inkscape.output.svg.inkscape"
   version="1.0"><metadata
   id="metadata17"><rdf:RDF><cc:Work
       rdf:about=""><dc:format>image/svg+xml</dc:format><dc:type
         rdf:resource="http://purl.org/dc/dcmitype/StillImage" /></cc:Work></rdf:RDF></metadata><defs
   id="defs15" /><sodipodi:namedview
   inkscape:window-height="616"
   inkscape:window-width="772"
   inkscape:pageshadow="2"
   inkscape:pageopacity="0.0"
   guidetolerance="10.0"
   gridtolerance="10.0"
   objecttolerance="10.0"
   borderopacity="1.0"
   bordercolor="#666666"
   pagecolor="#ffffff"
   id="base"
   inkscape:zoom="6.7833333"
   inkscape:cx="30"
   inkscape:cy="30"
   inkscape:window-x="2"
   inkscape:window-y="52"
   inkscape:current-layer="svg2"
   width="48px"
   height="48px" />
	<g
   id="Layer_x0020_3"
   style="fill-rule:nonzero;stroke:#000000;stroke-width:0.81759757;stroke-miterlimit:4;fill:#000000;fill-opacity:1"
   transform="matrix(1.221044,0,0,1.2251508,-5.3161075,-5.4261336)">
		<g
   id="g5"
   style="stroke-width:0.81759757;fill:#000000;fill-opacity:1">
			
			<path
   style="stroke:none;fill:#000000;fill-opacity:1"
   d="M 39.6,17.9 C 38.3,17.9 37.1,19.1 36.4,20.8 C 35.4,21.3 33.9,20.9 33.5,19.8 L 33.5,12.6 L 33.3,12.6 L 14.7,12.6 L 14.5,12.6 L 14.5,19.9 C 14.1,21.1 12.7,21.5 11.7,21 C 11.1,19.1 9.8,17.9 8.4,17.9 C 6.3,17.9 4.6,20.7 4.6,24.1 C 4.6,27.5 6.3,30.3 8.4,30.3 C 9.7,30.3 10.9,29.1 11.6,27.4 C 12.6,26.9 14.1,27.3 14.5,28.4 L 14.5,35.6 L 14.7,35.6 L 33.4,35.6 L 33.6,35.6 L 33.6,28.3 C 34,27.1 35.4,26.7 36.4,27.2 C 37,29.1 38.3,30.3 39.7,30.3 C 41.8,30.3 43.5,27.5 43.5,24.1 C 43.5,20.7 41.8,17.9 39.7,17.9 L 39.6,17.9 z "
   id="path9" />
		</g>
	</g>
	
</svg>