<?xml version="1.0" encoding="UTF-8" standalone="no"?>
<!-- Generator: Adobe Illustrator 9.0, SVG Export Plug-In  -->
<svg
   xmlns:dc="http://purl.org/dc/elements/1.1/"
   xmlns:cc="http://web.resource.org/cc/"
   xmlns:rdf="http://www.w3.org/1999/02/22-rdf-syntax-ns#"
   xmlns:svg="http://www.w3.org/2000/svg"
   xmlns="http://www.w3.org/2000/svg"
   xmlns:sodipodi="http://sodipodi.sourceforge.net/DTD/sodipodi-0.dtd"
   xmlns:inkscape="http://www.inkscape.org/namespaces/inkscape"
   width="48"
   height="48"
   viewBox="0 0 48 48"
   xml:space="preserve"
   id="svg2"
   sodipodi:version="0.32"
   inkscape:version="0.45.1"
   sodipodi:docname="tool-check-spelling.svg"
   sodipodi:docbase="/home/qwerty/.icons/MonoBlack/scalable/actions"
   inkscape:output_extension="org.inkscape.output.svg.inkscape"
   version="1.0"><metadata
   id="metadata29"><rdf:RDF><cc:Work
       rdf:about=""><dc:format>image/svg+xml</dc:format><dc:type
         rdf:resource="http://purl.org/dc/dcmitype/StillImage" /></cc:Work></rdf:RDF></metadata><defs
   id="defs27" /><sodipodi:namedview
   inkscape:window-height="616"
   inkscape:window-width="772"
   inkscape:pageshadow="2"
   inkscape:pageopacity="0.0"
   guidetolerance="10.0"
   gridtolerance="10.0"
   objecttolerance="10.0"
   borderopacity="1.0"
   bordercolor="#666666"
   pagecolor="#ffffff"
   id="base"
   inkscape:zoom="4.796541"
   inkscape:cx="23.826994"
   inkscape:cy="40.474963"
   inkscape:window-x="1"
   inkscape:window-y="45"
   inkscape:current-layer="svg2"
   width="48px"
   height="48px" />
	<g
   id="Layer_x0020_3"
   style="fill-rule:nonzero;stroke:#ffffff;stroke-width:5.66828966;stroke-linejoin:round;stroke-miterlimit:4;fill:#000000;fill-opacity:1"
   transform="matrix(1.1797384,0,0,1.1797384,-4.3137237,-4.3137237)">
		<g
   id="g5"
   style="stroke-width:5.66828966;fill:#000000;fill-opacity:1">
			
			<path
   style="fill-rule:evenodd;stroke:none;fill:#000000;fill-opacity:1"
   d="M 21.8,30.2 C 19,27.4 15.3,23.7 15.3,23.7 L 9.4,29.6 L 21.8,42 L 43.3,20.5 L 37.4,14.6 C 37.4,14.6 25.9,26.1 21.7,30.3 L 21.8,30.2 z "
   id="path9" />
			<g
   id="g11"
   style="stroke-width:5.66828966;fill:#000000;fill-opacity:1">
				
				
			</g>
			<g
   style="stroke:none;fill:#000000;fill-opacity:1"
   id="g17">
				<path
   d="M 9.2,17.2 L 8.2,21 L 4.6,21 L 9.2,6.2 L 13.6,6.2 L 18.2,21.1 L 14.6,21.1 L 13.5,17.3 L 9.2,17.3 L 9.2,17.2 z M 12.9,14.7 L 12,11.6 C 11.8,10.7 11.5,9.6 11.3,8.7 L 11.2,8.7 C 11,9.6 10.8,10.7 10.5,11.6 L 9.6,14.8 L 12.9,14.8 L 12.9,14.7 z "
   id="path19"
   style="fill:#000000;fill-opacity:1" />
				<path
   d="M 20.2,6.4 C 21.1,6.2 22.8,6.1 24.5,6.1 C 26.5,6.1 27.8,6.3 28.9,6.9 C 29.9,7.4 30.7,8.5 30.7,9.8 C 30.7,11.1 29.9,12.3 28.3,13 L 28.3,13 C 30,13.4 31.3,14.7 31.3,16.7 C 31.3,18.1 30.7,19.1 29.8,19.9 C 28.7,20.8 26.9,21.2 24,21.2 C 22.3,21.2 21.1,21.1 20.4,21 L 20.4,6.4 L 20.2,6.4 z M 23.5,12.1 L 24.6,12.1 C 26.4,12.1 27.3,11.4 27.3,10.3 C 27.3,9.2 26.4,8.6 24.9,8.6 C 24.2,8.6 23.7,8.6 23.5,8.7 L 23.5,12.1 L 23.5,12.1 z M 23.5,18.7 C 23.8,18.8 24.2,18.8 24.8,18.8 C 26.3,18.8 27.7,18.2 27.7,16.6 C 27.7,15.1 26.4,14.5 24.7,14.5 L 23.6,14.5 L 23.6,18.7 L 23.5,18.7 z "
   id="path21"
   style="fill:#000000;fill-opacity:1" />
			</g>
		</g>
	</g>
	
</svg>