<?xml version="1.0" encoding="UTF-8" standalone="no"?>
<!-- Created with Inkscape (http://www.inkscape.org/) -->
<svg
   xmlns:dc="http://purl.org/dc/elements/1.1/"
   xmlns:cc="http://web.resource.org/cc/"
   xmlns:rdf="http://www.w3.org/1999/02/22-rdf-syntax-ns#"
   xmlns:svg="http://www.w3.org/2000/svg"
   xmlns="http://www.w3.org/2000/svg"
   xmlns:sodipodi="http://sodipodi.sourceforge.net/DTD/sodipodi-0.dtd"
   xmlns:inkscape="http://www.inkscape.org/namespaces/inkscape"
   width="48px"
   height="48px"
   id="svg1307"
   sodipodi:version="0.32"
   inkscape:version="0.45.1"
   sodipodi:docbase="/home/qwerty/.icons/MonoIce/scalable/actions"
   sodipodi:docname="gtk-fullscreen.svg"
   inkscape:output_extension="org.inkscape.output.svg.inkscape">
  <defs
     id="defs1309" />
  <sodipodi:namedview
     id="base"
     pagecolor="#ffffff"
     bordercolor="#666666"
     borderopacity="1.0"
     inkscape:pageopacity="0.0"
     inkscape:pageshadow="2"
     inkscape:zoom="11.240051"
     inkscape:cx="5.2317135"
     inkscape:cy="34.297183"
     inkscape:current-layer="layer1"
     showgrid="true"
     inkscape:grid-bbox="true"
     inkscape:document-units="px"
     inkscape:grid-points="true"
     inkscape:window-width="1268"
     inkscape:window-height="947"
     inkscape:window-x="6"
     inkscape:window-y="27" />
  <metadata
     id="metadata1312">
    <rdf:RDF>
      <cc:Work
         rdf:about="">
        <dc:format>image/svg+xml</dc:format>
        <dc:type
           rdf:resource="http://purl.org/dc/dcmitype/StillImage" />
      </cc:Work>
    </rdf:RDF>
  </metadata>
  <g
     id="layer1"
     inkscape:label="Layer 1"
     inkscape:groupmode="layer">
    <path
       style="opacity:1;color:#000000;fill:#000000;fill-opacity:1;fill-rule:nonzero;stroke:none;stroke-width:1;stroke-linecap:round;stroke-linejoin:round;marker:none;marker-start:none;marker-mid:none;marker-end:none;stroke-miterlimit:4;stroke-dasharray:none;stroke-dashoffset:0;stroke-opacity:1;visibility:visible;display:inline;overflow:visible;enable-background:accumulate"
       d="M 8 8 L 8 40 L 40 40 L 40 8 L 8 8 z M 19.15625 12 L 36 12 L 36 28.8125 L 30 22.8125 L 28.78125 24 L 23.96875 28.8125 L 22.78125 30 L 28.78125 36 L 11.96875 36 L 11.96875 19.1875 L 17.96875 25.1875 L 19.15625 24 L 23.96875 19.1875 L 25.1875 18 L 19.15625 12 z "
       id="rect2169" />
    <path
       style="fill:#000000;fill-opacity:1;fill-rule:evenodd;stroke:none;stroke-width:4;stroke-linecap:butt;stroke-linejoin:miter;stroke-miterlimit:4;stroke-dasharray:none;stroke-opacity:1"
       d="M 5.5625 0 C 2.4828592 0 2.6880382e-19 2.4828592 0 5.5625 L 0 42.4375 C 0 45.517141 2.4828592 48 5.5625 48 L 42.4375 48 C 45.517141 48 48 45.51714 48 42.4375 L 48 5.5625 C 48 2.4828592 45.51714 2.6880382e-19 42.4375 0 L 5.5625 0 z M 7.3125 4 L 40.6875 4 C 42.514549 4 44 5.4854531 44 7.3125 L 44 40.6875 C 44 42.514549 42.514547 44 40.6875 44 L 7.3125 44 C 5.4854534 44 4 42.514547 4 40.6875 L 4 7.3125 C 4 5.4854534 5.4854531 4 7.3125 4 z "
       id="rect1315" />
    <g
       inkscape:label="Layer 1"
       id="g2172"
       transform="matrix(1.2020897,0,0,1.2,-51.155443,46.792138)" />
  </g>
</svg>
