<?xml version="1.0" encoding="UTF-8" standalone="no"?>
<!-- Created with Inkscape (http://www.inkscape.org/) -->

<svg
   xmlns:dc="http://purl.org/dc/elements/1.1/"
   xmlns:cc="http://creativecommons.org/ns#"
   xmlns:rdf="http://www.w3.org/1999/02/22-rdf-syntax-ns#"
   xmlns:svg="http://www.w3.org/2000/svg"
   xmlns="http://www.w3.org/2000/svg"
   xmlns:sodipodi="http://sodipodi.sourceforge.net/DTD/sodipodi-0.dtd"
   xmlns:inkscape="http://www.inkscape.org/namespaces/inkscape"
   width="48"
   height="48"
   id="svg4216"
   version="1.1"
   inkscape:version="0.91 r13725"
   viewBox="0 0 48 48"
   sodipodi:docname="application-x-blender.svg">
  <defs
     id="defs4218" />
  <sodipodi:namedview
     id="base"
     pagecolor="#242424"
     bordercolor="#666666"
     borderopacity="1.0"
     inkscape:pageopacity="0"
     inkscape:pageshadow="2"
     inkscape:zoom="2.75"
     inkscape:cx="-32.698903"
     inkscape:cy="15.559512"
     inkscape:current-layer="layer1"
     showgrid="false"
     inkscape:document-units="px"
     inkscape:grid-bbox="true"
     showguides="false"
     inkscape:guide-bbox="true"
     objecttolerance="10000"
     guidetolerance="10000"
     inkscape:snap-path-clip="true"
     inkscape:snap-perpendicular="true"
     inkscape:snap-tangential="true"
     inkscape:window-width="1366"
     inkscape:window-height="704"
     inkscape:window-x="0"
     inkscape:window-y="27"
     inkscape:window-maximized="1">
    <inkscape:grid
       type="xygrid"
       id="grid4764" />
    <sodipodi:guide
       position="-2,64"
       orientation="0,1"
       id="guide4766" />
    <sodipodi:guide
       position="0,57"
       orientation="1,0"
       id="guide4768" />
    <sodipodi:guide
       position="64,51"
       orientation="1,0"
       id="guide4770" />
    <sodipodi:guide
       position="17,0"
       orientation="0,1"
       id="guide4772" />
    <sodipodi:guide
       position="10,38"
       orientation="1,0"
       id="guide4167" />
    <sodipodi:guide
       position="40,33"
       orientation="1,0"
       id="guide4169" />
    <sodipodi:guide
       position="31,45"
       orientation="0,1"
       id="guide4171" />
    <sodipodi:guide
       position="26,3"
       orientation="0,1"
       id="guide4173" />
    <sodipodi:guide
       position="31,35"
       orientation="1,0"
       id="guide4175" />
    <sodipodi:guide
       position="41,37"
       orientation="0,1"
       id="guide4177" />
    <sodipodi:guide
       position="15,41"
       orientation="1,0"
       id="guide4181" />
    <sodipodi:guide
       position="16,40"
       orientation="0,1"
       id="guide4183" />
    <sodipodi:guide
       position="35,32"
       orientation="1,0"
       id="guide4185" />
    <sodipodi:guide
       position="25,6"
       orientation="0,1"
       id="guide4187" />
    <sodipodi:guide
       position="25,30"
       orientation="0,1"
       id="guide4162" />
    <sodipodi:guide
       position="25,15"
       orientation="0,1"
       id="guide4164" />
  </sodipodi:namedview>
  <metadata
     id="metadata4221">
    <rdf:RDF>
      <cc:Work
         rdf:about="">
        <dc:format>image/svg+xml</dc:format>
        <dc:type
           rdf:resource="http://purl.org/dc/dcmitype/StillImage" />
        <dc:title />
        <dc:creator>
          <cc:Agent>
            <dc:title>Chris D</dc:title>
          </cc:Agent>
        </dc:creator>
        <dc:description>diazchris.deviantart.com</dc:description>
      </cc:Work>
    </rdf:RDF>
  </metadata>
  <g
     id="layer1"
     inkscape:label="Layer 1"
     inkscape:groupmode="layer"
     transform="translate(0,-16)">
    <path
       style="opacity:1;fill:#ffffff;fill-opacity:1;fill-rule:nonzero;stroke:#b6c1c9;stroke-width:0.5;stroke-linecap:butt;stroke-linejoin:miter;stroke-miterlimit:4;stroke-dasharray:none;stroke-dashoffset:5;stroke-opacity:1"
       d="m 10,19 21,0 9,8 0,34 -30,0 z"
       id="rect4179"
       inkscape:connector-curvature="0"
       sodipodi:nodetypes="cccccc" />
    <path
       style="fill:none;fill-rule:evenodd;stroke:#b6c1c9;stroke-width:0.5;stroke-linecap:butt;stroke-linejoin:miter;stroke-miterlimit:4;stroke-dasharray:none;stroke-opacity:1"
       d="m 31,19 0,8 9,0"
       id="path4190"
       inkscape:connector-curvature="0"
       sodipodi:nodetypes="ccc" />
    <path
       style="fill:#fbc342"
       d="m 26.586273,50.933711 c -0.619813,-0.06323 -0.626025,-0.06437 -1.050107,-0.192831 -0.234634,-0.07107 -0.51521,-0.15556 -0.6235,-0.187746 -0.140747,-0.04184 -0.36535,-0.14823 -0.787584,-0.373088 l -0.590685,-0.314568 -0.508346,-0.416545 -0.508343,-0.416549 -0.419445,-0.509971 -0.41944,-0.509971 -0.305393,-0.566863 -0.305394,-0.566862 -0.195798,-0.634439 -0.195793,-0.634444 -0.05241,-0.503177 c -0.02882,-0.276746 -0.05277,-0.522688 -0.0532,-0.546539 -4.25e-4,-0.02963 -0.449201,0.40393 -1.417346,1.369663 -1.062594,1.059955 -1.44692,1.430004 -1.538085,1.480964 -0.62275,0.348093 -1.420258,-0.0034 -1.584019,-0.698146 -0.04184,-0.17752 -0.04184,-0.321584 0,-0.499104 0.07646,-0.324364 -0.09065,-0.144777 3.213162,-3.453169 l 3.042187,-3.046409 -1.805409,0 c -1.528349,0 -1.824605,-0.005 -1.930484,-0.03257 -0.694933,-0.181006 -1.027481,-0.926605 -0.700915,-1.571499 0.06867,-0.135599 0.302248,-0.369177 0.437846,-0.437842 0.261729,-0.132537 -0.05167,-0.123927 4.511488,-0.123927 l 4.168353,0 -1.291318,-1.296228 c -1.235664,-1.240358 -1.294312,-1.302862 -1.360663,-1.45017 -0.09525,-0.211448 -0.127797,-0.434057 -0.09329,-0.637984 0.110135,-0.650821 0.74735,-1.052808 1.38107,-0.871244 0.274918,0.07877 0.165258,-0.02457 3.410568,3.213277 2.883102,2.876457 3.09759,3.095656 3.469586,3.545844 l 0.396507,0.479852 0.308782,0.581195 c 0.29215,0.549895 0.31541,0.60299 0.431915,0.985925 0.06772,0.2226 0.152839,0.498253 0.189148,0.612559 0.05581,0.175692 0.07637,0.311031 0.132996,0.875092 l 0.06698,0.667253 -0.06138,0.645383 -0.06138,0.645379 -0.194688,0.649884 -0.194688,0.64989 -0.311602,0.581607 -0.3116,0.581612 -0.418611,0.509972 -0.418616,0.50997 -0.507739,0.416842 -0.507739,0.416844 -0.593392,0.316396 -0.593398,0.316397 -0.623499,0.188141 -0.623504,0.18814 -0.672486,0.06634 c -0.369866,0.03648 -0.67998,0.06515 -0.689133,0.0637 -0.0091,-0.0013 -0.297222,-0.03125 -0.640149,-0.06624 z m 1.225129,-2.182971 c 0.33921,-0.03639 0.42898,-0.05525 0.787579,-0.165637 0.352642,-0.108549 0.455405,-0.151551 0.798519,-0.334138 0.34766,-0.185007 0.434917,-0.243421 0.744868,-0.498624 0.302834,-0.249339 0.389282,-0.335776 0.629094,-0.628992 0.246626,-0.301554 0.302498,-0.386413 0.494921,-0.751705 0.193765,-0.367842 0.229743,-0.454949 0.33723,-0.816503 0.109816,-0.369377 0.124251,-0.443424 0.165257,-0.847741 l 0.04493,-0.443016 -0.04475,-0.443011 c -0.04179,-0.413539 -0.05329,-0.471188 -0.173107,-0.866385 -0.115241,-0.380129 -0.150012,-0.463887 -0.340436,-0.820096 -0.185883,-0.347719 -0.247026,-0.439126 -0.494899,-0.739906 -0.242238,-0.29394 -0.332059,-0.383526 -0.626067,-0.624435 -0.29805,-0.24422 -0.395103,-0.30896 -0.73704,-0.491655 -0.364271,-0.194624 -0.427412,-0.2203 -0.842273,-0.342539 -0.420146,-0.123792 -0.474891,-0.134554 -0.866398,-0.170259 -0.397526,-0.03626 -0.438084,-0.03626 -0.831337,1.11e-4 -0.384492,0.03554 -0.444802,0.04745 -0.861904,0.169965 -0.41421,0.121665 -0.478581,0.147754 -0.842273,0.341341 -0.346677,0.18453 -0.435338,0.24382 -0.741045,0.495553 -0.297821,0.245241 -0.387038,0.334462 -0.626731,0.626757 -0.243157,0.296524 -0.307175,0.392624 -0.492636,0.739556 -0.192112,0.359369 -0.225662,0.440244 -0.339679,0.81886 -0.1173,0.389495 -0.129774,0.452288 -0.171216,0.861674 l -0.0447,0.441561 0.04395,0.444466 c 0.04159,0.420498 0.05104,0.467675 0.175509,0.874866 0.118342,0.387137 0.152887,0.47012 0.343659,0.825518 0.184463,0.343633 0.248391,0.439082 0.490638,0.73258 0.237779,0.288089 0.329016,0.378764 0.6235,0.619698 0.299573,0.245092 0.396779,0.309887 0.738753,0.492438 0.343872,0.183566 0.445095,0.226035 0.798519,0.335019 0.354343,0.109268 0.449666,0.12956 0.765701,0.163017 0.476013,0.05038 0.637169,0.05063 1.093867,0.0017 z M 26.92537,46.99542 c -0.277298,-0.03133 -0.667169,-0.157116 -0.943944,-0.304551 -0.984318,-0.52435 -1.558888,-1.603335 -1.44067,-2.70542 0.184785,-1.722603 1.866688,-2.84618 3.522234,-2.352982 1.65924,0.494299 2.458325,2.41191 1.637735,3.930174 -0.54338,1.005359 -1.623408,1.562927 -2.775355,1.432779 z"
       id="path4283"
       inkscape:connector-curvature="0" />
  </g>
</svg>
