<?xml version="1.0" encoding="UTF-8" standalone="no"?>
<!-- Created with Inkscape (http://www.inkscape.org/) -->

<svg
   xmlns:dc="http://purl.org/dc/elements/1.1/"
   xmlns:cc="http://creativecommons.org/ns#"
   xmlns:rdf="http://www.w3.org/1999/02/22-rdf-syntax-ns#"
   xmlns:svg="http://www.w3.org/2000/svg"
   xmlns="http://www.w3.org/2000/svg"
   xmlns:sodipodi="http://sodipodi.sourceforge.net/DTD/sodipodi-0.dtd"
   xmlns:inkscape="http://www.inkscape.org/namespaces/inkscape"
   width="48"
   height="48"
   id="svg4216"
   version="1.1"
   inkscape:version="0.91 r13725"
   viewBox="0 0 48 48"
   sodipodi:docname="binary.svg">
  <defs
     id="defs4218" />
  <sodipodi:namedview
     id="base"
     pagecolor="#242424"
     bordercolor="#666666"
     borderopacity="1.0"
     inkscape:pageopacity="0"
     inkscape:pageshadow="2"
     inkscape:zoom="11"
     inkscape:cx="11.047055"
     inkscape:cy="25.480192"
     inkscape:current-layer="layer1"
     showgrid="false"
     inkscape:document-units="px"
     inkscape:grid-bbox="true"
     showguides="false"
     inkscape:guide-bbox="true"
     objecttolerance="10000"
     guidetolerance="10000"
     inkscape:snap-path-clip="true"
     inkscape:snap-perpendicular="true"
     inkscape:snap-tangential="true"
     inkscape:window-width="1366"
     inkscape:window-height="704"
     inkscape:window-x="0"
     inkscape:window-y="27"
     inkscape:window-maximized="1">
    <inkscape:grid
       type="xygrid"
       id="grid4764" />
    <sodipodi:guide
       position="-2,64"
       orientation="0,1"
       id="guide4766" />
    <sodipodi:guide
       position="0,57"
       orientation="1,0"
       id="guide4768" />
    <sodipodi:guide
       position="64,51"
       orientation="1,0"
       id="guide4770" />
    <sodipodi:guide
       position="17,0"
       orientation="0,1"
       id="guide4772" />
    <sodipodi:guide
       position="10,38"
       orientation="1,0"
       id="guide4167" />
    <sodipodi:guide
       position="40,33"
       orientation="1,0"
       id="guide4169" />
    <sodipodi:guide
       position="31,45"
       orientation="0,1"
       id="guide4171" />
    <sodipodi:guide
       position="26,3"
       orientation="0,1"
       id="guide4173" />
    <sodipodi:guide
       position="31,35"
       orientation="1,0"
       id="guide4175" />
    <sodipodi:guide
       position="41,37"
       orientation="0,1"
       id="guide4177" />
    <sodipodi:guide
       position="15,41"
       orientation="1,0"
       id="guide4181" />
    <sodipodi:guide
       position="16,40"
       orientation="0,1"
       id="guide4183" />
    <sodipodi:guide
       position="35,32"
       orientation="1,0"
       id="guide4185" />
    <sodipodi:guide
       position="25,6"
       orientation="0,1"
       id="guide4187" />
  </sodipodi:namedview>
  <metadata
     id="metadata4221">
    <rdf:RDF>
      <cc:Work
         rdf:about="">
        <dc:format>image/svg+xml</dc:format>
        <dc:type
           rdf:resource="http://purl.org/dc/dcmitype/StillImage" />
        <dc:title></dc:title>
        <dc:creator>
          <cc:Agent>
            <dc:title>Chris D</dc:title>
          </cc:Agent>
        </dc:creator>
        <dc:description>diazchris.deviantart.com</dc:description>
      </cc:Work>
    </rdf:RDF>
  </metadata>
  <g
     id="layer1"
     inkscape:label="Layer 1"
     inkscape:groupmode="layer"
     transform="translate(0,-16)">
    <path
       style="opacity:1;fill:#ffffff;fill-opacity:1;fill-rule:nonzero;stroke:#b6c1c9;stroke-width:0.5;stroke-linecap:butt;stroke-linejoin:miter;stroke-miterlimit:4;stroke-dasharray:none;stroke-dashoffset:5;stroke-opacity:1"
       d="m 10,19 21,0 9,8 0,34 -30,0 z"
       id="rect4179"
       inkscape:connector-curvature="0"
       sodipodi:nodetypes="cccccc" />
    <path
       style="fill:none;fill-rule:evenodd;stroke:#b6c1c9;stroke-width:0.5;stroke-linecap:butt;stroke-linejoin:miter;stroke-miterlimit:4;stroke-dasharray:none;stroke-opacity:1"
       d="m 31,19 0,8 9,0"
       id="path4190"
       inkscape:connector-curvature="0"
       sodipodi:nodetypes="ccc" />
    <g
       id="g4209">
      <g
         id="text4152-6"
         style="font-style:normal;font-variant:normal;font-weight:normal;font-stretch:normal;font-size:53.71909714px;line-height:125%;font-family:'Open Sans';-inkscape-font-specification:'Open Sans';letter-spacing:0px;word-spacing:0px;fill:none;fill-opacity:1;stroke:#b6c1c9;stroke-width:1.06477801;stroke-linecap:butt;stroke-linejoin:miter;stroke-miterlimit:4;stroke-dasharray:none;stroke-opacity:1"
         transform="matrix(0.46958145,0,0,0.46958145,-9.6958557,23.227159)">
        <path
           style="fill:#e0e4e7;stroke:#b6c1c9;stroke-width:1.06477801;stroke-miterlimit:4;stroke-dasharray:none;stroke-opacity:1"
           sodipodi:nodetypes="csccccccccccsccccccccccsccccccccccscccccccccccscsssssc"
           inkscape:connector-curvature="0"
           id="path4157-0"
           d="m 71.70853,19.076638 c 0.751927,-0.08743 1.512598,-0.13115 2.282013,-0.13115 0.769414,0 1.530085,0.04372 2.282012,0.13115 l 0.681981,4.905015 c 1.171608,0.227327 2.316986,0.60329 3.436133,1.127891 l 3.304984,-3.462364 c 1.328988,0.786901 2.553056,1.739926 3.672204,2.859073 l -2.203323,4.091885 c 0.821875,0.874334 1.521342,1.836102 2.098403,2.885303 l 4.327954,-0.813131 c 0.647007,1.468881 1.110405,3.00771 1.390192,4.616485 l -3.882044,1.809872 c 0.06995,0.612034 0.10492,1.215325 0.10492,1.809872 0,0.594547 -0.03497,1.197838 -0.10492,1.809872 l 3.882044,1.836102 c -0.279787,1.591288 -0.743185,3.121373 -1.390192,4.590255 l -4.327954,-0.813131 c -0.577061,1.049201 -1.276528,2.019712 -2.098403,2.911533 l 2.203323,4.065654 c -1.119148,1.119148 -2.343216,2.080916 -3.672204,2.885303 l -3.304984,-3.462364 c -1.119147,0.507114 -2.264525,0.883078 -3.436133,1.127892 l -0.681981,4.878785 c -0.751927,0.10492 -1.512598,0.15738 -2.282012,0.15738 -0.769415,0 -1.530086,-0.05246 -2.282013,-0.15738 l -0.681981,-4.878785 c -1.171607,-0.244814 -2.316985,-0.620778 -3.436133,-1.127892 l -3.304984,3.462364 C 62.956444,55.38774 61.732376,54.425972 60.613228,53.306824 l 2.203323,-4.065654 c -0.821875,-0.874335 -1.521342,-1.844846 -2.098403,-2.911533 l -4.327954,0.813131 c -0.647007,-1.468882 -1.110405,-2.998967 -1.390192,-4.590255 l 3.882044,-1.836102 c -0.06995,-0.612034 -0.10492,-1.215325 -0.10492,-1.809872 0,-0.594547 0.03497,-1.197838 0.10492,-1.809872 l -3.882044,-1.809872 c 0.279787,-1.608775 0.743185,-3.147604 1.390192,-4.616485 l 4.327954,0.813131 c 0.577061,-1.049201 1.276528,-2.019712 2.098403,-2.911533 l -2.203323,-4.065655 c 1.119148,-1.119147 2.343216,-2.072172 3.672204,-2.859073 l 3.304984,3.436134 C 68.709564,24.5762 69.854942,24.20898 71.026549,23.981653 Z M 82.148081,30.77523 c -2.255782,-2.273269 -4.974961,-3.409904 -8.157538,-3.409904 -3.182577,0 -5.901757,1.136635 -8.157539,3.409904 -2.255783,2.255783 -3.383674,4.974962 -3.383674,8.157539 0,3.16509 1.127891,5.875526 3.383674,8.131308 2.255782,2.255783 4.974962,3.383674 8.157539,3.383674 3.182577,0 5.901756,-1.127891 8.157538,-3.383674 2.255783,-2.255782 3.383674,-4.966218 3.383674,-8.131308 0,-3.182577 -1.127891,-5.901756 -3.383674,-8.157539 z" />
      </g>
      <circle
         r="1.8783258"
         cy="41.503109"
         cx="25.048733"
         id="path4159-9"
         style="opacity:1;fill:#e0e4e7;fill-opacity:0.39215686;fill-rule:nonzero;stroke:#b6c1c9;stroke-width:0.5;stroke-linecap:butt;stroke-linejoin:miter;stroke-miterlimit:4;stroke-dasharray:none;stroke-dashoffset:0;stroke-opacity:1" />
    </g>
  </g>
</svg>
