<?xml version="1.0" encoding="UTF-8" standalone="no"?>
<!-- Created with Inkscape (http://www.inkscape.org/) -->

<svg
   xmlns:dc="http://purl.org/dc/elements/1.1/"
   xmlns:cc="http://creativecommons.org/ns#"
   xmlns:rdf="http://www.w3.org/1999/02/22-rdf-syntax-ns#"
   xmlns:svg="http://www.w3.org/2000/svg"
   xmlns="http://www.w3.org/2000/svg"
   xmlns:sodipodi="http://sodipodi.sourceforge.net/DTD/sodipodi-0.dtd"
   xmlns:inkscape="http://www.inkscape.org/namespaces/inkscape"
   width="48"
   height="48"
   id="svg4216"
   version="1.1"
   inkscape:version="0.91 r13725"
   viewBox="0 0 48 48"
   sodipodi:docname="image-x-xcf.svg">
  <defs
     id="defs4218" />
  <sodipodi:namedview
     id="base"
     pagecolor="#242424"
     bordercolor="#666666"
     borderopacity="1.0"
     inkscape:pageopacity="0"
     inkscape:pageshadow="2"
     inkscape:zoom="11"
     inkscape:cx="24.693287"
     inkscape:cy="21.491582"
     inkscape:current-layer="layer1"
     showgrid="false"
     inkscape:document-units="px"
     inkscape:grid-bbox="true"
     showguides="false"
     inkscape:guide-bbox="true"
     objecttolerance="10000"
     guidetolerance="10000"
     inkscape:snap-path-clip="true"
     inkscape:snap-perpendicular="true"
     inkscape:snap-tangential="true"
     inkscape:window-width="1366"
     inkscape:window-height="704"
     inkscape:window-x="0"
     inkscape:window-y="27"
     inkscape:window-maximized="1">
    <inkscape:grid
       type="xygrid"
       id="grid4764" />
    <sodipodi:guide
       position="-2,64"
       orientation="0,1"
       id="guide4766" />
    <sodipodi:guide
       position="0,57"
       orientation="1,0"
       id="guide4768" />
    <sodipodi:guide
       position="64,51"
       orientation="1,0"
       id="guide4770" />
    <sodipodi:guide
       position="17,0"
       orientation="0,1"
       id="guide4772" />
    <sodipodi:guide
       position="10,38"
       orientation="1,0"
       id="guide4167" />
    <sodipodi:guide
       position="40,33"
       orientation="1,0"
       id="guide4169" />
    <sodipodi:guide
       position="31,45"
       orientation="0,1"
       id="guide4171" />
    <sodipodi:guide
       position="26,3"
       orientation="0,1"
       id="guide4173" />
    <sodipodi:guide
       position="31,35"
       orientation="1,0"
       id="guide4175" />
    <sodipodi:guide
       position="41,37"
       orientation="0,1"
       id="guide4177" />
    <sodipodi:guide
       position="15,41"
       orientation="1,0"
       id="guide4181" />
    <sodipodi:guide
       position="16,40"
       orientation="0,1"
       id="guide4183" />
    <sodipodi:guide
       position="35,32"
       orientation="1,0"
       id="guide4185" />
    <sodipodi:guide
       position="25,6"
       orientation="0,1"
       id="guide4187" />
  </sodipodi:namedview>
  <metadata
     id="metadata4221">
    <rdf:RDF>
      <cc:Work
         rdf:about="">
        <dc:format>image/svg+xml</dc:format>
        <dc:type
           rdf:resource="http://purl.org/dc/dcmitype/StillImage" />
        <dc:title></dc:title>
        <dc:creator>
          <cc:Agent>
            <dc:title>Chris D</dc:title>
          </cc:Agent>
        </dc:creator>
        <dc:description>diazchris.deviantart.com</dc:description>
      </cc:Work>
    </rdf:RDF>
  </metadata>
  <g
     id="layer1"
     inkscape:label="Layer 1"
     inkscape:groupmode="layer"
     transform="translate(0,-16)">
    <path
       style="opacity:1;fill:#ffffff;fill-opacity:1;fill-rule:nonzero;stroke:#b6c1c9;stroke-width:0.5;stroke-linecap:butt;stroke-linejoin:miter;stroke-miterlimit:4;stroke-dasharray:none;stroke-dashoffset:5;stroke-opacity:1"
       d="m 10,19 21,0 9,8 0,34 -30,0 z"
       id="rect4179"
       inkscape:connector-curvature="0"
       sodipodi:nodetypes="cccccc" />
    <path
       style="fill:none;fill-rule:evenodd;stroke:#b6c1c9;stroke-width:0.5;stroke-linecap:butt;stroke-linejoin:miter;stroke-miterlimit:4;stroke-dasharray:none;stroke-opacity:1"
       d="m 31,19 0,8 9,0"
       id="path4190"
       inkscape:connector-curvature="0"
       sodipodi:nodetypes="ccc" />
    <path
       style="fill:#b6c1c9"
       d="m 34.332394,49.710876 c -0.330623,-0.156284 -0.850001,-0.386889 -1.154173,-0.512455 -0.429737,-0.177403 -0.602179,-0.276932 -0.773432,-0.446404 -0.229765,-0.227381 -0.380741,-0.559772 -0.380741,-0.838255 0,-0.148695 -0.0039,-0.150999 -0.697858,-0.405678 -0.383822,-0.140873 -0.710256,-0.276191 -0.725407,-0.300704 -0.01515,-0.02451 -0.0706,-0.03091 -0.123211,-0.01421 -0.05807,0.01843 -0.117906,0.0024 -0.152247,-0.04069 -0.03112,-0.03909 -0.186426,-0.118129 -0.345125,-0.175665 -0.158698,-0.05754 -0.566205,-0.244164 -0.905569,-0.414729 l -0.617025,-0.31012 -0.128378,0.09061 c -0.365115,0.257696 -1.227156,0.611597 -1.811547,0.743712 -0.570135,0.12889 -1.524062,0.184144 -2.193213,0.127032 -1.871861,-0.159759 -3.990844,-0.932013 -5.641644,-2.056073 -0.306975,-0.209025 -0.40949,-0.255104 -0.528648,-0.237615 -0.08131,0.01192 -0.310283,0.0036 -0.508849,-0.01838 C 16.541295,44.778683 15.411244,43.666319 15.075845,42.371977 15.034133,42.210991 15,41.896401 15,41.672889 c 0,-1.116432 0.652652,-1.790722 1.652684,-1.707477 0.646606,0.05382 1.25486,0.389297 1.844083,1.017073 0.200974,0.214123 0.349494,0.346033 0.330045,0.293134 -0.158258,-0.430464 -0.131247,-1.028384 0.0649,-1.43682 0.08569,-0.178435 0.09905,-0.349733 0.133573,-1.713111 l 0.03836,-1.514853 0.219713,0.336635 c 0.654984,1.003541 1.581724,1.733271 2.593585,2.042229 0.596938,0.182268 0.940578,0.226504 1.048788,0.135008 0.569027,-0.481144 1.683647,-0.566197 2.308235,-0.176134 0.08651,0.05402 0.169612,0.05039 0.53433,-0.02333 1.181357,-0.238794 2.17656,-0.634873 2.987795,-1.189105 0.967055,-0.660688 1.481431,-1.297147 1.987985,-2.459812 0.09929,-0.227897 0.141057,-0.27652 0.237528,-0.27652 0.17457,0 0.213422,0.152574 0.30001,1.178218 0.107555,1.273995 0.107942,3.352949 7.96e-4,4.231967 -0.253684,2.081032 -0.756347,3.530622 -1.619924,4.671562 -0.132017,0.17442 -0.233562,0.321771 -0.225653,0.327449 0.008,0.0057 0.252426,0.135847 0.543374,0.289265 0.290947,0.153422 0.589276,0.321378 0.662952,0.373235 0.07367,0.05186 0.163516,0.08293 0.199646,0.06908 0.03738,-0.01434 0.07558,0.01258 0.08863,0.06254 0.01303,0.04986 0.08633,0.101669 0.169733,0.119991 0.08073,0.01773 0.172787,0.06357 0.204568,0.101863 0.03178,0.03829 0.27214,0.210073 0.534133,0.381731 l 0.476347,0.312108 0.131146,-0.09696 c 0.174766,-0.129209 0.59916,-0.194828 0.900649,-0.139254 0.654869,0.120711 1.00206,0.670718 1.460413,2.313527 0.205872,0.737881 0.220508,0.810836 0.16117,0.803403 -0.01984,-0.0025 -0.306577,-0.132387 -0.6372,-0.288669 z"
       id="path4215"
       inkscape:connector-curvature="0" />
  </g>
</svg>
