<?xml version="1.0" encoding="UTF-8" standalone="no"?>
<!-- Created with Inkscape (http://www.inkscape.org/) -->

<svg
   xmlns:dc="http://purl.org/dc/elements/1.1/"
   xmlns:cc="http://creativecommons.org/ns#"
   xmlns:rdf="http://www.w3.org/1999/02/22-rdf-syntax-ns#"
   xmlns:svg="http://www.w3.org/2000/svg"
   xmlns="http://www.w3.org/2000/svg"
   xmlns:sodipodi="http://sodipodi.sourceforge.net/DTD/sodipodi-0.dtd"
   xmlns:inkscape="http://www.inkscape.org/namespaces/inkscape"
   width="48"
   height="48"
   id="svg4216"
   version="1.1"
   inkscape:version="0.91 r13725"
   viewBox="0 0 48 48"
   sodipodi:docname="x-office-address-book.svg">
  <defs
     id="defs4218" />
  <sodipodi:namedview
     id="base"
     pagecolor="#242424"
     bordercolor="#666666"
     borderopacity="1.0"
     inkscape:pageopacity="0"
     inkscape:pageshadow="2"
     inkscape:zoom="11"
     inkscape:cx="13.078589"
     inkscape:cy="19.957644"
     inkscape:current-layer="layer1"
     showgrid="false"
     inkscape:document-units="px"
     inkscape:grid-bbox="true"
     showguides="false"
     inkscape:guide-bbox="true"
     objecttolerance="10000"
     guidetolerance="10000"
     inkscape:snap-path-clip="true"
     inkscape:snap-perpendicular="true"
     inkscape:snap-tangential="true"
     inkscape:window-width="1366"
     inkscape:window-height="704"
     inkscape:window-x="0"
     inkscape:window-y="27"
     inkscape:window-maximized="1">
    <inkscape:grid
       type="xygrid"
       id="grid4764" />
    <sodipodi:guide
       position="-2,64"
       orientation="0,1"
       id="guide4766" />
    <sodipodi:guide
       position="0,57"
       orientation="1,0"
       id="guide4768" />
    <sodipodi:guide
       position="64,51"
       orientation="1,0"
       id="guide4770" />
    <sodipodi:guide
       position="17,0"
       orientation="0,1"
       id="guide4772" />
    <sodipodi:guide
       position="10,38"
       orientation="1,0"
       id="guide4167" />
    <sodipodi:guide
       position="40,33"
       orientation="1,0"
       id="guide4169" />
    <sodipodi:guide
       position="31,45"
       orientation="0,1"
       id="guide4171" />
    <sodipodi:guide
       position="26,3"
       orientation="0,1"
       id="guide4173" />
    <sodipodi:guide
       position="31,35"
       orientation="1,0"
       id="guide4175" />
    <sodipodi:guide
       position="41,37"
       orientation="0,1"
       id="guide4177" />
    <sodipodi:guide
       position="15,41"
       orientation="1,0"
       id="guide4181" />
    <sodipodi:guide
       position="16,40"
       orientation="0,1"
       id="guide4183" />
    <sodipodi:guide
       position="35,32"
       orientation="1,0"
       id="guide4185" />
    <sodipodi:guide
       position="25,6"
       orientation="0,1"
       id="guide4187" />
  </sodipodi:namedview>
  <metadata
     id="metadata4221">
    <rdf:RDF>
      <cc:Work
         rdf:about="">
        <dc:format>image/svg+xml</dc:format>
        <dc:type
           rdf:resource="http://purl.org/dc/dcmitype/StillImage" />
        <dc:title />
        <dc:creator>
          <cc:Agent>
            <dc:title>Chris D</dc:title>
          </cc:Agent>
        </dc:creator>
        <dc:description>diazchris.deviantart.com</dc:description>
      </cc:Work>
    </rdf:RDF>
  </metadata>
  <g
     id="layer1"
     inkscape:label="Layer 1"
     inkscape:groupmode="layer"
     transform="translate(0,-16)">
    <rect
       style="opacity:1;fill:#99cef3;fill-opacity:1;fill-rule:nonzero;stroke:#6caace;stroke-width:0.5;stroke-linecap:butt;stroke-linejoin:miter;stroke-miterlimit:4;stroke-dasharray:none;stroke-dashoffset:0;stroke-opacity:1"
       id="rect4160"
       width="3"
       height="6"
       x="39"
       y="23" />
    <rect
       style="opacity:1;fill:#84e4b6;fill-opacity:1;fill-rule:nonzero;stroke:#6acb9c;stroke-width:0.5;stroke-linecap:butt;stroke-linejoin:miter;stroke-miterlimit:4;stroke-dasharray:none;stroke-dashoffset:0;stroke-opacity:1"
       id="rect4162"
       width="3"
       height="6"
       x="39"
       y="32" />
    <rect
       style="opacity:1;fill:#e67760;fill-opacity:1;fill-rule:nonzero;stroke:#c4604a;stroke-width:0.5;stroke-linecap:butt;stroke-linejoin:miter;stroke-miterlimit:4;stroke-dasharray:none;stroke-dashoffset:0;stroke-opacity:1"
       id="rect4164"
       width="3"
       height="6"
       x="39"
       y="50" />
    <rect
       style="opacity:1;fill:#fbe865;fill-opacity:1;fill-rule:nonzero;stroke:#fbc342;stroke-width:0.5;stroke-linecap:butt;stroke-linejoin:miter;stroke-miterlimit:4;stroke-dasharray:none;stroke-dashoffset:0;stroke-opacity:1"
       id="rect4166"
       width="3"
       height="6"
       x="39"
       y="41" />
    <path
       style="opacity:1;fill:#f0c27e;fill-opacity:1;fill-rule:nonzero;stroke:#cda467;stroke-width:0.5;stroke-linecap:butt;stroke-linejoin:miter;stroke-miterlimit:4;stroke-dasharray:none;stroke-dashoffset:5;stroke-opacity:1"
       d="m 10,19 30,0 0,8 0,34 -30,0 z"
       id="rect4179"
       inkscape:connector-curvature="0"
       sodipodi:nodetypes="cccccc" />
    <rect
       style="opacity:1;fill:#cda467;fill-opacity:1;fill-rule:nonzero;stroke:none;stroke-width:2;stroke-linecap:butt;stroke-linejoin:miter;stroke-miterlimit:4;stroke-dasharray:none;stroke-dashoffset:0;stroke-opacity:1"
       id="rect4150"
       width="3"
       height="42"
       x="10"
       y="19" />
    <g
       style="font-style:normal;font-variant:normal;font-weight:bold;font-stretch:normal;font-size:5px;line-height:125%;font-family:'Open Sans';-inkscape-font-specification:'Open Sans, Bold';text-align:start;letter-spacing:0px;word-spacing:0px;writing-mode:lr-tb;text-anchor:start;fill:#cda467;fill-opacity:1;stroke:none;stroke-width:1px;stroke-linecap:butt;stroke-linejoin:miter;stroke-opacity:1"
       id="text4208"
       transform="matrix(3.9252521,0,0,3.9252521,-94.200787,-134.97322)">
      <path
         d="m 30.028809,44.684082 q 0,0.300293 0.126953,0.473633 0.129394,0.17334 0.349121,0.17334 0.217285,0 0.346679,-0.17334 0.129395,-0.175781 0.129395,-0.473633 0,-0.29541 -0.131836,-0.466309 Q 30.719727,44.044434 30.5,44.044434 q -0.214844,0 -0.344238,0.173339 -0.126953,0.170899 -0.126953,0.466309 z m 1.000976,0.734863 q -0.07324,0.17334 -0.236816,0.270996 -0.161133,0.09522 -0.378418,0.09522 -0.419922,0 -0.683594,-0.302734 -0.26123,-0.305176 -0.26123,-0.793457 0,-0.488281 0.263671,-0.793457 0.263672,-0.305176 0.681153,-0.305176 0.217285,0 0.378418,0.09766 0.163574,0.09766 0.236816,0.270996 l 0,-0.319824 0.510254,0 0,1.691895 q 0.302734,-0.04639 0.476074,-0.290528 0.17334,-0.246582 0.17334,-0.629882 0,-0.244141 -0.0708,-0.456543 -0.0708,-0.214844 -0.214843,-0.393067 -0.231934,-0.297851 -0.581055,-0.458984 -0.34668,-0.161133 -0.751953,-0.161133 -0.283203,0 -0.541992,0.07568 -0.258789,0.07324 -0.478516,0.217285 -0.361328,0.239258 -0.563965,0.620117 -0.200195,0.378418 -0.200195,0.820312 0,0.36377 0.129394,0.683594 0.131836,0.317383 0.378418,0.561524 0.244141,0.239257 0.559082,0.363769 0.317383,0.126953 0.67627,0.126953 0.307617,0 0.615234,-0.114746 0.307617,-0.114746 0.524903,-0.310058 l 0.26123,0.395507 q -0.305176,0.236817 -0.666504,0.361328 -0.358887,0.126954 -0.72998,0.126954 -0.45166,0 -0.852051,-0.161133 -0.400391,-0.158692 -0.712891,-0.463867 -0.3125,-0.305176 -0.476074,-0.705567 -0.163574,-0.402832 -0.163574,-0.864258 0,-0.444336 0.166015,-0.847168 0.166016,-0.402832 0.473633,-0.708007 0.307617,-0.302735 0.715332,-0.46875 0.410157,-0.166016 0.84961,-0.166016 0.546875,0 0.993652,0.209961 0.446777,0.207519 0.74707,0.600586 0.183106,0.239258 0.275879,0.520019 0.09521,0.278321 0.09521,0.585938 0,0.661621 -0.397949,1.027832 -0.397949,0.366211 -1.123047,0.366211 l -0.09521,0 0,-0.375977 z"
         id="path4213"
         inkscape:connector-curvature="0"
         style="fill:#cda467" />
    </g>
  </g>
</svg>
