<?xml version="1.0" encoding="UTF-8" standalone="no"?>
<!-- Generator: Adobe Illustrator 9.0, SVG Export Plug-In  -->
<svg
   xmlns:dc="http://purl.org/dc/elements/1.1/"
   xmlns:cc="http://web.resource.org/cc/"
   xmlns:rdf="http://www.w3.org/1999/02/22-rdf-syntax-ns#"
   xmlns:svg="http://www.w3.org/2000/svg"
   xmlns="http://www.w3.org/2000/svg"
   xmlns:sodipodi="http://sodipodi.sourceforge.net/DTD/sodipodi-0.dtd"
   xmlns:inkscape="http://www.inkscape.org/namespaces/inkscape"
   width="48"
   height="48"
   viewBox="0 0 48 48"
   xml:space="preserve"
   id="svg2"
   sodipodi:version="0.32"
   inkscape:version="0.45.1"
   sodipodi:docname="im-jabber.svg"
   sodipodi:docbase="/home/qwerty/.icons/MonoIce/scalable/apps"
   inkscape:output_extension="org.inkscape.output.svg.inkscape"
   version="1.0"><metadata
   id="metadata37"><rdf:RDF><cc:Work
       rdf:about=""><dc:format>image/svg+xml</dc:format><dc:type
         rdf:resource="http://purl.org/dc/dcmitype/StillImage" /></cc:Work></rdf:RDF></metadata><defs
   id="defs35" /><sodipodi:namedview
   inkscape:window-height="616"
   inkscape:window-width="772"
   inkscape:pageshadow="2"
   inkscape:pageopacity="0.0"
   guidetolerance="10.0"
   gridtolerance="10.0"
   objecttolerance="10.0"
   borderopacity="1.0"
   bordercolor="#666666"
   pagecolor="#ffffff"
   id="base"
   showgrid="true"
   inkscape:zoom="4.796541"
   inkscape:cx="28.444267"
   inkscape:cy="29.405028"
   inkscape:window-x="2"
   inkscape:window-y="67"
   inkscape:current-layer="svg2"
   width="48px"
   height="48px" />
	<g
   id="Layer_x0020_3"
   style="fill-rule:nonzero;stroke:#ffffff;stroke-width:4.76158285;stroke-miterlimit:4;fill:#000000;fill-opacity:1"
   transform="matrix(1.1789987,0,0,1.1789987,-4.29597,-4.29597)">
		<g
   id="g5"
   style="stroke-width:4.76158285;fill:#000000;fill-opacity:1">
			
			
			
			
			
			
			<path
   style="stroke:none;fill:#000000;fill-opacity:1"
   d="M 9.6,18.6 C 9.6,26.6 16.1,33 24,33 C 32,33 38.4,26.5 38.4,18.6 C 38.4,10.6 31.9,4.2 24,4.2 C 16,4.2 9.6,10.7 9.6,18.6 z M 12.9,18.6 C 12.9,12.4 17.9,7.4 24.1,7.4 C 30.3,7.4 35.3,12.4 35.3,18.6 C 35.3,24.8 30.3,29.8 24.1,29.8 C 17.9,29.8 12.9,24.8 12.9,18.6 L 12.9,18.6 z "
   id="path19" />
			<path
   style="stroke:none;fill:#000000;fill-opacity:1"
   d="M 28.2,37.9 L 20.6,38.7 C 19.7,38.8 19.1,39.6 19.2,40.5 C 19.3,41.4 20.1,42 21,41.9 L 28.6,41.1 C 29.5,41 30.1,40.2 30,39.3 C 29.9,38.4 29.1,37.8 28.2,37.9 z "
   id="path21" />
			<path
   style="stroke:none;fill:#000000;fill-opacity:1"
   d="M 28.2,34.7 L 20.6,35.5 C 19.7,35.6 19.1,36.4 19.2,37.3 C 19.3,38.2 20.1,38.8 21,38.7 L 28.6,37.9 C 29.5,37.8 30.1,37 30,36.1 C 29.9,35.2 29.1,34.6 28.2,34.7 z "
   id="path23" />
			<path
   style="stroke:none;fill:#000000;fill-opacity:1"
   d="M 28.2,31.6 L 20.6,32.4 C 19.7,32.5 19.1,33.3 19.2,34.2 C 19.3,35.1 20.1,35.7 21,35.6 L 28.6,34.8 C 29.5,34.7 30.1,33.9 30,33 C 29.9,32.1 29.1,31.5 28.2,31.6 z "
   id="path25" />
			<path
   style="stroke:none;fill:#000000;fill-opacity:1"
   d="M 23.1,41.3 L 23.1,42.2 C 23.1,43.1 23.8,43.8 24.7,43.8 C 25.6,43.8 26.3,43.1 26.3,42.2 L 26.3,41.3 L 23,41.3 L 23.1,41.3 z "
   id="path27" />
			<path
   style="fill:none;stroke:#000000;stroke-width:1.69635471;fill-opacity:1;stroke-miterlimit:4;stroke-dasharray:none"
   d="M 22.3,28.3 L 18.8,17.6 C 18.8,17.6 25.4,21.5 29.3,17.6"
   id="path29" />
		</g>
	</g>
	<g
   id="crop_x0020_marks"
   style="fill-rule:nonzero;stroke:#000000;stroke-width:0.84817731;stroke-miterlimit:4"
   transform="matrix(1.1789987,0,0,1.1789987,-4.29597,-4.29597)">
		<path
   style="fill:none;stroke:none"
   d="M 48,48 L 0,48 L 0,0 L 48,0 L 48,48 z "
   id="path32" />
	</g>
</svg>