<?xml version="1.0" encoding="UTF-8" standalone="no"?>
<!-- Generator: Adobe Illustrator 9.0, SVG Export Plug-In  -->
<svg
   xmlns:dc="http://purl.org/dc/elements/1.1/"
   xmlns:cc="http://web.resource.org/cc/"
   xmlns:rdf="http://www.w3.org/1999/02/22-rdf-syntax-ns#"
   xmlns:svg="http://www.w3.org/2000/svg"
   xmlns="http://www.w3.org/2000/svg"
   xmlns:sodipodi="http://sodipodi.sourceforge.net/DTD/sodipodi-0.dtd"
   xmlns:inkscape="http://www.inkscape.org/namespaces/inkscape"
   width="48"
   height="48"
   viewBox="0 0 48 48"
   xml:space="preserve"
   id="svg2"
   sodipodi:version="0.32"
   inkscape:version="0.45.1"
   sodipodi:docname="network-online.svg"
   sodipodi:docbase="/home/qwerty/.icons/MonoBlack/scalable/status"
   inkscape:output_extension="org.inkscape.output.svg.inkscape"
   version="1.0"><metadata
   id="metadata33"><rdf:RDF><cc:Work
       rdf:about=""><dc:format>image/svg+xml</dc:format><dc:type
         rdf:resource="http://purl.org/dc/dcmitype/StillImage" /></cc:Work></rdf:RDF></metadata><defs
   id="defs31" /><sodipodi:namedview
   inkscape:window-height="616"
   inkscape:window-width="772"
   inkscape:pageshadow="2"
   inkscape:pageopacity="0.0"
   guidetolerance="10.0"
   gridtolerance="10.0"
   objecttolerance="10.0"
   borderopacity="1.0"
   bordercolor="#666666"
   pagecolor="#ffffff"
   id="base"
   showgrid="true"
   inkscape:zoom="3.3916667"
   inkscape:cx="1.0183579"
   inkscape:cy="20.460459"
   inkscape:window-x="2"
   inkscape:window-y="67"
   inkscape:current-layer="svg2"
   width="48px"
   height="48px" />
	<g
   id="Layer_x0020_3"
   style="fill-rule:nonzero;stroke:#000000;stroke-width:0.85454547;stroke-miterlimit:4;fill:#000000;fill-opacity:1"
   transform="matrix(1.1702128,0,0,1.1702128,-4.0851064,-4.0851064)">
		<g
   style="stroke:none;fill:#000000;fill-opacity:1"
   id="g5">
			<g
   id="g7"
   style="fill:#000000;fill-opacity:1">
				<g
   id="g9"
   style="fill:#000000;fill-opacity:1">
					<path
   d="M 37.7,22 C 37.7,22 37.3,11.4 31.4,11.4 C 25.5,11.4 25.5,11.4 25.5,11.4 L 25.5,36.7 C 25.5,36.7 25.3,36.7 31.4,36.7 C 37.4,36.7 37.7,26.1 37.7,26.1 L 43.1,26.1 L 43.1,22.1 L 37.7,22.1 L 37.7,22 z "
   id="path11"
   style="fill:#000000;fill-opacity:1" />
					<path
   d="M 22.8,11.4 C 22.8,11.4 22.8,11.4 17.5,11.4 C 12.2,11.4 11.2,22 11.2,22 L 4.9,22 L 4.9,26 L 11.1,26 C 11.1,26 12.1,36.6 17.4,36.6 C 22.7,36.6 22.7,36.6 22.7,36.6 L 22.7,11.4 L 22.8,11.4 z "
   id="path13"
   style="fill:#000000;fill-opacity:1" />
				</g>
				<g
   style="fill:#000000;stroke:#ffffff;stroke-width:5.56027079;stroke-linejoin:round;fill-opacity:1"
   id="g15">
					
					
				</g>
			</g>
			<g
   id="g21"
   style="fill:#000000;fill-opacity:1">
				<path
   d="M 37.7,22 C 37.7,22 37.3,11.4 31.4,11.4 C 25.5,11.4 25.5,11.4 25.5,11.4 L 25.5,36.7 C 25.5,36.7 25.3,36.7 31.4,36.7 C 37.4,36.7 37.7,26.1 37.7,26.1 L 43.1,26.1 L 43.1,22.1 L 37.7,22.1 L 37.7,22 z "
   id="path23"
   style="fill:#000000;fill-opacity:1" />
				<path
   d="M 22.8,11.4 C 22.8,11.4 22.8,11.4 17.5,11.4 C 12.2,11.4 11.2,22 11.2,22 L 4.9,22 L 4.9,26 L 11.1,26 C 11.1,26 12.1,36.6 17.4,36.6 C 22.7,36.6 22.7,36.6 22.7,36.6 L 22.7,11.4 L 22.8,11.4 z "
   id="path25"
   style="fill:#000000;fill-opacity:1" />
			</g>
		</g>
	</g>
	<g
   id="crop_x0020_marks"
   style="fill-rule:nonzero;stroke:#000000;stroke-width:0.85454547;stroke-miterlimit:4"
   transform="matrix(1.1702128,0,0,1.1702128,-4.0851064,-4.0851064)">
		<path
   style="fill:none;stroke:none"
   d="M 48,48 L 0,48 L 0,0 L 48,0 L 48,48 z "
   id="path28" />
	</g>
</svg>