<?xml version="1.0" encoding="UTF-8" standalone="no"?>
<!-- Created with Inkscape (http://www.inkscape.org/) -->
<svg
   xmlns:dc="http://purl.org/dc/elements/1.1/"
   xmlns:cc="http://web.resource.org/cc/"
   xmlns:rdf="http://www.w3.org/1999/02/22-rdf-syntax-ns#"
   xmlns:svg="http://www.w3.org/2000/svg"
   xmlns="http://www.w3.org/2000/svg"
   xmlns:sodipodi="http://sodipodi.sourceforge.net/DTD/sodipodi-0.dtd"
   xmlns:inkscape="http://www.inkscape.org/namespaces/inkscape"
   id="svg2"
   sodipodi:version="0.32"
   inkscape:version="0.45.1"
   width="48"
   height="48"
   version="1.0"
   sodipodi:docbase="/home/qwerty/.icons/MonoIce/scalable/places"
   sodipodi:docname="gnome-fs-network.svg"
   inkscape:output_extension="org.inkscape.output.svg.inkscape">
  <metadata
     id="metadata7">
    <rdf:RDF>
      <cc:Work
         rdf:about="">
        <dc:format>image/svg+xml</dc:format>
        <dc:type
           rdf:resource="http://purl.org/dc/dcmitype/StillImage" />
      </cc:Work>
    </rdf:RDF>
  </metadata>
  <defs
     id="defs5" />
  <sodipodi:namedview
     inkscape:window-height="622"
     inkscape:window-width="776"
     inkscape:pageshadow="2"
     inkscape:pageopacity="0.48627451"
     guidetolerance="10000"
     gridtolerance="10.0"
     objecttolerance="10000"
     borderopacity="1.0"
     bordercolor="#666666"
     pagecolor="#aa2727"
     id="base"
     showgrid="true"
     inkscape:zoom="8.0000002"
     inkscape:cx="12.663992"
     inkscape:cy="27.976755"
     inkscape:window-x="1"
     inkscape:window-y="23"
     inkscape:current-layer="svg2" />
  <path
     style="opacity:1;color:#000000;fill:#000000;fill-opacity:1;fill-rule:nonzero;stroke:none;stroke-width:2;stroke-linecap:round;stroke-linejoin:round;marker:none;marker-start:none;marker-mid:none;marker-end:none;stroke-miterlimit:4;stroke-dasharray:none;stroke-dashoffset:0;stroke-opacity:1;visibility:visible;display:inline;overflow:visible;enable-background:accumulate"
     d="M 19.0625 16.8125 C 16.4864 16.8125 14.40625 18.8614 14.40625 21.4375 L 14.40625 43.34375 C 14.40625 45.91985 16.4864 48 19.0625 48 L 43.34375 48 C 45.91985 48 47.999998 45.919851 48 43.34375 L 48 21.4375 C 48 18.8614 45.91985 16.8125 43.34375 16.8125 L 19.0625 16.8125 z M 20.6875 20.40625 L 41.6875 20.40625 C 43.183299 20.40625 44.40625 21.59795 44.40625 23.09375 L 44.40625 41.6875 C 44.406248 43.183299 43.1833 44.40625 41.6875 44.40625 L 20.6875 44.40625 C 19.191699 44.406248 18 43.1833 18 41.6875 L 18 23.09375 C 18 21.597949 19.1917 20.40625 20.6875 20.40625 z "
     id="rect5081" />
  <path
     style="opacity:1;color:#000000;fill:#000000;fill-opacity:1;fill-rule:nonzero;stroke:none;stroke-width:2;stroke-linecap:round;stroke-linejoin:round;marker:none;marker-start:none;marker-mid:none;marker-end:none;stroke-miterlimit:4;stroke-dasharray:none;stroke-dashoffset:0;stroke-opacity:1;visibility:visible;display:inline;overflow:visible;enable-background:accumulate"
     d="M 4.65625 0 C 2.0801499 0 0 2.0801499 0 4.65625 L 0 26.5625 C 0 29.1386 2.0801499 31.1875 4.65625 31.1875 L 14.40625 31.1875 L 14.40625 27.59375 L 6.3125 27.59375 C 4.8166997 27.59375 3.59375 26.40205 3.59375 24.90625 L 3.59375 6.3125 C 3.59375 4.8166997 4.8167 3.59375 6.3125 3.59375 L 27.3125 3.59375 C 28.8083 3.59375 30 4.8167 30 6.3125 L 30 16.8125 L 33.59375 16.8125 L 33.59375 4.65625 C 33.59375 2.0801499 31.5136 2.7755576e-17 28.9375 0 L 4.65625 0 z "
     id="rect2161" />
  <path
     style="opacity:1;color:#000000;fill:#000000;fill-opacity:1;fill-rule:nonzero;stroke:none;stroke-width:2;stroke-linecap:round;stroke-linejoin:round;marker:none;marker-start:none;marker-mid:none;marker-end:none;stroke-miterlimit:4;stroke-dasharray:none;stroke-dashoffset:0;stroke-opacity:1;visibility:visible;display:inline;overflow:visible;enable-background:accumulate"
     d="M 7.1875 7.1875 L 7.1875 24 L 14.40625 24 L 14.40625 21.4375 C 14.40625 18.8614 16.4864 16.8125 19.0625 16.8125 L 26.40625 16.8125 L 26.40625 7.1875 L 7.1875 7.1875 z "
     id="rect5077" />
  <rect
     style="opacity:1;color:#000000;fill:#000000;fill-opacity:1;fill-rule:nonzero;stroke:none;stroke-width:2;stroke-linecap:round;stroke-linejoin:round;marker:none;marker-start:none;marker-mid:none;marker-end:none;stroke-miterlimit:4;stroke-dasharray:none;stroke-dashoffset:0;stroke-opacity:1;visibility:visible;display:inline;overflow:visible;enable-background:accumulate"
     id="rect5085"
     width="19.200001"
     height="16.799999"
     x="21.6"
     y="24" />
</svg>
