<?xml version="1.0" encoding="UTF-8" standalone="no"?>
<!-- Created with Inkscape (http://www.inkscape.org/) -->
<svg
   xmlns:dc="http://purl.org/dc/elements/1.1/"
   xmlns:cc="http://web.resource.org/cc/"
   xmlns:rdf="http://www.w3.org/1999/02/22-rdf-syntax-ns#"
   xmlns:svg="http://www.w3.org/2000/svg"
   xmlns="http://www.w3.org/2000/svg"
   xmlns:sodipodi="http://sodipodi.sourceforge.net/DTD/sodipodi-0.dtd"
   xmlns:inkscape="http://www.inkscape.org/namespaces/inkscape"
   width="48px"
   height="48px"
   id="svg3465"
   sodipodi:version="0.32"
   inkscape:version="0.45"
   sodipodi:docbase="/home/qwerty/.icons/qw3rtY_new/scalable/status"
   sodipodi:docname="security-low.svg"
   inkscape:output_extension="org.inkscape.output.svg.inkscape"
   sodipodi:modified="true">
  <defs
     id="defs3467" />
  <sodipodi:namedview
     id="base"
     pagecolor="#ffffff"
     bordercolor="#666666"
     borderopacity="1.0"
     inkscape:pageopacity="0.0"
     inkscape:pageshadow="2"
     inkscape:zoom="11.166395"
     inkscape:cx="14.661401"
     inkscape:cy="25.789911"
     inkscape:current-layer="layer1"
     showgrid="true"
     inkscape:grid-bbox="true"
     inkscape:document-units="px"
     inkscape:grid-points="true"
     inkscape:window-width="1278"
     inkscape:window-height="948"
     inkscape:window-x="0"
     inkscape:window-y="23" />
  <metadata
     id="metadata3470">
    <rdf:RDF>
      <cc:Work
         rdf:about="">
        <dc:format>image/svg+xml</dc:format>
        <dc:type
           rdf:resource="http://purl.org/dc/dcmitype/StillImage" />
      </cc:Work>
    </rdf:RDF>
  </metadata>
  <g
     id="layer1"
     inkscape:label="Layer 1"
     inkscape:groupmode="layer">
    <path
       style="opacity:1;color:#000000;fill:#000000;fill-opacity:1;fill-rule:nonzero;stroke:none;stroke-width:0.9999997;stroke-linecap:butt;stroke-linejoin:miter;marker:none;marker-start:none;marker-mid:none;marker-end:none;stroke-miterlimit:10;stroke-dasharray:none;stroke-dashoffset:0;stroke-opacity:1;visibility:visible;display:block;overflow:visible"
       d="M 12,25 L 10,25 C 8,25 7,26 7,28 L 7,45 C 7,45.980326 8,48 10,48 L 39.384016,48 C 41,47.990546 42,45.980324 42,45 L 42,28 C 42,26 41,24.990546 39,24.990546 L 37,25 L 12,25 z M 32,25 L 17,25 L 32,25 z "
       id="path2086"
       inkscape:r_cx="true"
       inkscape:r_cy="true"
       sodipodi:nodetypes="cccccccccccccc" />
    <path
       style="opacity:1;color:#000000;fill:#000000;fill-opacity:1;fill-rule:nonzero;stroke:none;stroke-width:0.9999997;stroke-linecap:butt;stroke-linejoin:miter;marker:none;marker-start:none;marker-mid:none;marker-end:none;stroke-miterlimit:10;stroke-dasharray:none;stroke-dashoffset:0;stroke-opacity:1;visibility:visible;display:block;overflow:visible"
       d="M 24.041277,-0.0184742 C 17.041277,-0.0184742 12.041277,4.1554304 12.041277,10.981525 L 12.041277,16.981525 L 37.041277,16.981525 L 37.041277,10.981525 C 37.041277,3.9815258 32.041277,-0.0184742 25.041277,-0.0184742 L 24.041277,-0.0184742 z M 24.041277,4.9815258 L 25.041277,4.9815258 C 32.041277,4.9815258 32.041277,10.981525 32.041277,12.981525 L 32.041277,16.981525 L 17.041277,16.981525 L 17.041277,12.981525 C 17.041277,10.981525 17.041277,4.9815258 24.041277,4.9815258 z "
       id="path2161"
       inkscape:r_cx="true"
       inkscape:r_cy="true"
       sodipodi:nodetypes="cccccsccsccccc" />
  </g>
</svg>
