<?xml version="1.0" encoding="UTF-8" standalone="no"?>
<!-- Generator: Adobe Illustrator 9.0, SVG Export Plug-In  -->
<svg
   xmlns:dc="http://purl.org/dc/elements/1.1/"
   xmlns:cc="http://web.resource.org/cc/"
   xmlns:rdf="http://www.w3.org/1999/02/22-rdf-syntax-ns#"
   xmlns:svg="http://www.w3.org/2000/svg"
   xmlns="http://www.w3.org/2000/svg"
   xmlns:sodipodi="http://sodipodi.sourceforge.net/DTD/sodipodi-0.dtd"
   xmlns:inkscape="http://www.inkscape.org/namespaces/inkscape"
   width="48"
   height="48"
   viewBox="0 0 48 48"
   xml:space="preserve"
   id="svg2"
   sodipodi:version="0.32"
   inkscape:version="0.45.1"
   sodipodi:docname="emblem-trash.svg"
   sodipodi:docbase="/home/qwerty/.icons/MonoIce/scalable/emblems"
   inkscape:output_extension="org.inkscape.output.svg.inkscape"
   version="1.0"><metadata
   id="metadata23"><rdf:RDF><cc:Work
       rdf:about=""><dc:format>image/svg+xml</dc:format><dc:type
         rdf:resource="http://purl.org/dc/dcmitype/StillImage" /></cc:Work></rdf:RDF></metadata><defs
   id="defs21" /><sodipodi:namedview
   inkscape:window-height="616"
   inkscape:window-width="922"
   inkscape:pageshadow="2"
   inkscape:pageopacity="0.58431373"
   borderopacity="1.0"
   bordercolor="#666666"
   pagecolor="#8b3838"
   id="base"
   inkscape:zoom="6.1833334"
   inkscape:cx="20.041487"
   inkscape:cy="29.883344"
   inkscape:window-x="356"
   inkscape:window-y="278"
   inkscape:current-layer="svg2"
   width="48px"
   height="48px" />
	<g
   id="Layer_x0020_3"
   style="fill:none;fill-rule:nonzero;stroke:#ffffff;stroke-width:6.48140001;stroke-linejoin:round;stroke-miterlimit:4">
		<g
   id="g5">
			
			
			<path
   style="fill:#000000;stroke:none"
   d="M 18.0625 5.5 C 12.180144 6.5253819 8 9.0285817 8 12 L 8 17.8125 C 8 18.944118 8.6119392 19.996776 9.6875 20.9375 L 9.6875 36.8125 C 9.6875002 40.212501 16.1 43 24 43 C 31.9 43 38.3125 40.2125 38.3125 36.8125 L 38.3125 20.9375 C 39.388061 19.996776 40 18.944118 40 17.8125 L 40 12 C 40 9.9194808 37.935368 8.088501 34.6875 6.8125 L 37 10.8125 C 37.436491 11.590582 37.535686 12.529837 37.25 13.375 C 36.964309 14.220166 36.3503 14.89633 35.53125 15.25 C 30.114419 17.66061 20.798612 19.159277 13.03125 14.125 C 12.127025 13.546627 11.5625 12.573378 11.5625 11.5 C 11.5625 10.426621 12.095775 9.4221233 13 8.84375 L 18.0625 5.5 z "
   id="path11" />
			
			
		</g>
	</g>
	<g
   id="crop_x0020_marks"
   style="fill-rule:nonzero;stroke:#000000;stroke-miterlimit:4">
		<path
   style="fill:none;stroke:none"
   d="M 48,48 L 0,48 L 0,0 L 48,0 L 48,48 z "
   id="path18" />
	</g>
<path
   style="fill:#000000;fill-opacity:1;fill-rule:nonzero;stroke:none;stroke-width:3.15283442;stroke-linecap:round;stroke-linejoin:round;stroke-miterlimit:4;stroke-dashoffset:0;stroke-opacity:1"
   d="M 28.5,2.34375 L 34.25,12.375 C 34.239584,12.374897 34.229166,12.374897 34.21875,12.375 C 29.611655,14.42526 21.246792,15.731035 14.71875,11.5 C 14.716995,11.498877 14.71875,11.470832 14.71875,11.46875 C 14.729166,11.468853 14.739584,11.468853 14.75,11.46875 L 28.5,2.34375 z "
   id="rect4045"
   sodipodi:nodetypes="cccsscc" /></svg>