<?xml version="1.0" encoding="UTF-8" standalone="no"?>
<!-- Created with Inkscape (http://www.inkscape.org/) -->
<svg
   xmlns:dc="http://purl.org/dc/elements/1.1/"
   xmlns:cc="http://web.resource.org/cc/"
   xmlns:rdf="http://www.w3.org/1999/02/22-rdf-syntax-ns#"
   xmlns:svg="http://www.w3.org/2000/svg"
   xmlns="http://www.w3.org/2000/svg"
   xmlns:xlink="http://www.w3.org/1999/xlink"
   xmlns:sodipodi="http://sodipodi.sourceforge.net/DTD/sodipodi-0.dtd"
   xmlns:inkscape="http://www.inkscape.org/namespaces/inkscape"
   width="48px"
   height="48px"
   id="svg1306"
   sodipodi:version="0.32"
   inkscape:version="0.45.1"
   sodipodi:docbase="/home/qwerty/.icons/MonoIce/scalable/status"
   sodipodi:docname="weather-severe-alert.svg"
   inkscape:output_extension="org.inkscape.output.svg.inkscape">
  <defs
     id="defs1308">
    <linearGradient
       id="linearGradient2851">
      <stop
         id="stop2853"
         offset="0"
         style="stop-color:#babdb6;stop-opacity:1" />
      <stop
         style="stop-color:#babdb6;stop-opacity:1;"
         offset="0.26506025"
         id="stop2855" />
      <stop
         id="stop2857"
         offset="1"
         style="stop-color:#555753;stop-opacity:1" />
    </linearGradient>
    <linearGradient
       id="linearGradient6525"
       gradientUnits="userSpaceOnUse"
       x1="4.1914001"
       y1="11.1133"
       x2="47.319698"
       y2="56.052299">
      <stop
         offset="0"
         style="stop-color:#ffffff;stop-opacity:1;"
         id="stop6529" />
      <stop
         offset="1"
         style="stop-color:#ffffff;stop-opacity:0.34020618;"
         id="stop6531" />
    </linearGradient>
    <linearGradient
       id="linearGradient5048">
      <stop
         id="stop5050"
         offset="0"
         style="stop-color:black;stop-opacity:0;" />
      <stop
         style="stop-color:black;stop-opacity:1;"
         offset="0.5"
         id="stop5056" />
      <stop
         id="stop5052"
         offset="1"
         style="stop-color:black;stop-opacity:0;" />
    </linearGradient>
    <linearGradient
       id="linearGradient5060"
       inkscape:collect="always">
      <stop
         id="stop5062"
         offset="0"
         style="stop-color:black;stop-opacity:1;" />
      <stop
         id="stop5064"
         offset="1"
         style="stop-color:black;stop-opacity:0;" />
    </linearGradient>
    <linearGradient
       inkscape:collect="always"
       xlink:href="#linearGradient5048"
       id="linearGradient2161"
       gradientUnits="userSpaceOnUse"
       gradientTransform="matrix(2.774389,0,0,1.969706,-1892.179,-872.8854)"
       x1="302.85715"
       y1="366.64789"
       x2="302.85715"
       y2="609.50507" />
    <radialGradient
       inkscape:collect="always"
       xlink:href="#linearGradient5060"
       id="radialGradient2163"
       gradientUnits="userSpaceOnUse"
       gradientTransform="matrix(2.774389,0,0,1.969706,-1891.633,-872.8854)"
       cx="605.71429"
       cy="486.64789"
       fx="605.71429"
       fy="486.64789"
       r="117.14286" />
    <radialGradient
       inkscape:collect="always"
       xlink:href="#linearGradient5060"
       id="radialGradient2165"
       gradientUnits="userSpaceOnUse"
       gradientTransform="matrix(-2.774389,0,0,1.969706,112.7623,-872.8854)"
       cx="605.71429"
       cy="486.64789"
       fx="605.71429"
       fy="486.64789"
       r="117.14286" />
    <linearGradient
       inkscape:collect="always"
       xlink:href="#linearGradient5048"
       id="linearGradient2167"
       gradientUnits="userSpaceOnUse"
       gradientTransform="matrix(2.774389,0,0,1.969706,-1892.179,-872.8854)"
       x1="302.85715"
       y1="366.64789"
       x2="302.85715"
       y2="609.50507" />
    <radialGradient
       inkscape:collect="always"
       xlink:href="#linearGradient5060"
       id="radialGradient2169"
       gradientUnits="userSpaceOnUse"
       gradientTransform="matrix(2.774389,0,0,1.969706,-1891.633,-872.8854)"
       cx="605.71429"
       cy="486.64789"
       fx="605.71429"
       fy="486.64789"
       r="117.14286" />
    <radialGradient
       inkscape:collect="always"
       xlink:href="#linearGradient5060"
       id="radialGradient2171"
       gradientUnits="userSpaceOnUse"
       gradientTransform="matrix(-2.774389,0,0,1.969706,112.7623,-872.8854)"
       cx="605.71429"
       cy="486.64789"
       fx="605.71429"
       fy="486.64789"
       r="117.14286" />
  </defs>
  <sodipodi:namedview
     id="base"
     pagecolor="#ffffff"
     bordercolor="#666"
     borderopacity="1"
     inkscape:pageopacity="0.0"
     inkscape:pageshadow="2"
     inkscape:zoom="1.4142136"
     inkscape:cx="-30.220283"
     inkscape:cy="66.837195"
     inkscape:current-layer="layer1"
     showgrid="false"
     inkscape:grid-bbox="true"
     inkscape:document-units="px"
     inkscape:window-width="810"
     inkscape:window-height="828"
     inkscape:window-x="468"
     inkscape:window-y="146"
     inkscape:showpageshadow="false"
     showborder="true"
     showguides="true"
     inkscape:guide-bbox="true" />
  <metadata
     id="metadata1311">
    <rdf:RDF>
      <cc:Work
         rdf:about="">
        <dc:format>image/svg+xml</dc:format>
        <dc:type
           rdf:resource="http://purl.org/dc/dcmitype/StillImage" />
        <cc:license
           rdf:resource="http://creativecommons.org/licenses/GPL/2.0/" />
        <dc:title>Weather - Severe Alert</dc:title>
        <dc:creator>
          <cc:Agent>
            <dc:title>Lapo Calamandrei</dc:title>
          </cc:Agent>
        </dc:creator>
        <dc:contributor>
          <cc:Agent>
            <dc:title>Jakub Steiner</dc:title>
          </cc:Agent>
        </dc:contributor>
      </cc:Work>
      <cc:License
         rdf:about="http://creativecommons.org/licenses/GPL/2.0/">
        <cc:permits
           rdf:resource="http://web.resource.org/cc/Reproduction" />
        <cc:permits
           rdf:resource="http://web.resource.org/cc/Distribution" />
        <cc:requires
           rdf:resource="http://web.resource.org/cc/Notice" />
        <cc:permits
           rdf:resource="http://web.resource.org/cc/DerivativeWorks" />
        <cc:requires
           rdf:resource="http://web.resource.org/cc/ShareAlike" />
        <cc:requires
           rdf:resource="http://web.resource.org/cc/SourceCode" />
      </cc:License>
    </rdf:RDF>
  </metadata>
  <g
     id="layer1"
     inkscape:label="Layer 1"
     inkscape:groupmode="layer">
    <path
       style="fill:#000000;fill-opacity:1;fill-rule:nonzero;stroke:none;stroke-width:1.00000095;stroke-miterlimit:4;stroke-dasharray:none;stroke-opacity:1"
       d="M 33.90625 25.0625 C 33.273163 25.062501 32.750513 25.459417 32.46875 26 L 32.4375 26.03125 L 25.28125 40.5625 L 25.28125 40.59375 C 25.038215 41.111406 25.035937 41.717532 25.34375 42.25 C 25.63155 42.747851 26.157255 43.03125 26.71875 43.03125 L 41.125 43.03125 C 41.706675 43.031251 42.234729 42.739557 42.5 42.21875 C 42.505676 42.209061 42.494543 42.197258 42.5 42.1875 C 42.784715 41.67845 42.805217 41.078333 42.59375 40.5625 L 42.59375 40.53125 L 42.5625 40.53125 L 35.34375 25.96875 C 35.058607 25.413372 34.503541 25.0625 33.90625 25.0625 z M 33.90625 29.53125 C 33.964957 29.53125 34.008692 29.559709 34.0625 29.65625 L 39.1875 39.9375 C 39.295115 40.130583 39.211889 40.281252 39.03125 40.28125 L 28.84375 40.28125 C 28.663112 40.28125 28.5471 40.130581 28.65625 39.9375 L 33.75 29.65625 C 33.786512 29.559709 33.847543 29.53125 33.90625 29.53125 z "
       id="path6485" />
    <path
       style="fill:#000000;fill-opacity:1;stroke:none;stroke-width:2;stroke-linecap:round;stroke-linejoin:miter;stroke-miterlimit:4;stroke-dasharray:none;stroke-dashoffset:1.20000057;stroke-opacity:1"
       d="M 26.84375 9.125 C 25.111082 9.125 23.700461 10.46591 23.53125 12.15625 C 20.746898 12.558799 18.35438 14.073203 16.8125 16.28125 C 16.233486 16.040933 15.686199 15.71875 15.03125 15.71875 C 14.886786 15.71875 14.787516 15.766309 14.65625 15.78125 C 14.232632 14.707852 13.403387 13.84375 12.1875 13.84375 C 10.603826 13.84375 9.28125 15.13497 9.28125 16.71875 C 9.2812501 17.703803 9.8897985 18.473376 10.65625 19 C 10.562665 19.265545 10.451974 19.526808 10.40625 19.8125 C 10.043633 19.719702 9.7384614 19.5 9.34375 19.5 C 7.8396142 19.5 6.6241125 20.314634 5.75 21.40625 C 5.2575045 21.12807 4.7238487 20.90625 4.125 20.90625 C 2.2803097 20.90625 0.78125 22.437154 0.78125 24.28125 C 0.78124993 26.125346 2.2803101 27.625 4.125 27.625 C 4.7275907 27.625001 5.2866392 27.43768 5.78125 27.15625 C 6.6558899 28.227929 7.8556967 29.031249 9.34375 29.03125 C 9.9915113 29.03125 10.505567 28.70366 11.0625 28.46875 C 12.042821 30.190527 13.842721 31.40625 15.96875 31.40625 C 17.295777 31.40625 18.443431 30.849144 19.40625 30.09375 C 21.003657 31.177215 22.865631 31.875 24.9375 31.875 C 26.656849 31.875001 28.23585 31.393796 29.625 30.59375 C 29.63738 30.58662 29.643901 30.569681 29.65625 30.5625 L 32 25.8125 L 32.03125 25.78125 C 32.034879 25.774287 32.02755 25.756931 32.03125 25.75 L 32.09375 25.6875 L 32.125 25.65625 C 32.495025 25.045739 33.121142 24.562501 33.90625 24.5625 C 34.699354 24.5625 35.41477 25.0362 35.78125 25.75 L 37.625 29.46875 C 38.213543 29.203968 38.761133 28.877775 39.25 28.46875 C 39.807289 28.737601 40.366278 29.03125 41.03125 29.03125 C 41.978116 29.03125 42.791621 28.676186 43.5 28.15625 C 43.881837 28.40655 44.328408 28.5625 44.8125 28.5625 C 46.135161 28.562502 47.218753 27.479715 47.21875 26.15625 C 47.218749 24.968975 46.292678 24.099575 45.15625 23.90625 C 44.750764 21.952921 43.101051 20.4375 41.03125 20.4375 C 40.825189 20.437501 40.63477 20.502978 40.4375 20.53125 C 39.75964 19.488454 38.816798 18.702574 37.65625 18.21875 C 37.689144 18.027848 37.78125 17.861781 37.78125 17.65625 C 37.78125 15.551833 36.043202 13.84375 33.9375 13.84375 C 33.056127 13.84375 32.282069 14.212407 31.625 14.71875 C 31.092817 14.233697 30.529674 13.798221 29.90625 13.4375 C 30.005963 13.113117 30.1875 12.818041 30.1875 12.46875 C 30.1875 10.624652 28.688438 9.125 26.84375 9.125 z "
       id="path2077" />
    <g
       id="g2146"
       transform="translate(8,2)">
      <g
         style="display:inline"
         transform="matrix(1.071946e-2,0,0,9.024553e-3,35.41685,39.41802)"
         id="g6707" />
      <g
         id="g3952"
         transform="matrix(1.071946e-2,0,0,9.024553e-3,35.41685,39.41802)"
         style="display:inline" />
      <g
         style="fill:#121312;fill-opacity:1;fill-rule:nonzero;stroke:black;stroke-width:2.45324564;stroke-miterlimit:4"
         transform="matrix(0.339351,0,0,0.370268,17.78706,23.64564)"
         id="g6498"
         inkscape:r_cx="true"
         inkscape:r_cy="true">
        <path
           style="fill:#000000;fill-opacity:1;stroke:none"
           d="M 22.810356,35.833787 C 21.482134,35.130969 21.104052,33.568631 21.940765,32.24041 C 22.841841,30.810018 24.340642,30.377046 25.771035,31.133927 C 27.201427,31.890808 27.43953,33.242849 26.640625,34.727304 C 25.803912,36.055525 24.240748,36.590668 22.810356,35.833787 L 22.810356,35.833787 z M 23.428093,28.231254 L 21.248844,19.696786 L 27.332546,19.816143 L 25.023066,28.08366 L 23.428093,28.231254 z "
           id="path6500"
           inkscape:r_cx="true"
           inkscape:r_cy="true"
           sodipodi:nodetypes="csscccccccc" />
      </g>
    </g>
  </g>
</svg>
