<?xml version="1.0" encoding="UTF-8" standalone="no"?>
<!-- Created with Inkscape (http://www.inkscape.org/) -->
<svg
   xmlns:dc="http://purl.org/dc/elements/1.1/"
   xmlns:cc="http://web.resource.org/cc/"
   xmlns:rdf="http://www.w3.org/1999/02/22-rdf-syntax-ns#"
   xmlns:svg="http://www.w3.org/2000/svg"
   xmlns="http://www.w3.org/2000/svg"
   xmlns:sodipodi="http://sodipodi.sourceforge.net/DTD/sodipodi-0.dtd"
   xmlns:inkscape="http://www.inkscape.org/namespaces/inkscape"
   id="svg2"
   sodipodi:version="0.32"
   inkscape:version="0.45"
   width="48"
   height="48"
   version="1.0"
   sodipodi:docbase="/home/qwerty/Desktop/todo/mod-icon/gnome1/scalable/status"
   sodipodi:docname="weather-snow.svg"
   inkscape:output_extension="org.inkscape.output.svg.inkscape"
   inkscape:export-filename="/home/qwerty/Desktop/todo/mod-icon/gnome1/scalable/status/weather-snow.png"
   inkscape:export-xdpi="90"
   inkscape:export-ydpi="90"
   sodipodi:modified="true">
  <metadata
     id="metadata7">
    <rdf:RDF>
      <cc:Work
         rdf:about="">
        <dc:format>image/svg+xml</dc:format>
        <dc:type
           rdf:resource="http://purl.org/dc/dcmitype/StillImage" />
      </cc:Work>
    </rdf:RDF>
  </metadata>
  <defs
     id="defs5" />
  <sodipodi:namedview
     inkscape:window-height="622"
     inkscape:window-width="776"
     inkscape:pageshadow="2"
     inkscape:pageopacity="0.0"
     guidetolerance="10000"
     gridtolerance="10000"
     objecttolerance="10000"
     borderopacity="1.0"
     bordercolor="#666666"
     pagecolor="#ffffff"
     id="base"
     showgrid="true"
     width="48px"
     height="48px"
     showguides="true"
     inkscape:guide-bbox="true"
     inkscape:grid-bbox="false"
     inkscape:zoom="8"
     inkscape:cx="17.671408"
     inkscape:cy="27.684085"
     inkscape:window-x="0"
     inkscape:window-y="23"
     inkscape:current-layer="svg2" />
  <g
     id="g2206"
     style="fill:#000000;fill-opacity:1"
     transform="matrix(0.8203125,0,0,0.8203125,4.3125009,4.375)">
    <path
       style="opacity:1;color:#000000;fill:#000000;fill-opacity:1;fill-rule:nonzero;stroke:none;stroke-width:3;stroke-linecap:round;stroke-linejoin:round;marker:none;marker-start:none;marker-mid:none;marker-end:none;stroke-miterlimit:4;stroke-dasharray:none;stroke-dashoffset:0;stroke-opacity:1;visibility:visible;display:inline;overflow:visible;enable-background:accumulate"
       d="M 22,0 L 22,7.21875 L 16.21875,3.875 L 14.6875,6.5 L 22,10.71875 L 22,37.28125 L 14.6875,41.5 L 16.21875,44.125 L 22,40.78125 L 22,48 L 26,48 L 26,40.78125 L 31.78125,44.125 L 33.3125,41.5 L 26,37.28125 L 26,10.71875 L 33.3125,6.5 L 31.78125,3.875 L 26,7.21875 L 26,0 L 22,0 z "
       id="rect2161" />
  </g>
  <g
     id="g3214"
     transform="matrix(0.4101562,0.7104114,-0.7104114,0.4101562,31.206125,-2.831125)"
     style="fill:#000000;fill-opacity:1">
    <path
       style="opacity:1;color:#000000;fill:#000000;fill-opacity:1;fill-rule:nonzero;stroke:none;stroke-width:3;stroke-linecap:round;stroke-linejoin:round;marker:none;marker-start:none;marker-mid:none;marker-end:none;stroke-miterlimit:4;stroke-dasharray:none;stroke-dashoffset:0;stroke-opacity:1;visibility:visible;display:inline;overflow:visible;enable-background:accumulate"
       d="M 22,0 L 22,7.21875 L 16.21875,3.875 L 14.6875,6.5 L 22,10.71875 L 22,37.28125 L 14.6875,41.5 L 16.21875,44.125 L 22,40.78125 L 22,48 L 26,48 L 26,40.78125 L 31.78125,44.125 L 33.3125,41.5 L 26,37.28125 L 26,10.71875 L 33.3125,6.5 L 31.78125,3.875 L 26,7.21875 L 26,0 L 22,0 z "
       id="path3216" />
  </g>
  <g
     id="g3218"
     transform="matrix(0.4101562,-0.7104114,0.7104114,0.4101562,-2.893624,31.268624)"
     style="fill:#000000;fill-opacity:1">
    <path
       style="opacity:1;color:#000000;fill:#000000;fill-opacity:1;fill-rule:nonzero;stroke:none;stroke-width:3;stroke-linecap:round;stroke-linejoin:round;marker:none;marker-start:none;marker-mid:none;marker-end:none;stroke-miterlimit:4;stroke-dasharray:none;stroke-dashoffset:0;stroke-opacity:1;visibility:visible;display:inline;overflow:visible;enable-background:accumulate"
       d="M 22,0 L 22,7.21875 L 16.21875,3.875 L 14.6875,6.5 L 22,10.71875 L 22,37.28125 L 14.6875,41.5 L 16.21875,44.125 L 22,40.78125 L 22,48 L 26,48 L 26,40.78125 L 31.78125,44.125 L 33.3125,41.5 L 26,37.28125 L 26,10.71875 L 33.3125,6.5 L 31.78125,3.875 L 26,7.21875 L 26,0 L 22,0 z "
       id="path3220" />
  </g>
</svg>
