<?xml version="1.0" encoding="UTF-8" standalone="no"?>
<!-- Created with Inkscape (http://www.inkscape.org/) -->
<svg
   xmlns:dc="http://purl.org/dc/elements/1.1/"
   xmlns:cc="http://web.resource.org/cc/"
   xmlns:rdf="http://www.w3.org/1999/02/22-rdf-syntax-ns#"
   xmlns:svg="http://www.w3.org/2000/svg"
   xmlns="http://www.w3.org/2000/svg"
   xmlns:sodipodi="http://sodipodi.sourceforge.net/DTD/sodipodi-0.dtd"
   xmlns:inkscape="http://www.inkscape.org/namespaces/inkscape"
   width="48px"
   height="48px"
   id="svg1306"
   sodipodi:version="0.32"
   inkscape:version="0.45.1"
   sodipodi:docbase="/home/qwerty/.icons/MonoIce/scalable/status"
   sodipodi:docname="stock_weather-cloudy.svg"
   inkscape:output_extension="org.inkscape.output.svg.inkscape">
  <defs
     id="defs1308">
    <linearGradient
       id="linearGradient3389">
      <stop
         style="stop-color:white;stop-opacity:1"
         offset="0"
         id="stop3391" />
      <stop
         id="stop3397"
         offset="0.26506025"
         style="stop-color:white;stop-opacity:1;" />
      <stop
         style="stop-color:#babdb6;stop-opacity:1"
         offset="1"
         id="stop3393" />
    </linearGradient>
  </defs>
  <sodipodi:namedview
     id="base"
     pagecolor="#ffffff"
     bordercolor="#666"
     borderopacity="1"
     inkscape:pageopacity="0.0"
     inkscape:pageshadow="2"
     inkscape:zoom="11.313708"
     inkscape:cx="33.417105"
     inkscape:cy="16.635044"
     inkscape:current-layer="layer1"
     showgrid="true"
     inkscape:grid-bbox="true"
     inkscape:document-units="px"
     inkscape:window-width="1051"
     inkscape:window-height="900"
     inkscape:window-x="227"
     inkscape:window-y="71"
     inkscape:showpageshadow="false"
     showborder="true"
     showguides="true"
     inkscape:guide-bbox="true" />
  <metadata
     id="metadata1311">
    <rdf:RDF>
      <cc:Work
         rdf:about="">
        <dc:format>image/svg+xml</dc:format>
        <dc:type
           rdf:resource="http://purl.org/dc/dcmitype/StillImage" />
        <cc:license
           rdf:resource="" />
      </cc:Work>
    </rdf:RDF>
  </metadata>
  <g
     id="layer1"
     inkscape:label="Layer 1"
     inkscape:groupmode="layer">
    <path
       style="fill:#000000;fill-opacity:1;stroke:none;stroke-width:2;stroke-linecap:round;stroke-linejoin:miter;stroke-miterlimit:4;stroke-dasharray:none;stroke-dashoffset:1.20000057;stroke-opacity:1"
       d="M 26.875,9 C 25.125412,9 23.698255,10.354474 23.53125,12.0625 C 20.713099,12.470161 18.276121,14.011853 16.71875,16.25 C 16.131804,16.004743 15.570954,15.6875 14.90625,15.6875 C 14.768986,15.6875 14.688019,15.736445 14.5625,15.75 C 14.140472,14.658854 13.26331,13.78125 12.03125,13.78125 C 10.435285,13.78125 9.125,15.091477 9.125,16.6875 C 9.1249999,17.680189 9.7278224,18.437924 10.5,18.96875 C 10.401392,19.243818 10.328863,19.515824 10.28125,19.8125 C 9.906454,19.71396 9.5965789,19.5 9.1875,19.5 C 7.6784592,19.499999 6.4448065,20.315349 5.5625,21.40625 C 5.0649221,21.123978 4.5120241,20.9375 3.90625,20.9375 C 2.046271,20.937499 0.53125,22.453024 0.53125,24.3125 C 0.53125007,26.171974 2.0462709,27.71875 3.90625,27.71875 C 4.5170316,27.718749 5.0621042,27.505389 5.5625,27.21875 C 6.4448067,28.30965 7.6784604,29.124999 9.1875,29.125 C 9.8474344,29.124999 10.433692,28.960139 11,28.71875 C 12.009328,30.375312 13.791252,31.53125 15.875,31.53125 C 17.226436,31.531249 18.399012,30.962294 19.375,30.1875 C 20.986547,31.277758 22.880519,32 24.96875,32 C 27.75024,31.999999 30.172373,30.761861 32,28.9375 C 33.002178,29.625799 34.159618,30.09375 35.46875,30.09375 C 37.002544,30.09375 38.354022,29.445479 39.4375,28.53125 C 40.000412,28.803431 40.546801,29.125 41.21875,29.125 C 42.16805,29.124999 42.975293,28.737616 43.6875,28.21875 C 44.079399,28.486222 44.527761,28.65625 45.03125,28.65625 C 46.363203,28.65625 47.468753,27.551323 47.46875,26.21875 C 47.468749,25.021162 46.522268,24.129653 45.375,23.9375 C 44.96006,21.973826 43.301724,20.46875 41.21875,20.46875 C 41.010868,20.46875 40.824043,20.533958 40.625,20.5625 C 39.935342,19.496151 38.96853,18.707665 37.78125,18.21875 C 37.818059,18.016079 37.90625,17.8442 37.90625,17.625 C 37.906252,15.502066 36.155237,13.78125 34.03125,13.78125 C 33.145171,13.78125 32.380293,14.14848 31.71875,14.65625 C 31.17227,14.158241 30.578924,13.71196 29.9375,13.34375 C 30.038889,13.015328 30.25,12.728819 30.25,12.375 C 30.25,10.515522 28.734976,9 26.875,9 z "
       id="path2077"
       sodipodi:nodetypes="cccscssccscssscscscscscscsscsccssccsc" />
  </g>
</svg>
